<svg id="Group_2" data-name="Group 2" xmlns="http://www.w3.org/2000/svg" width="125" height="65.51" viewBox="0 0 125 65.51">
  <path id="Path_12" data-name="Path 12" d="M82.651,253.96a32.754,32.754,0,0,1-64.894,6.313c-.048-.243-.091-.487-.134-.731a26.423,26.423,0,0,1-.433-4.152c-.019-.281-.033-.555-.041-.829-.006-.2-.009-.4-.009-.6a32.821,32.821,0,0,1,.308-4.5q.054-.4.117-.788a32.76,32.76,0,0,1,64.356-1.607c.013.055.024.111.037.166,0,.008,0,.015.005.023.012.063.023.129.04.193.005.021.009.042.013.064.008.045.017.094.024.143.005.024.009.049.013.075.133.664.248,1.345.315,2.027q.015.1.027.2l0,.035c0,.024.006.049.009.073.01.107.018.214.027.322.017.085.03.171.04.256.008.068.014.135.021.2.008.1.015.192.022.288A26.362,26.362,0,0,1,82.651,253.96Z" transform="translate(-17.14 -221.206)" fill="#009eda"/>
  <path id="Path_13" data-name="Path 13" d="M82.556,419.651c-.006-.068-.013-.135-.021-.2-.018-.194-.04-.388-.067-.578,0-.024-.005-.049-.009-.073l0-.035q-.012-.1-.027-.2c-.067-.681-.183-1.362-.315-2.027,0-.026-.008-.05-.013-.075-.008-.049-.017-.1-.024-.143,0-.022-.008-.044-.013-.064-.012-.066-.026-.129-.04-.193,0-.008,0-.015-.005-.023-.013-.055-.024-.111-.037-.166H80.253l-2.874,9.584-2.857-9.584H71.6a6.482,6.482,0,0,0-2.119-.33c-3.342,0-5.8,2.494-6.272,6.208v-2.1c0-2.667-1.375-4.084-3.937-4.084a5.444,5.444,0,0,0-3.73,1.647v-1.313h-3.46v5.235c-.6-3.451-2.762-5.589-5.875-5.589-3.3,0-5.705,2.491-6.169,6.2v-5.763H36.58v1.187a4.207,4.207,0,0,0-3.251-1.521c-2.974,0-4.925,2.3-5.292,6.06V420.52c0-3.167-1.917-4.98-5.314-4.98a7.362,7.362,0,0,0-5.1,1.936q-.064.392-.117.788l1.195,2.131.291-.292a4.351,4.351,0,0,1,3.23-1.5,2.085,2.085,0,0,1,2.354,2.292v1.23a4.875,4.875,0,0,0-3.333-1.209,4.426,4.426,0,0,0-4.035,2.448c.008.274.022.548.041.829a26.423,26.423,0,0,0,.433,4.152c.042.245.086.488.134.731a4.476,4.476,0,0,0,3.427,1.571,4.68,4.68,0,0,0,3.313-1.291v.917h3.48v-5.9c.367,3.752,2.318,6.021,5.292,6.021a4.329,4.329,0,0,0,3.251-1.584v1.042a2.739,2.739,0,0,1-2.959,3.042,4.218,4.218,0,0,1-3.333-1.438L30,431.1l-1.521,2.813.166.166a7.034,7.034,0,0,0,5.126,1.833c3.98,0,6.251-2.251,6.272-6.084v-5.4c.47,3.766,2.927,6.212,6.439,6.212a6.564,6.564,0,0,0,5.021-2.209l.167-.207-1.792-2.209-.25.292a3.886,3.886,0,0,1-2.9,1.375c-1.833,0-3.063-1.23-3.272-3.333h8.626v5.959h3.46v-9.918a3.19,3.19,0,0,1,2.521-1.688c1.187,0,1.667.563,1.667,1.917v9.689h3.458l.021-.021v-5.87c.473,3.73,2.929,6.224,6.272,6.224a5.344,5.344,0,0,0,4.46-2l.146-.166-1.813-2.439-.25.313a2.737,2.737,0,0,1-2.251,1.188c-2.146,0-3.1-2.23-3.1-4.438,0-2.189.937-4.4,3.1-4.4a2.594,2.594,0,0,1,2.251,1.146l.2.25,3.363,10.134L75,431.8c-.3.814-.664.946-1.279.946a1.9,1.9,0,0,1-.731-.133l-.381-.232-.548,3.221.248.084a6.348,6.348,0,0,0,1.645.232c2.275-.049,3.57-1.012,4.384-3.272l4.236-12.707C82.572,419.843,82.564,419.747,82.556,419.651Zm-58.02,7.182a2.475,2.475,0,0,1-2.292,1.209,2.259,2.259,0,0,1,0-4.5,2.546,2.546,0,0,1,2.292,1.188Zm12.044-1.291a2.9,2.9,0,0,1-2.4,1.645c-2.4,0-2.646-2.959-2.646-4.23,0-2.666.979-4.25,2.646-4.25a2.927,2.927,0,0,1,2.4,1.667Zm6.875-3.834c.147-1.521.917-3.167,2.688-3.167,2.23,0,2.625,2.209,2.709,3.167Z" transform="translate(-17.2 -390.008)" fill="#fff"/>
  <path id="Path_14" data-name="Path 14" d="M563.3,416.553c-3.479,0-5.042,2.208-5.521,5.4l-.626,4.251c-.5,3.188.417,5.4,3.875,5.4,3.355,0,4.939-2.083,5.459-5.167h-3.021l-.063.312c-.25,1.709-.958,2.4-2.042,2.4s-1.563-.729-1.312-2.4l.312-2.1h6.376l.438-2.688C567.68,418.761,566.763,416.553,563.3,416.553Zm.917,4.833-.125.751h-3.354l.125-.751c.25-1.709.958-2.4,2.042-2.4S564.47,419.719,564.22,421.387Zm-13.065-2.126v.022l0-.022Zm-9.48-2.73c-3.48,0-5.042,2.209-5.522,5.4l-.624,4.25c-.5,3.188.417,5.4,3.875,5.4,3.48,0,5.042-2.209,5.522-5.4l.624-4.25C546.05,418.741,545.134,416.531,541.675,416.531Zm.917,4.855-.812,5.355c-.25,1.709-.959,2.4-2.042,2.4s-1.563-.729-1.313-2.4l.812-5.355c.251-1.709.959-2.4,2.042-2.4S542.842,419.719,542.592,421.387Zm-9.293-4.876c-1.521,0-2.312.521-3.5,1.792h-.062l.229-1.521H527.09l-2.105,14.043-.438,2.9c-.166,1.1-.479,1.354-1.75,1.562l-.084.667,1.438-.021,3.145-.021.855-5.834c1.021.979,1.584,1.521,2.9,1.521,1.9,0,3.292-1.416,3.689-4.063l1.042-6.959C536.175,417.928,535.2,416.511,533.3,416.511Zm-.667,4.835-.812,5.4c-.291,1.917-1,2.355-1.813,2.355a2.5,2.5,0,0,1-1.6-.751l1.313-8.6a3.413,3.413,0,0,1,1.833-.751C532.341,418.991,532.924,419.428,532.632,421.345Zm-6.458-4.626a.793.793,0,0,1-.751.542,6.461,6.461,0,0,0-.855-.146,3.863,3.863,0,0,0-2.249-.626,4.623,4.623,0,0,0-4.626,3.875c-.583,3.959,4.938,4.917,4.563,7.417a1.512,1.512,0,0,1-1.563,1.272c-1.375,0-1.666-1.084-1.666-2.293l-2.772.73c.063,2.542,1.354,4.063,4,4.063a4.51,4.51,0,0,0,4.835-3.918c.667-4.313-4.9-5.23-4.542-7.5a1.387,1.387,0,0,1,1.5-1.146c.98,0,1.438.667,1.459,1.813l2.48-.438c.209.292.708-3.626.708-3.646Z" transform="translate(-450.68 -390.834)"/>
  <path id="Path_15" data-name="Path 15" d="M769.574,416.647a4.716,4.716,0,0,0-3.73,1.98h-.063l.25-1.688h-2.875L761.51,427.9l-.229,1.293c-.188,1.354-.792,1.437-1.688,1.6l-.084.667h4.5l1.5-9.981a2.31,2.31,0,0,1,2.333-1.958,6.042,6.042,0,0,1,1.9.291l.458-3.167Zm-23.9,2.75v.022h1.23l0-.022Zm-5.48.022,0-.022h0Z" transform="translate(-645.199 -390.97)"/>
  <path id="Path_16" data-name="Path 16" d="M749.117,403.823c-.125.751.147,1.188.855,1.188h1L750.6,407.6a4.854,4.854,0,0,1-1.521.166c-2.271,0-3.4-1.062-3.042-3.272l1.354-9.064H745.7v.022h-.792l-1.271,8.375c-.125.751.146,1.188.834,1.188h1L745.1,407.6a4.864,4.864,0,0,1-1.521.166c-2.271,0-3.4-1.062-3.042-3.272l1.354-9.064h-1.663l.371-2.458h1.667l.583-3.918h3.022l-.583,3.918h2.458l.583-3.918h3.022l-.583,3.918h2.021l-.376,2.48h-2.02Z" transform="translate(-645.224 -366.999)"/>
</svg>
