<?xml version="1.0" encoding="utf-8"?>
<!-- Generator: Adobe Illustrator 24.2.1, SVG Export Plug-In . SVG Version: 6.00 Build 0)  -->
<svg version="1.1" id="Layer_1" xmlns="http://www.w3.org/2000/svg" xmlns:xlink="http://www.w3.org/1999/xlink" x="0px" y="0px"
	 viewBox="0 0 1000 1000" style="enable-background:new 0 0 1000 1000;" xml:space="preserve">
<style type="text/css">
	.st0{fill:#FFFFFF;}
</style>
<path d="M979.11,500.31c0,264.38-214.36,478.74-478.74,478.74c-232.73,0-426.85-166.22-469.74-386.47
	c-0.7-3.56-1.34-7.11-1.96-10.69c-3.65-19.91-5.83-40.06-6.32-60.69c-0.28-4.1-0.49-8.11-0.6-12.12c-0.09-2.9-0.13-5.81-0.13-8.77
	c0-22.3,1.52-44.26,4.5-65.75c0.53-3.86,1.09-7.7,1.71-11.52C64.81,195.57,262.33,21.57,500.38,21.57
	c229.66,0,421.7,162.16,468.07,377.98c0.19,0.81,0.36,1.62,0.55,2.43c0.02,0.11,0.06,0.23,0.08,0.34c0.17,0.92,0.34,1.88,0.58,2.82
	c0.08,0.3,0.13,0.62,0.19,0.94c0.11,0.66,0.24,1.37,0.36,2.09c0.08,0.36,0.13,0.72,0.19,1.09c1.94,9.71,3.63,19.67,4.61,29.62
	c0.15,0.98,0.28,1.96,0.4,2.94c0.02,0.17,0.04,0.34,0.06,0.51c0.06,0.36,0.09,0.72,0.13,1.07c0.15,1.56,0.26,3.12,0.4,4.7
	c0.24,1.24,0.43,2.5,0.58,3.74c0.11,1,0.21,1.98,0.3,2.97c0.11,1.41,0.23,2.8,0.32,4.22C978.64,472.63,979.11,486.48,979.11,500.31z
	"/>
<path class="st0" d="M976.85,454.83c-0.09-1-0.19-1.98-0.3-2.97c-0.26-2.84-0.58-5.66-0.98-8.45c-0.04-0.36-0.08-0.72-0.13-1.07
	c-0.02-0.17-0.04-0.34-0.06-0.51c-0.11-0.98-0.24-1.96-0.4-2.94c-0.98-9.95-2.67-19.91-4.61-29.62c-0.06-0.38-0.11-0.73-0.19-1.09
	c-0.11-0.72-0.24-1.43-0.36-2.09c-0.06-0.32-0.11-0.64-0.19-0.94c-0.17-0.96-0.38-1.88-0.58-2.82c-0.02-0.11-0.06-0.23-0.08-0.34
	c-0.19-0.81-0.36-1.62-0.55-2.43h-25.25l-42,140.08l-41.76-140.08h-42.72c-8.66-2.97-18.89-4.82-30.97-4.82
	c-48.85,0-84.76,36.45-91.66,90.74v-30.75c0-38.97-20.1-59.69-57.55-59.69c-21.62,0-41.42,10.97-54.52,24.07v-19.19h-50.56v76.51
	c-8.73-50.43-40.37-81.69-85.87-81.69c-48.29,0-83.38,36.41-90.16,90.63v-84.23h-50.55v17.35c-12.18-14.3-28.94-22.22-47.52-22.22
	c-43.47,0-71.98,33.63-77.34,88.58v-17.31c0-46.29-28.02-72.79-77.66-72.79c-28.74,0-54.99,9.97-74.52,28.3
	c-0.62,3.82-1.19,7.66-1.71,11.52l17.46,31.14l4.25-4.27c14.32-14.92,29.85-21.92,47.21-21.92c22.22,0,34.4,11.57,34.4,33.5v17.97
	c-12.18-11.27-29.53-17.67-48.72-17.67c-22.92,0-47.1,11.44-58.98,35.77c0.11,4.01,0.32,8.02,0.6,12.12
	c0.49,20.62,2.67,40.78,6.32,60.69c0.62,3.58,1.26,7.13,1.96,10.69c12.82,15.22,31.56,22.96,50.09,22.96
	c18.57,0,36.24-6.7,48.42-18.87v13.4h50.87v-86.17c5.36,54.84,33.87,87.99,77.34,87.99c17.67,0,35.02-8.52,47.52-23.15v15.22
	c0,40.2-30.15,44.47-43.24,44.47c-20.1,0-36.55-7.02-48.72-21.02l-4.27-5.17l-22.22,41.12l2.43,2.43
	c19.8,18.27,42.94,26.8,74.92,26.8c58.17,0,91.36-32.89,91.66-88.92v-78.92c6.87,55.04,42.77,90.8,94.11,90.8
	c28.92,0,54.82-11.27,73.39-32.29l2.45-3.03l-26.19-32.29l-3.65,4.27c-10.67,12.48-26.5,20.1-42.34,20.1
	c-26.8,0-44.77-17.97-47.82-48.72h126.08v87.09h50.56V465.7c7.3-12.5,21.32-24.67,36.85-24.67c17.35,0,24.37,8.22,24.37,28.02
	v141.61h50.55l0.3-0.3v-85.79c6.91,54.52,42.81,90.97,91.66,90.97c27.72,0,50.26-9.75,65.19-29.24l2.13-2.43l-26.5-35.64l-3.65,4.57
	c-9.45,11.87-19.8,17.37-32.89,17.37c-31.37,0-45.37-32.59-45.37-64.87c0-31.99,13.7-64.26,45.37-64.26
	c13.7,0,24.05,4.87,32.89,16.75l2.92,3.65l49.15,148.12l-8.51,22.83c-4.37,11.89-9.71,13.83-18.69,13.83
	c-3.65,0-8.26-0.72-10.69-1.94l-5.57-3.39l-8.02,47.08l3.63,1.22c6.08,2.18,18.22,3.39,24.05,3.39
	c33.25-0.72,52.18-14.79,64.08-47.82l61.91-185.72C977.08,457.63,976.97,456.24,976.85,454.83z M128.85,559.79
	c-6.1,11.27-18.27,17.67-33.5,17.67c-17.97,0-30.15-13.7-30.15-32.89c0-19.5,12.18-32.89,30.15-32.89c9.43,0,25.27,2.75,33.5,17.37
	V559.79z M304.87,540.92c-7,14-21.62,24.05-35.02,24.05c-35.02,0-38.67-43.24-38.67-61.82c0-38.97,14.3-62.12,38.67-62.12
	c13.1,0,28.32,10.35,35.02,24.37V540.92z M405.36,484.88c2.15-22.22,13.4-46.29,39.29-46.29c32.59,0,38.37,32.29,39.59,46.29H405.36
	z"/>
</svg>
