<?xml version="1.0" encoding="utf-8"?>
<!-- Generator: Adobe Illustrator 24.2.1, SVG Export Plug-In . SVG Version: 6.00 Build 0)  -->
<svg version="1.1" id="Layer_1" xmlns="http://www.w3.org/2000/svg" xmlns:xlink="http://www.w3.org/1999/xlink" x="0px" y="0px"
	 viewBox="0 0 1000 1000" style="enable-background:new 0 0 1000 1000;" xml:space="preserve">
<style type="text/css">
	.st0{fill:#FFFFFF;}
</style>
<circle cx="500" cy="500" r="481.98"/>
<g>
	<path class="st0" d="M420.41,153.71c0,0,89.64,145.29,99.57,194.22c9.93,48.93,4.5,113.45,4.5,113.45l-9.83,120.17
		c0,0-65.66-109.77-91.9-170.75c-6.77-15.73-13.43-41.28-14.79-69.3C404.02,260.88,420.41,153.71,420.41,153.71z"/>
	<path class="st0" d="M437.9,240.71c0,0,20.7,134.64,28.28,166.95c7.58,32.31,44.83,154.85,44.83,154.85s-19.89-121.63-27.69-159.47
		C476.96,372.2,437.9,240.71,437.9,240.71z"/>
</g>
<g>
	<path class="st0" d="M739.73,229.77c0,0-37.17,155.64-63.89,195.83c-26.72,40.19-74.52,80.65-74.52,80.65l-86.67,75.31
		c0,0,28.4-119.34,52.31-178.82c6.17-15.34,19.12-37.33,37.35-57.42C656.77,287.49,739.73,229.77,739.73,229.77z"/>
	<path class="st0" d="M680.36,320.33c0,0-77.06,109.74-94.01,136.97s-60.39,101.64-60.39,101.64s48.71-63.08,69.29-94.25
		C612.02,439.3,680.36,320.33,680.36,320.33z"/>
</g>
<g>
	<path class="st0" d="M825.53,513.41c0,0-103.47,71.45-151.66,74.07c-48.2,2.62-73.72,1.03-73.72,1.03l-85.51-6.96
		c0,0,47.36-25.58,105.5-55.84c25.37-13.75,59.86-20.04,86.97-18.9C785.12,510.07,825.53,513.41,825.53,513.41z"/>
	<path class="st0" d="M726.88,534.39c0,0-67.32,10.95-98.5,18.48c-31.35,7.57-94.03,24.74-94.03,24.74s57.69-8.52,94.27-16.08
		C659.64,555.11,726.88,534.39,726.88,534.39z"/>
</g>
<g>
	<path class="st0" d="M703.97,678.78c0,0-57.59-10.17-85.52-18.5c-20.29-6.05-24.75-7.42-42.31-20.56
		c-17.3-12.95-61.5-58.17-61.5-58.17s42.98,6.18,74.86,16.61c27.33,8.94,37.71,12.17,57.55,30.68
		C670.05,650.3,703.97,678.78,703.97,678.78z"/>
	<path class="st0" d="M651.37,652.87c0,0-17.98-15.5-46.73-29.73c-28.9-14.31-77.42-35.18-77.42-35.18s35.16,20.15,68.07,37.81
		C623.2,640.74,651.37,652.87,651.37,652.87z"/>
</g>
<g>
	<path class="st0" d="M163.68,362.83c0,0,95.98,119.81,137.02,145.22c41.04,25.4,99.03,43.23,99.03,43.23l114.92,30.28
		c0,0-79.53-95.16-126.05-139.28c-12-11.38-31.54-23.33-56.49-34C260.33,377.57,163.68,362.83,163.68,362.83z"/>
	<path class="st0" d="M288.17,434.92c0,0,66.93,36.06,93.68,53.75c26.76,17.7,113.19,78.18,113.19,78.18s-89.63-49.34-121.33-69.1
		C347.88,481.65,288.17,434.92,288.17,434.92z"/>
</g>
<g>
	<path class="st0" d="M212.56,647.45c0,0,121.01,12.29,155.5,4.81c34.49-7.48,69.84-29.21,69.84-29.21l76.75-41.5
		c0,0-97.18-10.06-144.35-10.05c-12.17,0-27.77,1.4-46.22,8.59C270.99,600.78,212.56,647.45,212.56,647.45z"/>
	<path class="st0" d="M307.11,625.76c0,0,92.93-26.75,116.02-31c23.08-4.25,74.93-11.55,74.93-11.55s-45.68,14.71-72.39,20.41
		C403.9,608.27,307.11,625.76,307.11,625.76z"/>
</g>
<g>
	<path class="st0" d="M395.55,716.65c0,0,42.96-21.66,69.92-44.37c26.99-22.73,37.14-60.18,37.14-60.18l12.04-30.55
		c0,0-21.93,11.21-59.22,40.09c-9.62,7.45-21.11,18.1-31.3,35.08C394.79,705.55,395.55,716.65,395.55,716.65z"/>
	<path class="st0" d="M442.24,664.85c0,0,15.01-20.38,30.66-37.86c15.66-17.49,34.15-34.15,34.15-34.15s-12.57,16.31-30.2,37.17
		C462.48,647,442.24,664.85,442.24,664.85z"/>
</g>
<path class="st0" d="M516.05,587.96l94.9,222.95c0,0-8.81,11.18-16.61-3.73c-2.51-4.81-11.95-26.37-23.31-54.46
	c-9.48-23.45-20.3-51.45-29.56-78.06C527.44,634.32,516.05,587.96,516.05,587.96z"/>
</svg>
