<svg xmlns="http://www.w3.org/2000/svg" width="110" height="46.863" viewBox="0 0 110 46.863">
  <g id="Group_13" data-name="Group 13" transform="translate(-7.449 -73.332)">
    <g id="Group_6" data-name="Group 6" transform="translate(45.461 73.332)">
      <path id="Path_24" data-name="Path 24" d="M88.4,73.332s6.354,10.3,7.056,13.765a34.218,34.218,0,0,1,.318,8.041l-.7,8.517s-4.654-7.78-6.513-12.1a15.013,15.013,0,0,1-1.048-4.912A81.182,81.182,0,0,1,88.4,73.332Z" transform="translate(-87.478 -73.332)" fill="#58d208"/>
      <path id="Path_25" data-name="Path 25" d="M92.037,86.311s1.467,9.543,2,11.832,3.177,10.975,3.177,10.975-1.41-8.621-1.963-11.3C94.806,95.631,92.037,86.311,92.037,86.311Z" transform="translate(-89.872 -80.146)" fill="#4ab106"/>
    </g>
    <g id="Group_7" data-name="Group 7" transform="translate(53.067 78.722)">
      <path id="Path_26" data-name="Path 26" d="M119.443,84.68s-2.634,11.031-4.529,13.879a33.447,33.447,0,0,1-5.282,5.716l-6.143,5.337A122.554,122.554,0,0,1,107.2,96.938a14.634,14.634,0,0,1,2.648-4.07A67.5,67.5,0,0,1,119.443,84.68Z" transform="translate(-103.49 -84.68)" fill="#58d208"/>
      <path id="Path_27" data-name="Path 27" d="M116.12,98.193s-5.462,7.778-6.664,9.708-4.281,7.2-4.281,7.2,3.452-4.471,4.911-6.68C111.276,106.624,116.12,98.193,116.12,98.193Z" transform="translate(-104.375 -91.775)" fill="#4ab106"/>
    </g>
    <g id="Group_8" data-name="Group 8" transform="translate(53.068 98.349)">
      <path id="Path_28" data-name="Path 28" d="M125.526,126.478s-7.333,5.064-10.749,5.25a49.932,49.932,0,0,1-5.224.073l-6.06-.493s3.357-1.813,7.477-3.958a12.728,12.728,0,0,1,6.164-1.339C122.661,126.241,125.526,126.478,125.526,126.478Z" transform="translate(-103.493 -126.001)" fill="#58d208"/>
      <path id="Path_29" data-name="Path 29" d="M120.075,130.134s-4.771.776-6.981,1.31-6.665,1.753-6.665,1.753,4.089-.6,6.681-1.14C115.309,131.6,120.075,130.134,120.075,130.134Z" transform="translate(-105.035 -128.171)" fill="#4ab106"/>
    </g>
    <g id="Group_9" data-name="Group 9" transform="translate(53.067 103.654)">
      <path id="Path_30" data-name="Path 30" d="M116.909,144.063s-4.082-.72-6.061-1.311a7,7,0,0,1-3-1.457c-1.226-.918-4.359-4.123-4.359-4.123a37.868,37.868,0,0,1,5.305,1.177,8.538,8.538,0,0,1,4.078,2.175C114.5,142.044,116.909,144.063,116.909,144.063Z" transform="translate(-103.49 -137.171)" fill="#58d208"/>
      <path id="Path_31" data-name="Path 31" d="M114.166,142.727a17.258,17.258,0,0,0-3.312-2.107c-2.049-1.014-5.487-2.494-5.487-2.494s2.492,1.428,4.824,2.68C112.169,141.868,114.166,142.727,114.166,142.727Z" transform="translate(-104.476 -137.673)" fill="#4ab106"/>
    </g>
    <g id="Group_10" data-name="Group 10" transform="translate(28.191 88.153)">
      <path id="Path_32" data-name="Path 32" d="M51.118,104.535s6.8,8.492,9.711,10.293a35.9,35.9,0,0,0,7.019,3.064l8.146,2.146s-5.637-6.745-8.933-9.872a13.968,13.968,0,0,0-4-2.41A58.621,58.621,0,0,0,51.118,104.535Z" transform="translate(-51.118 -104.535)" fill="#58d208"/>
      <path id="Path_33" data-name="Path 33" d="M69.7,115.291s4.743,2.555,6.64,3.809,8.023,5.541,8.023,5.541-6.352-3.5-8.6-4.9C73.927,118.6,69.7,115.291,69.7,115.291Z" transform="translate(-60.872 -110.182)" fill="#4ab106"/>
    </g>
    <g id="Group_11" data-name="Group 11" transform="translate(31.655 102.942)">
      <path id="Path_34" data-name="Path 34" d="M58.411,141.055s8.577.871,11.021.341a18.756,18.756,0,0,0,4.949-2.07l5.44-2.942s-6.888-.713-10.231-.712a8.781,8.781,0,0,0-3.276.608A37.065,37.065,0,0,0,58.411,141.055Z" transform="translate(-58.411 -135.672)" fill="#58d208"/>
      <path id="Path_35" data-name="Path 35" d="M72.522,140.435s6.587-1.9,8.222-2.2,5.311-.818,5.311-.818-3.238,1.042-5.131,1.447C79.382,139.2,72.522,140.435,72.522,140.435Z" transform="translate(-65.82 -136.59)" fill="#4ab106"/>
    </g>
    <g id="Group_12" data-name="Group 12" transform="translate(44.625 103.655)">
      <path id="Path_36" data-name="Path 36" d="M85.718,146.748a30.928,30.928,0,0,0,4.955-3.144,9.545,9.545,0,0,0,2.633-4.264l.854-2.166a30.461,30.461,0,0,0-4.2,2.841,8.79,8.79,0,0,0-2.219,2.487C85.663,145.962,85.718,146.748,85.718,146.748Z" transform="translate(-85.718 -137.174)" fill="#58d208"/>
      <path id="Path_37" data-name="Path 37" d="M92.685,143.961s1.063-1.444,2.173-2.683,2.42-2.421,2.42-2.421-.89,1.157-2.14,2.634A28.314,28.314,0,0,1,92.685,143.961Z" transform="translate(-89.376 -138.057)" fill="#4ab106"/>
    </g>
    <path id="Path_38" data-name="Path 38" d="M103.7,138.127l6.726,15.8s-.625.792-1.177-.264c-.178-.341-.847-1.869-1.652-3.86-.672-1.662-1.44-3.647-2.1-5.533C104.506,141.413,103.7,138.127,103.7,138.127Z" transform="translate(-50.533 -34.019)" fill="#58d208"/>
    <path id="Path_39" data-name="Path 39" d="M26.1,125.65c.038-3.643-.038-6.711-.038-6.711s1.063-9.9-8.443-10.317c0,0-4.636-.153-7.2,1.074a.709.709,0,0,0-.6.982l.915,3.387s.121.409.824.165a14.575,14.575,0,0,1,4.348-.738c1.963,0,4.521.722,4.675,3.238,0,0-11.615-2.241-13.109,7.194-.195,4.595,2.287,6.6,5.212,7.187a11.663,11.663,0,0,0,4.491.192,7.409,7.409,0,0,0,4.065-2.163s1.188,2.354,3.374,2.308a4.029,4.029,0,0,0,3.183-1.5S26.058,129.294,26.1,125.65Zm-5.534-1.688a3.385,3.385,0,0,1-2.435,3.147,6.194,6.194,0,0,1-3.031.114,2.329,2.329,0,0,1-2.2-1.929c-.391-5.579,7.668-4.2,7.668-4.2v2.871Z" transform="translate(0 -18.525)"/>
    <path id="Path_40" data-name="Path 40" d="M49.942,91.708l-.022,25.267s.059,4.1,3.021,4.649a4.681,4.681,0,0,0,4.832-2.207s-2.232-.482-2.232-4.21V90.319s.152-.52-.485-.4-4.793,1.133-4.793,1.133A.742.742,0,0,0,49.942,91.708Z" transform="translate(-22.298 -8.699)"/>
    <path id="Path_41" data-name="Path 41" d="M66.632,91.708l-.022,25.267s.059,4.1,3.021,4.649a4.681,4.681,0,0,0,4.832-2.207s-2.232-.482-2.232-4.21V90.319s.152-.52-.485-.4-4.793,1.133-4.793,1.133A.742.742,0,0,0,66.632,91.708Z" transform="translate(-31.061 -8.699)"/>
    <path id="Path_42" data-name="Path 42" d="M172.9,89.872c-.674.093-4.606,1.137-4.606,1.137s-.338.093-.338.738.031,7.926.031,7.926-5.377-2.213-9.8.584a10.529,10.529,0,0,0-4.454,5.468l-.031-6.114s-.031-.43-.338-.462l-4.978.093a1.359,1.359,0,0,0-.153.584l-.061,14.9a6.061,6.061,0,0,1-4.916,2.642,3.411,3.411,0,0,1-3.78-3.287V99.643s-.029-.4-.308-.4H134.34a.469.469,0,0,0-.308.462V104.9a10.649,10.649,0,0,0-8.878-6.084,9.842,9.842,0,0,0-5.468,1.2V90.118s-.054-.356-.566-.255-4.689,1.207-4.689,1.207a.473.473,0,0,0-.248.44l.033,29.746v.006a.36.36,0,0,0,.409.312h2.7l1.033-1.371s.138-.3.516.04a8.52,8.52,0,0,0,5.081,1.331c2.8-.16,7.8-.694,10.264-6.967,0,.134.034,6.067,5.987,6.816,5.407.522,8.141-2,8.141-2v1.781h5.131l.124-5.99s1.506,5.559,7.127,6.143,7.405-1.382,7.405-1.382v1.2h5.347V90.425A.469.469,0,0,0,172.9,89.872ZM129.284,111.71c-.36,5.452-4.948,5.5-4.948,5.5s-1.32-.006-2.3,0a4.173,4.173,0,0,1-2.378-1.158V104.863a4.912,4.912,0,0,1,2.354-1.056h2.462a5.36,5.36,0,0,1,4.816,5.044v2.859ZM168,116.129s-1.121,1.4-3.994,1.05-4.452-1.016-5.468-4.941V109.7a5.076,5.076,0,0,1,.191-1.382,5.919,5.919,0,0,1,4.927-4.565c3.015-.279,4.345,1.191,4.345,1.191Z" transform="translate(-56.038 -8.67)"/>
  </g>
</svg>
