<svg xmlns="http://www.w3.org/2000/svg" width="60" height="35.666" viewBox="0 0 60 35.666">
  <g id="angi" transform="translate(-0.774 -0.989)">
    <path id="Path_1" data-name="Path 1" d="M19.441.989H12.526L10.161,15.734c-.05.007-.1.01-.152.017C4.784,16.446.729,20.844.774,25.762a6.983,6.983,0,0,0,1.98,4.98A5.894,5.894,0,0,0,7,32.577a5.582,5.582,0,0,0,1.817-.3c2.817-.97,3.752-3.333,4.19-5.5a.068.068,0,0,0,0,.008,6.794,6.794,0,0,0-3.623-6.212l-.778,4.915c-.25,1.395-.575,2.228-1.272,2.468a1.256,1.256,0,0,1-1.277-.368,2.491,2.491,0,0,1-.717-1.872,5.707,5.707,0,0,1,4.043-5.143,6.2,6.2,0,0,1,2.145-.355,7.638,7.638,0,0,1,2.382.407c2.882.68,4.628,3.737,5.06,7.047l.253,1.855h4.795ZM14.522,16.051,15.9,5.5h.17L17.6,17.274A13.534,13.534,0,0,0,14.522,16.051Zm46-7.1V29.527H55.739V8.949ZM46.557,36.656c6.283,0,6.768-3.582,6.768-8.643l.042-19.062H50.89a2.08,2.08,0,0,0-2.06,1.53l-.058.665-.232-.627c-.462-1.245-1.623-1.9-3.36-1.9a4.157,4.157,0,0,0-3.83,1.99,8.234,8.234,0,0,0-.937,4.11v8a8.924,8.924,0,0,0,.887,4.467,3.8,3.8,0,0,0,3.59,1.843A3.533,3.533,0,0,0,48.3,27.112l.285-.588v2.945c0,2.015-.125,3.442-1.733,3.442a1.517,1.517,0,0,1-1.567-1.733v-.058H40.455v.1a5.364,5.364,0,0,0,1.258,3.738A6.268,6.268,0,0,0,46.557,36.656ZM48.5,21.886c0,1.962-.277,3.025-1.733,3.025-1.38,0-1.567-1.318-1.567-2.608V15.134c0-1.615.58-2.4,1.775-2.4,1.343,0,1.525,1.318,1.525,2.608ZM60.774,4.424a2.621,2.621,0,0,1-5.242,0,2.593,2.593,0,0,1,2.6-2.642A2.645,2.645,0,0,1,60.774,4.424ZM30.331,15.593V29.529H25.5L25.462,8.951h2.683a2.1,2.1,0,0,1,2.1,1.618l.053.443.225-.385a4.031,4.031,0,0,1,3.747-2.01c2.748,0,4.143,1.772,4.143,5.268V29.531H33.631V14.967c0-1.482-.513-2.233-1.525-2.233C30.8,12.734,30.331,13.483,30.331,15.593Z" transform="translate(0)" fill="#ff6153"/>
    <path id="Path_2" data-name="Path 2" d="M15.507,32.371c.242-1.032.8-4.993.9-6.16a7.677,7.677,0,0,0-2.382-.407,6.236,6.236,0,0,0-2.145.355A6.792,6.792,0,0,1,15.507,32.371Z" transform="translate(-2.499 -5.583)" fill="#a03027"/>
  </g>
</svg>
