<svg xmlns="http://www.w3.org/2000/svg" width="60" height="34.972" viewBox="0 0 60 34.972">
  <g id="angi" transform="translate(0 -1.982)">
    <path id="Path_1" data-name="Path 1" d="M18.667,1.982H11.752L9.387,16.44c-.05.007-.1.01-.152.017C4.01,17.138-.044,21.45,0,26.273a6.782,6.782,0,0,0,1.98,4.883,5.953,5.953,0,0,0,4.248,1.8,5.663,5.663,0,0,0,1.817-.295c2.817-.95,3.752-3.268,4.19-5.389,0,0,0,0,0,.008A6.639,6.639,0,0,0,8.61,21.187l-.778,4.819c-.249,1.368-.575,2.185-1.271,2.42a1.274,1.274,0,0,1-1.278-.361,2.42,2.42,0,0,1-.716-1.834c-.024-2.41,1.91-4.3,4.043-5.044a6.315,6.315,0,0,1,2.146-.348,7.766,7.766,0,0,1,2.381.4c2.881.666,4.628,3.664,5.061,6.909l.252,1.819h4.8ZM13.748,16.751,15.123,6.405h.17l1.535,11.544A13.681,13.681,0,0,0,13.748,16.751Zm46-6.964V29.964H54.965V9.787ZM45.783,36.954c6.283,0,6.768-3.512,6.768-8.476l.042-18.689H50.115c-.891,0-1.984.655-2.059,1.5L48,11.942l-.232-.616c-.462-1.22-1.623-1.865-3.36-1.865a4.182,4.182,0,0,0-3.831,1.951,7.94,7.94,0,0,0-.935,4.03v7.845a8.616,8.616,0,0,0,.886,4.38,3.815,3.815,0,0,0,3.589,1.807A3.547,3.547,0,0,0,47.523,27.6l.285-.577v2.888c0,1.977-.125,3.376-1.733,3.376a1.5,1.5,0,0,1-1.567-1.7v-.056H39.68v.1a5.2,5.2,0,0,0,1.259,3.666A6.34,6.34,0,0,0,45.783,36.954Zm1.941-14.481c0,1.922-.276,2.965-1.733,2.965-1.38,0-1.566-1.293-1.566-2.558V15.852c0-1.584.58-2.354,1.775-2.354,1.342,0,1.524,1.294,1.524,2.559ZM60,5.351a2.621,2.621,0,1,1-2.642-2.59A2.62,2.62,0,0,1,60,5.351ZM29.557,16.3V29.966H24.73L24.688,9.789h2.684a2.092,2.092,0,0,1,2.1,1.586l.054.436.225-.378A4.049,4.049,0,0,1,33.5,9.463c2.749,0,4.143,1.736,4.143,5.165v15.34H32.857V15.688c0-1.452-.514-2.19-1.525-2.19C30.022,13.5,29.557,14.233,29.557,16.3Z" fill="#ff6153"/>
    <path id="Path_2" data-name="Path 2" d="M12.109,27.888c.241-1.129.8-5.466.9-6.743a7.03,7.03,0,0,0-2.375-.446,5.707,5.707,0,0,0-2.138.389A7.6,7.6,0,0,1,12.109,27.888Z" fill="#a03027"/>
  </g>
</svg>
