<?xml version="1.0" encoding="utf-8"?>
<!-- Generator: Adobe Illustrator 24.2.1, SVG Export Plug-In . SVG Version: 6.00 Build 0)  -->
<svg version="1.1" id="Layer_1" xmlns="http://www.w3.org/2000/svg" xmlns:xlink="http://www.w3.org/1999/xlink" x="0px" y="0px"
	 viewBox="0 0 1000 1000" style="enable-background:new 0 0 1000 1000;" xml:space="preserve">
<style type="text/css">
	.st0{fill:#DDDDDD;}
	.st1{fill:#FFFFFF;}
</style>
<circle cx="500" cy="500" r="493"/>
<g>
	<path class="st0" d="M476.1,660.11c3.59-15.49,12.01-74.92,13.52-92.39c-6.61-20.85-43.14-27.1-67.91-0.79
		C443.57,604.83,455.65,631.97,476.1,660.11z"/>
	<path class="st1" d="M572.59,273.14H468.88l-35.44,221.22c-0.78,0.03-1.56,0.11-2.34,0.25c-78.33,10.35-139.12,76.35-138.54,150.12
		c-0.38,27.87,10.32,54.76,29.76,74.74c16.57,17.51,39.59,27.46,63.7,27.54c9.25,0,18.43-1.53,27.18-4.53
		c42.31-14.38,56.4-49.97,62.91-82.43c1.87-36.24-17.43-71.9-54.42-93.1l-11.61,73.69c-3.59,20.92-8.59,33.5-19.05,37.1
		c-6.94,1.92-14.36-0.24-19.2-5.57c-7.36-7.43-11.27-17.6-10.78-28.04c-0.36-36.85,28.58-65.78,60.54-77.18
		c10.39-3.66,21.34-5.47,32.35-5.36c12.15,0.14,24.2,2.23,35.7,6.18c43.14,10.21,69.52,56.04,75.92,105.65l3.81,27.9h71.9
		L572.59,273.14z M498.75,499.03l20.71-158.17h2.55l23.01,176.61C530.39,509.49,514.86,503.29,498.75,499.03z"/>
</g>
</svg>
