<?xml version="1.0" encoding="utf-8"?>
<!-- Generator: Adobe Illustrator 24.2.1, SVG Export Plug-In . SVG Version: 6.00 Build 0)  -->
<svg version="1.1" id="Layer_1" xmlns="http://www.w3.org/2000/svg" xmlns:xlink="http://www.w3.org/1999/xlink" x="0px" y="0px"
	 viewBox="0 0 1000 1000" style="enable-background:new 0 0 1000 1000;" xml:space="preserve">
<style type="text/css">
	.st0{fill-rule:evenodd;clip-rule:evenodd;fill:#FFFFFF;}
	.st1{fill:#FFFFFF;}
</style>
<circle cx="500" cy="500" r="493"/>
<g>
	<g>
		<path class="st0" d="M507.67,226.35c-21.72,45.14-99.1,88.92-3.68,158.5c26.3,19.52,70.42,31.39,47.92,77.4
			c-2,3.51,1.49,4.48,4.62,1.85c32.24-37.33,84.68-96.39,40.52-144.48c-25.12-27.15-76.53-44.97-86.78-70.76
			c-1.99-4.99,0.2-12.2,2.95-17.9c2.21-5.29-4.36-6.69-5.53-4.62L507.67,226.35z"/>
		<path class="st0" d="M508.84,226.35c-21.72,45.14-99.1,88.92-3.68,158.5c26.3,19.52,70.42,31.39,47.92,77.4
			c-2,3.51,1.49,4.48,4.62,1.85c32.24-37.33,84.68-96.39,40.52-144.48c-25.12-27.15-76.53-44.97-86.78-70.76
			c-1.99-4.99,0.2-12.2,2.95-17.9c2.21-5.29-4.36-6.69-5.53-4.62L508.84,226.35z"/>
		<path class="st0" d="M463.07,382.59c-11.15,30.38-67.54,65.33,7.74,105.65c17.48,10.4,39.88,23.42,37.47,42.46
			c-0.93,2.43,1.26,2.77,2.92,0.8c24.78-28.51,43.44-69.07,13.05-96.39c-15.87-15.37-53.45-23.76-57.49-50.01
			c0.92-3.6-3.16-3.94-3.7-2.49L463.07,382.59z"/>
	</g>
	<path class="st1" d="M412.01,542.58h190.28v23.37H412.01V542.58z"/>
	<path class="st0" d="M412.23,541.93l-8.4,23.61l14.41,0.2L412.23,541.93z M602.12,541.93l8.4,23.61l-14.41,0.2L602.12,541.93z
		 M452.13,559.67l14.03,38.17l82.49-0.29l12.91-37.88H452.14H452.13z"/>
	<path class="st1" d="M352.06,617.98h25.12v112.88h-25.12V617.98z"/>
	<path class="st0" d="M376.82,617.96l40.68,0.36c20.19-0.54,35.64,35.47,9.55,54.81c34.79,9.72,22.23,56.85-5.65,56.93l-44.92,0.71
		l-6.36-20.52l42.8,0.36c13.56,0.39,14.42-26.98,0.36-27.24l-39.25,0.71l-1.07-21.21h35.01c15.95,0.66,11-24.78,0.36-24.76
		l-35.01-0.71l-3.53-15.92l7.08-3.53H376.82z"/>
	<path class="st1" d="M460.51,617.98h25.12v112.88h-25.12V617.98z"/>
	<path class="st0" d="M485.27,617.96l40.68,0.36c20.19-0.54,35.64,35.47,9.55,54.81c34.79,9.72,22.23,56.85-5.65,56.93l-44.92,0.71
		l-6.36-20.52l42.8,0.36c13.56,0.39,14.42-26.98,0.36-27.24l-39.25,0.71l-1.07-21.21h35.01c15.95,0.66,11-24.78,0.36-24.76
		l-35.01-0.71l-3.53-15.92l7.08-3.53H485.27z"/>
	<path class="st1" d="M567.79,617.98h25.12v112.88h-25.12V617.98z"/>
	<path class="st0" d="M592.55,617.96l40.68,0.36c20.19-0.54,35.64,35.47,9.55,54.81c34.79,9.72,22.23,56.85-5.65,56.93l-44.92,0.71
		l-6.36-20.52l42.8,0.36c13.56,0.39,14.42-26.98,0.36-27.24l-39.25,0.71l-1.07-21.21h35.01c15.95,0.66,11-24.78,0.36-24.76
		l-35.01-0.71l-3.53-15.92l7.08-3.53H592.55z"/>
</g>
</svg>
