<?xml version="1.0" standalone="no"?>
<!DOCTYPE svg PUBLIC "-//W3C//DTD SVG 20010904//EN"
 "http://www.w3.org/TR/2001/REC-SVG-20010904/DTD/svg10.dtd">
<svg version="1.0" xmlns="http://www.w3.org/2000/svg"
 width="500.000000pt" height="295.000000pt" viewBox="0 0 500.000000 295.000000"
 preserveAspectRatio="xMidYMid meet">

<g transform="translate(0.000000,295.000000) scale(0.100000,-0.100000)"
fill="#136796" stroke="none">
<path d="M842 2650 c-84 -114 -163 -232 -176 -261 -83 -182 -40 -404 106 -546
24 -23 144 -114 268 -203 255 -184 274 -199 303 -255 30 -56 30 -173 1 -232
-21 -42 -17 -63 12 -63 19 0 376 498 401 562 65 160 48 323 -48 467 -44 66
-80 95 -428 346 -133 96 -242 182 -253 199 -19 31 -21 101 -4 151 5 14 1 24
-12 32 -17 10 -33 -8 -170 -197z"/>
<path d="M2010 1479 l0 -501 293 4 c322 5 353 10 444 71 87 58 124 175 92 290
-13 47 -65 107 -116 133 -21 10 -40 20 -42 21 -2 2 19 27 46 56 42 44 53 64
63 110 32 154 -60 274 -235 306 -32 6 -168 11 -302 11 l-243 0 0 -501z m520
286 c71 -37 67 -136 -7 -174 -13 -6 -78 -11 -162 -11 l-141 0 0 100 0 100 140
0 c106 0 148 -4 170 -15z m45 -389 c18 -8 39 -24 45 -36 15 -28 15 -81 1 -109
-23 -42 -58 -50 -232 -52 l-164 -2 -3 107 -3 106 161 0 c116 0 170 -4 195 -14z"/>
<path d="M2950 1481 l0 -501 253 0 c349 1 436 19 522 107 46 47 70 125 61 200
-11 95 -52 151 -144 198 l-34 16 42 37 c56 47 80 101 80 180 0 113 -55 189
-170 234 -51 20 -77 22 -332 26 l-278 4 0 -501z m523 285 c10 -5 25 -22 33
-38 20 -39 11 -88 -22 -119 -24 -23 -33 -24 -175 -27 l-149 -3 0 103 0 103
147 -5 c82 -3 156 -9 166 -14z m30 -385 c42 -16 67 -51 67 -94 0 -93 -36 -110
-247 -115 l-163 -4 0 111 0 111 159 0 c88 0 171 -4 184 -9z"/>
<path d="M3887 1973 c-4 -3 -7 -229 -7 -501 l0 -494 293 4 c266 4 298 6 357
26 78 26 145 79 171 136 23 50 25 169 5 217 -19 44 -70 95 -120 121 l-40 20
37 31 c59 47 82 98 82 187 0 84 -13 116 -67 169 -42 43 -96 67 -178 80 -71 12
-522 15 -533 4z m537 -222 c19 -18 26 -35 26 -63 0 -91 -34 -108 -215 -108
l-135 0 0 101 0 100 149 -3 c142 -3 151 -4 175 -27z m26 -379 c65 -32 79 -101
31 -154 l-29 -33 -176 -3 -176 -3 0 105 0 106 158 0 c129 0 163 -3 192 -18z"/>
<path d="M595 1595 c-106 -147 -132 -192 -145 -262 -18 -100 20 -222 94 -292
19 -19 117 -93 218 -166 194 -140 217 -165 200 -215 -9 -25 -8 -31 15 -45 23
-16 26 -16 38 2 7 10 49 68 94 128 45 61 93 135 109 165 53 107 31 259 -51
356 -15 17 -111 92 -214 167 -104 74 -196 144 -206 155 -13 14 -18 33 -16 60
3 40 -13 72 -35 72 -6 0 -51 -56 -101 -125z"/>
<path d="M4733 1093 c-22 -8 -14 -42 12 -59 20 -13 23 -19 14 -31 -7 -8 -18
-12 -26 -9 -7 3 -13 1 -13 -5 0 -17 42 -6 54 14 9 15 6 22 -16 38 -33 24 -36
39 -7 39 11 0 17 5 14 10 -7 11 -13 11 -32 3z"/>
<path d="M4807 1083 c-4 -3 -6 -29 -5 -57 1 -43 2 -45 5 -13 5 46 15 47 32 5
l13 -33 17 37 c9 21 19 38 23 38 4 0 9 -19 11 -42 3 -34 4 -31 3 11 -1 30 -6
56 -11 58 -6 2 -18 -16 -27 -39 l-15 -43 -13 43 c-13 41 -20 49 -33 35z"/>
<path d="M248 428 l-24 -83 191 -3 191 -2 37 -120 37 -120 315 0 314 0 37 120
37 120 189 0 c144 0 188 3 188 13 0 6 -10 45 -21 85 l-22 72 -722 0 -722 0
-25 -82z"/>
</g>
</svg>
