<?xml version="1.0" encoding="utf-8"?>
<svg viewBox="0 0 75 40" width="76.644" height="45" xmlns="http://www.w3.org/2000/svg">
  <g fill="#136796" transform="matrix(0.099806, 0, 0, 0.34414, -86.310768, 299.360382)" style="">
    <g style="" transform="matrix(0.518396, 0, 0, 0.146129, 882.947815, -872.669189)">
      <g fill-rule="evenodd" style="" transform="matrix(0.369719, 0, 0, 0.34597, -68.681259, 3.979622)">
        <path d="M 767.892 105.5 C 639.892 371.5 183.892 629.5 746.192 1039.5 C 901.192 1154.5 1161.192 1224.5 1028.592 1495.6 C 1016.792 1516.3 1037.392 1522 1055.792 1506.5 C 1245.792 1286.5 1554.792 938.5 1294.592 655.1 C 1146.592 495.1 843.592 390.1 783.192 238.1 C 771.492 208.7 784.392 166.2 800.592 132.6 C 813.592 101.4 774.892 93.2 767.992 105.4 Z"/>
        <path d="M 774.792 105.5 C 646.792 371.5 190.792 629.5 753.092 1039.5 C 908.092 1154.5 1168.092 1224.5 1035.492 1495.6 C 1023.692 1516.3 1044.292 1522 1062.692 1506.5 C 1252.692 1286.5 1561.692 938.5 1301.492 655.1 C 1153.492 495.1 850.492 390.1 790.092 238.1 C 778.392 208.7 791.292 166.2 807.492 132.6 C 820.492 101.4 781.792 93.2 774.892 105.4 Z"/>
        <path d="M 505.092 1026.2 C 439.392 1205.2 107.092 1411.2 550.692 1648.8 C 653.692 1710.1 785.692 1786.8 771.492 1899 C 765.992 1913.3 778.892 1915.3 788.692 1903.7 C 934.692 1735.7 1044.692 1496.7 865.592 1335.7 C 772.092 1245.1 550.592 1195.7 526.792 1041 C 532.192 1019.8 508.192 1017.8 504.992 1026.3 Z"/>
      </g>
      <path d="M 6.811 685.194 L 421.378 685.194 L 421.378 732.834 L 6.811 732.834 Z" style=""/>
      <path d="M 7.292 683.88 L -11.009 732.004 L 20.38 732.419 Z M 421.008 683.88 L 439.309 732.004 L 407.92 732.419 Z M 94.213 720.033 L 124.789 797.842 L 304.509 797.254 L 332.645 720.033 L 94.25 720.033 Z" fill-rule="evenodd" style=""/>
      <path d="M 576.92 289.294 L 639.237 289.294 L 639.237 562.937 L 576.92 562.937 Z" style=""/>
      <path d="M 638.353 289.252 L 739.281 290.116 C 789.387 288.799 827.704 376.093 762.987 422.989 C 849.304 446.56 818.145 560.797 748.965 561.003 L 637.511 562.731 L 621.721 512.997 L 727.913 513.86 C 761.555 514.807 763.702 448.452 728.797 447.835 L 631.406 449.564 L 628.752 398.142 L 715.618 398.142 C 755.197 399.746 742.902 338.081 716.502 338.123 L 629.636 336.396 L 620.879 297.808 L 638.437 289.252 Z" fill-rule="evenodd" style=""/>
      <path d="M 846.019 289.294 L 908.337 289.294 L 908.337 562.937 L 846.019 562.937 Z" style=""/>
      <path d="M 907.453 289.252 L 1008.381 290.116 C 1058.487 288.799 1096.803 376.093 1032.086 422.989 C 1118.404 446.56 1087.246 560.797 1018.065 561.003 L 906.61 562.731 L 890.821 512.997 L 997.012 513.86 C 1030.655 514.807 1032.803 448.452 997.896 447.835 L 900.505 449.564 L 897.853 398.142 L 984.717 398.142 C 1024.296 399.746 1012.001 338.081 985.601 338.123 L 898.737 336.396 L 889.978 297.808 L 907.536 289.252 Z" fill-rule="evenodd" style=""/>
      <path d="M 1112.214 289.294 L 1174.532 289.294 L 1174.532 562.937 L 1112.214 562.937 Z" style=""/>
      <path d="M 1173.648 289.252 L 1274.575 290.116 C 1324.681 288.799 1362.998 376.093 1298.281 422.989 C 1384.598 446.56 1353.439 560.797 1284.26 561.003 L 1172.805 562.731 L 1157.016 512.997 L 1263.207 513.86 C 1296.85 514.807 1298.997 448.452 1264.091 447.835 L 1166.699 449.564 L 1164.047 398.142 L 1250.912 398.142 C 1290.491 399.746 1278.196 338.081 1251.796 338.123 L 1164.931 336.396 L 1156.173 297.808 L 1173.731 289.252 Z" fill-rule="evenodd" style=""/>
    </g>
    <text x="65.5" y="3375.2" font-family="DejaVu Sans" font-size="233" style="white-space: pre;"> </text>
    <text style="white-space: pre; fill: rgb(51, 51, 51); font-family: Arial, sans-serif; font-size: 155.8px;" x="734.917" y="3420.996"> </text>
  </g>
</svg>