<svg xmlns="http://www.w3.org/2000/svg" width="75" height="40.642" viewBox="0 0 75 40.642">
  <g id="bbb" transform="translate(-87.557 298.38)">
    <g id="Group_2" data-name="Group 2" transform="translate(87.557 -298.38)">
      <g id="Group_1" data-name="Group 1" transform="translate(3.418 0)">
        <path id="Path_3" data-name="Path 3" d="M15.054,1.842c-2.606,4.926-11.891,9.7-.442,17.3,3.156,2.13,8.45,3.426,5.75,8.447-.24.383.179.489.554.2,3.869-4.074,10.161-10.519,4.862-15.767C22.765,9.057,16.6,7.112,15.366,4.3a2.5,2.5,0,0,1,.354-1.954c.265-.578-.523-.73-.664-.5Z" transform="translate(-6.013 -1.74)" fill="#136796" fill-rule="evenodd"/>
        <path id="Path_4" data-name="Path 4" d="M15.186,1.842c-2.606,4.926-11.891,9.7-.442,17.3,3.156,2.13,8.45,3.426,5.75,8.447-.24.383.179.489.554.2,3.869-4.074,10.161-10.519,4.862-15.767C22.9,9.057,16.728,7.112,15.5,4.3a2.5,2.5,0,0,1,.354-1.954c.265-.578-.523-.73-.664-.5Z" transform="translate(-6.004 -1.74)" fill="#136796" fill-rule="evenodd"/>
        <path id="Path_5" data-name="Path 5" d="M9.886,17.86c-1.338,3.315-8.1,7.13.929,11.53,2.1,1.135,4.785,2.556,4.5,4.634-.112.265.151.3.35.087,2.973-3.111,5.213-7.537,1.566-10.519-1.9-1.678-6.414-2.593-6.9-5.458.11-.393-.379-.43-.444-.272Z" transform="translate(-6.195 -0.707)" fill="#136796" fill-rule="evenodd"/>
      </g>
      <path id="Path_6" data-name="Path 6" d="M.352,34.458H23.184v2.55H.352Z" transform="translate(0.629 0.155)" fill="#136796"/>
      <path id="Path_7" data-name="Path 7" d="M.438,34.392-.57,36.968l1.729.022Zm22.785,0,1.008,2.576L22.5,36.99Zm-18,1.935,1.684,4.165,9.9-.031,1.55-4.134H5.227Z" transform="translate(0.57 0.15)" fill="#136796" fill-rule="evenodd"/>
      <path id="Path_8" data-name="Path 8" d="M29.851,14.548h3.432V29.2H29.851Z" transform="translate(2.529 -1.128)" fill="#136796"/>
      <path id="Path_9" data-name="Path 9" d="M33.088,14.546l5.559.046c2.76-.07,4.87,4.6,1.306,7.113,4.754,1.262,3.038,7.377-.772,7.388l-6.138.092-.87-2.662,5.848.046c1.853.051,1.971-3.5.049-3.534l-5.364.093-.146-2.753h4.784c2.18.086,1.5-3.215.049-3.213l-4.784-.092L32.125,15l.967-.458Z" transform="translate(2.676 -1.128)" fill="#136796" fill-rule="evenodd"/>
      <path id="Path_10" data-name="Path 10" d="M43.774,14.548h3.432V29.2H43.774Z" transform="translate(3.426 -1.128)" fill="#136796"/>
      <path id="Path_11" data-name="Path 11" d="M47.011,14.546l5.558.046c2.76-.07,4.87,4.6,1.306,7.113,4.753,1.262,3.038,7.377-.772,7.388l-6.139.092-.87-2.662,5.848.046c1.853.051,1.971-3.5.049-3.534l-5.364.093-.146-2.753h4.784c2.18.086,1.5-3.215.049-3.213l-4.784-.092L46.049,15l.967-.458Z" transform="translate(3.573 -1.128)" fill="#136796" fill-rule="evenodd"/>
      <path id="Path_12" data-name="Path 12" d="M57.547,14.548H60.98V29.2H57.547Z" transform="translate(4.313 -1.128)" fill="#136796"/>
      <path id="Path_13" data-name="Path 13" d="M60.785,14.546l5.558.046c2.76-.07,4.87,4.6,1.306,7.113,4.754,1.262,3.038,7.377-.772,7.388l-6.138.092-.87-2.662,5.848.046c1.853.051,1.971-3.5.048-3.534l-5.364.093-.146-2.753H65.04c2.18.086,1.5-3.215.049-3.213L60.3,17.07,59.822,15l.967-.458Z" transform="translate(4.46 -1.128)" fill="#136796" fill-rule="evenodd"/>
    </g>
  </g>
</svg>
