<svg xmlns="http://www.w3.org/2000/svg" width="76.644" height="45" viewBox="0 0 76.644 45">
  <g id="bbb" transform="translate(-22.4 284.917)">
    <path id="Path_1" data-name="Path 1" d="M65.979-281.657a44.42,44.42,0,0,0-2.881,4.272,7.975,7.975,0,0,0,1.735,8.937c.393.376,2.357,1.866,4.387,3.323,4.174,3.012,4.485,3.257,4.96,4.174a5.157,5.157,0,0,1,.016,3.8q-.516,1.031.2,1.031c.311,0,6.155-8.152,6.564-9.2a7.929,7.929,0,0,0-.786-7.644c-.72-1.08-1.309-1.555-7.006-5.664a37.637,37.637,0,0,1-4.141-3.257,3.5,3.5,0,0,1-.065-2.472.394.394,0,0,0-.2-.524C68.484-285.045,68.222-284.75,65.979-281.657Z" transform="translate(-33.464)" fill="#136796"/>
    <path id="Path_2" data-name="Path 2" d="M201-189.8v8.2l4.8-.065c5.271-.082,5.778-.164,7.268-1.162a4.26,4.26,0,0,0,1.506-4.747,4.129,4.129,0,0,0-1.9-2.177c-.344-.164-.655-.327-.687-.344a4.56,4.56,0,0,1,.753-.917,3.116,3.116,0,0,0,1.031-1.8c.524-2.521-.982-4.485-3.847-5.009a48.088,48.088,0,0,0-4.943-.18H201Zm8.512-4.681a1.586,1.586,0,0,1-.115,2.848,11.955,11.955,0,0,1-2.652.18h-2.308v-3.274h2.292A7.593,7.593,0,0,1,209.512-194.481Zm.737,6.367a1.726,1.726,0,0,1,.737.589A2.325,2.325,0,0,1,211-185.74c-.376.687-.949.818-3.8.851l-2.684.033-.049-1.751-.049-1.735h2.635A11.2,11.2,0,0,1,210.248-188.113Z" transform="translate(-149.366 -72.69)" fill="#136796"/>
    <path id="Path_3" data-name="Path 3" d="M295-190v8.2h4.141c5.713-.016,7.137-.311,8.544-1.751a4.106,4.106,0,0,0,1-3.274,3.774,3.774,0,0,0-2.357-3.241l-.557-.262.687-.606a3.494,3.494,0,0,0,1.31-2.946,3.837,3.837,0,0,0-2.783-3.83c-.835-.327-1.26-.36-5.434-.426L295-198.2Zm8.561-4.665a1.6,1.6,0,0,1,.54.622,1.656,1.656,0,0,1-.36,1.948c-.393.376-.54.393-2.865.442l-2.439.049v-3.372l2.406.082A16.9,16.9,0,0,1,303.561-194.664Zm.491,6.3a1.611,1.611,0,0,1,1.1,1.539c0,1.522-.589,1.8-4.043,1.882l-2.668.065v-3.634h2.6A19.445,19.445,0,0,1,304.052-188.362Z" transform="translate(-227.979 -72.522)" fill="#136796"/>
    <path id="Path_4" data-name="Path 4" d="M388.115-197.871c-.065.049-.115,3.748-.115,8.2v8.086l4.8-.065c4.354-.065,4.878-.1,5.844-.426a4.75,4.75,0,0,0,2.8-2.226,6.117,6.117,0,0,0,.082-3.552,4.668,4.668,0,0,0-1.964-1.981l-.655-.327.606-.507a3.418,3.418,0,0,0,1.342-3.061,3.112,3.112,0,0,0-1.1-2.766,4.844,4.844,0,0,0-2.914-1.309A68.322,68.322,0,0,0,388.115-197.871Zm8.79,3.634a1.251,1.251,0,0,1,.426,1.031c0,1.49-.557,1.768-3.519,1.768H391.6v-3.29l2.439.049C396.364-194.63,396.512-194.613,396.9-194.237Zm.426,6.2a1.524,1.524,0,0,1,.507,2.521l-.475.54-2.881.049-2.881.049v-3.454h2.586C396.3-188.328,396.855-188.279,397.33-188.033Z" transform="translate(-305.756 -72.705)" fill="#136796"/>
    <path id="Path_5" data-name="Path 5" d="M47-169.954c-1.735,2.406-2.161,3.143-2.373,4.289a5.6,5.6,0,0,0,1.539,4.78c.311.311,1.915,1.522,3.568,2.717,3.176,2.292,3.552,2.7,3.274,3.519-.147.409-.131.507.246.737.376.262.426.262.622-.033.115-.164.8-1.113,1.539-2.1a29.278,29.278,0,0,0,1.784-2.7,5.638,5.638,0,0,0-.835-5.827,43.789,43.789,0,0,0-3.5-2.734c-1.7-1.211-3.208-2.357-3.372-2.537a1.222,1.222,0,0,1-.262-.982c.049-.655-.213-1.179-.573-1.179A13.232,13.232,0,0,0,47-169.954Z" transform="translate(-18.531 -94.434)" fill="#136796"/>
    <path id="Path_6" data-name="Path 6" d="M472.213-109.774c-.36.131-.229.687.2.966.327.213.376.311.229.507a.416.416,0,0,1-.426.147c-.115-.049-.213-.016-.213.082,0,.278.688.1.884-.229.147-.246.1-.36-.262-.622-.54-.393-.589-.638-.115-.638.18,0,.278-.082.229-.164C472.622-109.905,472.524-109.905,472.213-109.774Z" transform="translate(-376.007 -146.397)" fill="#136796"/>
    <path id="Path_7" data-name="Path 7" d="M480.261-108.832a2.264,2.264,0,0,0-.082.933c.016.7.033.737.082.213.082-.753.246-.769.524-.082l.213.54.278-.606c.147-.344.311-.622.376-.622s.147.311.18.687c.049.557.065.507.049-.18a1.874,1.874,0,0,0-.18-.949c-.1-.033-.295.262-.442.638l-.246.7-.213-.7C480.588-108.93,480.473-109.061,480.261-108.832Z" transform="translate(-382.843 -147.175)" fill="#136796"/>
    <path id="Path_8" data-name="Path 8" d="M22.793-49.658,22.4-48.3l3.126.049,3.126.033.606,1.964.606,1.964h10.3l.606-1.964.606-1.964h3.094c2.357,0,3.077-.049,3.077-.213,0-.1-.164-.737-.344-1.391L46.838-51H23.2Z" transform="translate(0 -195.628)" fill="#136796"/>
  </g>
</svg>
