<?xml version="1.0" encoding="utf-8"?>
<!-- Generator: Adobe Illustrator 24.2.1, SVG Export Plug-In . SVG Version: 6.00 Build 0)  -->
<svg version="1.1" id="Layer_1" xmlns="http://www.w3.org/2000/svg" xmlns:xlink="http://www.w3.org/1999/xlink" x="0px" y="0px"
	 viewBox="0 0 1000 1000" style="enable-background:new 0 0 1000 1000;" xml:space="preserve">
<style type="text/css">
	.st0{fill:#FFFFFF;}
	.st1{display:none;fill:#FFFFFF;}
</style>
<circle cx="498" cy="500" r="493"/>
<path class="st0" d="M224.37,543.32c9.49,24.25,29.5,34.73,50.44,24.37C273.13,546.97,246.32,532.98,224.37,543.32z"/>
<path class="st0" d="M229.4,472.74c2.21,25.08,17.64,39.68,39.27,36.88C274.42,490.59,250.99,466.81,229.4,472.74z"/>
<path class="st0" d="M238.24,609.6c8.15,20.81,29.88,31.94,51.96,20.1C285.92,607.87,256.11,596.56,238.24,609.6z"/>
<path class="st0" d="M247.6,414.93c-3.37,19.83,10.03,36.67,30.03,37.18C282.92,432.37,266.44,412.32,247.6,414.93z"/>
<path class="st0" d="M268.89,363.87c-1.82,22.18,13.41,38.96,32.75,36.42c2.6-9.71-0.95-17.98-7.34-25.05
	C287.62,367.84,279.13,363.84,268.89,363.87z"/>
<path class="st0" d="M324.8,684.02c-5.23-17.07-36.55-25.53-55.72-6.53C285.4,696.34,307.66,700.62,324.8,684.02z"/>
<path class="st0" d="M304.48,320.72c-4.59,21.89,3.04,36.31,20.81,40.07c6.1-10.62,3.65-20.21-2.92-28.85
	C317.98,326.19,312.32,321.52,304.48,320.72z"/>
<path class="st0" d="M298.22,539.32c20.4-0.29,35.69-19.5,30.22-37.41C307.9,501.82,291.27,522.08,298.22,539.32z"/>
<path class="st0" d="M345.03,436.96c-18.7-7.67-41.83,5.55-41.33,23.61C321.56,468.74,342.11,456.96,345.03,436.96z"/>
<path class="st0" d="M317.03,616.72c22.15-6.47,30.6-28.7,21.11-51.65C312.55,573.5,303.78,604.68,317.03,616.72z"/>
<path class="st0" d="M375.86,727.72c-12.1-18.76-48.16-18.03-63.27,7.26C333.28,750.42,360.66,750.5,375.86,727.72z"/>
<path class="st0" d="M348.27,282.48c-11.38,13.62-9.97,36.52,5.86,44.04C368.29,316.45,364.11,291.4,348.27,282.48z"/>
<path class="st0" d="M378.03,383.57c-14.4-11.83-37.81-6.75-42.93,9.67C347.55,404.03,368.74,401.79,378.03,383.57z"/>
<path class="st0" d="M366.03,620.06c-23.24,12.24-30.79,40.78-14.73,54.11C371.81,665.42,378.63,640.9,366.03,620.06z"/>
<path class="st0" d="M381.86,342.15c12.27,13.1,31.5,12.46,44.37-1.89C412.46,325.4,388.78,326.57,381.86,342.15z"/>
<path class="st0" d="M393.8,681.26c-2.2,9.92-0.71,18.97,6.07,26.78c22.99-10.83,27.88-32,17.26-53.45
	C407.15,656.97,396.49,669.08,393.8,681.26z"/>
<path class="st0" d="M393.38,302.92c20.01-1.01,34.84-14.98,32.22-33.23C402.9,270.7,385.13,289.3,393.38,302.92z"/>
<path class="st0" d="M471.1,735.78c-1.04-1.7-1.2-2.36-1.53-2.47c-1.41-0.44-2.86-0.81-4.32-1.02c-24.9-3.5-49.06-9.62-71.91-20.33
	c-39.18-18.34-69.46-45.83-87.97-85.49c-12.6-26.99-17.65-55.54-18.87-85.07c-1.29-31.53,1.64-62.59,11.16-92.69
	c14.46-45.72,39.09-85.33,73.99-118.37c5.05-4.78,10.12-9.53,15.19-14.3c-0.38-0.47-0.74-0.93-1.1-1.4
	c-1.95,1.43-3.97,2.78-5.85,4.3c-23.61,19.05-43.14,41.75-59.35,67.25c-18.13,28.55-30.94,59.32-37.3,92.72
	c-5.56,29.32-6.19,58.61-1.82,88.11c4.93,33.2,15.58,64.1,35.5,91.4c22.54,30.9,52.7,51.78,88.14,65.01
	c18.96,7.08,38.55,12.58,59.09,13.11C466.24,736.59,468.38,736.09,471.1,735.78z"/>
<path class="st0" d="M531.92,735.78c1.04-1.7,1.2-2.36,1.53-2.47c1.41-0.44,2.86-0.81,4.32-1.02c24.9-3.5,49.06-9.62,71.91-20.33
	c39.18-18.34,69.46-45.83,87.97-85.49c12.6-26.99,17.65-55.54,18.87-85.07c1.29-31.53-1.64-62.59-11.16-92.69
	c-14.46-45.72-39.09-85.33-73.99-118.37c-5.05-4.78-10.12-9.53-15.19-14.3c0.38-0.47,0.74-0.93,1.1-1.4
	c1.95,1.43,3.97,2.78,5.85,4.3c23.61,19.05,43.14,41.75,59.35,67.25c18.13,28.55,30.94,59.32,37.3,92.72
	c5.56,29.32,6.19,58.61,1.82,88.11c-4.93,33.2-15.58,64.1-35.5,91.4c-22.54,30.9-52.7,51.78-88.14,65.01
	c-18.96,7.08-38.55,12.58-59.09,13.11C536.77,736.59,534.64,736.09,531.92,735.78z"/>
<path class="st0" d="M489.52,528.08c-2.66-5.89-8.78-10.22-12.39-14.22c3.92-6.62,9.8-12.83,11.38-19.97
	c3.38-15.37-6.38-29.32-22.66-31.36c-18.49-2.32-37.3-2.04-55.99-2.81c-1.14-0.05-2.32,0.69-4.21,1.31v109.01
	c19.23,0,37.89,0.08,56.55-0.11c2.66-0.03,5.37-1.22,7.94-2.17C487.04,561.59,496.45,543.41,489.52,528.08z"/>
<path class="st0" d="M538.56,570.52c21.88,5.86,45.93-0.9,56.23-16.61c-2.6-2.95-5.08-5.7-7.5-8.5c-3.59-4.15-7.46-4.33-11.89-1.26
	c-17.23,11.89-41.6,5.46-46.25-17.5c-2.26-11.07-1.82-22,3.49-32.12c7.04-13.38,24.22-17.37,38.51-9.4
	c10.19,5.7,10.54,5.65,17.65-3.65c1.77-2.33,3.31-4.84,4.81-7.07c-11.28-14.58-37.6-19.79-58.58-12.06
	c-23.23,8.54-35.68,29.76-34.54,58.83C501.43,544.88,516.69,564.66,538.56,570.52z"/>
<path class="st0" d="M576.2,340.39c12.25,14.4,33.36,15.04,43.77,1.32C612.51,324.69,584.08,327.23,576.2,340.39z"/>
<path class="st0" d="M607.85,679.35c-3.77-11.76-11.14-20.66-23.06-25.41c-10.62,24.67-4.47,43.33,17.1,54.2
	C609.68,699.45,611.16,689.65,607.85,679.35z"/>
<path class="st0" d="M576.08,270.25c-1.34,18.12,13.01,32.96,33.29,32.09C615.25,287.01,596.44,268.61,576.08,270.25z"/>
<path class="st0" d="M650.65,674.08c14.24-11.1,9.5-43.72-14.48-53.69C624.67,642.16,628.69,664.82,650.65,674.08z"/>
<path class="st0" d="M653.41,282.44c-16.57,11.74-18.96,33.92-5.17,44.16C663.87,316.59,666.26,297.29,653.41,282.44z"/>
<path class="st0" d="M667.21,392.47c-3.97-9.13-10.77-13.8-20.15-14.69c-8.65-0.81-16.99-0.12-23.83,6.33
	C635.74,401.19,653.36,404.56,667.21,392.47z"/>
<path class="st0" d="M689.55,734.75c-17.56-26.58-52.67-24.76-63.49-6.74C642.61,751.25,670.53,749.85,689.55,734.75z"/>
<path class="st0" d="M685.03,616.93c13.56-17.46,0.6-47.74-21.59-51.48C653.86,586.92,662.68,609.76,685.03,616.93z"/>
<path class="st0" d="M698.27,460.51c-0.12-18.34-22.85-31.26-42.02-23.35C661.4,457.71,682.21,469.11,698.27,460.51z"/>
<path class="st0" d="M677.45,360.73c18.21-4.66,26.78-22.49,18.85-40.04c-9.25,2.72-16.6,8.01-20.18,17.05
	C673.12,345.3,671.12,353.47,677.45,360.73z"/>
<path class="st0" d="M672.8,501.67c-1.86,21.86,12.04,38.1,31.33,37.38c3.77-9.02,0.77-16.98-4.72-24.12
	C692.92,506.44,684.21,501.82,672.8,501.67z"/>
<path class="st0" d="M733.09,676.85c-9.62-8.21-20.66-11.94-33.06-9.59c-9.97,1.89-18.87,6.25-23.08,17.04
	C693.7,699.66,719.92,696.08,733.09,676.85z"/>
<path class="st1" d="M586.38,726.87c36.66-10.6,68.02-30.16,92.56-59.75c24.34-29.35,36.96-63.59,42.37-101.07
	c6.5-45.11,1.8-88.84-14.4-131.29c-13.76-36-34.9-67.45-61.44-95.22c-8.62-9.02-18.48-16.85-27.79-25.23
	c-0.53,0.59-1.07,1.17-1.61,1.76c1.28,1.4,2.42,2.95,3.83,4.18c48.26,42.26,79.91,94.15,91.96,157.62
	c8.31,43.87,6.56,87.18-7.13,129.73c-13.55,42.19-40.6,73.6-78.7,95.67c-26.97,15.64-56.13,24.82-87.07,28.51
	c-2.42,0.29-4.75,1.25-7.11,1.91c0.08,0.8,0.17,1.59,0.26,2.39c1.97,0.18,4.03,0.81,5.91,0.47
	C554.19,733.49,570.65,731.43,586.38,726.87z"/>
<path class="st0" d="M701.88,400.74c19.13,1.14,32.93-14.84,31-36.46C710.07,363.54,694.32,387.18,701.88,400.74z"/>
<path class="st0" d="M764.1,609.22c-22.93-12.09-49.39,0.51-52.34,20.34C733.18,641.56,755.17,630.83,764.1,609.22z"/>
<path class="st0" d="M754.91,414.66c-20.37-1.62-37.81,20.18-30.28,37.27C743.05,452.46,756.68,435.92,754.91,414.66z"/>
<path class="st0" d="M777.31,542.79c-22.18-9.7-49.98,5.01-49.35,25.61C749.45,577.39,768.82,566.99,777.31,542.79z"/>
<path class="st0" d="M743.89,480.7c-8.06,7.4-13.29,16.75-11.23,28.99c22.81,2.51,37.23-11.61,40.11-38.04
	C761.72,470.53,751.77,473.47,743.89,480.7z"/>
<path d="M432.78,524.44c9.09,0.73,17.99,0.64,26.49,2.41c5.23,1.09,5.67,6.75,5.52,11.8c-0.17,5.89-3.22,9.76-8.55,10.62
	c-7.45,1.2-15.1,1.21-23.47,1.79C432.78,542.09,432.78,534.54,432.78,524.44z"/>
<path d="M432.87,481.1c7.27,0,13.97-0.49,20.57,0.15c5.88,0.57,8.02,5.07,8.32,10.66c0.33,6.03-0.91,11.5-7.56,12.71
	c-6.69,1.22-13.63,1.12-21.33,1.65C432.87,497.29,432.87,489.78,432.87,481.1z"/>
</svg>
