<svg xmlns="http://www.w3.org/2000/svg" width="145" height="26.063" viewBox="0 0 145 26.063">
  <g id="bestcompany" transform="translate(-5.762 -58.412)">
    <path id="Path_14" data-name="Path 14" d="M45.888,70.72c-.092-.044-.183-.093-.332-.174.147-.092.232-.155.326-.2a2.628,2.628,0,0,0,1.56-2.574,3.113,3.113,0,0,0-1.878-2.733,6.452,6.452,0,0,0-3.032-.547c-1.211,0-2.422.058-3.634.03-.262-.006-.525,0-.874,0V76.96a1.343,1.343,0,0,0,.3.085c1.823,0,3.65.07,5.468-.035a4.058,4.058,0,0,0,3.388-1.839A2.921,2.921,0,0,0,45.888,70.72ZM41,66.877a21.087,21.087,0,0,1,2.476.022c.7.084.955.588.928,1.454a1.2,1.2,0,0,1-1.061,1.311,5.235,5.235,0,0,1-.863.058c-.463.008-.928,0-1.48,0V66.877Zm3.04,7.656a3.113,3.113,0,0,1-1.026.221c-.639.033-1.279.009-2.012.009v-2.94a6.783,6.783,0,0,1,3.121.2,1.143,1.143,0,0,1,.647,1.208A1.279,1.279,0,0,1,44.039,74.534Z" transform="translate(4.297 0.809)" fill="#3d5270"/>
    <path id="Path_15" data-name="Path 15" d="M55.275,75.936c.247-.389.443-.76.7-1.086.323-.411.7-.465,1.254-.164a3.132,3.132,0,0,0,1.845.451c.473-.047.808-.226.874-.738-.1-.5-.515-.639-.909-.786-.6-.226-1.225-.4-1.818-.653a2.472,2.472,0,0,1-1.646-2.427,2.63,2.63,0,0,1,1.66-2.577,4.9,4.9,0,0,1,1.734-.4c1.443-.058,2.891-.025,4.338-.028h.775c.15-.566.291-1.072.417-1.582.285-1.146.341-1.2,1.533-1.179.237,0,.474.04.8.068v2.707h2.28c-.449,1.122-.748,2.188-2.229,2.05-.017.368-.043.67-.044.972q-.007,1.563,0,3.124c0,1.089.2,1.239,1.26.99a.629.629,0,0,0,.242-.065l1.078,1.62a4,4,0,0,1-2.978.866A2.464,2.464,0,0,1,63.97,74.36c-.017-1.307-.006-2.615-.008-3.922v-.751a2.663,2.663,0,0,0-.49-.106q-2.07-.014-4.139-.009c-.468,0-.9.093-1,.645.063.463.4.634.764.767.624.231,1.26.436,1.881.677a2.32,2.32,0,0,1,1.677,1.965,2.817,2.817,0,0,1-1.189,2.729A4.6,4.6,0,0,1,58.1,77.1,4.741,4.741,0,0,1,55.275,75.936Z" transform="translate(6.594 0.845)" fill="#3d5270"/>
    <path id="Path_16" data-name="Path 16" d="M101.4,76.633H98.664c-.014-.323-.036-.583-.036-.843,0-1.573,0-3.146,0-4.719a4.412,4.412,0,0,0-.06-.792,1.078,1.078,0,0,0-1.252-1,1.152,1.152,0,0,0-1.151,1.149c-.035,1.239-.017,2.48-.021,3.721,0,.794,0,1.589,0,2.466H93.268c-.03-.275-.079-.531-.081-.786-.008-1.662,0-3.323-.006-4.985,0-.577.058-1.211-.628-1.472a1.689,1.689,0,0,0-1.883.542v6.713H87.863V67.248a10.861,10.861,0,0,1,1.88.032c.3.054.533.446.8.694,1.586-1.273,3.416-1.342,4.594.5a6.033,6.033,0,0,1,.651-.651,3.822,3.822,0,0,1,4.036-.384,2.788,2.788,0,0,1,1.63,2.635c.068,2.08.025,4.164.024,6.246A1.252,1.252,0,0,1,101.4,76.633Z" transform="translate(10.934 1.149)" fill="#3d5270"/>
    <path id="Path_17" data-name="Path 17" d="M126.223,67.21c.746,0,1.454-.021,2.161.006.534.021.61.416.609.852q0,2.326,0,4.651a4.478,4.478,0,0,0,.038.729c.142.855.577,1.211,1.437,1.073a7.153,7.153,0,0,0,1.314-.485V72.885c0-1.462,0-2.923,0-4.385a2,2,0,0,1,.081-.784c.093-.206.335-.466.528-.481.726-.057,1.459-.022,2.256-.022.028.266.073.476.073.688,0,2.635.032,5.271-.027,7.9a7.141,7.141,0,0,1-.462,2.324,3.742,3.742,0,0,1-3.412,2.389c-1.323.13-2.664.095-4,.125a2.319,2.319,0,0,1-.441-.089,5.1,5.1,0,0,1,.008-2.155c.111-.487.522-.634.974-.643.623-.014,1.246,0,1.869-.008.311,0,.623,0,.934-.017,1.227-.063,1.551-.4,1.63-1.76l-.58.33a3.291,3.291,0,0,1-4.458-.827,3.644,3.644,0,0,1-.6-1.728c-.073-2.057-.033-4.118-.032-6.177A2.532,2.532,0,0,1,126.223,67.21Z" transform="translate(16.03 1.171)" fill="#3d5270"/>
    <path id="Path_18" data-name="Path 18" d="M109.2,68.8a3.161,3.161,0,0,0-4.766-1.189c-.294.19-.577.4-.737.507-.364-.327-.632-.759-.985-.843a7.906,7.906,0,0,0-1.755-.036l.027,13.416s1.382.025,2.085-.009a.682.682,0,0,0,.669-.764c0-.266,0-.531,0-.8,0-.925,0-1.848,0-2.852a2.261,2.261,0,0,1,.332.111,3.648,3.648,0,0,0,4.937-1.32A6.19,6.19,0,0,0,109.2,68.8Zm-2.5,4.542a1.652,1.652,0,0,1-2.92.7V70.033a5.635,5.635,0,0,1,.884-.609,1.386,1.386,0,0,1,2.065.977A5.334,5.334,0,0,1,106.7,73.343Z" transform="translate(12.678 1.143)" fill="#3d5270"/>
    <path id="Path_19" data-name="Path 19" d="M78.382,73.613l1.5,1.47a4.022,4.022,0,0,1-1.948,1.579,6.732,6.732,0,0,1-5.32-.04,5.291,5.291,0,0,1-2.977-3.154,6.9,6.9,0,0,1,.753-6.7,5.644,5.644,0,0,1,4.43-2.368,6.2,6.2,0,0,1,4.347,1.146c.188.142.351.319.577.528-.362.481-.673.933-1.026,1.352s-.783.334-1.192.057a3.625,3.625,0,0,0-2.069-.64,2.858,2.858,0,0,0-2.839,1.824,5,5,0,0,0,.087,4.31,3.341,3.341,0,0,0,4.825,1.165C77.777,73.969,78.042,73.822,78.382,73.613Z" transform="translate(8.436 0.794)" fill="#3d5270"/>
    <path id="Path_20" data-name="Path 20" d="M120.363,76.648H117.6l-.038-9.408a10.835,10.835,0,0,1,1.816.032c.3.052.541.433.881.726.051-.035.2-.149.357-.25a3.605,3.605,0,0,1,3.908-.229,2.9,2.9,0,0,1,1.442,2.276,16.455,16.455,0,0,1,.12,2.052c.017,1.307-.052,4.774-.052,4.774h-2.846c-.019-.305-.047-.563-.049-.822,0-1.573,0-3.146,0-4.719,0-.664.09-1.4-.7-1.706a1.927,1.927,0,0,0-2.074.612v3.261C120.363,74.351,120.363,75.453,120.363,76.648Z" transform="translate(14.89 1.15)" fill="#3d5270"/>
    <path id="Path_21" data-name="Path 21" d="M83.548,67.078a4.548,4.548,0,0,0-4.91,4.773,4.869,4.869,0,1,0,9.737.082A4.518,4.518,0,0,0,83.548,67.078Zm1.467,6.635a1.416,1.416,0,0,1-1.491.895,1.506,1.506,0,0,1-1.554-.92A4.688,4.688,0,0,1,81.95,70.2a1.515,1.515,0,0,1,1.6-.942,1.437,1.437,0,0,1,1.507.969,4.406,4.406,0,0,1,.256,1.8A3.982,3.982,0,0,1,85.015,73.713Z" transform="translate(9.706 1.154)" fill="#3d5270"/>
    <path id="Path_22" data-name="Path 22" d="M117.448,70.146a3.118,3.118,0,0,0-1.865-2.721,5.685,5.685,0,0,0-5.822,1.053c-.027.028-.027.082-.038.125.547,1.564,1.377,1.594,2.422.982a2.428,2.428,0,0,1,.945-.292c1.19-.131,1.715.485,1.459,1.767-.465.057-.9.108-1.342.164a6.19,6.19,0,0,0-2.983,1.045,2.483,2.483,0,0,0,.958,4.447,3.931,3.931,0,0,0,3.178-.594c.2-.133.4-.264.593-.4a1.833,1.833,0,0,0,2.461.835.549.549,0,0,0,.062-.177C117.477,74.3,117.54,72.222,117.448,70.146ZM112.8,74.826c-.383-.021-.7-.128-.786-.56a.8.8,0,0,1,.432-.949,4.619,4.619,0,0,1,2.153-.428c.019.413.038.792.055,1.148A2.053,2.053,0,0,1,112.8,74.826Z" transform="translate(13.774 1.148)" fill="#3d5270"/>
    <path id="Path_23" data-name="Path 23" d="M55.966,70.36c-.514-2.609-2.724-3.737-5.385-3.165a4.151,4.151,0,0,0-3.367,3.462,4.9,4.9,0,0,0,1.668,5.152,5.306,5.306,0,0,0,5.5.517,8.991,8.991,0,0,0,1.183-.675c-.651-1.447-1.072-1.643-2.422-1.2-.043.013-.084.032-.126.044-1.635.449-2.869-.36-2.91-1.984.231-.013.468-.035.7-.036,1.467,0,2.934,0,4.4-.006.628,0,.809-.175.825-.783A6.051,6.051,0,0,0,55.966,70.36Zm-5.762.3a1.432,1.432,0,0,1,1.567-1.546,1.377,1.377,0,0,1,1.6,1.546Z" transform="translate(5.502 1.15)" fill="#3d5270"/>
    <g id="Group_3" data-name="Group 3" transform="translate(5.762 58.412)">
      <path id="Path_24" data-name="Path 24" d="M13.574,60.985A25.431,25.431,0,0,0,11.743,62.8a14.258,14.258,0,0,0-3.472,9.533,11.409,11.409,0,0,0,2.379,7.248,10.929,10.929,0,0,0,6.614,3.8c.477.1.971.12,1.456.177.013-.073.024-.145.036-.218-.22-.046-.438-.1-.659-.136a11.7,11.7,0,0,1-5.816-2.471A9.713,9.713,0,0,1,8.836,74.2a14.825,14.825,0,0,1,1.609-9,15.518,15.518,0,0,1,2.541-3.48c.213-.224.424-.452.636-.678C13.606,61.019,13.59,61,13.574,60.985Z" transform="translate(-5.428 -58.069)" fill="#3d5270"/>
      <path id="Path_25" data-name="Path 25" d="M12.689,75.313a1.848,1.848,0,0,0-.877,2.833C12.955,78.027,13.434,76.33,12.689,75.313Z" transform="translate(-5.003 -56.161)" fill="#3d5270"/>
      <path id="Path_26" data-name="Path 26" d="M8.421,72.944a1.842,1.842,0,0,0-2.659-1.386A1.879,1.879,0,0,0,8.421,72.944Z" transform="translate(-5.762 -56.684)" fill="#3d5270"/>
      <path id="Path_27" data-name="Path 27" d="M15.171,76.923a1.851,1.851,0,0,0-.944,2.865A1.922,1.922,0,0,0,15.171,76.923Z" transform="translate(-4.685 -55.947)" fill="#3d5270"/>
      <path id="Path_28" data-name="Path 28" d="M10.894,78.44a1.869,1.869,0,0,0-2.955-.4A1.829,1.829,0,0,0,10.894,78.44Z" transform="translate(-5.472 -55.871)" fill="#3d5270"/>
      <path id="Path_29" data-name="Path 29" d="M13.006,80.259a2.149,2.149,0,0,0-3.092,1A2.1,2.1,0,0,0,13.006,80.259Z" transform="translate(-5.209 -55.546)" fill="#3d5270"/>
      <path id="Path_30" data-name="Path 30" d="M10.218,75.4a1.9,1.9,0,0,0,1.194-2.707A1.758,1.758,0,0,0,10.218,75.4Z" transform="translate(-5.207 -56.511)" fill="#3d5270"/>
      <path id="Path_31" data-name="Path 31" d="M6.4,74.8a1.84,1.84,0,0,0,2.746,1.047A1.777,1.777,0,0,0,6.4,74.8Z" transform="translate(-5.676 -56.27)" fill="#3d5270"/>
      <path id="Path_32" data-name="Path 32" d="M8.068,70.134a1.746,1.746,0,0,0-2.074-1.986A1.787,1.787,0,0,0,8.068,70.134Z" transform="translate(-5.731 -57.118)" fill="#3d5270"/>
      <path id="Path_33" data-name="Path 33" d="M9.584,67.691a1.528,1.528,0,0,0,2.191-1.2A1.487,1.487,0,0,0,9.584,67.691Z" transform="translate(-5.253 -57.358)" fill="#3d5270"/>
      <path id="Path_34" data-name="Path 34" d="M9.277,71.522c1.092.057,1.7-.634,1.682-1.861A1.485,1.485,0,0,0,9.277,71.522Z" transform="translate(-5.299 -56.919)" fill="#3d5270"/>
      <path id="Path_35" data-name="Path 35" d="M6.833,65.376a1.6,1.6,0,0,0,1.6,1.975C8.847,66.408,8.041,65.387,6.833,65.376Z" transform="translate(-5.621 -57.485)" fill="#3d5270"/>
      <path id="Path_36" data-name="Path 36" d="M9.581,64.878A1.579,1.579,0,0,0,7.9,62.944,1.578,1.578,0,0,0,9.581,64.878Z" transform="translate(-5.482 -57.809)" fill="#3d5270"/>
      <path id="Path_37" data-name="Path 37" d="M13.866,60.122c1.165-.04,1.815-.683,1.756-1.7A1.474,1.474,0,0,0,13.866,60.122Z" transform="translate(-4.687 -58.412)" fill="#3d5270"/>
      <path id="Path_38" data-name="Path 38" d="M12.058,61.356A1.451,1.451,0,0,0,11.792,59,1.445,1.445,0,0,0,12.058,61.356Z" transform="translate(-5.024 -58.334)" fill="#3d5270"/>
      <path id="Path_39" data-name="Path 39" d="M11.106,64.39c.806.653,1.576.506,2.28-.436A1.368,1.368,0,0,0,11.106,64.39Z" transform="translate(-5.05 -57.732)" fill="#3d5270"/>
      <path id="Path_40" data-name="Path 40" d="M15.68,61.846a1.4,1.4,0,0,0-2.322.008C13.91,62.676,14.888,62.673,15.68,61.846Z" transform="translate(-4.75 -58.037)" fill="#3d5270"/>
      <path id="Path_41" data-name="Path 41" d="M9.63,60.86a1.5,1.5,0,0,0,1,2.107C11.223,62.208,10.733,61.136,9.63,60.86Z" transform="translate(-5.262 -58.086)" fill="#3d5270"/>
      <path id="Path_42" data-name="Path 42" d="M13.325,60.659l.052-.022-.046.028S13.325,60.659,13.325,60.659Z" transform="translate(-4.755 -58.116)" fill="#3d5270"/>
      <path id="Path_43" data-name="Path 43" d="M13,61.048c.041-.047.084-.095.125-.141l-.025-.025L12.951,61C12.967,61.015,12.982,61.032,13,61.048Z" transform="translate(-4.804 -58.083)" fill="#3d5270"/>
      <path id="Path_44" data-name="Path 44" d="M13.107,60.921l.123-.142-.006-.006c-.047.041-.095.082-.142.122C13.082,60.9,13.107,60.921,13.107,60.921Z" transform="translate(-4.787 -58.098)" fill="#3d5270"/>
      <path id="Path_45" data-name="Path 45" d="M13.347,60.661l-.139.128s.006,0,.006.006l.128-.139S13.347,60.661,13.347,60.661Z" transform="translate(-4.77 -58.113)" fill="#3d5270"/>
    </g>
    <g id="Group_4" data-name="Group 4" transform="translate(22.57 58.412)">
      <path id="Path_46" data-name="Path 46" d="M25.778,60.985A25.431,25.431,0,0,1,27.609,62.8a14.258,14.258,0,0,1,3.472,9.533A11.409,11.409,0,0,1,28.7,79.582a10.929,10.929,0,0,1-6.614,3.8c-.477.1-.971.12-1.456.177-.013-.073-.024-.145-.036-.218.22-.046.438-.1.659-.136a11.7,11.7,0,0,0,5.816-2.471A9.713,9.713,0,0,0,30.516,74.2a14.825,14.825,0,0,0-1.609-9,15.518,15.518,0,0,0-2.541-3.48c-.213-.224-.424-.452-.636-.678C25.747,61.019,25.762,61,25.778,60.985Z" transform="translate(-20.594 -58.069)" fill="#3d5270"/>
      <path id="Path_47" data-name="Path 47" d="M25.617,75.313a1.848,1.848,0,0,1,.877,2.833C25.351,78.027,24.872,76.33,25.617,75.313Z" transform="translate(-19.973 -56.161)" fill="#3d5270"/>
      <path id="Path_48" data-name="Path 48" d="M30.011,72.944a1.842,1.842,0,0,1,2.659-1.386A1.879,1.879,0,0,1,30.011,72.944Z" transform="translate(-19.34 -56.684)" fill="#3d5270"/>
      <path id="Path_49" data-name="Path 49" d="M23.137,76.923a1.851,1.851,0,0,1,.944,2.865A1.924,1.924,0,0,1,23.137,76.923Z" transform="translate(-20.293 -55.947)" fill="#3d5270"/>
      <path id="Path_50" data-name="Path 50" d="M27.573,78.44a1.869,1.869,0,0,1,2.955-.4A1.828,1.828,0,0,1,27.573,78.44Z" transform="translate(-19.665 -55.871)" fill="#3d5270"/>
      <path id="Path_51" data-name="Path 51" d="M25.477,80.259a2.149,2.149,0,0,1,3.092,1A2.1,2.1,0,0,1,25.477,80.259Z" transform="translate(-19.944 -55.546)" fill="#3d5270"/>
      <path id="Path_52" data-name="Path 52" d="M28.1,75.4A1.9,1.9,0,0,1,26.9,72.689,1.759,1.759,0,0,1,28.1,75.4Z" transform="translate(-19.778 -56.511)" fill="#3d5270"/>
      <path id="Path_53" data-name="Path 53" d="M32.038,74.8a1.84,1.84,0,0,1-2.746,1.047A1.778,1.778,0,0,1,32.038,74.8Z" transform="translate(-19.436 -56.27)" fill="#3d5270"/>
      <path id="Path_54" data-name="Path 54" d="M30.3,70.134a1.746,1.746,0,0,1,2.074-1.986A1.787,1.787,0,0,1,30.3,70.134Z" transform="translate(-19.306 -57.118)" fill="#3d5270"/>
      <path id="Path_55" data-name="Path 55" d="M28.794,67.691a1.528,1.528,0,0,1-2.191-1.2A1.488,1.488,0,0,1,28.794,67.691Z" transform="translate(-19.794 -57.358)" fill="#3d5270"/>
      <path id="Path_56" data-name="Path 56" d="M29.047,71.522c-1.092.057-1.7-.634-1.682-1.861A1.485,1.485,0,0,1,29.047,71.522Z" transform="translate(-19.693 -56.919)" fill="#3d5270"/>
      <path id="Path_57" data-name="Path 57" d="M31.489,65.376a1.6,1.6,0,0,1-1.6,1.975C29.475,66.408,30.281,65.387,31.489,65.376Z" transform="translate(-19.371 -57.485)" fill="#3d5270"/>
      <path id="Path_58" data-name="Path 58" d="M28.745,64.878a1.579,1.579,0,0,1,1.679-1.933A1.578,1.578,0,0,1,28.745,64.878Z" transform="translate(-19.514 -57.809)" fill="#3d5270"/>
      <path id="Path_59" data-name="Path 59" d="M24.466,60.122c-1.165-.04-1.815-.683-1.756-1.7A1.474,1.474,0,0,1,24.466,60.122Z" transform="translate(-20.313 -58.412)" fill="#3d5270"/>
      <path id="Path_60" data-name="Path 60" d="M26.209,61.356A1.451,1.451,0,0,1,26.474,59,1.444,1.444,0,0,1,26.209,61.356Z" transform="translate(-19.912 -58.334)" fill="#3d5270"/>
      <path id="Path_61" data-name="Path 61" d="M27.281,64.39c-.806.653-1.576.506-2.28-.436A1.368,1.368,0,0,1,27.281,64.39Z" transform="translate(-20.008 -57.732)" fill="#3d5270"/>
      <path id="Path_62" data-name="Path 62" d="M22.712,61.846a1.4,1.4,0,0,1,2.322.008C24.484,62.676,23.5,62.673,22.712,61.846Z" transform="translate(-20.312 -58.037)" fill="#3d5270"/>
      <path id="Path_63" data-name="Path 63" d="M28.651,60.86a1.5,1.5,0,0,1-1,2.107C27.059,62.208,27.547,61.136,28.651,60.86Z" transform="translate(-19.689 -58.086)" fill="#3d5270"/>
      <path id="Path_64" data-name="Path 64" d="M24.8,60.659l-.052-.022.046.028S24.8,60.659,24.8,60.659Z" transform="translate(-20.041 -58.116)" fill="#3d5270"/>
      <path id="Path_65" data-name="Path 65" d="M25.142,61.048c-.041-.047-.084-.095-.125-.141l.025-.025.149.119C25.173,61.015,25.158,61.032,25.142,61.048Z" transform="translate(-20.005 -58.083)" fill="#3d5270"/>
      <path id="Path_66" data-name="Path 66" d="M25.031,60.921l-.123-.142.006-.006c.047.041.095.082.142.122C25.057,60.9,25.031,60.921,25.031,60.921Z" transform="translate(-20.02 -58.098)" fill="#3d5270"/>
      <path id="Path_67" data-name="Path 67" d="M24.79,60.661l.139.128s-.006,0-.006.006l-.128-.139S24.79,60.661,24.79,60.661Z" transform="translate(-20.036 -58.113)" fill="#3d5270"/>
    </g>
  </g>
</svg>
