<svg xmlns="http://www.w3.org/2000/svg" width="110" height="24.985" viewBox="0 0 110 24.985">
  <g id="Group_1" data-name="Group 1" transform="translate(-1436 -631)">
    <path id="Path_1" data-name="Path 1" d="M23.555,1.4c3.6,0,5.689,2.081,5.689,4.883a4.077,4.077,0,0,1-2.679,3.9,4.266,4.266,0,0,1,3.246,4.265c0,2.951-2.221,5.121-5.613,5.164H16.73V1.4Zm-.31,10.637H20.7V16.3h2.549c1.571,0,2.522-.822,2.522-2.132,0-1.246-.907-2.115-2.475-2.132h-.048Zm-.388-7.271H20.7V8.7h2.212c1.416,0,2.344-.745,2.344-1.979,0-1.169-.783-1.937-2.349-1.952Zm10.257.487a2.288,2.288,0,1,0-2.26-2.287,2.3,2.3,0,0,0,2.26,2.287Zm1.991,14.362V6.858H31.174V19.615Zm5.906,0V14.031c0-2.548,1.411-3.474,2.975-3.474a5.308,5.308,0,0,1,1.23.128V6.825A3.849,3.849,0,0,0,44.19,6.7a3.6,3.6,0,0,0-3.308,1.855V6.825h-3.77v12.79h3.9ZM58.917,1V17.491l0,.146v.1l0,.14,0,.136,0,.085.005.17.007.163.007.153.01.179.012.2.015.2.012.17.022.245H55.275l-.009-.061-.017-.124-.012-.088-.01-.1-.012-.109-.005-.056-.01-.119-.005-.061-.007-.094,0-.065,0-.065-.005-.1,0-.1v-.1a4.11,4.11,0,0,1-3.411,1.515c-3.589,0-6.306-2.771-6.306-6.7,0-3.8,2.563-6.644,6.178-6.644a4.5,4.5,0,0,1,3.114.933l.036.034c.037.034.07.07.1.1l.029.034.027.034.027.032L55,7.717l.022.031.022.031.02.031.009.015V1Zm-6.668,9.03a2.841,2.841,0,0,0-2.871,3.155,2.886,2.886,0,1,0,5.742,0,2.842,2.842,0,0,0-2.871-3.155Zm14.1-3.574c3.954,0,6.392,2.444,6.392,6.561a8.22,8.22,0,0,1-.077,1.21H63.781a2.764,2.764,0,0,0,2.9,2.471,2.465,2.465,0,0,0,2.566-1.673l3.261.926a5.732,5.732,0,0,1-5.88,4.066,6.5,6.5,0,0,1-6.648-6.82,6.443,6.443,0,0,1,6.365-6.741ZM66.4,9.543A2.433,2.433,0,0,0,63.857,11.7h5.109A2.29,2.29,0,0,0,66.4,9.543Z" transform="translate(1447.742 631.476)" fill="#212121"/>
    <path id="Path_2" data-name="Path 2" d="M55.749,22.127,63.613,4.475H59.474L56.647,11.3,53.538,4.475H49.169L54.54,15.508l-2.9,6.619ZM69.1,4.073c3.954,0,6.392,2.444,6.392,6.561a8.221,8.221,0,0,1-.077,1.21H66.528a2.765,2.765,0,0,0,2.9,2.471A2.465,2.465,0,0,0,72,12.642l3.261.926a5.732,5.732,0,0,1-5.878,4.066,6.505,6.505,0,0,1-6.649-6.82,6.443,6.443,0,0,1,6.365-6.741Zm.051,3.087a2.432,2.432,0,0,0-2.541,2.161h5.107A2.29,2.29,0,0,0,69.148,7.16Z" transform="translate(1470.511 633.859)" fill="#212121"/>
    <path id="Path_3" data-name="Path 3" d="M14.309,11.923l0,0-.15-.06-5.1-2.017a1.142,1.142,0,0,0-.458-.1,1.119,1.119,0,0,0-.9,1.8l.009.01a1.06,1.06,0,0,0,.083.094l3.659,4.18a2.483,2.483,0,1,0,2.857-3.911M12.6,3.565a2.228,2.228,0,0,1,2.779,1.327,2.06,2.06,0,0,1-1.4,2.629A2.231,2.231,0,0,1,11.2,6.195a2.061,2.061,0,0,1,1.4-2.629m8.028,1.305a1.174,1.174,0,0,0-.677-.456v0l-1-.26c-.014-.048-.024-.1-.039-.141A6.022,6.022,0,0,0,11.353.294a5.909,5.909,0,0,0-3.54,3.058l-1.8,2.863L1.741,4.529l0,0a1.273,1.273,0,0,0-.875-.039,1.219,1.219,0,0,0-.8,1.549A1.175,1.175,0,0,0,.19,6.3l-.007.009,4.457,5.9.009.017.014.015,3.189,4.473a6.3,6.3,0,0,0,7.316,3.055A5.764,5.764,0,0,0,17.412,10a5.8,5.8,0,0,0,1.7-3.109l.963-.277V6.6a1.119,1.119,0,0,0,.247-.124,1.132,1.132,0,0,0,.3-1.6" transform="translate(1436 631)" fill="#1976d2" fill-rule="evenodd"/>
  </g>
</svg>
