<?xml version="1.0" encoding="utf-8"?>
<!-- Generator: Adobe Illustrator 24.2.1, SVG Export Plug-In . SVG Version: 6.00 Build 0)  -->
<svg version="1.1" id="Layer_1" xmlns="http://www.w3.org/2000/svg" xmlns:xlink="http://www.w3.org/1999/xlink" x="0px" y="0px"
	 viewBox="0 0 1000 1000" style="enable-background:new 0 0 1000 1000;" xml:space="preserve">
<style type="text/css">
	.st0{fill:#FFFFFF;}
</style>
<circle cx="500" cy="500" r="481.98"/>
<path class="st0" d="M687.71,382.89c0,11.78-9.54,21.32-21.3,21.32h-9.8c-3.12,24.56-14.12,46.67-30.36,63.7
	c19.36,20.31,31.26,47.8,31.26,78.07c0,62.45-50.62,113.07-113.07,113.07c-36,0-68.04-16.84-88.74-43.07v0.05l-0.55-0.76l-5.45-7.58
	L297.08,395.85l-0.65-0.88c-2.36-3.42-3.74-7.6-3.74-12.08c0-11.76,9.54-21.3,21.3-21.3c2.96,0,5.75,0.6,8.32,1.69l0.16,0.05
	l84.12,32.09l40.85-63.74l3.1-4.81c10.17-15.11,23.87-27.63,39.9-36.39c16.06-8.76,34.45-13.72,54.02-13.72
	c52.7,0,96.97,36.04,109.51,84.84h12.45C678.17,361.58,687.71,371.13,687.71,382.89z"/>
<circle cx="546.76" cy="382.89" r="43.25"/>
<path d="M592.45,545.98c0,25.98-21.07,47.05-47.06,47.05c-13.89,0-26.37-6.02-34.98-15.59l0,0.01l-0.36-0.4l-0.25-0.28l-68.96-76
	c-3.97-3.87-6.44-9.28-6.44-15.26c0-11.77,9.54-21.31,21.31-21.31c3.37,0,6.54,0.78,9.37,2.17l0.01-0.01
	c0,0,98.11,35.88,101.63,37.67C581.99,511.8,592.45,527.67,592.45,545.98z"/>
</svg>
