<?xml version="1.0" encoding="utf-8"?>
<svg id="master-artboard" viewBox="0 0 954.2056274414062 142.24310302734375" version="1.1" xmlns="http://www.w3.org/2000/svg" x="0px" y="0px" style="enable-background:new 0 0 336 235.2;" width="954.2056274414062px" height="142.24310302734375px"><rect id="ee-background" x="0" y="0" width="954.2056274414062" height="142.24310302734375" style="fill: white; fill-opacity: 0; pointer-events: none;"/><g transform="matrix(0.9800001382827759, 0, 0, 0.9800001382827759, -18.785079956054688, -407.10275910279415)"><path class="st0" d="M81.98,420.21c33.8-5.53,66.59,13.95,77.9,46.36c2.89,8.29,4.15,17.09,3.89,25.88&#10;&#9;c-12.94-13.07-25.88-26.13-38.82-39.33c-7.79,7.92-15.45,15.71-23.24,23.62c0-4.77,0-9.55,0-14.45H73.81c0,13.82,0,27.64,0,41.46&#10;&#9;c-5.53,5.65-11.18,11.31-16.84,17.09c5.53,0,11.18,0,16.71,0c0,12.06,0,24,0,36.06c-13.57-3.89-25.76-11.81-34.93-22.62&#10;&#9;c-24.75-29.78-20.61-74,9.3-98.76C57.98,427.5,69.54,422.22,81.98,420.21 M712.83,449.48c13.95-2.14,29.28,1.76,39.2,11.94&#10;&#9;c14.83,14.7,15.45,40.83,1.63,56.41c-15.96,18.6-47.87,19.47-65.08,2.14c-13.32-13.07-15.58-35.43-5.65-51.14&#10;&#9;C689.72,458.41,700.52,451.24,712.83,449.48 M714.84,462.3c-7.04,1.26-13.19,5.4-17.21,11.31c-8.29,11.81-6.66,29.53,4.27,39.08&#10;&#9;c9.8,9.55,27.01,9.55,36.94,0.13c12.44-10.93,12.56-32.29,0.63-43.47C733.06,462.93,723.51,460.54,714.84,462.3 M822.4,449.48&#10;&#9;c13.57-2.26,28.27,1.26,38.45,10.68c14.07,12.94,16.71,35.93,6.78,52.14c-5.65,9.17-14.57,15.71-25,18.34&#10;&#9;c-12.82,3.39-27.39,1.51-38.32-6.16c-9.17-6.41-15.33-16.33-16.96-27.39c-1.63-10.43,0.75-21.11,6.66-29.9&#10;&#9;C800.66,457.78,810.84,451.37,822.4,449.48 M827.04,461.92c-6.53,0.63-12.56,3.77-16.96,8.67c-10.81,11.43-10.18,31.41,1.51,41.97&#10;&#9;c9.8,9.67,27.01,9.8,37.07,0.38c11.68-10.18,12.82-29.53,2.89-41.34C845.51,464.44,836.34,460.79,827.04,461.92 M179.73,450.24&#10;&#9;c9.17,0,18.34,0,27.64,0c7.16,0.13,14.7,1.26,20.73,5.4c9.17,6.16,10.68,20.98,2.76,28.77c-2.64,2.39-5.65,4.27-9.05,5.53&#10;&#9;c5.4,1.63,10.93,4.4,13.95,9.42c4.4,7.41,2.51,17.72-4.02,23.5c-6.91,6.16-16.46,8.17-25.51,8.42c-8.8,0.13-17.72,0-26.51,0&#10;&#9;C179.73,504.14,179.73,477.13,179.73,450.24 M194.05,463.31c0,7.29,0,14.7,0,21.99c6.41-0.25,13.19,0.75,19.35-1.51&#10;&#9;c4.65-1.63,8.17-6.28,7.66-11.43c-0.25-4.02-3.77-7.16-7.54-8.17C207.12,462.68,200.46,463.56,194.05,463.31 M194.05,495.6&#10;&#9;c0,7.41,0,14.95,0,22.36c7.92-0.38,16.46,1.38,23.75-2.51c5.91-3.02,6.78-12.44,1.13-16.21&#10;&#9;C211.51,494.47,202.34,495.72,194.05,495.6 M266.42,450.24c4.77,0,9.55,0,14.32,0v45.99c0,5.65,0.5,11.56,3.77,16.33&#10;&#9;c2.76,4.15,7.66,6.28,12.56,6.66c6.03,0.63,12.82-0.38,17.21-4.9c4.4-4.52,5.4-11.18,5.53-17.21c0-15.71,0-31.41,0-46.99h14.32&#10;&#9;c0,15.96,0,31.91,0,47.87c0,9.05-2.26,18.72-8.8,25.38c-6.53,6.66-16.21,9.17-25.38,9.05c-9.17-0.13-18.85-2.39-25.13-9.3&#10;&#9;c-6.28-6.91-8.29-16.33-8.42-25.25C266.42,482.15,266.42,466.2,266.42,450.24 M366.94,450.11c4.77-0.13,9.55,0,14.32,0v80.91h-14.32&#10;&#9;C366.94,504.01,366.94,477.13,366.94,450.11 M415.06,450.11c4.77,0,9.55,0,14.32,0c0,22.62,0,45.23,0,67.85c12.82,0,25.63,0,38.45,0&#10;&#9;c0,4.4,0,8.67,0,13.07h-52.77C415.06,504.14,415.06,477.25,415.06,450.11 M491.2,450.24c10.55,0,21.23-0.13,31.79,0&#10;&#9;c12.19,0.13,24.63,4.9,32.79,14.2c12.06,13.57,12.69,35.68,1.51,50.13c-7.92,10.55-21.23,16.33-34.3,16.46&#10;&#9;c-10.55,0.13-21.23,0-31.79,0C491.32,504.14,491.32,477.13,491.2,450.24 M505.65,517.96c5.78,0,11.56,0.13,17.34,0&#10;&#9;c10.05-0.13,19.22-5.78,23.87-14.57c6.41-12.06,2.26-29.02-9.8-35.93c-9.42-5.91-20.98-3.64-31.41-4.02&#10;&#9;C505.77,481.52,505.77,499.74,505.65,517.96 M589.7,450.24h65.21c-0.13,1.76,0.5,3.77-0.75,5.4c-14.7,20.86-29.28,41.71-43.98,62.45&#10;&#9;h43.47c0,4.4,0,8.8,0,13.07h-67.09c0.13-1.76-0.5-3.77,0.63-5.28c14.57-20.86,29.15-41.59,43.72-62.57c-13.82,0-27.52,0-41.34,0&#10;&#9;v-13.19 M903.18,449.86c2.14,0,4.27,0,6.41,0c11.31,19.6,22.49,39.33,33.8,58.93c10.93-19.6,21.99-39.2,32.92-58.93&#10;&#9;c2.14,0,4.27,0,6.41,0c0.75,27.01,1.51,54.15,2.26,81.29h-14.07c-0.13-15.45-0.25-31.03-0.38-46.49&#10;&#9;c-8.42,15.71-16.71,31.41-25.13,47.12h-5.03c-8.42-15.45-16.84-30.91-25.25-46.36c-0.13,15.2-0.13,30.41-0.25,45.73&#10;&#9;c-4.65,0-9.3,0-13.95,0C901.55,504.01,902.31,477,903.18,449.86L903.18,449.86z" style="fill: rgb(1, 161, 221);"/></g></svg>