<?xml version="1.0" encoding="utf-8"?>
<!-- Generator: Adobe Illustrator 24.2.1, SVG Export Plug-In . SVG Version: 6.00 Build 0)  -->
<svg version="1.1" id="Layer_1" xmlns="http://www.w3.org/2000/svg" xmlns:xlink="http://www.w3.org/1999/xlink" x="0px" y="0px"
	 viewBox="0 0 1000 1000" style="enable-background:new 0 0 1000 1000;" xml:space="preserve">
<style type="text/css">
	.st0{fill:#FFFFFF;}
</style>
<circle class="st0" cx="500" cy="500" r="481.98"/>
<path d="M421.7,25.51C652.87-12.3,877.16,120.9,954.5,342.62c19.77,56.72,28.36,116.87,26.64,177.03
	C892.63,430.28,804.11,340.9,715.6,250.67c-53.28,54.14-105.7,107.42-158.98,161.56c0-32.66,0-65.31,0-98.83H365.84
	c0,94.53,0,189.06,0,283.59c-37.81,38.67-76.48,77.34-115.16,116.87c37.81,0,76.48,0,114.3,0c0,82.5,0,164.14,0,246.64
	c-92.81-26.64-176.17-80.78-238.9-154.69c-169.3-203.67-140.94-506.17,63.59-675.46C257.56,75.36,336.62,39.26,421.7,25.51"/>
</svg>
