<svg xmlns="http://www.w3.org/2000/svg" width="120" height="26.521" viewBox="0 0 120 26.521">
  <g id="capterra" transform="translate(-0.3 -0.375)">
    <path id="Path_68" data-name="Path 68" d="M.3,10.219H17.98V3.6Z" transform="translate(0 -0.104)" fill="#ff9d28"/>
    <path id="Path_69" data-name="Path 69" d="M18.569,3.495v23.4L26.929.375Z" transform="translate(-0.59)" fill="#68c5ed"/>
    <path id="Path_70" data-name="Path 70" d="M18.346,10.439h-6.68l6.68,16.76Z" transform="translate(-0.367 -0.325)" fill="#044d80"/>
    <path id="Path_71" data-name="Path 71" d="M.3,10.44l12.72,4.3L11.3,10.44Z" transform="translate(0 -0.325)" fill="#e54747"/>
    <g id="Group_5" data-name="Group 5" transform="translate(28.76 5.116)">
      <path id="Path_72" data-name="Path 72" d="M45.685,73.054a2.941,2.941,0,0,1-.48.36,5.119,5.119,0,0,1-.88.44,7.342,7.342,0,0,1-1.34.38,9.551,9.551,0,0,1-1.8.16,8.817,8.817,0,0,1-3.4-.62,6.159,6.159,0,0,1-2.36-1.76,7.142,7.142,0,0,1-1.36-2.66,12.024,12.024,0,0,1-.44-3.38,11.546,11.546,0,0,1,.48-3.4,7.574,7.574,0,0,1,1.42-2.7,6.361,6.361,0,0,1,2.36-1.78,8.155,8.155,0,0,1,3.34-.64,8.771,8.771,0,0,1,1.7.16,8.959,8.959,0,0,1,1.34.4,5.8,5.8,0,0,1,.94.48,4.43,4.43,0,0,1,.56.42,1.73,1.73,0,0,1,.38.46,1.205,1.205,0,0,1,.16.58,1.6,1.6,0,0,1-.36.96,6.781,6.781,0,0,1-.8.9q-.3-.3-.66-.6a4.849,4.849,0,0,0-.82-.54,4.7,4.7,0,0,0-1.02-.38,4.977,4.977,0,0,0-1.28-.16,3.794,3.794,0,0,0-3.42,1.8,5.419,5.419,0,0,0-.72,1.82,10.389,10.389,0,0,0-.22,2.1,11.037,11.037,0,0,0,.22,2.18,5.043,5.043,0,0,0,.76,1.84,3.917,3.917,0,0,0,1.4,1.28,4.342,4.342,0,0,0,2.14.48,4.775,4.775,0,0,0,1.24-.16,5.187,5.187,0,0,0,1-.42,6.264,6.264,0,0,0,.76-.5c.22-.18.4-.34.54-.46.1.12.2.26.34.42a3.9,3.9,0,0,1,.36.5c.12.18.2.36.3.54a1.205,1.205,0,0,1,.12.48,1.133,1.133,0,0,1-.12.54,3.271,3.271,0,0,1-.38.48Zm12.48-1.86a5.293,5.293,0,0,0,.56,2.8,3.714,3.714,0,0,1-.82.24,5.162,5.162,0,0,1-.8.08,2.213,2.213,0,0,1-1.32-.34,1.537,1.537,0,0,1-.58-.98,4.218,4.218,0,0,1-1.42.96,5.253,5.253,0,0,1-2.14.38,5,5,0,0,1-1.32-.18,3.388,3.388,0,0,1-1.2-.6,3.244,3.244,0,0,1-.88-1.1,3.867,3.867,0,0,1-.34-1.68,3.233,3.233,0,0,1,.6-2.02,4.253,4.253,0,0,1,1.5-1.22,7.1,7.1,0,0,1,1.94-.62,18.879,18.879,0,0,1,1.92-.22,5.619,5.619,0,0,1,.58-.02h.52v-.44a1.626,1.626,0,0,0-.5-1.34,2.676,2.676,0,0,0-1.62-.4,4.9,4.9,0,0,0-1.86.34,13.107,13.107,0,0,0-1.6.78,3.275,3.275,0,0,1-.54-.92,2.145,2.145,0,0,1-.2-.74.888.888,0,0,1,.38-.66,3.85,3.85,0,0,1,1.04-.58,8.7,8.7,0,0,1,1.52-.42,10.214,10.214,0,0,1,1.8-.16,7.861,7.861,0,0,1,2.22.26,3.655,3.655,0,0,1,1.48.82,3.176,3.176,0,0,1,.82,1.4,7.2,7.2,0,0,1,.24,1.96l.02,4.62Zm-3.12-2.82h-.34a1.941,1.941,0,0,0-.34.02c-.4.04-.8.08-1.2.14a3.3,3.3,0,0,0-1.06.34,2.362,2.362,0,0,0-.76.64,1.606,1.606,0,0,0-.3,1,1.762,1.762,0,0,0,.38,1.16,1.61,1.61,0,0,0,1.32.48,3.223,3.223,0,0,0,.88-.12,2.759,2.759,0,0,0,.74-.32,2.205,2.205,0,0,0,.5-.42.741.741,0,0,0,.18-.42v-2.5Zm9.18-4.8a4.69,4.69,0,0,1,1.22-.94,4.1,4.1,0,0,1,2.08-.48,4.939,4.939,0,0,1,1.72.3,3.852,3.852,0,0,1,1.44.98,4.858,4.858,0,0,1,1,1.8,8.432,8.432,0,0,1,.38,2.76,9.343,9.343,0,0,1-.44,3.14,5.28,5.28,0,0,1-1.12,1.94,3.991,3.991,0,0,1-1.54,1.02,5.079,5.079,0,0,1-1.7.3,4.4,4.4,0,0,1-1.22-.16,4.023,4.023,0,0,1-.88-.36,2.707,2.707,0,0,1-.56-.38,2.021,2.021,0,0,1-.24-.26v6h-3.32V62.514a1.21,1.21,0,0,1,.3-.04c.1-.02.22-.02.34-.04.14,0,.28-.02.46-.02a3.208,3.208,0,0,1,1.38.26,1.3,1.3,0,0,1,.7.9Zm4.4,4.5a7.322,7.322,0,0,0-.12-1.36,3.582,3.582,0,0,0-.4-1.1,2.026,2.026,0,0,0-.76-.72,2.314,2.314,0,0,0-1.16-.26,2.119,2.119,0,0,0-1.42.38,1.2,1.2,0,0,0-.4.86v5.18a2.6,2.6,0,0,0,.7.46,2.419,2.419,0,0,0,1.16.26,1.971,1.971,0,0,0,1.82-.98A5.34,5.34,0,0,0,68.625,68.074Zm6,4.2a4.2,4.2,0,0,1-.22-1.02,9.747,9.747,0,0,1-.04-1.08v-11.3a2.2,2.2,0,0,1,.36-.04c.12-.02.24-.02.36-.04.12,0,.26-.02.38-.02a3.445,3.445,0,0,1,.78.08,1.469,1.469,0,0,1,.7.3,1.535,1.535,0,0,1,.52.6,2.3,2.3,0,0,1,.2.98v1.74h3.42v2.46h-3.4v5.2c0,1.14.46,1.7,1.38,1.7a2.254,2.254,0,0,0,.64-.1q.3-.12.54-.24a2.193,2.193,0,0,0,.42-.28c.12-.1.2-.18.26-.22a7.582,7.582,0,0,1,.56.92,1.787,1.787,0,0,1,.2.74.9.9,0,0,1-.26.62,2.646,2.646,0,0,1-.72.56,3.852,3.852,0,0,1-1.12.42,6.479,6.479,0,0,1-1.44.16,4.2,4.2,0,0,1-2.36-.58,3.606,3.606,0,0,1-1.16-1.56Zm14.86-.32a3.625,3.625,0,0,0,1.08-.14,5.227,5.227,0,0,0,.84-.32,3.939,3.939,0,0,0,.64-.42q.27-.24.48-.42a6.96,6.96,0,0,1,.62.94,2,2,0,0,1,.32.94,1.24,1.24,0,0,1-.6.98,4.748,4.748,0,0,1-1.46.68,7.95,7.95,0,0,1-2.2.28,8.662,8.662,0,0,1-2.26-.3,4.928,4.928,0,0,1-3.38-2.98,7.761,7.761,0,0,1-.54-3.1,6.621,6.621,0,0,1,.48-2.64,5.367,5.367,0,0,1,1.26-1.84,5.152,5.152,0,0,1,1.8-1.08,6.419,6.419,0,0,1,2.04-.34,5.794,5.794,0,0,1,2.32.42,4.085,4.085,0,0,1,1.54,1.14,4.447,4.447,0,0,1,.86,1.64,6.886,6.886,0,0,1,.26,1.94v.34a3.1,3.1,0,0,1-.02.42c0,.14-.02.28-.02.42a1.253,1.253,0,0,1-.04.32h-7.18a3.779,3.779,0,0,0,.84,2.24,2.858,2.858,0,0,0,2.32.88Zm1.12-4.94a3.561,3.561,0,0,0-.46-1.9,1.767,1.767,0,0,0-1.62-.74,2,2,0,0,0-1.6.7,2.852,2.852,0,0,0-.6,1.94Zm8.76-3.38a5.588,5.588,0,0,1,.38-.48,2.435,2.435,0,0,1,.6-.48,4.643,4.643,0,0,1,.78-.36,2.692,2.692,0,0,1,.92-.14c.2,0,.4.02.62.04a2.633,2.633,0,0,1,.6.18,1.156,1.156,0,0,1,.46.36.894.894,0,0,1,.18.56,3.349,3.349,0,0,1-.26,1.22,9.592,9.592,0,0,1-.54,1.18,4.263,4.263,0,0,0-.82-.52,2.449,2.449,0,0,0-.98-.18,1.829,1.829,0,0,0-1.26.44,1.364,1.364,0,0,0-.52,1.06v7.88h-3.32v-11.9a1.211,1.211,0,0,1,.3-.04c.1-.02.22-.02.34-.04.12,0,.28-.02.46-.02a2.9,2.9,0,0,1,1.36.3,1.458,1.458,0,0,1,.7.94Zm9.42,0a5.588,5.588,0,0,1,.38-.48,2.435,2.435,0,0,1,.6-.48,4.643,4.643,0,0,1,.78-.36,2.692,2.692,0,0,1,.92-.14c.2,0,.4.02.62.04a2.633,2.633,0,0,1,.6.18,1.156,1.156,0,0,1,.46.36.894.894,0,0,1,.18.56,3.349,3.349,0,0,1-.26,1.22,9.593,9.593,0,0,1-.54,1.18,4.263,4.263,0,0,0-.82-.52,2.449,2.449,0,0,0-.98-.18,1.829,1.829,0,0,0-1.26.44,1.364,1.364,0,0,0-.52,1.06v7.88h-3.32v-11.9a1.21,1.21,0,0,1,.3-.04c.1-.02.22-.02.34-.04.12,0,.28-.02.46-.02a2.9,2.9,0,0,1,1.36.3,1.458,1.458,0,0,1,.7.94Zm15.82,7.56a5.293,5.293,0,0,0,.56,2.8,3.714,3.714,0,0,1-.82.24,5.162,5.162,0,0,1-.8.08,2.213,2.213,0,0,1-1.32-.34,1.537,1.537,0,0,1-.58-.98,4.218,4.218,0,0,1-1.42.96,5.253,5.253,0,0,1-2.14.38,5,5,0,0,1-1.32-.18,3.388,3.388,0,0,1-1.2-.6,3.244,3.244,0,0,1-.88-1.1,3.867,3.867,0,0,1-.34-1.68,3.233,3.233,0,0,1,.6-2.02,4.253,4.253,0,0,1,1.5-1.22,7.1,7.1,0,0,1,1.94-.62,18.88,18.88,0,0,1,1.92-.22,5.619,5.619,0,0,1,.58-.02h.52v-.44a1.626,1.626,0,0,0-.5-1.34,2.676,2.676,0,0,0-1.62-.4,4.9,4.9,0,0,0-1.86.34,13.107,13.107,0,0,0-1.6.78,3.275,3.275,0,0,1-.54-.92,2.145,2.145,0,0,1-.2-.74.888.888,0,0,1,.38-.66,3.85,3.85,0,0,1,1.04-.58,8.705,8.705,0,0,1,1.52-.42,10.214,10.214,0,0,1,1.8-.16,7.861,7.861,0,0,1,2.22.26,3.655,3.655,0,0,1,1.48.82,3.176,3.176,0,0,1,.82,1.4,7.2,7.2,0,0,1,.24,1.96l.02,4.62Zm-3.12-2.82h-.34a1.941,1.941,0,0,0-.34.02c-.4.04-.8.08-1.2.14a3.3,3.3,0,0,0-1.06.34,2.361,2.361,0,0,0-.76.64,1.606,1.606,0,0,0-.3,1,1.762,1.762,0,0,0,.38,1.16,1.61,1.61,0,0,0,1.32.48,3.223,3.223,0,0,0,.88-.12,2.759,2.759,0,0,0,.74-.32,2.205,2.205,0,0,0,.5-.42.741.741,0,0,0,.18-.42v-2.5Z" transform="translate(-33.625 -57.454)" fill="#044d80"/>
    </g>
  </g>
</svg>
