<svg xmlns="http://www.w3.org/2000/svg" width="125" height="35.5" viewBox="0 0 125 35.5">
  <g id="Group_3" data-name="Group 3" transform="translate(-20.364 -356.818)">
    <path id="Path_17" data-name="Path 17" d="M264.757,356.818h5.75v35.5h-5.75Z" transform="translate(-211.894)" fill="#17313b"/>
    <path id="Path_18" data-name="Path 18" d="M355.711,456.053c0,5.5-4.5,6-6,6-3.5,0-4-3.25-4-5V443.3h-5.75v13.5c0,3.25,1,6.25,3,8a9.048,9.048,0,0,0,6.75,2.5c2,0,4.5-.5,6-2v2h5.75v-24h-5.75S355.711,456.053,355.711,456.053Z" transform="translate(-277.098 -74.984)" fill="#17313b"/>
    <path id="Path_19" data-name="Path 19" d="M521.05,377.506H515.3v8.75h-4.25v5.5h4.25v18.5h5.75v-18.5h4.25v-5.5h-4.25Z" transform="translate(-425.436 -17.937)" fill="#17313b"/>
    <path id="Path_20" data-name="Path 20" d="M642.72,456.781a7.9,7.9,0,0,1-4.75,1.75,6.634,6.634,0,0,1-6.75-7,6.43,6.43,0,0,1,6.75-6.75,6.6,6.6,0,0,1,4.75,1.75l.751.751,4-3.751-1-.751a12.819,12.819,0,0,0-8.5-3.25,12.25,12.25,0,1,0,0,24.5,12.819,12.819,0,0,0,8.5-3.25l1-.751-4-4Z" transform="translate(-524.857 -71.713)" fill="#17313b"/>
    <path id="Path_21" data-name="Path 21" d="M827.47,370.319a7.934,7.934,0,0,0-6.25-2.5,7.518,7.518,0,0,0-5.5,2v-13H809.97v35.5h5.75V379.069c0-5.5,3.751-6,5.251-6,3.5,0,3.25,3.25,3.25,5v14h5.75v-13.75C829.97,375.069,829.219,372.069,827.47,370.319Z" transform="translate(-684.606)" fill="#17313b"/>
    <path id="Path_22" data-name="Path 22" d="M693.891,505.593a4,4,0,0,1-4,4h0a4,4,0,0,1-4-4h0a4,4,0,0,1,4-4h0a4,4,0,0,1,4,4Z" transform="translate(-577.027 -125.523)" fill="#ef4335"/>
    <path id="Path_23" data-name="Path 23" d="M44.863,391.669a11.723,11.723,0,0,1-8.25,3.25c-6.25,0-10.75-5-10.75-11.751s4.5-11.751,11-11.751a11.764,11.764,0,0,1,8.25,3.5l.751.751,3.751-3.751-.751-.751a16.836,16.836,0,0,0-12-5c-9.5-.25-16.5,7.25-16.5,17s7,17.25,16.251,17.25a16.418,16.418,0,0,0,12-5l.751-.751-3.751-3.751Z" transform="translate(0 -8.1)" fill="#17313b"/>
  </g>
</svg>
