<svg xmlns="http://www.w3.org/2000/svg" width="100" height="100" viewBox="0 0 100 100">
  <g id="Group_1" data-name="Group 1" transform="translate(-273 -41)">
    <path id="Path-Copy-2" d="M65.89,15.83h0a50,50,0,0,1,50,50h0a50,50,0,0,1-50,50h0a50,50,0,0,1-50-50h0A50,50,0,0,1,65.89,15.83Z" transform="translate(257.11 25.17)" fill-rule="evenodd"/>
    <path id="Path_1" data-name="Path 1" d="M334.784,316.966a13.909,13.909,0,0,1-8.37,3.084c-7.049,0-11.894-5.286-11.894-12.335s4.845-11.894,11.894-11.894a11.629,11.629,0,0,1,8.37,3.084l1.322,1.322,7.049-6.608-1.762-1.322a22.587,22.587,0,0,0-14.978-5.727,21.585,21.585,0,1,0,0,43.17,22.587,22.587,0,0,0,14.978-5.727l1.762-1.322-7.049-7.049Z" transform="translate(-2.01 -217.629)" fill="#fff"/>
    <path id="Path_2" data-name="Path 2" d="M455.5,434.479a7.049,7.049,0,0,1-7.049,7.049h0a7.049,7.049,0,0,1-7.049-7.049h0a7.049,7.049,0,0,1,7.049-7.049h0a7.049,7.049,0,0,1,7.049,7.049Z" transform="translate(-124.486 -343.952)" fill="#fff"/>
  </g>
</svg>
