<svg xmlns="http://www.w3.org/2000/svg" width="130.004" height="30.345" viewBox="0 0 130.004 30.345">
  <g id="Group_1" data-name="Group 1" transform="translate(-885 -602)">
    <g id="Group_16" data-name="Group 16" transform="translate(920.101 608.105)">
      <g id="Group_8" data-name="Group 8" transform="translate(0 3.654)">
        <path id="Path_75" data-name="Path 75" d="M45.171,21.977H47.7a5.442,5.442,0,0,1-2.113,3.209,6.485,6.485,0,0,1-3.924,1.144,5.632,5.632,0,0,1-4.481-1.859,7.52,7.52,0,0,1-1.6-5.18,7.475,7.475,0,0,1,1.557-5.021A5.576,5.576,0,0,1,41.6,12.412a5.987,5.987,0,0,1,4.671,1.811,6.977,6.977,0,0,1,1.3,2.558H44.043a2.958,2.958,0,0,0-.508-.747,2.758,2.758,0,0,0-3.67,0,4.912,4.912,0,0,0-.906,3.321,4.743,4.743,0,0,0,.906,3.273,2.344,2.344,0,0,0,1.954.81,2.923,2.923,0,0,0,1.462-.35.613.613,0,0,0,.27-.175l.27-.27a2.349,2.349,0,0,1,.4-.4,1.681,1.681,0,0,1,.95-.266Z" transform="translate(-35.574 -12.412)" fill="#173b5d"/>
      </g>
      <g id="Group_9" data-name="Group 9" transform="translate(12.663 3.972)">
        <path id="Path_76" data-name="Path 76" d="M47.848,26.083V19.6a8.356,8.356,0,0,1,.572-3.289,5.526,5.526,0,0,1,1.573-2.129,6.582,6.582,0,0,1,2.24-1.112,9.859,9.859,0,0,1,2.637-.35h.508V16.3h-1.16a2.968,2.968,0,0,0-2.161.7,3.042,3.042,0,0,0-.7,2.209v6.9Z" transform="translate(-47.848 -12.72)" fill="#173b5d"/>
      </g>
      <g id="Group_10" data-name="Group 10" transform="translate(20.273 3.659)">
        <path id="Path_77" data-name="Path 77" d="M57.179,24.885a5.015,5.015,0,0,1-1.509-2.431,10.846,10.846,0,0,1-.445-3.194,9.843,9.843,0,0,1,.381-2.717,5.6,5.6,0,0,1,1.176-2.256,5.15,5.15,0,0,1,3.352-1.78,7.548,7.548,0,0,1,3.718.334,5.113,5.113,0,0,1,2.812,2.622,8.327,8.327,0,0,1,.858,3.861,9.568,9.568,0,0,1-.35,2.765,7.3,7.3,0,0,1-.906,1.954A5.031,5.031,0,0,1,63.2,26.108a6.783,6.783,0,0,1-3.337.079,5.99,5.99,0,0,1-2.684-1.3Zm2.4-8.834a4.692,4.692,0,0,0-.953,3.448,5.416,5.416,0,0,0,.858,3.194,2.217,2.217,0,0,0,1.049.667,2.331,2.331,0,0,0,1.541.048,2.562,2.562,0,0,0,1.382-1.128,5.687,5.687,0,0,0,.651-2.908,5.163,5.163,0,0,0-.572-2.717A2.621,2.621,0,0,0,62.2,15.5a2.451,2.451,0,0,0-1.509-.032,2.515,2.515,0,0,0-1.112.588Z" transform="translate(-55.223 -12.417)" fill="#173b5d"/>
      </g>
      <g id="Group_11" data-name="Group 11" transform="translate(33.128 3.956)">
        <path id="Path_78" data-name="Path 78" d="M67.683,26.083V23.414l7.182-7.944H69.8a1.64,1.64,0,0,1-1.208-.477,1.575,1.575,0,0,1-.508-1.176V12.7H79.043v2.876l-7.086,7.595H79.3V26.1Z" transform="translate(-67.683 -12.705)" fill="#173b5d"/>
      </g>
      <g id="Group_12" data-name="Group 12" transform="translate(44.996)">
        <path id="Path_79" data-name="Path 79" d="M88.339,8.87h1.716a1.633,1.633,0,0,1,1.208.524,1.731,1.731,0,0,1,.508,1.176v9.8c0,2.383-.7,3.988-2.081,4.83a8.356,8.356,0,0,1-4.465,1.255,7.789,7.789,0,0,1-2.558-.429,4.242,4.242,0,0,1-2.018-1.382,8.013,8.013,0,0,1-1.462-5.068,8.219,8.219,0,0,1,1.462-5.084,4.872,4.872,0,0,1,6.069-1.446A4.947,4.947,0,0,1,88.355,14.6V8.87ZM82.6,19.42a5.291,5.291,0,0,0,.747,3.066,2.489,2.489,0,0,0,2.161,1.049,2.461,2.461,0,0,0,2.113-1.049,5.476,5.476,0,0,0,.7-3.066,4.887,4.887,0,0,0-.747-2.86,2.606,2.606,0,0,0-2.161-1,2.378,2.378,0,0,0-2.066,1.049A4.452,4.452,0,0,0,82.6,19.42Z" transform="translate(-79.187 -8.87)" fill="#173b5d"/>
      </g>
      <g id="Group_13" data-name="Group 13" transform="translate(57.866 3.654)">
        <path id="Path_80" data-name="Path 80" d="M101.242,21.977h2.526a5.442,5.442,0,0,1-2.113,3.209,6.485,6.485,0,0,1-3.924,1.144,5.576,5.576,0,0,1-4.465-1.859,7.52,7.52,0,0,1-1.6-5.18,7.475,7.475,0,0,1,1.557-5.021A5.588,5.588,0,0,1,97.7,12.412a5.987,5.987,0,0,1,4.671,1.811,7.712,7.712,0,0,1,1.6,5.18v.556a1.239,1.239,0,0,1-.048.35H95.236a3.465,3.465,0,0,0,.747,2.3,2.344,2.344,0,0,0,1.954.81,2.923,2.923,0,0,0,1.462-.35.535.535,0,0,0,.27-.175l.27-.27a1.141,1.141,0,0,1,.381-.4,1.587,1.587,0,0,1,.922-.247ZM95.22,18.069h5.132a3.308,3.308,0,0,0-.7-2.018,2.758,2.758,0,0,0-3.67,0,2.82,2.82,0,0,0-.763,2.018Z" transform="translate(-91.661 -12.412)" fill="#173b5d"/>
      </g>
      <g id="Group_14" data-name="Group 14" transform="translate(70.418 3.67)">
        <path id="Path_81" data-name="Path 81" d="M103.827,21.675h3.416a1.871,1.871,0,0,0,.747,1.509,3.613,3.613,0,0,0,2.018.508,3.125,3.125,0,0,0,1.557-.365,1.055,1.055,0,0,0,.6-.953c0-.6-.7-1.049-2.113-1.351a9.759,9.759,0,0,1-1.351-.3,7.873,7.873,0,0,1-3.575-1.557,3.106,3.106,0,0,1-1-2.415,4.027,4.027,0,0,1,1.446-3.162,6.329,6.329,0,0,1,3.924-1.16,6.824,6.824,0,0,1,4.179,1.16,4.444,4.444,0,0,1,1.557,3.273h-2.161A1.615,1.615,0,0,1,111.612,16l-.4-.4a2.686,2.686,0,0,0-1.652-.445,2.942,2.942,0,0,0-1.509.3.972.972,0,0,0-.445.906c0,.54.874.985,2.622,1.351.175.064.35.111.524.159a1.972,1.972,0,0,0,.429.048,9.233,9.233,0,0,1,3.575,1.509,3.183,3.183,0,0,1,.953,2.415,4.018,4.018,0,0,1-1.6,3.416,7.65,7.65,0,0,1-4.512,1.1,6.6,6.6,0,0,1-4.274-1.16,4.028,4.028,0,0,1-1.462-3.352Z" transform="translate(-103.827 -12.428)" fill="#173b5d"/>
      </g>
      <g id="Group_15" data-name="Group 15" transform="translate(82.843 0.048)">
        <path id="Path_82" data-name="Path 82" d="M119.381,12.841v4.925l4.274-4.925h4.226L123.1,17.957l4.83,8.246H123.7l-2.463-4.528c-.508-.906-.937-1.287-1.3-1.16s-.556.334-.556.6v5.068H115.87V8.917h1.811a1.644,1.644,0,0,1,1.208.508,1.6,1.6,0,0,1,.508,1.16Z" transform="translate(-115.87 -8.917)" fill="#173b5d"/>
      </g>
    </g>
    <path id="Exclusion_1" data-name="Exclusion 1" d="M13.708,30.345a4.332,4.332,0,0,1-2.312-.668C8.585,28.05,5.719,26.4,2.948,24.795l-.006,0-.618-.357A4.337,4.337,0,0,1,0,20.415c.014-1.758.014-3.551.014-5.285q0-.857,0-1.715c0-1.125.007-2.288,0-3.433A4.376,4.376,0,0,1,2.4,5.847C5.448,4.1,8.469,2.362,11.381.667a4.423,4.423,0,0,1,4.671,0l2.912,1.684c2,1.158,4.07,2.356,6.113,3.527a4.365,4.365,0,0,1,2.336,4v10.6a4.342,4.342,0,0,1-2.32,3.955c-2.39,1.384-4.827,2.791-7.184,4.153l-.019.011L16.02,29.677A4.332,4.332,0,0,1,13.708,30.345ZM13.416,5.351h0a.82.82,0,0,0-.374.122l-.959.552c-.911.524-1.853,1.065-2.775,1.609a.665.665,0,0,0-.143.078l-.915.531c-.88.512-1.79,1.041-2.692,1.55a.968.968,0,0,0-.54.762A.1.1,0,0,1,5,10.623c-.011.011-.007.03,0,.046a.092.092,0,0,1,0,.018v8.866a.984.984,0,0,0,.556.953c1.238.717,2.5,1.445,3.723,2.149l.008,0c1.265.73,2.573,1.484,3.864,2.231a1.052,1.052,0,0,0,.842.127,1.722,1.722,0,0,0,.3-.127c.735-.432,1.488-.863,2.216-1.281q.695-.4,1.391-.8c.028-.019.05-.032.073-.046l.054-.033,3.734-2.161c.223-.128.336-.262.336-.4s-.122-.282-.361-.418l-.994-.572-.014-.008c-.9-.516-1.822-1.048-2.726-1.581a.984.984,0,0,0-1.1,0c-.468.283-.953.557-1.421.823s-.924.524-1.379.8a.7.7,0,0,1-.588.111c-1.03-.605-2.039-1.194-3.066-1.748a.811.811,0,0,1-.477-.858c.016-1.1.016-2.2,0-3.273a.673.673,0,0,1,.413-.683c.434-.243.871-.5,1.294-.741.492-.285,1-.579,1.506-.858a.967.967,0,0,0,.556-.953c-.011-.954-.007-1.93,0-2.874v-.01q0-.713,0-1.423c0-.365-.11-.551-.326-.551Z" transform="translate(885 602)" fill="#1774d0"/>
  </g>
</svg>
