<svg xmlns="http://www.w3.org/2000/svg" width="130" height="30.347" viewBox="0 0 130 30.347">
  <g id="crozdesk" transform="translate(-1.555 -2.957)">
    <g id="Group_6" data-name="Group 6" transform="translate(1.555 2.957)">
      <path id="Path_73" data-name="Path 73" d="M1.571,18.083c0-1.716.016-3.432,0-5.148A4.374,4.374,0,0,1,3.955,8.8q4.5-2.574,8.977-5.18a4.421,4.421,0,0,1,4.671,0c3,1.732,6.006,3.48,9.025,5.211a4.342,4.342,0,0,1,2.336,4v10.6a4.318,4.318,0,0,1-2.32,3.956c-3.019,1.748-6.054,3.5-9.072,5.243a4.338,4.338,0,0,1-4.624,0c-3.019-1.748-6.054-3.5-9.072-5.243a4.324,4.324,0,0,1-2.32-4.02C1.571,21.61,1.571,19.846,1.571,18.083Z" transform="translate(-1.555 -2.957)" fill="#1774d0"/>
    </g>
    <g id="Group_7" data-name="Group 7" transform="translate(6.553 8.3)">
      <path id="Path_74" data-name="Path 74" d="M23.137,22.542c-1.239-.715-2.494-1.43-3.734-2.161a.984.984,0,0,0-1.1,0c-.922.556-1.875,1.065-2.8,1.621a.705.705,0,0,1-.588.111c-1-.588-2.034-1.192-3.066-1.748a.81.81,0,0,1-.477-.858c.016-1.1.016-2.193,0-3.273a.675.675,0,0,1,.413-.683c.937-.524,1.859-1.08,2.8-1.6a.963.963,0,0,0,.556-.953c-.016-1.43,0-2.876,0-4.306,0-.54-.238-.683-.7-.429-1.239.715-2.494,1.43-3.734,2.161a.644.644,0,0,0-.143.079c-1.208.7-2.4,1.4-3.607,2.081a.976.976,0,0,0-.54.763.1.1,0,0,1-.016.064c-.016.016,0,.048,0,.064v8.866a.977.977,0,0,0,.556.953c2.526,1.462,5.068,2.923,7.595,4.385a1.051,1.051,0,0,0,.842.127,1.722,1.722,0,0,0,.3-.127c1.192-.7,2.4-1.382,3.607-2.081.048-.032.079-.048.127-.079l3.734-2.161C23.614,23.1,23.614,22.812,23.137,22.542Z" transform="translate(-6.4 -8.136)" fill="#fff"/>
    </g>
    <g id="Group_16" data-name="Group 16" transform="translate(36.653 9.058)">
      <g id="Group_8" data-name="Group 8" transform="translate(0 3.654)">
        <path id="Path_75" data-name="Path 75" d="M45.171,21.977H47.7a5.442,5.442,0,0,1-2.113,3.209,6.485,6.485,0,0,1-3.924,1.144,5.632,5.632,0,0,1-4.481-1.859,7.52,7.52,0,0,1-1.6-5.18,7.475,7.475,0,0,1,1.557-5.021A5.576,5.576,0,0,1,41.6,12.412a5.987,5.987,0,0,1,4.671,1.811,6.977,6.977,0,0,1,1.3,2.558H44.043a2.958,2.958,0,0,0-.508-.747,2.758,2.758,0,0,0-3.67,0,4.912,4.912,0,0,0-.906,3.321,4.743,4.743,0,0,0,.906,3.273,2.344,2.344,0,0,0,1.954.81,2.923,2.923,0,0,0,1.462-.35.613.613,0,0,0,.27-.175l.27-.27a2.349,2.349,0,0,1,.4-.4A1.681,1.681,0,0,1,45.171,21.977Z" transform="translate(-35.574 -12.412)" fill="#173b5d"/>
      </g>
      <g id="Group_9" data-name="Group 9" transform="translate(12.663 3.972)">
        <path id="Path_76" data-name="Path 76" d="M47.848,26.083V19.6a8.356,8.356,0,0,1,.572-3.289,5.526,5.526,0,0,1,1.573-2.129,6.582,6.582,0,0,1,2.24-1.112,9.859,9.859,0,0,1,2.637-.35h.508V16.3h-1.16a2.968,2.968,0,0,0-2.161.7,3.042,3.042,0,0,0-.7,2.209v6.9Z" transform="translate(-47.848 -12.72)" fill="#173b5d"/>
      </g>
      <g id="Group_10" data-name="Group 10" transform="translate(20.273 3.659)">
        <path id="Path_77" data-name="Path 77" d="M57.179,24.885a5.015,5.015,0,0,1-1.509-2.431,10.846,10.846,0,0,1-.445-3.194,9.843,9.843,0,0,1,.381-2.717,5.6,5.6,0,0,1,1.176-2.256,5.15,5.15,0,0,1,3.352-1.78,7.548,7.548,0,0,1,3.718.334,5.113,5.113,0,0,1,2.812,2.622,8.327,8.327,0,0,1,.858,3.861,9.568,9.568,0,0,1-.35,2.765,7.3,7.3,0,0,1-.906,1.954A5.031,5.031,0,0,1,63.2,26.108a6.783,6.783,0,0,1-3.337.079A5.99,5.99,0,0,1,57.179,24.885Zm2.4-8.834a4.692,4.692,0,0,0-.953,3.448,5.416,5.416,0,0,0,.858,3.194,2.217,2.217,0,0,0,1.049.667,2.331,2.331,0,0,0,1.541.048,2.562,2.562,0,0,0,1.382-1.128,5.687,5.687,0,0,0,.651-2.908,5.163,5.163,0,0,0-.572-2.717,2.621,2.621,0,0,0-1.335-1.16,2.451,2.451,0,0,0-1.509-.032,2.515,2.515,0,0,0-1.112.588Z" transform="translate(-55.223 -12.417)" fill="#173b5d"/>
      </g>
      <g id="Group_11" data-name="Group 11" transform="translate(33.128 3.956)">
        <path id="Path_78" data-name="Path 78" d="M67.683,26.083V23.414l7.182-7.944H69.8a1.64,1.64,0,0,1-1.208-.477,1.575,1.575,0,0,1-.508-1.176V12.7H79.043v2.876l-7.086,7.595H79.3V26.1Z" transform="translate(-67.683 -12.705)" fill="#173b5d"/>
      </g>
      <g id="Group_12" data-name="Group 12" transform="translate(44.996)">
        <path id="Path_79" data-name="Path 79" d="M88.339,8.87h1.716a1.633,1.633,0,0,1,1.208.524,1.731,1.731,0,0,1,.508,1.176v9.8c0,2.383-.7,3.988-2.081,4.83a8.356,8.356,0,0,1-4.465,1.255,7.789,7.789,0,0,1-2.558-.429,4.242,4.242,0,0,1-2.018-1.382,8.013,8.013,0,0,1-1.462-5.068,8.219,8.219,0,0,1,1.462-5.084,4.872,4.872,0,0,1,6.069-1.446,4.947,4.947,0,0,1,1.637,1.557V8.87ZM82.6,19.42a5.291,5.291,0,0,0,.747,3.066,2.489,2.489,0,0,0,2.161,1.049,2.461,2.461,0,0,0,2.113-1.049,5.476,5.476,0,0,0,.7-3.066,4.887,4.887,0,0,0-.747-2.86,2.606,2.606,0,0,0-2.161-1,2.378,2.378,0,0,0-2.066,1.049A4.452,4.452,0,0,0,82.6,19.42Z" transform="translate(-79.187 -8.87)" fill="#173b5d"/>
      </g>
      <g id="Group_13" data-name="Group 13" transform="translate(57.866 3.654)">
        <path id="Path_80" data-name="Path 80" d="M101.242,21.977h2.526a5.442,5.442,0,0,1-2.113,3.209,6.485,6.485,0,0,1-3.924,1.144,5.576,5.576,0,0,1-4.465-1.859,7.52,7.52,0,0,1-1.6-5.18,7.475,7.475,0,0,1,1.557-5.021A5.588,5.588,0,0,1,97.7,12.412a5.987,5.987,0,0,1,4.671,1.811,7.712,7.712,0,0,1,1.6,5.18v.556a1.239,1.239,0,0,1-.048.35H95.236a3.465,3.465,0,0,0,.747,2.3,2.344,2.344,0,0,0,1.954.81,2.923,2.923,0,0,0,1.462-.35.535.535,0,0,0,.27-.175l.27-.27a1.141,1.141,0,0,1,.381-.4A1.587,1.587,0,0,1,101.242,21.977ZM95.22,18.069h5.132a3.308,3.308,0,0,0-.7-2.018,2.758,2.758,0,0,0-3.67,0,2.82,2.82,0,0,0-.763,2.018Z" transform="translate(-91.661 -12.412)" fill="#173b5d"/>
      </g>
      <g id="Group_14" data-name="Group 14" transform="translate(70.418 3.67)">
        <path id="Path_81" data-name="Path 81" d="M103.827,21.675h3.416a1.871,1.871,0,0,0,.747,1.509,3.613,3.613,0,0,0,2.018.508,3.125,3.125,0,0,0,1.557-.365,1.055,1.055,0,0,0,.6-.953c0-.6-.7-1.049-2.113-1.351a9.759,9.759,0,0,1-1.351-.3,7.873,7.873,0,0,1-3.575-1.557,3.106,3.106,0,0,1-1-2.415,4.027,4.027,0,0,1,1.446-3.162,6.329,6.329,0,0,1,3.924-1.16,6.824,6.824,0,0,1,4.179,1.16,4.444,4.444,0,0,1,1.557,3.273h-2.161A1.615,1.615,0,0,1,111.612,16l-.4-.4a2.686,2.686,0,0,0-1.652-.445,2.942,2.942,0,0,0-1.509.3.972.972,0,0,0-.445.906c0,.54.874.985,2.622,1.351.175.064.35.111.524.159a1.972,1.972,0,0,0,.429.048,9.233,9.233,0,0,1,3.575,1.509,3.183,3.183,0,0,1,.953,2.415,4.018,4.018,0,0,1-1.6,3.416,7.65,7.65,0,0,1-4.512,1.1,6.6,6.6,0,0,1-4.274-1.16,4.028,4.028,0,0,1-1.462-3.352Z" transform="translate(-103.827 -12.428)" fill="#173b5d"/>
      </g>
      <g id="Group_15" data-name="Group 15" transform="translate(82.843 0.048)">
        <path id="Path_82" data-name="Path 82" d="M119.381,12.841v4.925l4.274-4.925h4.226L123.1,17.957l4.83,8.246H123.7l-2.463-4.528c-.508-.906-.937-1.287-1.3-1.16s-.556.334-.556.6v5.068H115.87V8.917h1.811a1.644,1.644,0,0,1,1.208.508,1.6,1.6,0,0,1,.508,1.16Z" transform="translate(-115.87 -8.917)" fill="#173b5d"/>
      </g>
    </g>
  </g>
</svg>
