<?xml version="1.0" encoding="utf-8"?>
<!-- Generator: Adobe Illustrator 24.2.1, SVG Export Plug-In . SVG Version: 6.00 Build 0)  -->
<svg version="1.1" id="Layer_1" xmlns="http://www.w3.org/2000/svg" xmlns:xlink="http://www.w3.org/1999/xlink" x="0px" y="0px"
	 viewBox="0 0 1000 1000" style="enable-background:new 0 0 1000 1000;" xml:space="preserve">
<style type="text/css">
	.st0{fill:#FFFFFF;}
</style>
<circle cx="500" cy="500" r="493"/>
<g>
	<path class="st0" d="M692.21,606.45c-29.16-16.82-58.7-33.65-87.86-50.85c-7.85-5.23-17.95-5.23-25.8,0
		c-21.69,13.09-44.12,25.05-65.8,38.14c-4.11,2.99-8.97,3.74-13.83,2.62c-23.55-13.83-47.86-28.04-72.16-41.13
		c-7.85-3.36-12.34-11.59-11.22-20.19c0.37-25.8,0.37-51.6,0-77.02c-0.75-6.73,3.36-13.46,9.72-16.08
		c22.06-12.34,43.74-25.42,65.8-37.76c8.6-4.11,13.83-12.71,13.09-22.43c-0.37-33.65,0-67.67,0-101.32
		c0-12.71-5.61-16.08-16.45-10.09c-29.16,16.82-58.7,33.65-87.86,50.85c-1.12,0.37-2.24,1.12-3.36,1.87
		c-28.42,16.45-56.46,32.9-84.87,48.98c-7.1,3.36-11.59,10.09-12.71,17.95c0,0.37,0,1.12-0.37,1.5c-0.37,0.37,0,1.12,0,1.5
		s0,1.12,0,1.87c0,62.44,0,124.88,0,187.32c0,6.36,0,13.09,0,19.44c-0.75,9.35,4.49,18.32,13.09,22.43
		c59.45,34.4,119.27,68.79,178.72,103.19c5.98,3.74,13.09,4.86,19.82,2.99c2.62-0.75,4.86-1.87,7.1-2.99
		c28.04-16.45,56.46-32.53,84.87-48.98c1.12-0.75,1.87-1.12,2.99-1.87l87.86-50.85C703.43,619.53,703.43,612.8,692.21,606.45z"/>
</g>
</svg>
