<svg xmlns="http://www.w3.org/2000/svg" width="125" height="28.242" viewBox="0 0 125 28.242">
  <g id="energysage" transform="translate(-13.926 -61.695)">
    <path id="Path_83" data-name="Path 83" d="M137.811,73.922a14.834,14.834,0,0,0-2.384-4.569,43.534,43.534,0,0,0-6.785-7.243,1.723,1.723,0,0,0-2.277.031,45.715,45.715,0,0,0-5.7,5.838,20.321,20.321,0,0,0-2.858,4.4,8.028,8.028,0,0,0-.856,3.408,10.016,10.016,0,0,0,.627,3.606,10.478,10.478,0,0,0,7.564,6.724c.489.122.978.183,1.5.275a2.29,2.29,0,0,1,.031.336v2.277a.848.848,0,0,0,.856.932.87.87,0,0,0,.856-.947V86.744a2.108,2.108,0,0,1,.031-.336c.046-.031.061-.031.076-.046.183-.031.367-.046.55-.076a10.493,10.493,0,0,0,6.051-3.072,10.3,10.3,0,0,0,2.72-4.89A8.762,8.762,0,0,0,137.811,73.922Zm-1.895,4.63a8.634,8.634,0,0,1-7.243,6.036,8.869,8.869,0,0,1-9.872-7.136,7.592,7.592,0,0,1,1.085-5.364,28.773,28.773,0,0,1,4.4-5.578c.978-.993,2-1.925,3.01-2.888.061-.061.138-.107.229-.183.29.26.565.489.84.749a44.306,44.306,0,0,1,5.287,5.685,19.449,19.449,0,0,1,1.987,3.179A6.773,6.773,0,0,1,135.916,78.553Z" transform="translate(0.833 0)" fill="#616161"/>
    <path id="Path_84" data-name="Path 84" d="M60.182,70.994a1.684,1.684,0,0,0-.031-.275h-1.7v1.207a.257.257,0,0,1-.153-.107,2.874,2.874,0,0,0-4.676-.26,5.071,5.071,0,0,0-.917,2.262,13.762,13.762,0,0,0-.092,3.454,6.989,6.989,0,0,0,.642,2.6,3.02,3.02,0,0,0,5,.382,1.448,1.448,0,0,1,.168-.2c.015.122.046.2.046.275,0,.7.015,1.391,0,2.094a2.294,2.294,0,0,1-.138.7,1.867,1.867,0,0,1-2.353.978,1.409,1.409,0,0,1-1.024-1.161l-.046-.275H53.03a1.235,1.235,0,0,0-.015.229,2.018,2.018,0,0,0,.031.428A2.391,2.391,0,0,0,54.94,85.3a6.251,6.251,0,0,0,3.591-.138,2.182,2.182,0,0,0,1.543-1.727,4.842,4.842,0,0,0,.107-1.054Q60.182,76.694,60.182,70.994Zm-1.834,7.243a1.963,1.963,0,0,1-1.07,1.589,1.75,1.75,0,0,1-2.46-.871,6.168,6.168,0,0,1-.413-1.742,11.176,11.176,0,0,1,.076-3.423,3.7,3.7,0,0,1,.336-.947,1.669,1.669,0,0,1,1.635-.963,1.734,1.734,0,0,1,1.681,1.07,5.3,5.3,0,0,1,.367,2.063c.015.382,0,.779,0,1.161h.046C58.486,76.877,58.455,77.565,58.348,78.237Z" transform="translate(0.312 0.071)" fill="#616161"/>
    <path id="Path_85" data-name="Path 85" d="M100,71.07a2.744,2.744,0,0,0-.031-.336H98.338v1.207c-.031,0-.076.015-.107.015-.046-.076-.107-.153-.153-.229a2.87,2.87,0,0,0-4.218-.55,4.3,4.3,0,0,0-1.284,2.766,22.485,22.485,0,0,0-.122,2.69,7.661,7.661,0,0,0,.535,2.919A2.8,2.8,0,0,0,95.5,81.37a2.748,2.748,0,0,0,2.628-1.161,2.174,2.174,0,0,1,.183-.168.7.7,0,0,1,.046.168c0,.672.031,1.345.015,2.017a2.728,2.728,0,0,1-.153.856,1.848,1.848,0,0,1-2.246,1.07,1.493,1.493,0,0,1-1.207-1.314.672.672,0,0,0-.031-.153H92.9a2.006,2.006,0,0,0,.168,1.207,2.54,2.54,0,0,0,1.727,1.375,6.272,6.272,0,0,0,2.965.031,2.815,2.815,0,0,0,1.5-.688,2.764,2.764,0,0,0,.764-2.124C100.019,78.7,100,74.875,100,71.07Zm-1.834,7.4A1.847,1.847,0,0,1,96.963,79.9a1.8,1.8,0,0,1-2.369-1.039,5.952,5.952,0,0,1-.382-1.987,11.3,11.3,0,0,1,.138-3.209,3.5,3.5,0,0,1,.5-1.146,1.9,1.9,0,0,1,3.194.52,5.325,5.325,0,0,1,.321,1.834c.015.351,0,.688,0,1.177A7.41,7.41,0,0,1,98.17,78.466Z" transform="translate(0.635 0.071)" fill="#d37026"/>
    <path id="Path_86" data-name="Path 86" d="M42.505,72.491a2.739,2.739,0,0,0-2.078-1.88,6.216,6.216,0,0,0-2.491-.031,2.846,2.846,0,0,0-2.094,1.329,5.749,5.749,0,0,0-.581,1.5,13.951,13.951,0,0,0-.168,4.065,6.308,6.308,0,0,0,.55,2.353,2.718,2.718,0,0,0,1.88,1.6,5.964,5.964,0,0,0,2.98,0,2.832,2.832,0,0,0,2.216-2.338c.061-.29.061-.6.107-.9H40.977c-.061.229-.092.458-.153.657a1.919,1.919,0,0,1-3.668.031,9.27,9.27,0,0,1-.245-1.3c-.046-.321-.031-.642-.061-1.009h6.067A12.623,12.623,0,0,0,42.505,72.491ZM41.053,75.3H36.82c.076-.642.153-1.238.229-1.849a2.361,2.361,0,0,1,.092-.351A1.732,1.732,0,0,1,39.2,71.788a1.655,1.655,0,0,1,1.681,1.436A5.9,5.9,0,0,1,41.053,75.3Z" transform="translate(0.171 0.071)" fill="#616161"/>
    <path id="Path_87" data-name="Path 87" d="M21.8,75.639a10.924,10.924,0,0,0-.321-2.9,2.7,2.7,0,0,0-2.2-2.109,8.716,8.716,0,0,0-1.895-.107,3.191,3.191,0,0,0-3.194,2.674,15.046,15.046,0,0,0-.26,3.606,8.318,8.318,0,0,0,.367,2.445,2.959,2.959,0,0,0,2.277,2.231,6.8,6.8,0,0,0,2.292.076,3.642,3.642,0,0,0,1.574-.581,3.036,3.036,0,0,0,1.223-2.781h-1.8c-.015.107-.046.214-.061.321a1.858,1.858,0,0,1-1.635,1.7,1.774,1.774,0,0,1-2.155-1.345A8.248,8.248,0,0,1,15.8,77.61c-.046-.321-.046-.657-.061-1.039h6.051C21.8,76.235,21.8,75.929,21.8,75.639ZM15.75,75.3c.015-.367.031-.7.061-1.039a3.876,3.876,0,0,1,.489-1.742,1.4,1.4,0,0,1,1.146-.718,4.306,4.306,0,0,1,.993.015,1.3,1.3,0,0,1,.978.581,5.256,5.256,0,0,1,.565,2.9Z" transform="translate(0 0.071)" fill="#616161"/>
    <path id="Path_88" data-name="Path 88" d="M110.554,72.72a2.734,2.734,0,0,0-2.17-2.078,6.339,6.339,0,0,0-2.4-.046,3.05,3.05,0,0,0-2.644,2.445,10.847,10.847,0,0,0-.214,1.192,13.4,13.4,0,0,0,.244,4.936,2.878,2.878,0,0,0,2.216,2.277,6.1,6.1,0,0,0,2.827-.015,2.76,2.76,0,0,0,2.17-2.048,2.677,2.677,0,0,0,.138-1.161h-1.788c-.031.168-.061.306-.092.428a1.831,1.831,0,0,1-1.574,1.574,1.767,1.767,0,0,1-2.185-1.3,14.071,14.071,0,0,1-.275-1.6,5.626,5.626,0,0,1,0-.718h5.975c.031-.092.046-.107.046-.138A11,11,0,0,0,110.554,72.72Zm-1.5,2.583h-4.172c-.015-.046-.046-.076-.046-.122a5.809,5.809,0,0,1,.351-2.338,1.684,1.684,0,0,1,1.864-1.116c1.161.092,1.543.382,1.819,1.513a12.852,12.852,0,0,1,.2,1.88C109.1,75.2,109.072,75.242,109.057,75.3Z" transform="translate(0.72 0.071)" fill="#d37026"/>
    <path id="Path_89" data-name="Path 89" d="M89.438,81.355c0-.107-.015-.183-.015-.26-.061-.9-.153-1.8-.168-2.72-.031-1.589,0-3.179-.015-4.768a4.99,4.99,0,0,0-.122-1.07,2.26,2.26,0,0,0-1.559-1.773,5.82,5.82,0,0,0-3.026-.153,2.518,2.518,0,0,0-2.17,1.971c-.076.336-.107.672-.168,1.039h1.788a4.465,4.465,0,0,1,.092-.672,1.589,1.589,0,0,1,1.834-1.207,1.518,1.518,0,0,1,1.375.734,4.326,4.326,0,0,1,.306,2.308h-.7a9.822,9.822,0,0,0-2.751.321,2.771,2.771,0,0,0-2.124,2.277,5.593,5.593,0,0,0,.168,2.46,2.127,2.127,0,0,0,1.436,1.543,5.071,5.071,0,0,0,1.268.168,2.488,2.488,0,0,0,2.552-1.528,1.071,1.071,0,0,1,.122-.153c.031,0,.061.015.092.015v1.452h1.788Zm-2.353-2.109a1.936,1.936,0,0,1-2.216.947,1.686,1.686,0,0,1-1.223-1.543,3.833,3.833,0,0,1,.031-1.024,1.747,1.747,0,0,1,1.375-1.375,7.827,7.827,0,0,1,2.308-.2c.061,0,.122.031.168.031.015.031.046.061.046.076A5.492,5.492,0,0,1,87.084,79.246Z" transform="translate(0.55 0.071)" fill="#d37026"/>
    <path id="Path_90" data-name="Path 90" d="M62,70.717h1.971q1.284,4.355,2.552,8.68h.092c.856-2.888,1.712-5.792,2.552-8.68h1.849q-2.43,7.381-4.844,14.731H64.415c.138-.474.26-.917.4-1.36.245-.81.489-1.6.718-2.414a.887.887,0,0,0,0-.489c-1.116-3.316-2.231-6.617-3.347-9.933C62.138,71.1,62.077,70.915,62,70.717Z" transform="translate(0.389 0.073)" fill="#616161"/>
    <path id="Path_91" data-name="Path 91" d="M32.182,81.385H30.5c0-.107-.015-.214-.015-.321V74.111a4.641,4.641,0,0,0-.061-.795,1.623,1.623,0,0,0-1.712-1.452,2.063,2.063,0,0,0-2.277,2.078A8.133,8.133,0,0,0,26.375,75V81.37H24.649V70.719h1.727v1.391c.092-.092.153-.122.183-.168a2.942,2.942,0,0,1,3.026-1.452,4.352,4.352,0,0,1,.779.107,2.165,2.165,0,0,1,1.666,1.818,6.744,6.744,0,0,1,.153,1.36c.015,2.445,0,4.905,0,7.35Z" transform="translate(0.087 0.071)" fill="#616161"/>
    <path id="Path_92" data-name="Path 92" d="M72.233,78.206h1.849c.015.2.031.382.061.565a1.687,1.687,0,0,0,2.094,1.467,1.628,1.628,0,0,0,1.482-1.024,1.207,1.207,0,0,0-.428-1.574,16.57,16.57,0,0,0-1.91-1.07,10.555,10.555,0,0,1-2.032-1.223,2.7,2.7,0,0,1,.993-4.569,5.248,5.248,0,0,1,3.454.015,2.423,2.423,0,0,1,1.681,2.414,1.763,1.763,0,0,1-.031.245H77.627a2.52,2.52,0,0,0-.061-.489,1.512,1.512,0,0,0-1.543-1.223,2,2,0,0,0-1.3.382,1.242,1.242,0,0,0,.046,2.063c.764.474,1.6.81,2.384,1.253A10.3,10.3,0,0,1,78.7,76.449a2.606,2.606,0,0,1,.81,2.644,2.756,2.756,0,0,1-2.369,2.369,6.088,6.088,0,0,1-2.873-.076,2.678,2.678,0,0,1-2.017-2.552A4.184,4.184,0,0,1,72.233,78.206Z" transform="translate(0.471 0.071)" fill="#d37026"/>
    <path id="Path_93" data-name="Path 93" d="M47.506,81.386h-1.65V70.719h1.681v1.513c.031.015.061.015.076.031a2.552,2.552,0,0,1,1.666-1.62c.5-.107,1.039-.138,1.589-.214v1.8c-.214-.031-.428-.061-.642-.076a2.183,2.183,0,0,0-2.506,1.6,5.5,5.5,0,0,0-.183,1.223c-.031.795-.015,1.589-.015,2.384v3.683C47.522,81.141,47.506,81.263,47.506,81.386Z" transform="translate(0.258 0.071)" fill="#616161"/>
    <path id="Path_94" data-name="Path 94" d="M131.683,74.7a.778.778,0,0,0-.84-.29c-.245.046-.489.092-.734.122-.214.031-.443.061-.672.092a.823.823,0,0,1-.015-.168l.183-3.163c.046-.917.107-1.834.138-2.751a.732.732,0,0,0-.627-.795.752.752,0,0,0-.825.5c-.428.993-.856,2-1.268,3-.825,1.925-1.635,3.851-2.46,5.761a.769.769,0,0,0,.061.825.736.736,0,0,0,.779.29l.81-.138c.2-.031.4-.061.657-.092-.092.443-.153.825-.229,1.207-.229,1.192-.474,2.384-.7,3.576a.737.737,0,0,0,.474.917.764.764,0,0,0,.932-.382c.428-.718.84-1.452,1.253-2.185,1.039-1.819,2.078-3.622,3.117-5.44A.843.843,0,0,0,131.683,74.7Zm-4.646,7.152c-.031-.015-.061-.015-.092-.031.275-1.65.565-3.3.856-5.028-.795.138-1.528.26-2.353.4,1.1-2.583,2.17-5.1,3.24-7.61.031,0,.061.015.092.015-.107,2.032-.2,4.05-.306,6.128.764-.122,1.467-.245,2.185-.367.015.015.031.046.061.061Q128.887,78.649,127.038,81.851Z" transform="translate(0.893 0.049)" fill="#616161"/>
  </g>
</svg>
