<svg xmlns="http://www.w3.org/2000/svg" width="109.682" height="21.276" viewBox="0 0 109.682 21.276">
  <path id="svg_1" d="M6.949,20.949H2.816V10.623H0V7.26H2.816V4.866C2.816,2.033,4.061,0,8.182,0a22.416,22.416,0,0,1,2.24.177V3.3H8.986c-1.465,0-2.039.443-2.039,1.685V7.26h3.42l-.3,3.362H6.949ZM16.436,6.992h-.184c-3.83,0-5.586,2.889-5.586,6.991,0,5.167,2.275,7.235,5.616,7.235a4.037,4.037,0,0,0,3.928-2.311v2.039h3.928V7.262h-3.93v2.1a4.027,4.027,0,0,0-3.778-2.37Zm1,3.234c1.61,0,2.576,1.126,2.576,3.04v1.95a2.616,2.616,0,0,1-2.579,2.8c-2.74,0-2.666-2.964-2.666-3.952,0-3.32,1.459-3.842,2.666-3.842Zm8.3,3.881c0-1.664-.08-7.106,7-7.106a7,7,0,0,1,4.027.905L35.8,10.87a6.211,6.211,0,0,0-2.727-.654,2.946,2.946,0,0,0-3.241,3.172v1.449a3.02,3.02,0,0,0,3.237,3.238,6.763,6.763,0,0,0,2.7-.66l.95,2.9s-1.081.911-3.982.911c-6.738,0-7.016-4.883-7.016-7.117ZM59.8,7c3.83,0,5.614,2.889,5.614,6.991,0,5.167-2.275,7.235-5.616,7.235A4.266,4.266,0,0,1,55.71,18.91v2.039H51.829V.417L55.954.056V9.182C56.548,7.587,58.507,7,59.8,7Zm-1.153,3.232c-1.61,0-2.7,1.126-2.7,3.04v1.95a2.614,2.614,0,0,0,2.7,2.8c2.74,0,2.666-2.964,2.666-3.952,0-3.32-1.459-3.842-2.666-3.842ZM43.9,7c-4.344,0-6.642,2.375-6.642,6.6v.786c0,5.478,3.223,6.89,7.064,6.89,3.733,0,5.425-1.047,5.425-1.047l-.771-2.788a12,12,0,0,1-4.159.848c-2.251,0-3.218-.575-3.467-2.743h8.73V13.311c0-4.578-2.571-6.3-6.178-6.3Zm.108,2.8c1.507,0,2.482.926,2.426,3.069H41.359C41.448,10.6,42.5,9.8,44.006,9.8ZM73.632,6.988c-4.464,0-6.814,2.521-6.814,7.039,0,6.2,4.052,7.2,6.821,7.2,4.056,0,6.754-2.188,6.754-7.141,0-5.155-3.034-7.093-6.761-7.093Zm-.056,3.25c1.965,0,2.74,1.474,2.74,3.147V14.83c0,2.03-1.088,3.2-2.748,3.2-1.554,0-2.641-1.1-2.641-3.206V13.387c0-2.246,1.3-3.147,2.652-3.147ZM88.6,6.988c-4.464,0-6.814,2.521-6.814,7.039,0,6.2,4.052,7.2,6.821,7.2,4.055,0,6.754-2.188,6.754-7.141,0-5.155-3.034-7.093-6.761-7.093Zm-.056,3.25c1.965,0,2.74,1.474,2.74,3.147V14.83c0,2.03-1.088,3.2-2.748,3.2-1.552,0-2.643-1.1-2.643-3.2V13.387c0-2.246,1.3-3.147,2.652-3.147ZM96.92,20.949V.417l4.133-.361V13.818l4.1-6.561h4.365l-4.278,6.791,4.442,6.9h-4.377l-4.256-6.7v6.7Z" fill="#1877f2"/>
</svg>
