<svg xmlns="http://www.w3.org/2000/svg" height="100" width="519"><rect id="backgroundrect" width="100%" height="100%" x="0" y="0" fill="none" stroke="none" class="" style=""/><g class="currentLayer" style=""><title>Layer 1</title><path d="M32.858457743089474,98.84093803375887 H13.314029231371165 V50.11913267244283 H-2.842170943040401e-14 V34.256303735475086 h13.313510550112419 V22.968762182118915 C13.313510550112397,9.593009880954071 19.20209888093001,0 38.693621904253774,0 c4.122478644705217,0 10.59458339163925,0.8309273765497945 10.59458339163925,0.8309273765497945 V15.560437763104744 H42.49036871845132 c-6.926469529616692,0 -9.630873612844297,2.1068832731243825 -9.630873612844297,7.931673809113257 v10.764192163257091 h16.169369560900908 L47.58900549216193,50.11913267244283 H32.8589764243483 zm44.84518163326787,-65.85229129471804 c-0.28475601106481746,0 -0.5778109222699562,0.010373625175403179 -0.8677537459224746,0.01763516279818539 c-18.122723181429322,0 -26.414361784129074,13.631980842997296 -26.414361784129074,32.982941245194354 c0,24.37698179967989 10.755374581858,34.133376277146574 26.555961767773326,34.133376277146574 c9.040095659105084,0 14.979514753282167,-3.80504571433788 18.58953631432247,-10.905792146901344 v9.630873612844297 h18.58953631432247 V34.263046591839114 h-18.58953631432247 v9.932227424189758 c-2.9476655935908087,-6.390153108048348 -9.053062690574341,-11.130899813207593 -17.863382552044243,-11.206627276988037 zm4.726742311172451,15.261158676794363 c7.6116474724520735,0 12.180191999699623,5.309221364771339 12.180191999699623,14.33998076121856 l0.01763516279818539,9.223708824709723 c0,6.086724571667805 -3.7734061575529005,13.207699573323305 -12.19782716249781,13.207699573323305 c-12.951471031490847,0 -12.605510631891153,-13.984684098961004 -12.605510631891153,-18.642441802717023 c0,-15.667804783670167 6.900535466678184,-18.128947356534567 12.605510631891153,-18.128947356534567 zm39.23356909463354,18.30892975332781 c0,-7.848166126451263 -0.3755252313495952,-33.52807524816179 33.08149068436069,-33.52807524816179 c13.430213833335705,0 19.038195603158655,4.2703028034547135 19.038195603158655,4.2703028034547135 l-4.5073401387126735,13.98001596763207 s-5.6007202322001675,-3.0840787646473604 -12.898565543096291,-3.0840787646473604 c-9.34715496429702,0 -15.311470758895068,5.418663110371842 -15.311470758895068,14.952543327826117 l0.010373625175403179,6.836218990590685 c0,9.160948392398533 5.754768566054905,15.276200433298698 15.32028834029416,15.276200433298698 c6.648456374915887,0 12.776156766026537,-3.1131249151384894 12.776156766026537,-3.1131249151384894 l4.49592915101973,13.687998418944472 s-5.127682924201783,4.29727422891076 -18.829685737133047,4.29727422891076 c-31.85636555114557,0 -33.17485331093931,-23.039821514570423 -33.17485331093931,-33.57527524270988 zm161.11692204925666,-33.55245326732399 c18.123241862688097,0 26.545588142597925,13.631980842997296 26.545588142597925,32.982941245194354 c0,24.37698179967989 -10.755893263116771,34.133376277146574 -26.556480449032097,34.133376277146574 c-9.040095659105084,0 -15.722784997099803,-3.8045270330791103 -19.332806558140106,-10.905792146901344 v9.630873612844297 l-18.35561106661713,-0.0072615376227822305 V1.9637272457038222 L264.5704925172586,0.26400876071401325 V43.32025873248361 c2.8128084663105684,-7.532807921119006 12.056745860112326,-10.313976830644595 18.21089899542025,-10.313976830644595 zm-5.463788379884846,15.243523513996177 c-7.6116474724520735,0 -12.746591934276635,5.309221364771339 -12.746591934276635,14.33998076121856 l-0.018153844056955557,9.223708824709723 c-0.0114109876929435,6.086724571667805 3.556078710128204,13.207699573323305 12.764745778333593,13.207699573323305 c12.951471031490847,0 12.605510631891153,-13.984684098961004 12.605510631891153,-18.642441802717023 c0,-15.667804783670167 -6.900016785419415,-18.128947356534567 -12.605510631891153,-18.128947356534567 zM207.59854305394438,33.05970607149234 c-20.555338285061367,0 -31.407187581050614,11.207145958246807 -31.407187581050614,31.12346893250334 v3.7002721000663086 c0,25.849517893328375 15.239374063926016,32.50471712460827 33.40774119612712,32.50471712460827 c17.659540817347573,0 25.65293769625448,-4.939401627268215 25.65293769625448,-4.939401627268215 l-3.6468479304129815,-13.153756722411211 s-9.402653858985426,4.00058854889423 -19.669430695081935,4.00058854889423 c-10.643339429963644,0 -15.220701538610289,-2.7127029833679273 -16.39395854594839,-12.941097406315444 h41.26835567278886 V62.80192681189075 c0,-21.604111790294628 -12.179154637182085,-29.74273942165718 -29.212128493935303,-29.74273942165718 zm0.4953406021255017,13.171391885209394 c7.115269507809029,0 11.725827217016965,4.363146748774571 11.472710762737128,14.482099426121584 h-23.989008218119814 c0.41598236953366763,-10.650082286327658 5.388060916104402,-14.481580744862816 12.516297455382686,-14.481580744862816 zm140.0926959062671,-13.260086380459093 c-21.10877118816913,0 -32.22151715731976,11.895435988634807 -32.22151715731976,33.21271704282954 c0,29.248436182049222 19.155936248899483,33.95650596790594 32.25678748291613,33.95650596790594 c19.178758224285367,0 31.938317190031256,-10.325387818337541 31.938317190031256,-33.69094116341562 c0,-24.319408179956405 -14.346723617582573,-33.478281847319856 -31.973587515627628,-33.478281847319856 zm-0.26556480449032105,15.331699327987105 c9.28180112569198,0 12.959769931631172,6.946698098708729 12.959769931631172,14.85399388865979 v6.798355258700462 c0,9.579005486967281 -5.146355449517509,15.11955869315011 -12.995040257227542,15.11955869315011 c-7.340377174115278,0 -12.49918097384327,-5.182663137631421 -12.49918097384327,-15.11955869315011 v-6.798355258700462 c0,-10.59769547919187 6.138592697544822,-14.85399388865979 12.534451299439644,-14.85399388865979 zm71.06451926409936,-15.331699327987105 c-21.10877118816913,0 -32.22151715731976,11.895435988634807 -32.22151715731976,33.21271704282954 c0,29.248436182049222 19.155936248899483,33.95650596790594 32.25678748291613,33.95650596790594 c19.178239543026596,0 31.938317190031256,-10.325387818337541 31.938317190031256,-33.69094116341562 c0,-24.319408179956405 -14.347242298841346,-33.478281847319856 -31.973587515627628,-33.478281847319856 zm-0.26556480449032105,15.331699327987105 c9.28180112569198,0 12.959251250372402,6.946698098708729 12.959251250372402,14.85399388865979 v6.798355258700462 c0,9.579005486967281 -5.146355449517509,15.11955869315011 -12.994521575968772,15.11955869315011 c-7.340377174115278,0 -12.49918097384327,-5.182663137631421 -12.49918097384327,-15.11955869315011 v-6.798355258700462 c0,-10.59769547919187 6.138592697544822,-14.85399388865979 12.534451299439644,-14.85399388865979 zm39.60390751339543,50.53822712952913 V1.9637272457038222 L477.869342605087,0.2645274419727813 v64.93318810417732 l19.391417540381134,-30.940893129416242 h20.641439374017214 l-20.228569092036167,32.04568421059668 L518.6812587701581,98.84093803375887 h-20.70005035625824 l-20.111865808812883,-31.594950196725414 v31.594950196725414 z" fill="#1877f2" id="svg_1" class=""/></g></svg>