<svg id="facebook" xmlns="http://www.w3.org/2000/svg" width="124.071" height="24" viewBox="0 0 124.071 24">
  <rect id="backgroundrect" width="124.071" height="23.569" fill="none"/>
  <g id="Group_1" data-name="Group 1">
    <path id="svg_1" d="M7.838,23.629H3.176V11.982H0V8.189H3.176v-2.7C3.176,2.293,4.581,0,9.229,0c.984,0,2.527.2,2.527.2V3.72H10.135c-1.652,0-2.3.5-2.3,1.9V8.189h3.857l-.343,3.792H7.838Zm10.7-15.743h-.207c-4.32,0-6.3,3.259-6.3,7.885,0,5.828,2.566,8.16,6.334,8.16a4.553,4.553,0,0,0,4.431-2.607v2.3h4.431V8.191H22.793v2.374a4.542,4.542,0,0,0-4.261-2.679Zm1.128,3.648c1.816,0,2.906,1.27,2.906,3.429v2.2a2.951,2.951,0,0,1-2.909,3.157c-3.09,0-3.007-3.343-3.007-4.457,0-3.745,1.646-4.334,3.007-4.334Zm9.362,4.377c0-1.877-.09-8.015,7.891-8.015a7.89,7.89,0,0,1,4.542,1.021L40.381,12.26a7.006,7.006,0,0,0-3.076-.738A3.323,3.323,0,0,0,33.649,15.1v1.634A3.406,3.406,0,0,0,37.3,20.386a7.628,7.628,0,0,0,3.047-.744l1.072,3.272s-1.219,1.027-4.491,1.027c-7.6,0-7.913-5.508-7.913-8.027ZM67.45,7.891c4.32,0,6.332,3.259,6.332,7.885,0,5.828-2.566,8.16-6.334,8.16a4.812,4.812,0,0,1-4.612-2.607v2.3H58.459V.47L63.111.063V10.357c.671-1.8,2.88-2.466,4.344-2.466Zm-1.3,3.645c-1.816,0-3.041,1.27-3.041,3.429v2.2a2.948,2.948,0,0,0,3.044,3.157c3.09,0,3.007-3.343,3.007-4.457,0-3.745-1.646-4.334-3.007-4.334ZM49.518,7.9c-4.9,0-7.492,2.679-7.492,7.44v.886c0,6.179,3.635,7.771,7.968,7.771,4.21,0,6.119-1.181,6.119-1.181l-.87-3.145a13.538,13.538,0,0,1-4.691.956c-2.539,0-3.63-.648-3.91-3.094h9.844V15.014c0-5.164-2.9-7.11-6.968-7.11Zm.119,3.148c1.7,0,2.8,1.044,2.736,3.462H46.65c.1-2.548,1.285-3.462,2.985-3.462ZM83.051,7.882c-5.035,0-7.686,2.844-7.686,7.939,0,6.992,4.57,8.118,7.694,8.118,4.575,0,7.618-2.468,7.618-8.054,0-5.814-3.422-8-7.626-8Zm-.063,3.666c2.216,0,3.091,1.662,3.091,3.55v1.63c0,2.29-1.227,3.615-3.1,3.615C81.226,20.342,80,19.1,80,16.727V15.1c0-2.533,1.464-3.55,2.991-3.55ZM99.937,7.882c-5.035,0-7.686,2.844-7.686,7.939,0,6.992,4.57,8.118,7.694,8.118,4.574,0,7.618-2.468,7.618-8.054,0-5.814-3.422-8-7.626-8Zm-.063,3.666c2.216,0,3.091,1.662,3.091,3.55v1.63c0,2.29-1.227,3.615-3.1,3.615-1.751,0-2.981-1.238-2.981-3.615V15.1c0-2.533,1.464-3.55,2.991-3.55Zm9.447,12.081V.47l4.662-.407V15.586l4.625-7.4h4.923l-4.825,7.66,5.01,7.779h-4.937l-4.8-7.553v7.553Z" fill="#1877f2"/>
  </g>
</svg>
