<svg id="facebook" xmlns="http://www.w3.org/2000/svg" width="112" height="21.664" viewBox="0 0 112 21.664">
  <rect id="backgroundrect" width="112" height="21.276" fill="none"/>
  <g id="Group_1" data-name="Group 1" transform="translate(0)">
    <path id="svg_1" d="M7.075,21.33H2.867V10.816H0V7.392H2.867V4.957C2.867,2.07,4.135,0,8.331,0c.888,0,2.281.179,2.281.179V3.358H9.149c-1.491,0-2.074.455-2.074,1.712V7.392h3.482l-.31,3.423H7.075ZM16.731,7.119c-.061,0-.124,0-.187,0-3.9,0-5.687,2.942-5.687,7.118,0,5.261,2.316,7.366,5.718,7.366a4.11,4.11,0,0,0,4-2.353v2.078h4V7.394h-4V9.537a4.1,4.1,0,0,0-3.846-2.418Zm1.018,3.293c1.639,0,2.623,1.146,2.623,3.095l0,1.99a2.664,2.664,0,0,1-2.626,2.85c-2.789,0-2.714-3.018-2.714-4.023,0-3.381,1.486-3.912,2.714-3.912ZM26.2,14.363c0-1.694-.081-7.235,7.123-7.235a7.122,7.122,0,0,1,4.1.922l-.971,3.017a6.324,6.324,0,0,0-2.777-.666,3,3,0,0,0-3.3,3.227l0,1.475a3.075,3.075,0,0,0,3.3,3.3,6.886,6.886,0,0,0,2.751-.672l.968,2.954s-1.1.927-4.054.927c-6.859,0-7.143-4.972-7.143-7.246ZM60.888,7.123c3.9,0,5.716,2.942,5.716,7.118,0,5.261-2.316,7.366-5.718,7.366a4.344,4.344,0,0,1-4.163-2.353v2.078l-3.952,0V.424l4.2-.367V9.349c.606-1.626,2.6-2.226,3.921-2.226Zm-1.176,3.29c-1.639,0-2.745,1.146-2.745,3.095l0,1.99a2.661,2.661,0,0,0,2.748,2.85c2.789,0,2.714-3.018,2.714-4.023,0-3.381-1.486-3.912-2.714-3.912ZM44.7,7.134c-4.426,0-6.763,2.418-6.763,6.716v.8c0,5.578,3.281,7.015,7.193,7.015,3.8,0,5.524-1.066,5.524-1.066l-.785-2.839a12.221,12.221,0,0,1-4.235.863c-2.292,0-3.277-.585-3.53-2.793h8.886V13.553c0-4.662-2.622-6.418-6.29-6.418Zm.107,2.842c1.532,0,2.525.942,2.47,3.125H42.111c.09-2.3,1.16-3.125,2.695-3.125ZM74.971,7.115c-4.545,0-6.938,2.567-6.938,7.167,0,6.312,4.125,7.328,6.945,7.328,4.13,0,6.877-2.228,6.877-7.27,0-5.248-3.089-7.225-6.884-7.225Zm-.057,3.309c2,0,2.79,1.5,2.79,3.205V15.1c0,2.067-1.108,3.263-2.8,3.263-1.581,0-2.691-1.118-2.691-3.263V13.629c0-2.287,1.322-3.205,2.7-3.205Zm15.3-3.309c-4.545,0-6.938,2.567-6.938,7.167,0,6.312,4.125,7.328,6.945,7.328,4.129,0,6.877-2.228,6.877-7.27,0-5.248-3.089-7.225-6.884-7.225Zm-.057,3.309c2,0,2.79,1.5,2.79,3.205V15.1c0,2.067-1.108,3.263-2.8,3.263-1.581,0-2.691-1.118-2.691-3.263V13.629c0-2.287,1.322-3.205,2.7-3.205ZM98.685,21.33V.424l4.208-.367V14.07l4.175-6.677h4.444l-4.356,6.915,4.523,7.022h-4.457l-4.33-6.818V21.33Z" transform="translate(0)" fill="#1877f2"/>
  </g>
</svg>
