<?xml version="1.0" encoding="utf-8"?>
<!-- Generator: Adobe Illustrator 24.2.1, SVG Export Plug-In . SVG Version: 6.00 Build 0)  -->
<svg version="1.1" id="Layer_1" xmlns="http://www.w3.org/2000/svg" xmlns:xlink="http://www.w3.org/1999/xlink" x="0px" y="0px"
	 viewBox="0 0 1000 1000" style="enable-background:new 0 0 1000 1000;" xml:space="preserve">
<style type="text/css">
	.st0{fill:#FFFFFF;}
</style>
<circle cx="500" cy="500" r="493"/>
<g>
	<path id="path8" class="st0" d="M507.25,725.27c-99.98-0.27-187.1-63.43-215.52-157.63c-23.73-78.93-8.35-151.08,45.04-214.14
		c32.82-38.75,75.14-62.5,124.89-72.66c27.83-5.68,56.5-5.91,84.41-0.69c3.12,0.57,3.15,1.41,1.94,3.93
		c-13.73,28.58-27.4,57.21-41,85.87c-0.69,1.84-2.55,2.99-4.5,2.78c-58.86,1.5-109.14,42.9-121.92,100.37
		c-13.71,61.06,19.32,124.21,77.6,146.6c46.25,17.76,89.29,10.69,128.45-19.67c2-1.5,2.82-1.8,4.25,0.68
		c15.01,26.27,30.15,52.49,45.43,78.66c1.34,2.3,0.86,3.33-1.13,4.71c-29.49,20.86-63.6,34.26-99.41,39.03
		C526.31,724.35,516.79,725.06,507.25,725.27z"/>
	<path id="path10" class="st0" d="M662.57,660.27c-1.23-0.66-1.58-2.01-2.21-3.11c-17.07-29.52-34.09-59.08-51.04-88.66
		c-1.18-2.48-3.81-3.94-6.55-3.63c-33.9,0.1-67.78,0-101.68,0h-4.22c-0.03-1.3,0.44-2.57,1.32-3.53
		c17.21-29.9,34.44-59.81,51.67-89.71c0.94-2.03,3.06-3.23,5.28-3c34.7,0.09,69.39,0.09,104.07,0c2.21-0.23,4.32,0.98,5.24,3
		c17.3,30.15,34.69,60.27,52.15,90.34c1.2,1.58,1.26,3.75,0.15,5.39c-17.54,30.29-35.02,60.56-52.44,90.79
		C663.86,658.92,663.65,659.97,662.57,660.27L662.57,660.27z"/>
	<path id="path12" class="st0" d="M589.49,342.7c-6.22-6.22-12.01-12.16-18.01-18.01c-1.86-1.8-0.56-3.14,0.24-4.5
		c6.87-11.97,18.06-20.85,31.27-24.83c16.19-5.34,33.88-3.6,48.72,4.8c27.02,14.61,24.61,48.49,9.01,63.8
		c-5.91,5.69-12.61,10.51-19.89,14.31c-7.51,3.99-15.01,7.76-22.37,12.01c-6.11,3.5-10.87,8.33-13.08,15.33
		c-0.9,2.82-0.36,3.56,2.66,3.53c19.85-0.12,39.71,0,59.57-0.12c3,0,4.13,0.57,4.01,3.84c-0.27,7.01-0.17,14.04,0,21.02
		c0,2.22-0.62,3-2.9,3c-31.92-0.06-63.82-0.06-95.72,0c-1.5,0-2.9,0-2.91-2.18c0-22.1,4.08-42.68,21.38-58.44
		c8.24-7.3,17.49-13.36,27.46-18.01c5.46-2.67,10.99-5.22,15.76-9.1c4.17-3.39,7.06-7.51,7.36-13.06
		c0.45-8.69-6.43-15.15-16.81-15.82c-14.94-1.07-25.72,5.66-33.25,18.15C591.22,339.64,590.53,340.9,589.49,342.7L589.49,342.7z"/>
	<path id="path14" class="st0" d="M665.6,691.74v-7.22h-2.58v-1.5h6.92v1.5h-2.61v7.22H665.6z M671.05,691.74v-8.69h2.63l1.5,5.93
		l1.5-5.93h2.64v8.69h-1.49v-6.85l-1.73,6.85h-1.7l-1.71-6.85v6.85H671.05z"/>
</g>
</svg>
