<svg xmlns="http://www.w3.org/2000/svg" width="35" height="35" viewBox="0 0 35 35">
  <g id="g2" transform="translate(-0.5 -0.5)">
    <path id="path8" d="M18.643,35.5A17.862,17.862,0,0,1,1.368,23.209a16.613,16.613,0,0,1,3.61-16.7A17.4,17.4,0,0,1,14.989.847,18.076,18.076,0,0,1,21.756.794c.25.045.252.11.155.308q-1.65,3.34-3.286,6.694a.347.347,0,0,1-.362.217,10.212,10.212,0,0,0-9.772,7.828,9.888,9.888,0,0,0,6.22,11.429,10.23,10.23,0,0,0,10.3-1.533c.16-.117.227-.14.341.052q1.806,3.075,3.641,6.135c.108.179.069.26-.09.366a18.17,18.17,0,0,1-7.969,3.044A22.667,22.667,0,0,1,18.643,35.5Z" fill="#ef492d"/>
    <path id="path10" d="M31.094,30.433c-.1-.051-.126-.157-.177-.243q-2.055-3.453-4.092-6.913a.523.523,0,0,0-.525-.284c-2.718.009-5.433,0-8.151,0H17.81a.384.384,0,0,1,.107-.274q2.068-3.5,4.142-7a.417.417,0,0,1,.423-.232q4.173.008,8.342,0a.413.413,0,0,1,.42.232q2.081,3.528,4.18,7.045a.354.354,0,0,1,.013.42q-2.109,3.543-4.2,7.079c-.036.061-.053.14-.139.166Z" fill="#ef492d"/>
    <path id="path12" d="M25.235,5.67c-.5-.486-.963-.948-1.443-1.4-.149-.142-.045-.245.019-.353a4.308,4.308,0,0,1,2.506-1.935,4.967,4.967,0,0,1,3.905.374,3.115,3.115,0,0,1,.722,4.975,6.918,6.918,0,0,1-1.595,1.116c-.6.312-1.2.605-1.793.937a2.1,2.1,0,0,0-1.048,1.195c-.072.22-.028.278.213.275,1.591-.009,3.183,0,4.775-.009.241,0,.331.044.322.3-.022.547-.014,1.1,0,1.639,0,.174-.049.234-.232.234q-3.839-.006-7.673,0c-.12,0-.232,0-.234-.171a5.648,5.648,0,0,1,1.714-4.557,9.172,9.172,0,0,1,2.2-1.4,6.432,6.432,0,0,0,1.264-.71,1.378,1.378,0,0,0,.59-1.018c.036-.677-.515-1.181-1.348-1.233a2.73,2.73,0,0,0-2.665,1.415c-.061.095-.116.2-.2.335Z" fill="#ef492d"/>
  </g>
</svg>
