<svg xmlns="http://www.w3.org/2000/svg" width="125" height="22.912" viewBox="0 0 125 22.912">
  <g id="getapp" transform="translate(-0.5 -2.5)">
    <path id="Path_95" data-name="Path 95" d="M31.711,11.141,23.272,2.7a.718.718,0,0,0-1,0L20.606,4.37l6.772,6.771a.72.72,0,0,1,0,1h0L20.4,19.12l1.667,1.667a.718.718,0,0,0,1,0l8.625-8.625a.723.723,0,0,0,.021-1.021" transform="translate(0.16)" fill="#009c9c"/>
    <path id="Path_96" data-name="Path 96" d="M17.385,3.327l-.6-.6a.716.716,0,0,0-1,0L14.115,4.391l1.1,1.1,2.166,2.167,2.167-2.167Z" transform="translate(0.11 0)" fill="#40e3e3"/>
    <path id="Path_97" data-name="Path 97" d="M17.2,15.763,15.033,17.93l-1.1,1.1L15.6,20.7a.716.716,0,0,0,1,0l.6-.6,2.167-2.166Z" transform="translate(0.108 0.107)" fill="#40e3e3"/>
    <path id="Path_98" data-name="Path 98" d="M20.882,11.117a.716.716,0,0,1,0,1l-3.709,3.709,2.167,2.166,5.875-5.875a.716.716,0,0,0,0-1h0L19.548,5.45,17.36,7.617Z" transform="translate(0.134 0.024)" fill="#1abab8"/>
    <path id="Path_99" data-name="Path 99" d="M7.245,11.349,13.12,5.474,10.954,3.307l-.625-.6a.719.719,0,0,0-1,0L.7,11.349a.718.718,0,0,0,0,1h0l8.439,8.439a.718.718,0,0,0,1,0l.625-.6,2.167-2.166L7.266,12.349a.7.7,0,0,1-.021-1h0" fill="#87f0f0"/>
    <path id="Path_100" data-name="Path 100" d="M13.735,11.325l2.583-2.583L14.151,6.575l-1.1-1.1L7.214,11.346a.716.716,0,0,0,0,1h0l5.646,5.646,1.1-1.1,2.167-2.167-2.4-2.4a.716.716,0,0,1,0-1" transform="translate(0.053 0.024)" fill="#40e3e3"/>
    <path id="Path_101" data-name="Path 101" d="M13.682,12.3l2.4,2.4,2.583-2.583a.716.716,0,0,0,0-1h0l-2.4-2.4L13.682,11.3a.76.76,0,0,0,0,1" transform="translate(0.105 0.05)" fill="#17cfcf"/>
    <path id="Path_102" data-name="Path 102" d="M38.337,9.37A8.059,8.059,0,0,1,38.9,6.578a6.42,6.42,0,0,1,1.459-2.165,6.668,6.668,0,0,1,2.375-1.4,9.845,9.845,0,0,1,3.291-.5,9.935,9.935,0,0,1,3.667.561,7.194,7.194,0,0,1,2.292,1.375A4.664,4.664,0,0,1,53.171,6.1a4.914,4.914,0,0,1,.4,1.439.569.569,0,0,1-.187.5.745.745,0,0,1-.5.186H50.817a.647.647,0,0,1-.439-.146.752.752,0,0,1-.229-.29c-.04-.064-.125-.21-.271-.439a2.728,2.728,0,0,0-.686-.708,4.839,4.839,0,0,0-3.146-.959A4.441,4.441,0,0,0,42.984,6.7a3.855,3.855,0,0,0-1.23,2.771c-.041.646-.041,1.335-.041,2.085,0,.729,0,1.436.041,2.083a3.881,3.881,0,0,0,1.23,3.063,4.735,4.735,0,0,0,3.041.959,6.868,6.868,0,0,0,1.729-.209,3.582,3.582,0,0,0,1.355-.666,2.871,2.871,0,0,0,.9-1.209,4.565,4.565,0,0,0,.314-1.834v-.208h-3.1a.606.606,0,0,1-.48-.209.678.678,0,0,1-.209-.48V11.037a.7.7,0,0,1,.689-.689h5.875a.694.694,0,0,1,.686.689v2.791a7.6,7.6,0,0,1-.479,2.813,5.994,5.994,0,0,1-1.458,2.209,6.833,6.833,0,0,1-2.417,1.458,11.287,11.287,0,0,1-6.75,0,6.429,6.429,0,0,1-2.355-1.4A6.231,6.231,0,0,1,38.879,16.7a8.667,8.667,0,0,1-.541-2.813c0-.312-.021-.687-.041-1.062v-2.4c0-.4.02-.731.041-1.064" transform="translate(0.305 0)" fill="#424a52"/>
    <path id="Path_103" data-name="Path 103" d="M61.493,10.126a3.307,3.307,0,0,0-1.27.208,2.429,2.429,0,0,0-.875.564,2.24,2.24,0,0,0-.542.769,2.172,2.172,0,0,0-.229.792h5.75a4.828,4.828,0,0,0-.187-.792,2.222,2.222,0,0,0-.459-.769,2.268,2.268,0,0,0-.833-.564,3.339,3.339,0,0,0-1.355-.208m-6.23,3.811a8.427,8.427,0,0,1,.439-2.686,6.441,6.441,0,0,1,1.25-2.21A5.674,5.674,0,0,1,58.93,7.583a6.435,6.435,0,0,1,2.563-.542,6.086,6.086,0,0,1,2.563.521,6.183,6.183,0,0,1,2,1.417,6.58,6.58,0,0,1,1.27,2.061,6.7,6.7,0,0,1,.438,2.481v1.145a.694.694,0,0,1-.687.688h-8.5a2.435,2.435,0,0,0,.229,1.021,2.185,2.185,0,0,0,.646.729,3.266,3.266,0,0,0,.938.459,3.928,3.928,0,0,0,1.1.145,4.178,4.178,0,0,0,1.334-.166,2.62,2.62,0,0,0,.834-.416,3.469,3.469,0,0,1,.458-.292,1.243,1.243,0,0,1,.48-.083h2.041a.727.727,0,0,1,.5.208.529.529,0,0,1,.188.48,2.13,2.13,0,0,1-.4.916,3.985,3.985,0,0,1-1.1,1.1,6.87,6.87,0,0,1-1.834.917,7.393,7.393,0,0,1-2.5.375,6.757,6.757,0,0,1-2.562-.5,5.523,5.523,0,0,1-1.979-1.4,6.354,6.354,0,0,1-1.25-2.187,7.5,7.5,0,0,1-.439-2.73" transform="translate(0.442 0.037)" fill="#424a52"/>
    <path id="Path_104" data-name="Path 104" d="M73.765,15.808a1.792,1.792,0,0,0,.417,1.25,2.032,2.032,0,0,0,1.563.479h1.54a.694.694,0,0,1,.689.688v1.688a.694.694,0,0,1-.689.687h-1.9a5.264,5.264,0,0,1-3.665-1.167,4.623,4.623,0,0,1-1.292-3.541V10.412H68.744a.6.6,0,0,1-.48-.21.675.675,0,0,1-.208-.479V8.037a.6.6,0,0,1,.208-.48.68.68,0,0,1,.48-.209h1.688V3.2a.693.693,0,0,1,.688-.686h1.937a.694.694,0,0,1,.689.686V7.349h3.29a.706.706,0,0,1,.667.689V9.724a.694.694,0,0,1-.687.689H73.724Z" transform="translate(0.545 0)" fill="#424a52"/>
    <path id="Path_105" data-name="Path 105" d="M90.407,13.952,87.6,6.7,84.8,13.952ZM88.991,2.764a.8.8,0,0,1,.6.208,2.034,2.034,0,0,1,.375.646l6.229,16.1a.509.509,0,0,1,.021.166.694.694,0,0,1-.689.688H93.7a.954.954,0,0,1-.708-.208,1.286,1.286,0,0,1-.271-.417l-1.1-2.834H83.574l-1.1,2.834a1.418,1.418,0,0,1-.27.417.9.9,0,0,1-.709.208H79.658a.694.694,0,0,1-.689-.687.4.4,0,0,1,.021-.166l6.23-16.1a2,2,0,0,1,.375-.646.822.822,0,0,1,.6-.208Z" transform="translate(0.633 0.002)" fill="#424a52"/>
    <path id="Path_106" data-name="Path 106" d="M106.988,14.647a8.114,8.114,0,0,0,0-1.417,3.335,3.335,0,0,0-1.021-2.375,3.4,3.4,0,0,0-4.209,0,3.033,3.033,0,0,0-.979,2.1,4.931,4.931,0,0,0-.041.959c0,.334.02.645.041.959a3.068,3.068,0,0,0,.979,2.083,3.027,3.027,0,0,0,2.1.771,3.2,3.2,0,0,0,2.1-.729,3.323,3.323,0,0,0,1.021-2.354m-2.355,6.166a6.428,6.428,0,0,1-1.416-.146,5.225,5.225,0,0,1-1.1-.375,4.707,4.707,0,0,1-.792-.521,3.989,3.989,0,0,1-.541-.5v5.417a.694.694,0,0,1-.687.687H98.174a.693.693,0,0,1-.686-.687V8a.694.694,0,0,1,.686-.689h1.939A.694.694,0,0,1,100.8,8v.583a3.156,3.156,0,0,1,.542-.5,5.427,5.427,0,0,1,.813-.5,5.224,5.224,0,0,1,1.1-.375,6.434,6.434,0,0,1,1.416-.146A5.248,5.248,0,0,1,108.738,8.9a6.147,6.147,0,0,1,1.145,1.915,7.6,7.6,0,0,1,.48,2.25c.02.25.02.542.02.9s0,.646-.02.9a6.867,6.867,0,0,1-.48,2.25,6.152,6.152,0,0,1-1.145,1.916,5.525,5.525,0,0,1-1.75,1.334,5.847,5.847,0,0,1-2.355.459" transform="translate(0.782 0.037)" fill="#424a52"/>
    <path id="Path_107" data-name="Path 107" d="M121.269,14.647a8.116,8.116,0,0,0,0-1.417,3.339,3.339,0,0,0-1.02-2.375,3.4,3.4,0,0,0-4.21,0,3.038,3.038,0,0,0-.979,2.1,4.931,4.931,0,0,0-.042.959c0,.334.021.645.042.959a3.077,3.077,0,0,0,.979,2.083,3.03,3.03,0,0,0,2.1.771A3.2,3.2,0,0,0,120.249,17a3.326,3.326,0,0,0,1.02-2.354m-2.376,6.145a6.359,6.359,0,0,1-1.415-.146,5.252,5.252,0,0,1-1.1-.375,4.181,4.181,0,0,1-.791-.5,4,4,0,0,1-.542-.5v5.417a.712.712,0,0,1-.686.687h-1.939a.694.694,0,0,1-.687-.687V8a.694.694,0,0,1,.688-.689h1.939a.694.694,0,0,1,.686.689v.583a4.13,4.13,0,0,1,.542-.5,6.52,6.52,0,0,1,.791-.5,5.252,5.252,0,0,1,1.1-.375,6.419,6.419,0,0,1,1.415-.146A5.248,5.248,0,0,1,122.957,8.9a6.169,6.169,0,0,1,1.146,1.915,7.633,7.633,0,0,1,.479,2.25c.021.25.021.542.021.9s0,.646-.021.9a6.918,6.918,0,0,1-.479,2.25,6.174,6.174,0,0,1-1.146,1.916,5.746,5.746,0,0,1-1.75,1.334,5.563,5.563,0,0,1-2.314.5" transform="translate(0.897 0.037)" fill="#424a52"/>
  </g>
</svg>
