<?xml version="1.0" encoding="utf-8"?>
<!-- Generator: Adobe Illustrator 24.2.1, SVG Export Plug-In . SVG Version: 6.00 Build 0)  -->
<svg version="1.1" id="Layer_1" xmlns="http://www.w3.org/2000/svg" xmlns:xlink="http://www.w3.org/1999/xlink" x="0px" y="0px"
	 viewBox="0 0 1000 1000" style="enable-background:new 0 0 1000 1000;" xml:space="preserve">
<style type="text/css">
	.st0{fill:#FFFFFF;}
</style>
<circle cx="500" cy="500" r="493"/>
<g>
	<path class="st0" d="M799.55,491.52L638.46,330.42c-5.57-5.17-13.92-5.17-19.09,0l-31.82,31.82l129.27,129.27
		c5.17,5.17,5.17,13.92,0,19.09l0,0L583.56,643.86l31.82,31.82c5.57,5.17,13.92,5.17,19.09,0l164.67-164.67
		C804.72,505.44,804.72,497.08,799.55,491.52"/>
	<path class="st0" d="M674.89,492.34L513.8,331.24c-5.57-5.17-13.92-5.17-19.09,0l-31.82,31.82l129.27,129.27
		c5.17,5.17,5.17,13.92,0,19.09l0,0L458.91,644.68l31.82,31.82c5.57,5.17,13.92,5.17,19.09,0l164.67-164.67
		C680.06,506.26,680.06,497.91,674.89,492.34"/>
	<path class="st0" d="M549.36,511.01L495.8,564.6l-57.82,58.18l-9.37,9.37l-31.99,31.99l-11.93,11.54c-5.18,5.17-13.53,5.17-19.1,0
		L204.5,514.59c-5.17-5.17-5.17-13.93,0-19.1l164.67-165.07c5.17-5.17,13.53-5.17,19.09,0l11.94,11.54l41.36,41.37l72.86,73.64
		l34.94,34.94C554.53,497.08,554.53,505.84,549.36,511.01z"/>
	<polygon class="st0" points="436.74,624.02 428.63,632.18 428.61,632.15 	"/>
</g>
</svg>
