<svg xmlns="http://www.w3.org/2000/svg" width="125" height="17.535" viewBox="0 0 125 17.535">
  <g id="Group_15" data-name="Group 15" transform="translate(-9.045 -366.961)">
    <path id="svg_5" d="M25.584,369.656H13.506c-4.366,1.038-4.46,4.658-4.46,4.658v12.231h4.646V375.408a1.139,1.139,0,0,1,.929-1.113H25.584Zm-9.615,5.984s-.94-.093-.94.739v3.7h6.206v1.11a.531.531,0,0,1-.564.555H15.028v4.805H21.8a4.914,4.914,0,0,0,4.137-4.805v-6.1H15.968Z" transform="translate(0 -2.345)" fill="#4385f4" fill-rule="evenodd"/>
    <path id="svg_2" d="M179.624,382.264c-.364.262-.634.454-.823.575a14.241,14.241,0,0,1-1.933,1.082,5.883,5.883,0,0,1-2.344.575,8.146,8.146,0,0,1-8.365-8.358,9.051,9.051,0,0,1,2.154-6.037,6.6,6.6,0,0,1,5.243-2.548,8.281,8.281,0,0,1,2.725.489,7.445,7.445,0,0,1,3.026,1.867l-1.378,1.64A5.245,5.245,0,0,0,175.7,370.2a7.263,7.263,0,0,0-2.2-.314,4.454,4.454,0,0,0-3.628,1.867,7.125,7.125,0,0,0-1.457,4.485,5.85,5.85,0,0,0,1.663,4.275,5.67,5.67,0,0,0,4.23,1.71,4.1,4.1,0,0,0,2.186-.715c.617-.507.934-.751.951-.767v-3.577h-4.626l.666-2.233h6.146S179.624,382.264,179.624,382.264ZM193.6,377.9a6.458,6.458,0,0,1-1.71,4.485,5.53,5.53,0,0,1-8.317.036,6.3,6.3,0,0,1-1.742-4.5,6.728,6.728,0,0,1,1.663-4.537,5.157,5.157,0,0,1,4.071-1.919,5.585,5.585,0,0,1,4.341,1.849A6.477,6.477,0,0,1,193.6,377.9Zm-2.171.034a4.258,4.258,0,0,0-1.093-2.966,3.473,3.473,0,0,0-2.709-1.222A3.27,3.27,0,0,0,185.041,375a4.307,4.307,0,0,0-1.061,2.879,4.209,4.209,0,0,0,1.077,2.9A3.438,3.438,0,0,0,187.734,382a3.372,3.372,0,0,0,2.582-1.2A4.059,4.059,0,0,0,191.426,377.936Zm15.952-.034a6.458,6.458,0,0,1-1.71,4.485,5.53,5.53,0,0,1-8.317.036,6.3,6.3,0,0,1-1.742-4.5,6.728,6.728,0,0,1,1.663-4.537,5.157,5.157,0,0,1,4.071-1.919,5.585,5.585,0,0,1,4.341,1.849A6.471,6.471,0,0,1,207.377,377.9Zm-2.17.034a4.258,4.258,0,0,0-1.093-2.966,3.473,3.473,0,0,0-2.709-1.222A3.27,3.27,0,0,0,198.823,375a4.307,4.307,0,0,0-1.061,2.879,4.209,4.209,0,0,0,1.077,2.9A3.438,3.438,0,0,0,201.516,382a3.372,3.372,0,0,0,2.582-1.2A4.059,4.059,0,0,0,205.208,377.936Zm14.922,6-2,.332v-2.077l-.428.523a5.242,5.242,0,0,1-1.267.942,4.811,4.811,0,0,1-2.17.506,5.059,5.059,0,0,1-3.96-1.849,6.5,6.5,0,0,1-1.616-4.415,6.813,6.813,0,0,1,1.6-4.537,4.927,4.927,0,0,1,3.913-1.885,5.273,5.273,0,0,1,2.312.471,3.952,3.952,0,0,1,1.189.89c.111.157.221.332.332.489v-5.444l2.123-.332S220.13,383.938,220.13,383.938Zm-1.869-5.881a4.367,4.367,0,0,0-1.157-3.089,3.473,3.473,0,0,0-2.646-1.274,3.336,3.336,0,0,0-2.677,1.2,4.29,4.29,0,0,0-.966,2.81,4.657,4.657,0,0,0,1,3.071,3.143,3.143,0,0,0,2.535,1.2,3.782,3.782,0,0,0,2.693-1.117A3.736,3.736,0,0,0,218.26,378.058Zm13.069-7.9h-5.94V374.5H230v2.233h-4.609v7.189l-2.312.367V367.9h7.793Zm4.768-1.274-1.425,1.937-1.363-1.937,1.442-1.919Zm-.428,15.058-2.123.314V372.125l2.123-.349Zm9.584-12.284-1,2.478a2.56,2.56,0,0,0-.4-.034,3.729,3.729,0,0,0-.617.052,2.348,2.348,0,0,0-.666.244,2.716,2.716,0,0,0-1.157,1.344,5.773,5.773,0,0,0-.555,2.5v5.688l-2.123.367V372.126l1.965-.384v2.53c.253-.436.523-.873.776-1.326a3.143,3.143,0,0,1,1.267-.977,9.295,9.295,0,0,1,2.5-.314Zm15.809,12.284-2.123.332v-8.323a2.447,2.447,0,0,0-.475-1.675,1.816,1.816,0,0,0-1.41-.523,1.845,1.845,0,0,0-1.7,1,2.946,2.946,0,0,0-.4,1.43v7.747l-2.123.419V376a2.663,2.663,0,0,0-.459-1.675,1.545,1.545,0,0,0-1.267-.575h-.206a1.675,1.675,0,0,0-1.616,1.012,4.324,4.324,0,0,0-.38,1.937v7.224l-2.2.419V372.129l1.98-.366v1.553a4.9,4.9,0,0,1,.649-.873,2.707,2.707,0,0,1,1.98-.855,3.286,3.286,0,0,1,1.885.436,3.719,3.719,0,0,1,1.061,1.43,3.434,3.434,0,0,1,3.12-1.867,3.315,3.315,0,0,1,2.9,1.326,5.551,5.551,0,0,1,.776,3.228v7.8Zm9.694-3.682a3.72,3.72,0,0,1-3.85,3.838,4.214,4.214,0,0,1-2.265-.629,4.352,4.352,0,0,1-1.521-1.448l1.489-1.43a3.091,3.091,0,0,0,.3.419,2.614,2.614,0,0,0,2,.925,1.738,1.738,0,0,0,1.267-.454,1.628,1.628,0,0,0,.459-1.256q0-.916-1.093-1.256-2.163-.706-2.329-.785a4.1,4.1,0,0,1-1.442-1.186,3.616,3.616,0,0,1-.506-2.025,3.6,3.6,0,0,1,3.627-3.647,4.08,4.08,0,0,1,2.076.541,3.635,3.635,0,0,1,1.363,1.2l-1.267,1.483a4.856,4.856,0,0,0-.617-.559,2.45,2.45,0,0,0-1.457-.575,1.794,1.794,0,0,0-1.093.314,1.383,1.383,0,0,0-.506,1.152,1.215,1.215,0,0,0,.491,1.082,6.533,6.533,0,0,0,1.838.629,4.238,4.238,0,0,1,2.2,1.256,3.345,3.345,0,0,1,.839,2.409Z" transform="translate(-136.712)" fill="#4385f4"/>
  </g>
</svg>
