<svg xmlns="http://www.w3.org/2000/svg" width="100" height="100" viewBox="0 0 100 100">
  <g id="goodfirms-black" transform="translate(-10.37 -10.31)">
    <path id="Path-Copy-2" d="M60.37,10.31h0a50,50,0,0,1,50,50h0a50,50,0,0,1-50,50h0a50,50,0,0,1-50-50h0A50,50,0,0,1,60.37,10.31Z" fill-rule="evenodd"/>
    <path id="Fill-1-Copy-6" d="M347.971,294.92H318.932c-10.5,2.5-10.722,11.2-10.722,11.2v29.407h11.169V308.753a2.741,2.741,0,0,1,2.233-2.679H347.97V294.92Zm-23.118,14.389s-2.261-.223-2.261,1.778v8.887h14.921v2.667a1.277,1.277,0,0,1-1.356,1.333H322.592v11.554h16.278s9.858-1.51,9.947-11.554V309.31H324.853Z" transform="translate(-267.448 -255.568)" fill="#fff" fill-rule="evenodd"/>
  </g>
</svg>
