<svg xmlns="http://www.w3.org/2000/svg" width="106.669" height="35" viewBox="0 0 106.669 35">
  <g id="Group_2" data-name="Group 2" transform="translate(-825 -495.998)">
    <g id="google" transform="translate(825 495.998)">
      <rect id="backgroundrect" width="106.669" height="34.91" transform="translate(0 0.002)" fill="none"/>
      <g id="Group_1" data-name="Group 1" transform="translate(0 0)">
        <path id="svg_1" d="M88.437,33.276a8.773,8.773,0,1,1-8.773-8.746,8.638,8.638,0,0,1,8.773,8.746Zm-3.84,0a4.946,4.946,0,1,0-9.866,0,4.946,4.946,0,1,0,9.866,0Z" transform="translate(-42.938 -14.856)" fill="#ea4335"/>
        <path id="svg_2" d="M136.437,33.276a8.773,8.773,0,1,1-8.773-8.746,8.638,8.638,0,0,1,8.773,8.746Zm-3.84,0a4.946,4.946,0,1,0-9.866,0,4.946,4.946,0,1,0,9.866,0Z" transform="translate(-72.011 -14.856)" fill="#fbbc05"/>
        <path id="svg_3" d="M183.636,25.058v15.7c0,6.458-3.809,9.1-8.312,9.1a8.329,8.329,0,0,1-7.752-5.154l3.344-1.392a4.831,4.831,0,0,0,4.4,3.1c2.882,0,4.668-1.778,4.668-5.126V40.027h-.134a5.955,5.955,0,0,1-4.605,1.987,8.752,8.752,0,0,1,0-17.488,6.061,6.061,0,0,1,4.605,1.956h.134v-1.42h3.647Zm-3.376,8.248c0-3.08-2.054-5.333-4.668-5.333a5.057,5.057,0,0,0-4.87,5.333,5.019,5.019,0,0,0,4.87,5.268C178.206,38.575,180.261,36.356,180.261,33.307Z" transform="translate(-101.071 -14.856)" fill="#4285f4"/>
        <path id="svg_4" d="M218.883,2.53V28.16H215.14V2.53Z" transform="translate(-130.309 -1.531)" fill="#34a853"/>
        <path id="svg_5" d="M241.714,36.148l2.981,1.987a8.705,8.705,0,0,1-7.286,3.879,8.557,8.557,0,0,1-8.679-8.746c0-5.2,3.742-8.746,8.249-8.746,4.538,0,6.758,3.612,7.484,5.563l.4.994-11.691,4.842a4.451,4.451,0,0,0,4.239,2.649,4.991,4.991,0,0,0,4.3-2.422ZM232.539,33l7.815-3.245a3.386,3.386,0,0,0-3.245-1.853,4.8,4.8,0,0,0-4.57,5.1Z" transform="translate(-138.54 -14.85)" fill="#ea4335"/>
        <path id="svg_6" d="M13.77,16.143v-3.71H26.279a12.294,12.294,0,0,1,.185,2.24,12.253,12.253,0,0,1-3.214,8.679,12.418,12.418,0,0,1-9.471,3.809A13.77,13.77,0,0,1,0,13.576,13.77,13.77,0,0,1,13.777,0a12.94,12.94,0,0,1,9.309,3.742L20.468,6.36a9.458,9.458,0,0,0-6.691-2.649,9.741,9.741,0,0,0-9.743,9.865A9.741,9.741,0,0,0,13.77,23.45a9.085,9.085,0,0,0,6.857-2.715,7.691,7.691,0,0,0,2.011-4.594Z" transform="translate(0 0.002)" fill="#4285f4"/>
      </g>
    </g>
  </g>
</svg>
