
<svg xmlns="http://www.w3.org/2000/svg" width="110" height="36.092" viewBox="0 0 110 36.092">
  <g id="Group_2" data-name="Group 2" transform="translate(-825 -496)">
    <g id="google" transform="translate(825 496)">
      <rect id="backgroundrect" width="110" height="36" fill="none"/>
      <g id="Group_1" data-name="Group 1" transform="translate(0)">
        <path id="svg_1" d="M88.985,33.549a9.047,9.047,0,1,1-9.047-9.019A8.908,8.908,0,0,1,88.985,33.549Zm-3.96,0a5.1,5.1,0,1,0-10.174,0,5.1,5.1,0,1,0,10.174,0Z" transform="translate(-42.065 -14.556)" fill="#ea4335"/>
        <path id="svg_2" d="M136.985,33.549a9.047,9.047,0,1,1-9.047-9.019A8.908,8.908,0,0,1,136.985,33.549Zm-3.96,0a5.1,5.1,0,1,0-10.174,0,5.1,5.1,0,1,0,10.174,0Z" transform="translate(-70.547 -14.556)" fill="#fbbc05"/>
        <path id="svg_3" d="M184.16,25.075V41.266c0,6.66-3.928,9.381-8.572,9.381a8.589,8.589,0,0,1-7.994-5.315l3.448-1.435a4.982,4.982,0,0,0,4.542,3.2c2.972,0,4.814-1.834,4.814-5.286v-1.3h-.138a6.141,6.141,0,0,1-4.749,2.049,9.025,9.025,0,0,1,0-18.034,6.25,6.25,0,0,1,4.749,2.017h.138V25.079h3.761Zm-3.481,8.506c0-3.176-2.118-5.5-4.814-5.5a5.215,5.215,0,0,0-5.022,5.5,5.176,5.176,0,0,0,5.022,5.432C178.56,39.014,180.679,36.725,180.679,33.581Z" transform="translate(-99.017 -14.556)" fill="#4285f4"/>
        <path id="svg_4" d="M219,2.53V28.96H215.14V2.53Z" transform="translate(-127.66 -1.501)" fill="#34a853"/>
        <path id="svg_5" d="M242.12,36.511l3.074,2.049a8.977,8.977,0,0,1-7.514,4,8.824,8.824,0,0,1-8.95-9.019c0-5.363,3.859-9.019,8.507-9.019,4.68,0,6.969,3.725,7.718,5.737l.411,1.025-12.056,4.993a4.59,4.59,0,0,0,4.371,2.732A5.147,5.147,0,0,0,242.12,36.511Zm-9.462-3.245,8.059-3.346a3.492,3.492,0,0,0-3.346-1.911A4.947,4.947,0,0,0,232.658,33.266Z" transform="translate(-135.724 -14.55)" fill="#ea4335"/>
        <path id="svg_6" d="M14.2,16.647V12.821H27.1a12.678,12.678,0,0,1,.191,2.31,12.636,12.636,0,0,1-3.314,8.95,12.806,12.806,0,0,1-9.767,3.928A14.2,14.2,0,0,1,0,14,14.2,14.2,0,0,1,14.207,0a13.344,13.344,0,0,1,9.6,3.859l-2.7,2.7a9.753,9.753,0,0,0-6.9-2.732A10.045,10.045,0,0,0,4.16,14,10.045,10.045,0,0,0,14.2,24.182a9.369,9.369,0,0,0,7.071-2.8,7.931,7.931,0,0,0,2.074-4.737Z" transform="translate(0)" fill="#4285f4"/>
      </g>
    </g>
  </g>
</svg>
