<svg xmlns="http://www.w3.org/2000/svg" height="89" width="270" style=""><rect id="backgroundrect" width="100%" height="100%" x="0" y="0" fill="none" stroke="none"/><g class="currentLayer" style=""><title>Layer 1</title><path d="M115.39,46.71 c0,12.77 -9.99,22.18 -22.25,22.18 s-22.25,-9.41 -22.25,-22.18 c0,-12.86 9.99,-22.18 22.25,-22.18 s22.25,9.32 22.25,22.18 zm-9.74,0 c0,-7.98 -5.79,-13.44 -12.51,-13.44 s-12.51,5.46 -12.51,13.44 c0,7.9 5.79,13.44 12.51,13.44 s12.51,-5.55 12.51,-13.44 z" fill="#EA4335" id="svg_1" class=""/><path d="M163.39,46.71 c0,12.77 -9.99,22.18 -22.25,22.18 s-22.25,-9.41 -22.25,-22.18 c0,-12.85 9.99,-22.18 22.25,-22.18 s22.25,9.32 22.25,22.18 zm-9.74,0 c0,-7.98 -5.79,-13.44 -12.51,-13.44 s-12.51,5.46 -12.51,13.44 c0,7.9 5.79,13.44 12.51,13.44 s12.51,-5.55 12.51,-13.44 z" fill="#FBBC05" id="svg_2" class=""/><path d="M209.39,25.87 v39.82 c0,16.38 -9.66,23.07 -21.08,23.07 c-10.75,0 -17.22,-7.19 -19.66,-13.07 l8.48,-3.5300000000000002 c1.51,3.6100000000000003 5.21,7.87 11.17,7.87 c7.3100000000000005,0 11.84,-4.51 11.84,-13 v-3.19 h-0.3400000000000001 c-2.18,2.6900000000000004 -6.38,5.04 -11.68,5.04 c-11.09,0 -21.25,-9.66 -21.25,-22.09 c0,-12.52 10.16,-22.26 21.25,-22.26 c5.29,0 9.49,2.35 11.68,4.96 h0.3400000000000001 v-3.6100000000000003 h9.25 zm-8.56,20.92 c0,-7.8100000000000005 -5.21,-13.52 -11.84,-13.52 c-6.72,0 -12.35,5.71 -12.35,13.52 c0,7.73 5.63,13.36 12.35,13.36 c6.63,0 11.84,-5.63 11.84,-13.36 z" fill="#4285F4" id="svg_3" class=""/><path d="M224.64,2.5300000000000002 v65 h-9.5 v-65 z" fill="#34A853" id="svg_4" class=""/><path d="M261.66,54.01 l7.5600000000000005,5.04 c-2.44,3.6100000000000003 -8.32,9.83 -18.48,9.83 c-12.6,0 -22.01,-9.74 -22.01,-22.18 c0,-13.19 9.49,-22.18 20.92,-22.18 c11.51,0 17.14,9.16 18.98,14.11 l1.01,2.52 l-29.65,12.28 c2.27,4.45 5.8,6.72 10.75,6.72 c4.96,0 8.4,-2.44 10.92,-6.14 zm-23.27,-7.98 l19.82,-8.23 c-1.09,-2.77 -4.37,-4.7 -8.23,-4.7 c-4.95,0 -11.84,4.37 -11.59,12.93 z" fill="#EA4335" id="svg_5" class=""/><path d="M34.93,40.94 v-9.41 h31.71 c0.31000000000000005,1.6400000000000001 0.47000000000000003,3.58 0.47000000000000003,5.68 c0,7.06 -1.9300000000000002,15.79 -8.15,22.01 c-6.05,6.3 -13.78,9.66 -24.02,9.66 C15.96,68.88 0,53.42 0,34.44 C0,15.46 15.96,0 34.94,0 c10.5,0 17.98,4.12 23.6,9.49 l-6.640000000000001,6.640000000000001 c-4.03,-3.7800000000000002 -9.49,-6.72 -16.97,-6.72 c-13.86,0 -24.7,11.17 -24.7,25.03 c0,13.86 10.84,25.03 24.7,25.03 c8.99,0 14.11,-3.6100000000000003 17.39,-6.890000000000001 c2.66,-2.66 4.41,-6.46 5.1,-11.65 z" fill="#4285F4" id="svg_6" class=""/></g></svg>