<svg xmlns="http://www.w3.org/2000/svg" width="100" height="32.918" viewBox="0 0 100 32.918">
  <g id="google" transform="translate(-0.36 -0.47)">
    <path id="Path_108" data-name="Path 108" d="M40.262,16.792a8.252,8.252,0,0,1-16.5,0,8.252,8.252,0,0,1,16.5,0Zm-3.612,0a4.651,4.651,0,1,0-9.279,0,4.651,4.651,0,1,0,9.279,0Z" transform="translate(2.892 1.001)" fill="#ea4335"/>
    <path id="Path_109" data-name="Path 109" d="M56.105,16.792a8.252,8.252,0,0,1-16.5,0,8.252,8.252,0,0,1,16.5,0Zm-3.612,0a4.651,4.651,0,1,0-9.279,0,4.651,4.651,0,1,0,9.279,0Z" transform="translate(4.85 1.001)" fill="#fbbc05"/>
    <path id="Path_110" data-name="Path 110" d="M71.208,9.064V23.832c0,6.074-3.582,8.555-7.818,8.555A7.838,7.838,0,0,1,56.1,27.54l3.146-1.308a4.546,4.546,0,0,0,4.143,2.917c2.711,0,4.391-1.672,4.391-4.82V23.146h-.126a5.6,5.6,0,0,1-4.331,1.869,8.232,8.232,0,0,1,0-16.448,5.7,5.7,0,0,1,4.331,1.84h.126V9.067h3.43Zm-3.174,7.76c0-2.9-1.933-5.016-4.391-5.016a4.757,4.757,0,0,0-4.58,5.016,4.72,4.72,0,0,0,4.58,4.954C66.1,21.777,68.033,19.69,68.033,16.823Z" transform="translate(6.808 1.001)" fill="#4285f4"/>
    <path id="Path_111" data-name="Path 111" d="M74.895,1.3V25.412H71.371V1.3Z" transform="translate(8.777 0.103)" fill="#34a853"/>
    <path id="Path_112" data-name="Path 112" d="M88.069,19.5l2.8,1.871a8.19,8.19,0,0,1-6.853,3.645,8.048,8.048,0,0,1-8.163-8.226c0-4.891,3.518-8.225,7.758-8.225,4.269,0,6.356,3.4,7.038,5.233l.375.935-11,4.553a4.183,4.183,0,0,0,3.987,2.493A4.693,4.693,0,0,0,88.069,19.5Zm-8.63-2.958,7.352-3.052a3.186,3.186,0,0,0-3.053-1.743A4.511,4.511,0,0,0,79.439,16.54Z" transform="translate(9.331 1)" fill="#ea4335"/>
    <path id="Path_113" data-name="Path 113" d="M13.315,15.653v-3.49H25.073a11.491,11.491,0,0,1,.175,2.107,11.526,11.526,0,0,1-3.022,8.163,11.682,11.682,0,0,1-8.908,3.582A12.951,12.951,0,0,1,.36,13.243,12.952,12.952,0,0,1,13.318.47,12.166,12.166,0,0,1,22.07,3.99L19.607,6.452A8.89,8.89,0,0,0,13.315,3.96a9.161,9.161,0,0,0-9.161,9.283,9.161,9.161,0,0,0,9.161,9.282,8.547,8.547,0,0,0,6.449-2.555,7.247,7.247,0,0,0,1.891-4.32Z" transform="translate(0 0)" fill="#4285f4"/>
  </g>
</svg>
