<svg xmlns="http://www.w3.org/2000/svg" width="100" height="32.813" viewBox="0 0 100 32.813">
  <g id="Group_2" data-name="Group 2" transform="translate(-825 -495.998)">
    <g id="google" transform="translate(825 495.998)">
      <rect id="backgroundrect" width="100" height="32.727" transform="translate(0 0.002)" fill="none"/>
      <g id="Group_1" data-name="Group 1" transform="translate(0 0)">
        <path id="svg_1" d="M87.34,32.729a8.225,8.225,0,1,1-8.225-8.2,8.1,8.1,0,0,1,8.225,8.2Zm-3.6,0a4.637,4.637,0,1,0-9.249,0,4.637,4.637,0,1,0,9.249,0Z" transform="translate(-44.686 -15.461)" fill="#ea4335"/>
        <path id="svg_2" d="M135.34,32.729a8.225,8.225,0,1,1-8.225-8.2,8.1,8.1,0,0,1,8.225,8.2Zm-3.6,0a4.637,4.637,0,1,0-9.249,0,4.637,4.637,0,1,0,9.249,0Z" transform="translate(-74.942 -15.461)" fill="#fbbc05"/>
        <path id="svg_3" d="M182.588,25.025V39.743c0,6.054-3.571,8.531-7.792,8.531a7.808,7.808,0,0,1-7.267-4.832l3.135-1.3a4.529,4.529,0,0,0,4.125,2.906c2.7,0,4.376-1.667,4.376-4.806v-1.18h-.126a5.583,5.583,0,0,1-4.317,1.863,8.2,8.2,0,0,1,0-16.395,5.682,5.682,0,0,1,4.317,1.834h.126V25.028h3.419Zm-3.165,7.732c0-2.887-1.926-5-4.376-5a4.741,4.741,0,0,0-4.566,5,4.705,4.705,0,0,0,4.566,4.939c2.451,0,4.377-2.079,4.377-4.938Z" transform="translate(-105.185 -15.461)" fill="#4285f4"/>
        <path id="svg_4" d="M218.649,2.53V26.558H215.14V2.53Z" transform="translate(-135.613 -1.594)" fill="#34a853"/>
        <path id="svg_5" d="M240.9,35.421l2.795,1.863a8.161,8.161,0,0,1-6.83,3.636,8.022,8.022,0,0,1-8.136-8.2c0-4.875,3.508-8.2,7.733-8.2,4.254,0,6.335,3.386,7.016,5.215l.375.932-10.96,4.539a4.173,4.173,0,0,0,3.974,2.483,4.679,4.679,0,0,0,4.031-2.271Zm-8.6-2.951,7.326-3.042a3.174,3.174,0,0,0-3.042-1.737,4.5,4.5,0,0,0-4.284,4.781Z" transform="translate(-144.179 -15.455)" fill="#ea4335"/>
        <path id="svg_6" d="M12.909,15.134V11.656H24.636a11.525,11.525,0,0,1,.173,2.1A11.487,11.487,0,0,1,21.8,21.892a11.642,11.642,0,0,1-8.879,3.571A12.909,12.909,0,0,1,0,12.727,12.909,12.909,0,0,1,12.916,0a12.131,12.131,0,0,1,8.727,3.508L19.188,5.962a8.867,8.867,0,0,0-6.273-2.483,9.132,9.132,0,0,0-9.134,9.248,9.132,9.132,0,0,0,9.127,9.257,8.517,8.517,0,0,0,6.428-2.545,7.21,7.21,0,0,0,1.885-4.307Z" transform="translate(0 0.002)" fill="#4285f4"/>
      </g>
    </g>
  </g>
</svg>
