<svg id="guildquality" xmlns="http://www.w3.org/2000/svg" width="150" height="24.382" viewBox="0 0 150 24.382">
  <rect id="backgroundrect" width="149.107" height="24.382" transform="translate(0 0)" fill="none"/>
  <g id="Group_1" data-name="Group 1" transform="translate(0.042 0)">
    <path id="svg_1" d="M363.932,0a12.1,12.1,0,1,0,7.307,21.732c.108-.084.216-.161.323-.252l-2.284-2.289c-.177.135-.359.261-.546.381a8.845,8.845,0,1,1,2.684-2.682c-.121.188-.252.369-.383.549l2.277,2.286q.13-.161.252-.323A12.1,12.1,0,0,0,363.932,0Z" transform="translate(-295.138 0)" fill="#01183c"/>
    <path id="svg_2" d="M393.452,35.18a6.422,6.422,0,1,0,6.422,6.422A6.422,6.422,0,0,0,393.452,35.18Z" transform="translate(-324.658 -29.506)" fill="#01183c"/>
    <g id="GQ_Logo_Wordmark" data-name="GQ Logo Wordmark" transform="translate(0 6.692)">
      <g id="GQ_Logo_Wordmark-2" data-name="GQ Logo Wordmark" transform="translate(0 0)">
        <path id="svg_3" d="M5.725,43.1a3.957,3.957,0,0,1,2.943,1.168l.15.15,1.116-1.143L9.8,43.133a5.375,5.375,0,0,0-4.091-1.586,5.439,5.439,0,1,0,.054,10.866,6.008,6.008,0,0,0,3.952-1.353L9.785,51V46.779H8.122v3.447a4.22,4.22,0,0,1-2.344.626A3.879,3.879,0,1,1,5.725,43.1Z" transform="translate(-0.046 -41.541)" fill="#01183c"/>
        <path id="svg_4" d="M95.295,48.378c0,2.1-.958,3.155-2.846,3.155s-2.828-1.062-2.828-3.155V42.33H87.9v6.085c0,2.96,1.658,4.656,4.547,4.656s4.533-1.7,4.533-4.656V42.33H95.289Z" transform="translate(-73.767 -42.195)" fill="#01183c"/>
        <rect id="svg_5" width="1.719" height="10.632" transform="translate(27.589 0.217)" fill="#01183c"/>
        <path id="svg_6" d="M210.867,42.67H209.15V53.3h6.023V51.795h-4.306Z" transform="translate(-175.464 -42.481)" fill="#01183c"/>
        <path id="svg_7" d="M274.587,42.5h-3.939V53.132h3.939c3.52,0,5.8-2.1,5.8-5.322S278.106,42.5,274.587,42.5Zm4.077,5.307c0,2.354-1.584,3.823-4.132,3.823h-2.164V44h2.164c2.549,0,4.131,1.459,4.131,3.806Z" transform="translate(-227.046 -42.338)" fill="#01183c"/>
        <path id="svg_8" d="M530.009,48.378c0,2.1-.958,3.155-2.848,3.155s-2.828-1.062-2.828-3.155V42.33H522.61v6.085c0,2.96,1.658,4.656,4.548,4.656s4.53-1.7,4.53-4.656V42.33h-1.682Z" transform="translate(-438.373 -42.195)" fill="#01183c"/>
        <path id="svg_9" d="M600.652,42.33,595.74,52.962h1.766l1.194-2.64h5.465l1.194,2.64h1.766L602.2,42.33Zm2.848,6.526h-4.14l2.079-4.581Z" transform="translate(-499.71 -42.195)" fill="#01183c"/>
        <path id="svg_10" d="M688.739,42.33H687.02V52.962h6.023v-1.5h-4.3Z" transform="translate(-576.269 -42.195)" fill="#01183c"/>
        <rect id="svg_11" width="1.719" height="10.632" transform="translate(121.151 0.135)" fill="#01183c"/>
        <path id="svg_12" d="M789.33,43.834h3.6v9.129h1.719V43.834h3.6v-1.5h-8.912Z" transform="translate(-662.081 -42.196)" fill="#01183c"/>
        <path id="svg_13" d="M873.766,42.33l-3.392,5.454-3.391-5.454H865.1l4.4,7.12v3.512h1.7V49.485l4.395-7.155Z" transform="translate(-725.632 -42.195)" fill="#01183c"/>
      </g>
    </g>
  </g>
</svg>
