<svg id="guildquality" xmlns="http://www.w3.org/2000/svg" width="159.954" height="26" viewBox="0 0 159.954 26">
  <rect id="backgroundrect" width="159" height="26" fill="none"/>
  <g id="Group_1" data-name="Group 1" transform="translate(0 0)">
    <path id="svg_1" d="M364.735,0a12.9,12.9,0,1,0,7.792,23.174c.115-.088.23-.172.344-.27l-2.435-2.44c-.189.143-.383.279-.583.406a9.432,9.432,0,1,1,2.862-2.86c-.129.2-.265.394-.408.585l2.428,2.438q.138-.172.268-.344A12.9,12.9,0,0,0,364.735,0Z" transform="translate(-291.332 0)" fill="#01183c"/>
    <path id="svg_2" d="M393.878,35.18a6.848,6.848,0,1,0,6.848,6.848A6.848,6.848,0,0,0,393.878,35.18Z" transform="translate(-320.475 -29.13)" fill="#01183c"/>
    <g id="GQ_Logo_Wordmark" data-name="GQ Logo Wordmark" transform="translate(0 7.145)">
      <g id="GQ_Logo_Wordmark-2" data-name="GQ Logo Wordmark">
        <path id="svg_3" d="M6.1,43.209a4.219,4.219,0,0,1,3.138,1.245l.16.16,1.19-1.218-.141-.155A5.732,5.732,0,0,0,6.084,41.55a5.8,5.8,0,1,0,.057,11.587,6.407,6.407,0,0,0,4.217-1.443l.074-.067v-4.5H8.657v3.68a4.5,4.5,0,0,1-2.5.667A4.137,4.137,0,1,1,6.1,43.209Z" transform="translate(0 -41.55)" fill="#01183c"/>
        <path id="svg_4" d="M95.785,48.78c0,2.236-1.021,3.364-3.035,3.364s-3.016-1.132-3.016-3.364V42.33H87.9v6.488c0,3.156,1.768,4.965,4.849,4.965s4.83-1.809,4.83-4.965V42.33h-1.8Z" transform="translate(-72.784 -42.196)" fill="#01183c"/>
        <rect id="svg_5" width="1.833" height="11.338" transform="translate(29.464 0.222)" fill="#01183c"/>
        <path id="svg_6" d="M210.981,42.67H209.15V54.008h6.423V52.4h-4.591Z" transform="translate(-173.184 -42.477)" fill="#01183c"/>
        <path id="svg_7" d="M274.848,42.5h-4.2V53.838h4.2c3.754,0,6.18-2.236,6.18-5.675S278.6,42.5,274.848,42.5Zm4.347,5.659c0,2.514-1.689,4.077-4.406,4.077h-2.308V44.1h2.308C277.506,44.1,279.195,45.656,279.195,48.159Z" transform="translate(-224.108 -42.337)" fill="#01183c"/>
        <path id="svg_8" d="M530.5,48.78c0,2.236-1.021,3.364-3.037,3.364s-3.016-1.132-3.016-3.364V42.33H522.61v6.488c0,3.156,1.768,4.965,4.849,4.965s4.831-1.809,4.831-4.965V42.33H530.5Z" transform="translate(-432.74 -42.196)" fill="#01183c"/>
        <path id="svg_9" d="M600.978,42.33,595.74,53.668h1.88l1.273-2.815h5.824l1.273,2.815h1.88L602.631,42.33Zm3.037,6.959H599.6l2.217-4.885Z" transform="translate(-493.294 -42.196)" fill="#01183c"/>
        <path id="svg_10" d="M688.853,42.33H687.02V53.668h6.423v-1.6h-4.59Z" transform="translate(-568.877 -42.196)" fill="#01183c"/>
        <rect id="svg_11" width="1.833" height="11.338" transform="translate(129.234 0.134)" fill="#01183c"/>
        <path id="svg_12" d="M789.33,43.933h3.837v9.735H795V43.933h3.837v-1.6H789.33Z" transform="translate(-653.594 -42.196)" fill="#01183c"/>
        <path id="svg_13" d="M874.341,42.33l-3.618,5.816-3.616-5.816H865.1l4.688,7.592v3.745H871.6V49.96l4.686-7.63Z" transform="translate(-716.334 -42.196)" fill="#01183c"/>
      </g>
    </g>
  </g>
</svg>
