<svg xmlns="http://www.w3.org/2000/svg" fill="#01183c" width="930" height="150"><rect id="backgroundrect" width="100%" height="100%" x="0" y="0" fill="none" stroke="none"/>
    
  <g class="currentLayer" style=""><title>Layer 1</title><path fill="##01183c" d="M426.85,4.4958250100535224e-7 a75,75 0 1 0 45.31,134.76 c0.6700000000000002,-0.51 1.34,-1 2,-1.57 L460,119.0000004495825 c-1.1,0.8300000000000001 -2.23,1.62 -3.39,2.36 a54.85,54.85 0 1 1 16.64,-16.63 c-0.7500000000000001,1.15 -1.54,2.29 -2.37,3.4 L485,122.3100004495825 q0.8,-1 1.56,-2 A75,75 0 0 0 426.85,4.4958250100535224e-7 z" id="svg_1" class=""/><path fill="#01183c" d="M426.85,35.1800004495825 a39.82,39.82 0 1 0 0,79.64 A39.82,39.82 0 0 0 466.67,75.0000004495825 A39.86,39.86 0 0 0 426.85,35.1800004495825 z" id="svg_2" class=""/><g id="GQ_Logo_Wordmark-2" data-name="GQ Logo Wordmark" class=""><g id="GQ_Logo_Wordmark-3" data-name="GQ Logo Wordmark"><path fill="#01183c" d="M35.49,51.200000449582504 c7.41,0 13.38,2.37 18.25,7.24 l0.93,0.93 l6.92,-7.08 l-0.8200000000000001,-0.9 C54.91,45.0000004495825 46.13,41.5500004495825 35.38,41.5500004495825 C15.21,41.5500004495825 0,56.0000004495825 0,75.2400004495825 s15.35,33.69 35.71,33.69 c9.56,0 18.5,-3.06 24.52,-8.39 l0.43000000000000005,-0.39000000000000007 V74.0000004495825 H50.34 V95.4000004495825 a26.14,26.14 0 0 1 -14.52,3.88 c-14.58,0 -25.16,-10.11 -25.16,-24 S21.1,51.200000449582504 35.49,51.200000449582504 z" id="svg_3"/><path fill="#01183c" d="M133.75,79.8400004495825 c0,13 -5.94,19.56 -17.65,19.56 S98.56,92.8200004495825 98.56,79.8400004495825 V42.3300004495825 H87.9 V80.0600004495825 c0,18.35 10.28,28.87 28.2,28.87 s28.09,-10.52 28.09,-28.87 V42.3300004495825 H133.75 z" id="svg_4"/><rect fill="#01183c" x="171.33999633789062" y="42.84000060217039" width="10.65999984741211" height="65.93000030517578" id="svg_5"/><polygon fill="#01183c" points="219.8000030517578,42.66999861852781 209.14999389648438,42.66999861852781 209.14999389648438,108.5999989237036 246.5,108.5999989237036 246.5,99.27999922887938 219.8000030517578,99.27999922887938 219.8000030517578,42.66999861852781 " id="svg_6"/><path fill="#01183c" d="M295.06,42.5000004495825 H270.65 v65.93 h24.41 c21.83,0 35.94,-13 35.94,-33 S316.89,42.5000004495825 295.06,42.5000004495825 zm25.28,32.91 c0,14.620000000000001 -9.82,23.71 -25.62,23.71 H281.3 V51.8100004495825 h13.42 C310.52,51.8100004495825 320.34,60.8500004495825 320.34,75.4100004495825 z" id="svg_7"/><path fill="#01183c" d="M568.47,79.8400004495825 c0,13 -5.94,19.56 -17.66,19.56 s-17.54,-6.58 -17.54,-19.56 V42.3300004495825 H522.61 V80.0600004495825 c0,18.35 10.28,28.87 28.2,28.87 S578.9,98.4100004495825 578.9,80.0600004495825 V42.3300004495825 H568.47 z" id="svg_8"/><path fill="#01183c" d="M626.2,42.3300004495825 l-30.46,65.93 h10.93 l7.4,-16.37 h33.87 l7.4,16.37 h10.93 L635.81,42.3300004495825 zM643.86,82.8000004495825 h-25.7 l12.89,-28.41 z" id="svg_9"/><polygon fill="#01183c" points="697.6799926757812,42.33000228063719 687.02001953125,42.33000228063719 687.02001953125,108.26000258581297 724.3699951171875,108.26000258581297 724.3699951171875,98.94999739782469 697.6799926757812,98.94999739782469 697.6799926757812,42.33000228063719 " id="svg_10"/><rect fill="#01183c" x="751.52001953125" y="42.33000228063719" width="10.65999984741211" height="65.93000030517578" id="svg_11"/><polygon fill="#01183c" points="789.3300170898438,51.65000197546141 811.6400146484375,51.65000197546141 811.6400146484375,108.26000258581297 822.2999877929688,108.26000258581297 822.2999877929688,51.65000197546141 844.6099853515625,51.65000197546141 844.6099853515625,42.33000228063719 789.3300170898438,42.33000228063719 789.3300170898438,51.65000197546141 " id="svg_12"/><polygon fill="#01183c" points="918.8400268554688,42.33000228063719 897.7999877929688,76.15000197546141 876.77001953125,42.33000228063719 865.0999755859375,42.33000228063719 892.3599853515625,86.4800038065161 892.3599853515625,108.26000258581297 902.9099731445312,108.26000258581297 902.9099731445312,86.69999739782469 930.1599731445312,42.33000228063719 918.8400268554688,42.33000228063719 " id="svg_13"/>
  </g></g></g></svg>