<svg id="guildquality" xmlns="http://www.w3.org/2000/svg" width="178.408" height="29" viewBox="0 0 178.408 29">
  <rect id="backgroundrect" width="177.346" height="29" transform="translate(0 0)" fill="none"/>
  <g id="Group_1" data-name="Group 1" transform="translate(0.044 0)">
    <path id="svg_1" d="M366.225,0a14.388,14.388,0,1,0,8.691,25.848c.128-.1.257-.192.384-.3l-2.716-2.722c-.211.16-.427.311-.65.453a10.52,10.52,0,1,1,3.192-3.19c-.144.223-.3.439-.455.653l2.708,2.719q.154-.192.3-.384A14.388,14.388,0,0,0,366.225,0Z" transform="translate(-284.396 0)" fill="#01183c"/>
    <path id="svg_2" d="M394.668,35.18a7.638,7.638,0,1,0,7.638,7.638,7.638,7.638,0,0,0-7.638-7.638Z" transform="translate(-312.84 -28.432)" fill="#01183c"/>
    <g id="GQ_Logo_Wordmark" data-name="GQ Logo Wordmark" transform="translate(0 7.961)">
      <g id="GQ_Logo_Wordmark-2" data-name="GQ Logo Wordmark" transform="translate(0 0)">
        <path id="svg_3" d="M6.8,43.4a4.706,4.706,0,0,1,3.5,1.389l.178.178,1.327-1.359-.157-.173a6.393,6.393,0,0,0-4.866-1.886,6.469,6.469,0,1,0,.064,12.924,7.146,7.146,0,0,0,4.7-1.609l.083-.075V47.771H9.651v4.1a5.019,5.019,0,0,1-2.788.744A4.614,4.614,0,1,1,6.8,43.4Z" transform="translate(-0.04 -41.543)" fill="#01183c"/>
        <path id="svg_4" d="M96.695,49.524c0,2.494-1.139,3.752-3.385,3.752s-3.364-1.263-3.364-3.752V42.33H87.9v7.237c0,3.52,1.972,5.538,5.408,5.538S98.7,53.087,98.7,49.567V42.33H96.688Z" transform="translate(-71.084 -42.172)" fill="#01183c"/>
        <rect id="svg_5" width="2.044" height="12.646" transform="translate(32.82 0.256)" fill="#01183c"/>
        <path id="svg_6" d="M211.192,42.67H209.15V55.316h7.164V53.523h-5.121Z" transform="translate(-169.078 -42.447)" fill="#01183c"/>
        <path id="svg_7" d="M275.333,42.5h-4.685V55.146h4.685c4.187,0,6.893-2.494,6.893-6.33S279.518,42.5,275.333,42.5Zm4.849,6.312c0,2.8-1.884,4.547-4.914,4.547h-2.574V44.285h2.574C278.3,44.285,280.181,46.02,280.181,48.812Z" transform="translate(-218.782 -42.31)" fill="#01183c"/>
        <path id="svg_8" d="M531.41,49.524c0,2.494-1.139,3.752-3.387,3.752s-3.364-1.263-3.364-3.752V42.33H522.61v7.237c0,3.52,1.972,5.538,5.409,5.538s5.388-2.018,5.388-5.538V42.33h-2Z" transform="translate(-422.414 -42.172)" fill="#01183c"/>
        <path id="svg_9" d="M601.582,42.33,595.74,54.976h2.1l1.42-3.14h6.5l1.42,3.14h2.1L603.426,42.33Zm3.387,7.762h-4.924l2.473-5.449Z" transform="translate(-481.517 -42.172)" fill="#01183c"/>
        <path id="svg_10" d="M689.065,42.33H687.02V54.976h7.164V53.192h-5.12Z" transform="translate(-555.289 -42.172)" fill="#01183c"/>
        <rect id="svg_11" width="2.044" height="12.646" transform="translate(144.101 0.158)" fill="#01183c"/>
        <path id="svg_12" d="M789.33,44.118h4.28V54.976h2.044V44.118h4.28V42.333h-10.6Z" transform="translate(-637.976 -42.172)" fill="#01183c"/>
        <path id="svg_13" d="M875.407,42.33l-4.035,6.487-4.033-6.487H865.1l5.229,8.468v4.177h2.021V50.84l5.227-8.51Z" transform="translate(-699.213 -42.172)" fill="#01183c"/>
      </g>
    </g>
  </g>
</svg>
