<?xml version="1.0" encoding="utf-8"?>
<!-- Generator: Adobe Illustrator 24.2.1, SVG Export Plug-In . SVG Version: 6.00 Build 0)  -->
<svg version="1.1" id="Layer_1" xmlns="http://www.w3.org/2000/svg" xmlns:xlink="http://www.w3.org/1999/xlink" x="0px" y="0px"
	 viewBox="0 0 1000 1000" style="enable-background:new 0 0 1000 1000;" xml:space="preserve">
<style type="text/css">
	.st0{fill:#FFFFFF;}
</style>
<circle cx="500" cy="500" r="493"/>
<path class="st0" d="M710.48,768.53c0,0-121.27-85.54-151.63-108.03c78.15-26.61,148.9-85.48,148.9-199.85
	c0-124.55-95.67-192.5-214.56-192.5c-117.2,0-209.46,83.8-209.46,201.57c0,129.64,90.56,200.41,216.24,200.99
	c4.55,0,9.07-1.14,13.6-1.71c40.18,28.83,159.23,126.17,159.23,126.17L710.48,768.53z M493.74,652.01
	c-79.81,0-154.55-53.21-154.55-174.94c0-99.09,48.11-190.24,159.66-190.24c45.29,0,89.44,19.24,117.77,55.48
	c29.43,37.38,35.66,77,35.66,124C652.85,512.75,625.67,652.01,493.74,652.01z"/>
</svg>
