<svg xmlns="http://www.w3.org/2000/svg" width="150" height="20.725" viewBox="0 0 150 20.725">
  <g id="guildquality" transform="translate(-0.834 -0.741)">
    <g id="Group_17" data-name="Group 17" transform="translate(0.834 6.684)">
      <path id="Path_114" data-name="Path 114" d="M8.623,8.367A3.779,3.779,0,0,0,5.757,7.129c-2.164,0-3.67,1.426-3.67,4,0,2.519,1.3,4.09,3.808,4.09a4.4,4.4,0,0,0,1.991-.434V11.509c.181.014.369.036.557.036s.355-.029.557-.036v3.605a10.6,10.6,0,0,1-3.467.586c-3.221,0-4.7-1.926-4.7-4.51,0-2.982,2.143-4.546,4.966-4.546a6.234,6.234,0,0,1,3.25.738c-.116.319-.2.652-.29.985H8.623Z" transform="translate(-0.834 -6.644)"/>
      <path id="Path_115" data-name="Path 115" d="M16.741,11.718c0,2.244.637,3.4,2.816,3.4,2.027,0,2.751-1.462,2.751-3.525V6.838a2.8,2.8,0,0,0,.355.036c.116,0,.232-.029.355-.036v5.067A3.425,3.425,0,0,1,19.3,15.7a3.872,3.872,0,0,1-2.765-.89,3.779,3.779,0,0,1-.919-2.881V6.838c.181.014.369.036.557.036s.355-.029.557-.036v4.879Z" transform="translate(-0.735 -6.643)"/>
      <path id="Path_116" data-name="Path 116" d="M30.029,6.838c.181.014.369.036.557.036s.355-.029.557-.036v8.709c-.2-.014-.384-.036-.557-.036s-.384.029-.557.036Z" transform="translate(-0.638 -6.643)"/>
      <path id="Path_117" data-name="Path 117" d="M39.147,14.917c.775.029,1.542-.022,2.309-.051.405-.014.8-.065,1.209-.116a3.606,3.606,0,0,0-.036.384,3.437,3.437,0,0,0,.036.384h-4.64V6.838c.181.014.369.036.557.036s.355-.029.557-.036v8.079Z" transform="translate(-0.585 -6.643)"/>
      <path id="Path_118" data-name="Path 118" d="M50.163,14.939a8.026,8.026,0,0,0,3.735-.3,3.744,3.744,0,0,0,1.831-3.656c0-2.7-1.108-3.685-3.96-3.685-.521,0-1.057.036-1.607.051Zm-1.115-8.1h2.888c1.325,0,2.613-.13,3.677.767a4.027,4.027,0,0,1,1.361,3.185,4.67,4.67,0,0,1-1.607,3.757,5.549,5.549,0,0,1-3.844.97H49.041V6.838Z" transform="translate(-0.511 -6.643)"/>
      <path id="Path_119" data-name="Path 119" d="M86.736,11.718c0,2.244.637,3.4,2.816,3.4,2.027,0,2.751-1.462,2.751-3.525V6.838a2.8,2.8,0,0,0,.355.036c.116,0,.232-.029.355-.036v5.067A3.425,3.425,0,0,1,89.291,15.7a3.872,3.872,0,0,1-2.765-.89,3.779,3.779,0,0,1-.919-2.881V6.838c.181.014.369.036.565.036s.355-.029.557-.036v4.879Z" transform="translate(-0.266 -6.643)"/>
      <path id="Path_120" data-name="Path 120" d="M102.832,8.316l-1.39,3.258h2.8Zm4.278,7.239c-.239-.014-.449-.036-.666-.036-.239,0-.456.029-.673.036-.369-1.057-.825-2.28-1.339-3.439H101.2c-.449,1.122-.9,2.244-1.26,3.439-.181-.014-.319-.036-.471-.036s-.3.029-.449.036l3.974-8.9h.29Z" transform="translate(-0.176 -6.644)"/>
      <path id="Path_121" data-name="Path 121" d="M114.061,14.917c.775.029,1.542-.022,2.309-.051.405-.014.8-.065,1.209-.116a3.605,3.605,0,0,0-.036.384,3.437,3.437,0,0,0,.036.384h-4.633V6.838c.181.014.369.036.557.036s.355-.029.557-.036v8.079Z" transform="translate(-0.082 -6.643)"/>
      <path id="Path_122" data-name="Path 122" d="M123.9,6.838c.181.014.369.036.557.036s.355-.029.557-.036v8.709c-.2-.014-.384-.036-.557-.036s-.384.029-.557.036Z" transform="translate(-0.009 -6.643)"/>
      <path id="Path_123" data-name="Path 123" d="M134.933,15.576c-.2-.014-.384-.036-.557-.036s-.384.029-.557.036V7.454a23.041,23.041,0,0,0-2.787.152,3.437,3.437,0,0,0,.036-.384c0-.13-.029-.239-.036-.384H137.6a3.605,3.605,0,0,0-.036.384c0,.13.029.253.036.384a21.58,21.58,0,0,0-2.664-.152v8.122Z" transform="translate(0.039 -6.643)"/>
      <path id="Path_124" data-name="Path 124" d="M146.85,15.554c-.2-.014-.384-.036-.557-.036s-.384.029-.557.036v-3.67l-3.12-5.046c.232.014.471.036.717.036.217,0,.449-.029.7-.036.5.985,2.012,3.656,2.418,4.264.434-.507,2.063-3.591,2.432-4.264.152.014.333.036.5.036s.319-.029.5-.036c-.319.405-.623.84-.9,1.274l-1.4,2.251a11.606,11.606,0,0,0-.717,1.274v3.916Z" transform="translate(0.117 -6.643)"/>
    </g>
    <path id="Path_125" data-name="Path 125" d="M81.416,11.107A10.367,10.367,0,1,0,76.2,20.1c-.442-.434-3.41-2.8-4.6-3.656a3.61,3.61,0,0,1-.391.051c-3.583-.014-6.16-2.034-6.16-5.726A5.715,5.715,0,0,1,71.02,5.026c3.388,0,6.117,1.933,6.117,5.487a5.73,5.73,0,0,1-4.242,5.7c.89.659,3.2,2.288,4.423,3.149A10.36,10.36,0,0,0,81.416,11.107Z" transform="translate(0.402)" fill="#002d56"/>
    <path id="Path_126" data-name="Path 126" d="M75.505,10.64a5.3,5.3,0,0,0-1.013-3.533A4.23,4.23,0,0,0,71.133,5.53c-3.178,0-4.553,2.6-4.553,5.422,0,3.467,2.128,4.988,4.4,4.988C74.752,15.932,75.527,11.965,75.505,10.64Z" transform="translate(0.441 0.032)" fill="#002d56"/>
  </g>
</svg>
