<?xml version="1.0" encoding="utf-8"?>
<!-- Generator: Adobe Illustrator 24.2.1, SVG Export Plug-In . SVG Version: 6.00 Build 0)  -->
<svg version="1.1" id="Layer_1" xmlns="http://www.w3.org/2000/svg" xmlns:xlink="http://www.w3.org/1999/xlink" x="0px" y="0px"
	 viewBox="0 0 1000 1000" style="enable-background:new 0 0 1000 1000;" xml:space="preserve">
<style type="text/css">
	.st0{fill:#FFFFFF;}
</style>
<circle cx="500" cy="500" r="481.98"/>
<path class="st0" d="M592.18,491.33c-7.88,0-15.43-3.13-21-8.7l-0.29-0.29L448.45,359.91c-7.4-7.4-19.39-7.4-26.78,0L328,453.57
	c-6.6,6.6-10.31,15.55-10.31,24.89v99.47c0,16.66,13.63,30.29,30.29,30.29h138.66l82.87,82.87c8.54,8.54,23.14,2.49,23.14-9.58
	v-73.28h59.16c16.66,0,30.29-13.63,30.29-30.29v-86.6H592.18L592.18,491.33z"/>
<path class="st0" d="M583.61,277.9H417.13c-4.88,0-9.56,1.94-13.01,5.39L257.78,429.62c-11.59,11.59-3.38,31.42,13.01,31.42h0
	c4.88,0,9.56-1.94,13.01-5.39l138.71-138.71c7.19-7.19,18.84-7.19,26.03,0l138.71,138.71c3.45,3.45,8.13,5.39,13.01,5.39h129.67
	c16.4,0,24.61-19.82,13.01-31.42L596.62,283.29C593.17,279.84,588.49,277.9,583.61,277.9z"/>
</svg>
