<svg xmlns="http://www.w3.org/2000/svg" width="125" height="15.059" viewBox="0 0 125 15.059">
  <g id="Group_1" data-name="Group 1" transform="translate(-28.214 -390.02)">
    <path id="Path_1" data-name="Path 1" d="M38.895,404.533H36.522V398.4H30.588v6.128H28.214V390.02h2.374v6.026h5.933V390.02h2.374v14.512Z" transform="translate(0 0)"/>
    <path id="Path_2" data-name="Path 2" d="M130.489,418.944a5.838,5.838,0,0,1-1.648,4.232,5.329,5.329,0,0,1-7.9,0,6.273,6.273,0,0,1,0-8.455,5.307,5.307,0,0,1,7.9,0A5.848,5.848,0,0,1,130.489,418.944Zm-7.864-2.429a3.577,3.577,0,0,0,0,4.858,3.039,3.039,0,0,0,4.539,0,3.59,3.59,0,0,0,.009-4.858,3.049,3.049,0,0,0-4.548,0Z" transform="translate(-78.842 -19.853)"/>
    <path id="Path_3" data-name="Path 3" d="M230.41,419.052v5.482h-2.374v-5.764q0-3.286-2.317-3.285-1.96,0-1.959,2.923v6.128h-2.374v-5.764a4.83,4.83,0,0,0-.508-2.4,1.592,1.592,0,0,0-1.45-.887,2.059,2.059,0,0,0-1.7.776,3.344,3.344,0,0,0-.622,2.147v6.128h-2.374V413.653h2.374v.706a2.58,2.58,0,0,1,1.046-.877,3.442,3.442,0,0,1,1.554-.353,3.344,3.344,0,0,1,3.107,1.653,3.483,3.483,0,0,1,1.4-1.2,4.029,4.029,0,0,1,1.8-.453Q230.41,413.126,230.41,419.052Z" transform="translate(-161.452 -20.002)"/>
    <path id="Path_4" data-name="Path 4" d="M346.212,424.929a5.066,5.066,0,0,1-3.947-1.734,6.136,6.136,0,0,1-1.554-4.252,5.982,5.982,0,0,1,1.564-4.253,4.894,4.894,0,0,1,3.862-1.734,4.753,4.753,0,0,1,3.749,1.662,5.8,5.8,0,0,1,1.507,4.141,6.69,6.69,0,0,1-.188,1.512h-7.95a2.962,2.962,0,0,0,.98,1.452,2.921,2.921,0,0,0,1.979.665,3.3,3.3,0,0,0,1.432-.312,2.35,2.35,0,0,0,1-.836l2.222,1.25A5.4,5.4,0,0,1,346.212,424.929Zm-.075-9.433a2.89,2.89,0,0,0-1.959.685,2.739,2.739,0,0,0-.942,1.734h5.708a2.422,2.422,0,0,0-.867-1.744A2.889,2.889,0,0,0,346.137,415.5Z" transform="translate(-270.492 -19.852)"/>
    <path id="Path_5" data-name="Path 5" d="M434.88,401.791h-6.121l-1.055,2.741h-2.619l5.558-14.512h2.374l5.5,14.512h-2.6Zm-.885-2.358-2.167-5.664-2.167,5.664Z" transform="translate(-343.526)"/>
    <path id="Path_6" data-name="Path 6" d="M539.2,394.354V390.02h2.374v14.512H539.2v-.826a2.677,2.677,0,0,1-1.2.977,4.14,4.14,0,0,1-1.78.393,4.623,4.623,0,0,1-3.7-1.723,6.176,6.176,0,0,1-1.5-4.3,6.309,6.309,0,0,1,1.432-4.253,4.756,4.756,0,0,1,3.806-1.673,4.3,4.3,0,0,1,1.714.383A2.773,2.773,0,0,1,539.2,394.354Zm-5.8,4.757a3.853,3.853,0,0,0,.81,2.408,2.534,2.534,0,0,0,2.11,1.058,2.66,2.66,0,0,0,1.979-.988,3.529,3.529,0,0,0,.9-2.479,3.674,3.674,0,0,0-.858-2.5,2.6,2.6,0,0,0-2.025-.988,2.567,2.567,0,0,0-2.129,1.008A3.892,3.892,0,0,0,533.4,399.111Z" transform="translate(-435.227 0)"/>
    <path id="Path_7" data-name="Path 7" d="M625.612,427.894h-2.374l-3.917-10.885h2.505l2.6,7.277,2.6-7.277h2.524Z" transform="translate(-511.654 -23.361)"/>
    <path id="Path_8" data-name="Path 8" d="M708.16,392.56h-2.374v-2.54h2.374Zm0,11.973h-2.374V393.648h2.374Z" transform="translate(-586.497 0)"/>
    <path id="Path_9" data-name="Path 9" d="M739.786,422.4a3.521,3.521,0,0,0,1.639-.312.927.927,0,0,0,.583-.817.781.781,0,0,0-.518-.715,7.924,7.924,0,0,0-1.723-.494,6.515,6.515,0,0,1-3.023-1.209,2.833,2.833,0,0,1-.971-2.278,3.318,3.318,0,0,1,1.168-2.55,4.081,4.081,0,0,1,2.844-1.058,5.65,5.65,0,0,1,2.289.414,6.23,6.23,0,0,1,1.856,1.341l-1.564,1.734a4,4,0,0,0-1.092-.746,3.6,3.6,0,0,0-1.337-.2,2.536,2.536,0,0,0-1.28.292.84.84,0,0,0-.508.715.762.762,0,0,0,.472.706,6.231,6.231,0,0,0,1.6.444,12.4,12.4,0,0,1,2.11.585,3.051,3.051,0,0,1,1.479,1.118,3.446,3.446,0,0,1,.574,2.065,3.093,3.093,0,0,1-1.262,2.49,5.154,5.154,0,0,1-3.334,1.018,5.51,5.51,0,0,1-2.44-.6,5.382,5.382,0,0,1-1.968-1.573l1.545-1.753a3.405,3.405,0,0,0,1.214.977A3.538,3.538,0,0,0,739.786,422.4Z" transform="translate(-612.115 -19.858)"/>
    <path id="Path_10" data-name="Path 10" d="M822.075,418.944a5.838,5.838,0,0,1-1.648,4.232,5.329,5.329,0,0,1-7.9,0,6.273,6.273,0,0,1,0-8.455,5.307,5.307,0,0,1,7.9,0A5.848,5.848,0,0,1,822.075,418.944Zm-7.864-2.429a3.577,3.577,0,0,0,0,4.858,3.039,3.039,0,0,0,4.539,0,3.59,3.59,0,0,0,.009-4.858,3.049,3.049,0,0,0-4.548,0Z" transform="translate(-677.469 -19.853)"/>
    <path id="Path_11" data-name="Path 11" d="M913.293,413.776l-1.168,2.52a2.662,2.662,0,0,0-1.714-.624,1.417,1.417,0,0,0-1.253.735,3.746,3.746,0,0,0-.461,2v6.107h-2.374V413.633H908.7v.706a2.413,2.413,0,0,1,1.055-.847,3.3,3.3,0,0,1,1.545-.383A3.1,3.1,0,0,1,913.293,413.776Z" transform="translate(-760.079 -19.985)"/>
  </g>
</svg>
