<svg xmlns="http://www.w3.org/2000/svg" width="130" height="29.767" viewBox="0 0 130 29.767">
  <g id="houzz" transform="translate(-27.7 -391.7)">
    <path id="Path_1" data-name="Path 1" d="M44.093,421.047h9.847V404.38l-19.707-5.652V391.7H27.7v29.347h9.847v-9.242h6.546Z" transform="translate(0)" fill="#4dbc15"/>
    <path id="Path_2" data-name="Path 2" d="M760.526,488.308V485.2H747.5v3.246h8.32L747.2,498.54v3.149h13.794V498.43h-9.159Z" transform="translate(-620.552 -80.642)"/>
    <path id="Path_3" data-name="Path 3" d="M877.435,498.43l8.678-10.122V485.2H873.089v3.246h8.32L872.8,498.54v3.149h13.78V498.43Z" transform="translate(-728.88 -80.642)"/>
    <path id="Path_4" data-name="Path 4" d="M324.615,448.682a7.543,7.543,0,0,0-7.357.963V442.7H313.6v22.32h3.658v-8.774c0-1.664.481-4.469,3.686-4.469,2.943,0,3.988,2.407,3.988,4.469v8.774h3.644v-9.97A6.478,6.478,0,0,0,324.615,448.682Z" transform="translate(-246.582 -43.986)"/>
    <path id="Path_5" data-name="Path 5" d="M617.075,494.021a5.68,5.68,0,0,1-.206,1.526,4.17,4.17,0,0,1-.688,1.4h0a3.689,3.689,0,0,1-1.224,1.031,4.791,4.791,0,0,1-3.8,0,3.415,3.415,0,0,1-1.224-1.031,4.048,4.048,0,0,1-.688-1.4,6.4,6.4,0,0,1-.22-1.526V485H605.4v9.393c0,3.493,1.54,5.831,4.648,7a8.8,8.8,0,0,0,6.023-.014,6.949,6.949,0,0,0,4.621-7v-9.338h-3.63v8.98Z" transform="translate(-498.253 -80.469)"/>
    <path id="Path_6" data-name="Path 6" d="M466.5,487.3a8.782,8.782,0,0,0-14.275-2.737,8.748,8.748,0,0,0-1.857,2.75,8.334,8.334,0,0,0-.674,3.369,8.567,8.567,0,0,0,2.53,6.134,8.89,8.89,0,0,0,9.654,1.843,8.752,8.752,0,0,0,2.778-1.843,8.556,8.556,0,0,0,2.544-6.134A9.13,9.13,0,0,0,466.5,487.3Zm-3.534,5.473a4.807,4.807,0,0,1-.963,1.637,4.359,4.359,0,0,1-1.526,1.059,5.552,5.552,0,0,1-4.1,0,4.546,4.546,0,0,1-1.526-1.059,4.934,4.934,0,0,1-.976-1.637,6.57,6.57,0,0,1,0-4.236,4.631,4.631,0,0,1,.976-1.637,4.358,4.358,0,0,1,1.526-1.059,5.552,5.552,0,0,1,4.1,0A4.547,4.547,0,0,1,462,486.9a4.681,4.681,0,0,1,.963,1.637A6.57,6.57,0,0,1,462.967,492.771Z" transform="translate(-363.962 -77.871)"/>
  </g>
</svg>
