<?xml version="1.0" encoding="utf-8"?>
<svg id="master-artboard" viewBox="0 0 50 50" version="1.1" xmlns="http://www.w3.org/2000/svg" x="0px" y="0px" style="enable-background:new 0 0 1400 980;" width="50px" height="50px"><g transform="matrix(0.05212392258986668, 0, 0, 0.05212392258986668, 0, 17.610089518215197)"><rect id="ee-background" x="0" y="0" width="959.25244140625" height="283.551513671875" style="fill: white; fill-opacity: 0; pointer-events: none;"/><g transform="matrix(0.9800001382827759, 0, 0, 0.9800001382827759, -12.056106567382812, -348.2242800988879)"><path class="st0" d="M768.94,580.88c-9.59,7.67-23.02,13.43-36.45,13.43c-30.69,0-51.8-23.02-51.8-53.72s21.1-51.8,51.8-51.8&#10;&#9;c13.43,0,26.86,3.84,36.45,13.43l5.76,5.76l30.69-28.78l-7.67-5.76c-17.27-15.35-40.29-24.94-65.23-24.94c-53.72,0-94,40.29-94,94&#10;&#9;s40.29,94,94,94c24.94,0,47.96-9.59,65.23-24.94l7.67-5.76l-30.69-30.69L768.94,580.88z" style="fill: rgb(23, 49, 59);" transform="matrix(5.130240440368652, 0, 0, 5.130240440368652, -3205.3409007673436, -2283.22509765625)"/><path class="st1" d="M761.27,542.52c0,16.95-13.74,30.69-30.69,30.69h0c-16.95,0-30.69-13.74-30.69-30.69v0&#10;&#9;c0-16.95,13.74-30.69,30.69-30.69l0,0C747.53,511.82,761.27,525.56,761.27,542.52L761.27,542.52z" style="fill: rgb(239, 67, 53);" transform="matrix(4.670367240905762, 0, 0, 4.670367240905762, -2857.379124497709, -2036.7004517055593)"/></g></g></svg>