<?xml version="1.0" encoding="utf-8"?>
<svg id="master-artboard" viewBox="0 0 50 50" version="1.1" xmlns="http://www.w3.org/2000/svg" x="0px" y="0px" style="enable-background:new 0 0 1400 980;" width="50px" height="50px"><g transform="matrix(0.35714285714285715, 0, 0, 0.35714285714285715, 0.000005086263172415784, 19.213033539908274)"><g transform="matrix(0.259259, 0, 0, 0.259259, 0, 0.240741)">
    <title>Layer 1</title>
    
    
    <g id="svg_3" fill="#464342" transform="matrix(4.364242076873779, 0, 0, 4.364242076873779, 1.8000016507096461, -208.56443786621105)">
      <path id="svg_4" d="m8.708,62.26c0,20.803 12.089,38.779 29.619,47.299l-25.068,-68.687a52.355,52.355 0 0 0 -4.551,21.388zm88.032,-2.652c0,-6.495 -2.333,-10.993 -4.334,-14.494c-2.664,-4.329 -5.161,-7.995 -5.161,-12.324c0,-4.831 3.664,-9.328 8.825,-9.328c0.233,0 0.454,0.029 0.681,0.042c-9.35,-8.565 -21.807,-13.796 -35.488,-13.796c-18.36,0 -34.514,9.42 -43.91,23.688c1.232,0.037 2.395,0.062 3.382,0.062c5.497,0 14.006,-0.667 14.006,-0.667c2.833,-0.167 3.167,3.994 0.337,4.329c0,0 -2.847,0.335 -6.015,0.501l19.137,56.926l11.501,-34.493l-8.188,-22.434c-2.83,-0.166 -5.512,-0.501 -5.512,-0.501c-2.832,-0.166 -2.5,-4.496 0.332,-4.329c0,0 8.68,0.667 13.844,0.667c5.495,0 14.006,-0.667 14.006,-0.667c2.835,-0.167 3.168,3.994 0.337,4.329c0,0 -2.854,0.335 -6.016,0.501l18.992,56.494l5.242,-17.517c2.273,-7.269 4.002,-12.49 4.002,-16.989z"/>
      <path id="svg_5" d="m62.184,66.857l-15.769,45.818a52.523,52.523 0 0 0 14.847,2.142a52.523,52.523 0 0 0 17.451,-2.979a4.615,4.615 0 0 1 -0.374,-0.724l-16.155,-44.257zm45.192,-29.811c0.227,1.674 0.354,3.472 0.354,5.404c0,5.333 -0.996,11.328 -3.996,18.824l-16.053,46.413c15.624,-9.111 26.133,-26.038 26.133,-45.427a52.268,52.268 0 0 0 -6.438,-25.214z"/>
      <path id="svg_6" d="m61.262,1c-33.779,0 -61.262,27.481 -61.262,61.26c0,33.783 27.483,61.264 61.263,61.264c33.777,0 61.265,-27.48 61.265,-61.264c-0.002,-33.779 -27.488,-61.26 -61.266,-61.26zm0,119.715c-32.23,0 -58.453,-26.223 -58.453,-58.455c0,-32.229 26.222,-58.45 58.453,-58.45c32.229,0 58.449,26.221 58.449,58.45c0.001,32.232 -26.22,58.455 -58.449,58.455z"/>
    </g>
  </g></g></svg>