<?xml version="1.0" encoding="utf-8"?>
<svg id="master-artboard" viewBox="0 0 50 50" version="1.1" xmlns="http://www.w3.org/2000/svg" x="0px" y="0px" style="enable-background:new 0 0 1400 980;" width="50px" height="50px"><g transform="matrix(0.051314016537620556, 0, 0, 0.051314016537620556, 0, 21.134658769007938)"><rect id="ee-background" x="0" y="0" width="974.3926391601562" height="150.65432739257812" style="fill: white; fill-opacity: 0; pointer-events: none;"/><g transform="matrix(0.9800001382827759, 0, 0, 0.9800001382827759, -3.6448974609375, -359.999945382091)"><path id="svg_5" class="st0" d="M139.19,377.2H44.28C9.97,385.36,9.23,413.8,9.23,413.8v96.11h36.51v-87.51&#10;&#9;c0-7.44,7.3-8.75,7.3-8.75h86.15C139.19,413.66,139.19,377.2,139.19,377.2z M63.63,424.22c0,0-7.39-0.73-7.39,5.81v29.05h48.77v8.72&#10;&#9;c0,0,0.15,4.36-4.43,4.36H56.24v37.76h53.2c0,0,32.22-4.93,32.51-37.76v-47.93H63.63z" style="fill-rule: evenodd; clip-rule: evenodd; fill: rgb(67, 133, 244);" transform="matrix(7.413015025636326, 0, 0, 7.413015025636326, -59.19212492044561, -2844.5569204368026)"/></g></g></svg>