<?xml version="1.0" encoding="utf-8"?>
<svg id="master-artboard" viewBox="0 0 50 50" version="1.1" xmlns="http://www.w3.org/2000/svg" x="0px" y="0px" style="enable-background:new 0 0 1400 980;" width="50px" height="50px"><rect id="ee-background" x="0" y="0" width="50" height="50" style="fill: white; fill-opacity: 0; pointer-events: none;"/><g transform="matrix(0.053742638104868734, 0, 0, 0.053742638104868734, 0, 3.4725800363156445)"><path class="cls-1" d="M35.19,558c16,40.8,49.63,58.44,84.87,41C117.23,564.13,72.12,540.57,35.19,558Z" transform="translate(-35.19 -97.58)" style="fill: rgb(53, 79, 111);"/><path class="cls-1" d="M43.66,439.23c3.72,42.2,29.68,66.76,66.08,62C119.4,469.26,80,429.24,43.66,439.23Z" transform="translate(-35.19 -97.58)" style="fill: rgb(53, 79, 111);"/><path class="cls-1" d="M58.54,669.49c13.71,35,50.26,53.74,87.43,33.83C138.76,666.58,88.59,647.56,58.54,669.49Z" transform="translate(-35.19 -97.58)" style="fill: rgb(53, 79, 111);"/><path class="cls-1" d="M74.27,342c-5.67,33.37,16.88,61.7,50.52,62.56C133.7,371.3,106,337.56,74.27,342Z" transform="translate(-35.19 -97.58)" style="fill: rgb(53, 79, 111);"/><path class="cls-1" d="M110.09,256c-3.06,37.32,22.57,65.55,55.1,61.28,4.38-16.35-1.59-30.26-12.34-42.15C141.62,262.72,127.32,256,110.09,256Z" transform="translate(-35.19 -97.58)" style="fill: rgb(53, 79, 111);"/><path class="cls-1" d="M204.18,794.72c-8.81-28.72-61.5-43-93.76-11C137.87,815.44,175.34,822.65,204.18,794.72Z" transform="translate(-35.19 -97.58)" style="fill: rgb(53, 79, 111);"/><path class="cls-1" d="M170,183.44c-7.71,36.83,5.11,61.09,35,67.42,10.27-17.86,6.14-34-4.91-48.55C192.69,192.65,183.18,184.78,170,183.44Z" transform="translate(-35.19 -97.58)" style="fill: rgb(53, 79, 111);"/><path class="cls-1" d="M159.45,551.25c34.33-.48,60.06-32.81,50.85-62.94C175.74,488.15,147.76,522.23,159.45,551.25Z" transform="translate(-35.19 -97.58)" style="fill: rgb(53, 79, 111);"/><path class="cls-1" d="M238.2,379c-31.47-12.9-70.38,9.33-69.54,39.72C198.71,432.5,233.3,412.67,238.2,379Z" transform="translate(-35.19 -97.58)" style="fill: rgb(53, 79, 111);"/><path class="cls-1" d="M191.1,681.48c37.26-10.88,51.48-48.29,35.52-86.9C183.56,608.75,168.81,661.22,191.1,681.48Z" transform="translate(-35.19 -97.58)" style="fill: rgb(53, 79, 111);"/><path class="cls-1" d="M290.09,868.23c-20.37-31.57-81-30.33-106.45,12.22C218.45,906.43,264.51,906.56,290.09,868.23Z" transform="translate(-35.19 -97.58)" style="fill: rgb(53, 79, 111);"/><path class="cls-1" d="M243.67,119.11c-19.15,22.92-16.77,61.44,9.86,74.09C277.34,176.25,270.31,134.11,243.67,119.11Z" transform="translate(-35.19 -97.58)" style="fill: rgb(53, 79, 111);"/><path class="cls-1" d="M293.73,289.19c-24.23-19.91-63.62-11.36-72.22,16.26C242.45,323.62,278.1,319.85,293.73,289.19Z" transform="translate(-35.19 -97.58)" style="fill: rgb(53, 79, 111);"/><path class="cls-1" d="M273.54,687.1c-39.11,20.59-51.81,68.61-24.79,91C283.26,763.42,294.74,722.16,273.54,687.1Z" transform="translate(-35.19 -97.58)" style="fill: rgb(53, 79, 111);"/><path class="cls-1" d="M300.18,219.49c20.65,22,53,21,74.66-3.19C351.67,191.31,311.82,193.28,300.18,219.49Z" transform="translate(-35.19 -97.58)" style="fill: rgb(53, 79, 111);"/><path class="cls-1" d="M320.27,790.06c-3.69,16.7-1.19,31.93,10.22,45.06,38.68-18.22,46.9-53.84,29-89.94C342.74,749.21,324.8,769.57,320.27,790.06Z" transform="translate(-35.19 -97.58)" style="fill: rgb(53, 79, 111);"/><path class="cls-1" d="M319.56,153.49c33.67-1.7,58.62-25.2,54.22-55.91C335.58,99.27,305.67,130.57,319.56,153.49Z" transform="translate(-35.19 -97.58)" style="fill: rgb(53, 79, 111);"/><path class="cls-1" d="M450.33,881.79c-1.75-2.86-2-4-2.58-4.15a49.4,49.4,0,0,0-7.26-1.72c-41.9-5.89-82.55-16.19-121-34.2-65.93-30.86-116.88-77.11-148-143.84-21.2-45.41-29.7-93.45-31.75-143.14-2.18-53.05,2.76-105.32,18.77-156C182.83,321.84,224.26,255.21,283,199.6q12.75-12.06,25.55-24c-.63-.79-1.24-1.57-1.84-2.36-3.29,2.41-6.68,4.68-9.85,7.24-39.71,32-72.58,70.25-99.85,113.16-30.51,48-52.06,99.8-62.76,156a441.41,441.41,0,0,0-3.06,148.25c8.29,55.86,26.21,107.84,59.73,153.78,37.92,52,88.67,87.13,148.29,109.39,31.9,11.92,64.87,21.18,99.43,22.06C442.16,883.16,445.75,882.32,450.33,881.79Z" transform="translate(-35.19 -97.58)" style="fill: rgb(53, 79, 111);"/><path class="cls-1" d="M552.66,881.79c1.74-2.86,2-4,2.58-4.15a49.4,49.4,0,0,1,7.26-1.72c41.89-5.89,82.55-16.19,121-34.2,65.93-30.86,116.88-77.11,148-143.84,21.2-45.41,29.7-93.45,31.75-143.14,2.17-53.05-2.76-105.32-18.77-156C820.16,321.84,778.72,255.21,720,199.6q-12.75-12.06-25.56-24c.64-.79,1.24-1.57,1.85-2.36,3.29,2.41,6.68,4.68,9.84,7.24,39.72,32,72.58,70.25,99.85,113.16,30.51,48,52.07,99.8,62.77,156a441.41,441.41,0,0,1,3.06,148.25c-8.3,55.86-26.21,107.84-59.73,153.78-37.92,52-88.67,87.13-148.3,109.39-31.9,11.92-64.86,21.18-99.42,22.06C560.83,883.16,557.24,882.32,552.66,881.79Z" transform="translate(-35.19 -97.58)" style="fill: rgb(53, 79, 111);"/><path class="cls-1" d="M481.32,532.33c-4.49-9.93-14.77-17.21-20.84-23.94,6.59-11.13,16.49-21.57,19.15-33.59,5.68-25.86-10.74-49.33-38.13-52.78-31.11-3.89-62.76-3.43-94.21-4.73-1.92-.07-3.9,1.16-7.08,2.21V602.91c32.35,0,63.75.12,95.15-.18,4.47-.05,9-2.06,13.36-3.64C477.15,588.71,493,558.12,481.32,532.33ZM386,453.28c12.25,0,23.52-.82,34.61.25,9.89,1,13.5,8.52,14,17.94.56,10.15-1.53,19.35-12.72,21.39S399,494.72,386,495.63Zm53.73,96.85c-.29,9.89-5.41,16.42-14.37,17.85-12.56,2-25.41,2-39.49,3V526.22c15.31,1.21,30.27,1.08,44.57,4C439.24,532.09,440,541.62,439.72,550.13Z" transform="translate(-35.19 -97.58)" style="fill: rgb(53, 79, 111);"/><path class="cls-1" d="M563.84,603.74c36.81,9.87,77.29-1.52,94.62-28-4.38-5-8.55-9.59-12.63-14.3-6-7-12.55-7.28-20-2.12-29,20-70,9.18-77.82-29.45-3.79-18.62-3.06-37,5.87-54,11.84-22.52,40.76-29.22,64.79-15.82,17.15,9.59,17.74,9.52,29.7-6.14,3-3.92,5.57-8.15,8.1-11.89-19-24.54-63.27-33.3-98.56-20.29-39.09,14.37-60,50.06-58.11,99C501.35,560.61,527,593.88,563.84,603.74Z" transform="translate(-35.19 -97.58)" style="fill: rgb(53, 79, 111);"/><path class="cls-1" d="M627.16,216.53c20.62,24.23,56.14,25.3,73.64,2.23C688.26,190.12,640.42,194.39,627.16,216.53Z" transform="translate(-35.19 -97.58)" style="fill: rgb(53, 79, 111);"/><path class="cls-1" d="M680.41,786.85c-6.35-19.78-18.74-34.76-38.8-42.75-17.86,41.51-7.52,72.91,28.76,91.2C683.5,820.67,686,804.18,680.41,786.85Z" transform="translate(-35.19 -97.58)" style="fill: rgb(53, 79, 111);"/><path class="cls-1" d="M627,98.51c-2.25,30.49,21.88,55.46,56,54C692.86,126.72,661.21,95.76,627,98.51Z" transform="translate(-35.19 -97.58)" style="fill: rgb(53, 79, 111);"/><path class="cls-1" d="M752.44,778c24-18.67,16-73.57-24.36-90.34C708.72,724.29,715.48,762.41,752.44,778Z" transform="translate(-35.19 -97.58)" style="fill: rgb(53, 79, 111);"/><path class="cls-1" d="M757.07,119c-27.88,19.76-31.9,57.07-8.7,74.3C774.68,176.48,778.7,144,757.07,119Z" transform="translate(-35.19 -97.58)" style="fill: rgb(53, 79, 111);"/><path class="cls-1" d="M780.29,304.16c-6.68-15.35-18.11-23.22-33.9-24.71-14.54-1.37-28.58-.21-40.1,10.65C727.34,318.83,757,324.5,780.29,304.16Z" transform="translate(-35.19 -97.58)" style="fill: rgb(53, 79, 111);"/><path class="cls-1" d="M817.88,880.07c-29.54-44.72-88.61-41.66-106.83-11.33C738.9,907.83,785.88,905.47,817.88,880.07Z" transform="translate(-35.19 -97.58)" style="fill: rgb(53, 79, 111);"/><path class="cls-1" d="M810.27,681.84c22.82-29.37,1-80.32-36.33-86.62C757.83,631.34,772.68,669.77,810.27,681.84Z" transform="translate(-35.19 -97.58)" style="fill: rgb(53, 79, 111);"/><path class="cls-1" d="M832.56,418.64c-.2-30.87-38.46-52.6-70.71-39.29C770.53,413.93,805.54,433.11,832.56,418.64Z" transform="translate(-35.19 -97.58)" style="fill: rgb(53, 79, 111);"/><path class="cls-1" d="M797.52,250.76c30.64-7.85,45.06-37.85,31.72-67.37-15.55,4.58-27.93,13.48-34,28.69C790.23,224.8,786.87,238.54,797.52,250.76Z" transform="translate(-35.19 -97.58)" style="fill: rgb(53, 79, 111);"/><path class="cls-1" d="M789.7,487.9C786.57,524.69,810,552,842.42,550.79c6.35-15.18,1.29-28.56-7.94-40.58C823.55,495.92,808.9,488.15,789.7,487.9Z" transform="translate(-35.19 -97.58)" style="fill: rgb(53, 79, 111);"/><path class="cls-1" d="M891.15,782.65c-16.19-13.81-34.76-20.09-55.63-16.14-16.78,3.19-31.75,10.52-38.84,28.66C824.87,821,869,815,891.15,782.65Z" transform="translate(-35.19 -97.58)" style="fill: rgb(53, 79, 111);"/><path class="cls-1" d="M838.63,318.08c32.18,1.92,55.4-25,52.16-61.35C852.42,255.49,825.9,295.26,838.63,318.08Z" transform="translate(-35.19 -97.58)" style="fill: rgb(53, 79, 111);"/><path class="cls-1" d="M943.31,668.86c-38.58-20.34-83.1.86-88.06,34.23C891.3,723.28,928.29,705.21,943.31,668.86Z" transform="translate(-35.19 -97.58)" style="fill: rgb(53, 79, 111);"/><path class="cls-1" d="M927.86,341.5c-34.28-2.73-63.63,33.95-51,62.72C907.9,405.1,930.84,377.27,927.86,341.5Z" transform="translate(-35.19 -97.58)" style="fill: rgb(53, 79, 111);"/><path class="cls-1" d="M965.55,557.09c-37.32-16.32-84.09,8.43-83,43.08C918.67,615.3,951.26,597.8,965.55,557.09Z" transform="translate(-35.19 -97.58)" style="fill: rgb(53, 79, 111);"/><path class="cls-1" d="M909.31,452.61c-13.56,12.45-22.36,28.18-18.9,48.78,38.38,4.22,62.64-19.53,67.5-64C939.32,435.51,922.57,440.44,909.31,452.61Z" transform="translate(-35.19 -97.58)" style="fill: rgb(53, 79, 111);"/></g></svg>