<?xml version="1.0" encoding="utf-8"?>
<svg id="master-artboard" viewBox="0 0 50 50" version="1.1" xmlns="http://www.w3.org/2000/svg" x="0px" y="0px" style="enable-background:new 0 0 1400 980;" width="50px" height="50px" xmlns:xlink="http://www.w3.org/1999/xlink"><g transform="matrix(0.06558830132468872, 0, 0, 0.06558830132468872, -7.881842594104602, -7.59961481176443)"><image style="display:none;overflow:visible;" width="170" height="170" transform="matrix(1 0 0 1 415 415)" xlink:href="C:\Users\Shanu\Downloads\Sortlist_icon.png">
</image><path class="st0" d="M607.2,368l-47.4,82c0,0-92.9-57.3-159.1-53.4c-66.2,4-88.2,45.5-86.9,61.3c4.6,57.5,117.5,61.2,205.5,98.8&#10;&#9;C581,583.1,629,632.1,625.9,702.9c-4.3,99.4-70.9,141.1-129.3,158.6c-42.5,12.7-87.6,14-131.2,5.6c-52.2-10.1-139.4-32.9-190.1-79.2&#10;&#9;l54.3-79c0,0,117.6,70.1,189.7,63.2c72.1-6.9,91.8-41.5,90.9-65.2c-1-25.7-17.1-40.8-64.2-58.3c-92.5-34.3-244-41.5-251-178.8&#10;&#9;C190.8,383.9,287,300,409.6,300.1C499.9,300.1,579.4,347.2,607.2,368z" style="fill: rgb(81, 172, 228);"/><path d="M 679.299988 124 H 817.599991 V 862 H 679.299988 V 124 Z" class="st0" style="fill: rgb(81, 172, 228);"/></g></svg>