<?xml version="1.0" encoding="utf-8"?>
<svg id="master-artboard" viewBox="0 0 50 50" version="1.1" xmlns="http://www.w3.org/2000/svg" x="0px" y="0px" style="enable-background:new 0 0 1400 980;" width="50px" height="50px"><rect id="ee-background" x="0" y="0" width="50" height="50" style="fill: white; fill-opacity: 0; pointer-events: none;"/><g transform="matrix(0.09894128888845444, 0, 0, 0.09894127398729324, 0.3200792968273163, 0.19256902021672317)"><g id="layer1" transform="translate(0,-552.36218)"><path d="M 250 552.362183 H 250 A 250 250 0 0 1 500 802.362183 V 802.362183 A 250 250 0 0 1 250 1052.362183 H 250 A 250 250 0 0 1 0 802.362183 V 802.362183 A 250 250 0 0 1 250 552.362183 Z" id="rect3758-1" style="fill:#45619d;fill-opacity:1;stroke:none"/><path d="M 289.6875 60 C 221.90317 60 199.53125 91.10057 199.53125 144.4375 L 199.53125 186.65625 L 155 186.65625 L 155 250.03125 L 199.53125 250.03125 L 199.53125 440 L 281.65625 440 L 281.65625 250.03125 L 337.46875 250.03125 L 344.96875 186.65625 L 281.65625 186.65625 L 281.65625 149 C 281.65625 131.97966 285.39148 123.34375 311.8125 123.34375 L 344.96875 123.34375 L 344.96875 60 L 289.6875 60 z " id="rect2989-1" style="fill:#ffffff;fill-opacity:1;stroke:none" transform="translate(0,552.36218)"/></g></g></svg>