<?xml version="1.0" encoding="utf-8"?>
<svg id="master-artboard" viewBox="0 0 50 50" version="1.1" xmlns="http://www.w3.org/2000/svg" x="0px" y="0px" style="enable-background:new 0 0 1400 980;" width="50px" height="50px"><g transform="matrix(0.37593984962406013, 0, 0, 0.37593984962406013, 0.000005086263172415784, 19.924810122726555)"><path d="M 23.846 12.023 A 11.523 11.523 0 0 1 12.323 23.546 A 11.523 11.523 0 0 1 0.8 12.023 A 11.523 11.523 0 0 1 12.323 0.5 A 11.523 11.523 0 0 1 23.846 12.023 Z" class="st0" style="fill: rgb(44, 160, 28);" transform="matrix(5.693800730359783, 0, 0, 5.693800730359783, -3.7550407085497772, -54.66023483020675)"/><path class="st1" d="M 4.001 12.023 C 4.001 14.507 5.998 16.504 8.482 16.504 L 9.122 16.504 L 9.122 14.84 L 8.482 14.84 C 6.92 14.84 5.665 13.585 5.665 12.023 C 5.665 10.461 6.92 9.206 8.482 9.206 L 10.018 9.206 L 10.018 17.913 C 10.018 18.834 10.761 19.577 11.683 19.577 L 11.683 19.577 L 11.683 7.542 L 8.482 7.542 C 5.998 7.542 4.001 9.539 4.001 12.023 Z M 16.164 7.542 L 15.524 7.542 L 15.524 9.206 L 16.164 9.206 C 17.726 9.206 18.981 10.461 18.981 12.023 C 18.981 13.585 17.726 14.84 16.164 14.84 L 14.628 14.84 L 14.628 6.133 C 14.628 5.212 13.885 4.469 12.963 4.469 L 12.963 16.504 L 16.164 16.504 C 18.648 16.504 20.645 14.507 20.645 12.023 C 20.645 9.539 18.648 7.542 16.164 7.542 Z" style="fill: rgb(255, 255, 255);" transform="matrix(5.693800730359783, 0, 0, 5.693800730359783, -3.7550407085497772, -54.66023483020675)"/></g></svg>