<svg id="Layer_1" data-name="Layer 1" xmlns="http://www.w3.org/2000/svg" viewBox="0 0 953.46 568.97"><defs><style>.cls-1{fill:#00cdbe;}.cls-2{fill:#252b33;}</style></defs><path id="path11574" class="cls-1" d="M304.45,518.65l-52.69-198.1h-1.33l-49.36,198.1H117L23.64,223.83H109l54,200.11h1.33l48.69-200.11h78.71l50,199.44h1.33l54-199.44h83.38L387.83,518.65ZM603.57,223.83v40h1.33a114.88,114.88,0,0,1,38.69-35.35A106.47,106.47,0,0,1,695,215.83c18.67,0,35.35,3.33,50.69,10.67s27.35,20,35.35,38c8.67-12.67,20.68-24,35.36-34,15.34-10,32.68-14.67,53.36-14.67a151.4,151.4,0,0,1,43.35,6q20,6,34,18a88.22,88.22,0,0,1,22,32.68c5.34,13.34,8,30,8,48.7V518.65H897.05V351.9c0-10-.66-19.35-1.33-28a59.94,59.94,0,0,0-6-22.67c-3.34-6.67-8.67-11.34-15.34-15.35s-15.35-6-27.35-6c-11.34,0-20.68,2-27.35,6.67-7.34,4.67-12.67,10-16.67,17.34a72.67,72.67,0,0,0-8,24,182.44,182.44,0,0,0-2,27.34V518.65H712.29V353.23c0-8.67,0-17.34-.67-26s-2-16.68-4.67-23.34c-2.67-7.34-7.33-12.68-14-17.35s-16.68-6.67-29.35-6.67c-4,0-8.67.67-15.34,2.67-6,2-12.68,4.67-18,10-6,4.66-10.68,11.34-15.35,20.67-4,8.67-6,20.68-6,35.36V518.65H528.19V223.83Z" transform="translate(-23.64 -215.83)"/><path id="path11576" class="cls-2" d="M511.46,690.08c174.75,0,263.47-66.71,263.47-66.71l37.35,50.7S681.54,784.79,511.46,784.79c-170.76,0-300.83-110.72-300.83-110.72L248,623.37C248,624,336.7,690.08,511.46,690.08Z" transform="translate(-23.64 -215.83)"/></svg>