<?xml version="1.0" encoding="utf-8"?>
<svg id="master-artboard" viewBox="0 0 50 50" version="1.1" xmlns="http://www.w3.org/2000/svg" x="0px" y="0px" style="enable-background:new 0 0 1400 980;" width="50px" height="50px"><g transform="matrix(0.3333333432674408, 0, 0, 0.3333333432674408, 1.3333384195974105, 16.333332061767578)"><g transform="matrix(1, 0, 0, 1, 0.3, 0.3)">
    <linearGradient id="SVGID_1_" gradientUnits="userSpaceOnUse" x1="140.15" y1="601.7" x2="140.15" y2="396.3" gradientTransform="matrix(0.162475, 0, 0, -0.162475, -6.239044, 97.761108)">
      <stop offset="0" style="stop-color:#F6AE03"/>
      <stop offset="1" style="stop-color:#FFDC55"/>
    </linearGradient>
    <path class="st0" d="M 28.287 16.735 C 29.83 15.874 32.82 12.527 32.82 12.527 C 29.733 12.332 26.89 11.763 26.89 11.763 C 28.189 10.041 29.278 6.028 29.278 6.028 C 27.734 7.149 23.559 7.571 23.559 7.571 C 24.063 5.378 23.803 1.479 23.803 1.479 C 22.015 3.444 18.392 5.41 18.392 5.41 C 17.287 1.901 15.5 0 15.5 0 C 15.386 2.031 13.095 5.719 13.095 5.719 C 13.095 5.719 8.286 2.941 7.409 2.762 C 7.978 4.224 8.384 5.817 8.676 8.367 C 6.938 8.367 4.501 8.367 2.096 8.611 C 2.892 9.651 4.761 10.87 5.67 12.884 C 3.737 13.762 2.015 14.509 0 15.728 C 1.024 16.118 3.753 17.076 5.069 18.295 C 4.89 18.831 2.486 20.391 0.877 23.055 C 1.803 22.876 4.89 22.6 6.905 23.055 C 6.06 24.989 5.524 27.929 5.313 28.937 C 8.562 27.231 10.626 26.841 10.626 26.841 C 10.626 26.841 11.016 31.829 11.487 32.706 C 14.347 28.969 15.858 28.384 15.858 28.384 C 15.858 28.384 19.302 32.934 20.147 33.372 C 20.309 31.439 20.293 30.204 21.203 27.41 C 23.364 28.921 26.581 30.09 26.581 30.09 L 25.46 25.411 L 25.411 25.184 L 27.848 21.495 L 27.946 21.349 C 27.946 21.349 30.61 21.187 33.064 20.049 C 30.675 18.587 28.287 16.735 28.287 16.735 Z M 23.088 17.222 C 22.925 20.862 19.838 23.673 16.199 23.51 C 12.559 23.348 9.748 20.261 9.911 16.621 C 10.073 12.982 13.16 10.171 16.8 10.333 C 20.439 10.512 23.25 13.583 23.088 17.222 Z" style="fill: url('#SVGID_1_');" transform="matrix(4.446700393201859, 0, 0, 4.446700393201859, -2.499999883818973, -48.5)"/>
    <linearGradient id="SVGID_2_" gradientUnits="userSpaceOnUse" x1="151.2545" y1="564.0562" x2="151.2545" y2="430.3" gradientTransform="matrix(0.162475, 0, 0, -0.162475, -6.239044, 97.761108)">
      <stop offset="0" style="stop-color:#E6E6E6"/>
      <stop offset="1" style="stop-color:#FEFEFE"/>
    </linearGradient>
    <path class="st1" d="M 30.984 25.216 C 29.96 24.063 28.677 22.681 27.848 21.495 C 27.28 20.699 26.938 19.984 27.052 19.513 C 27.296 18.457 27.393 17.336 27.312 16.183 C 26.922 10.821 22.551 6.499 17.222 6.142 C 10.951 5.719 5.735 10.626 5.622 16.784 C 5.508 22.795 10.431 27.832 16.459 27.848 C 18.993 27.848 21.333 26.987 23.185 25.541 C 23.494 25.297 24.387 25.314 25.46 25.411 C 27.393 25.574 29.928 25.996 30.87 25.655 C 31.049 25.59 31.114 25.362 30.984 25.216 Z M 23.088 17.222 C 22.925 20.862 19.838 23.673 16.199 23.51 C 12.559 23.348 9.748 20.261 9.911 16.621 C 10.073 12.982 13.16 10.171 16.8 10.333 C 20.439 10.512 23.25 13.583 23.088 17.222 Z" style="fill: url('#SVGID_2_');" transform="matrix(4.446700393201859, 0, 0, 4.446700393201859, -2.499999883818973, -48.5)"/>
    <path class="st2" d="M 30.984 25.216 C 29.96 24.063 28.677 22.681 27.848 21.495 C 27.28 20.699 26.938 19.984 27.052 19.513 C 27.296 18.457 27.393 17.336 27.312 16.183 C 26.922 10.821 22.551 6.499 17.222 6.142 C 10.951 5.719 5.735 10.626 5.622 16.784 C 5.508 22.795 10.431 27.832 16.459 27.848 C 18.993 27.848 21.333 26.987 23.185 25.541 C 23.494 25.297 24.387 25.314 25.46 25.411 C 27.393 25.574 29.928 25.996 30.87 25.655 C 31.049 25.59 31.114 25.362 30.984 25.216 Z M 23.088 17.222 C 22.925 20.862 19.838 23.673 16.199 23.51 C 12.559 23.348 9.748 20.261 9.911 16.621 C 10.073 12.982 13.16 10.171 16.8 10.333 C 20.439 10.512 23.25 13.583 23.088 17.222 Z" style="opacity: 0.4; fill: none; stroke: rgb(201, 201, 201); stroke-width: 0.5; stroke-miterlimit: 10;" transform="matrix(4.446700393201859, 0, 0, 4.446700393201859, -2.499999883818973, -48.5)"/>
    
    
    
    
    
    
    
    
  </g></g></svg>