<?xml version="1.0" encoding="utf-8"?>
<svg id="master-artboard" viewBox="0 0 50 50" version="1.1" xmlns="http://www.w3.org/2000/svg" x="0px" y="0px" style="enable-background:new 0 0 1400 980;" width="50px" height="50px"><g transform="matrix(0.34247119370605156, 0, 0, 0.34247119370605156, 0, 16.963560104370117)"><rect id="ee-background" x="0" y="0" width="109.31953430175781" height="35.14158630371094" style="fill: white; fill-opacity: 0; pointer-events: none;"/><g transform="matrix(0.19224283509368192, 0, 0, 0.19224283509368192, -0.3206503717429565, -59.982620224529896)"><path id="Fill-20" class="st1" d="M168.09,447.13c0,4.26-1.19,5.57-2.35,7.64c-1.7,2.95-7.63,11.46-7.63,11.46&#10;&#9;s-5.96-8.51-7.63-11.46c-1.16-2.07-2.35-3.38-2.35-7.64c0-5.57,4.48-10.1,9.98-10.1C163.61,437.03,168.09,441.56,168.09,447.13" style="fill-rule: evenodd; clip-rule: evenodd; fill: rgb(0, 147, 232);"/><path id="Fill-22" class="st1" d="M186.85,540.59l-0.13-0.16l-28.61-45.43l-28.61,45.43l-0.13,0.16L61.94,430.59h21.68l46.59,77&#10;&#9;l17.34-27.12l-0.22-0.3c-0.08-0.14-9.95-13.45-11.14-15.64c-3.4-6.14-5.07-11.43-5.07-16.18c0-6.79,2.24-12.96,5.99-17.76&#10;&#9;c4.91-6.25,12.43-10.18,21-10.18c8.55,0,16.07,3.93,20.98,10.18c3.77,4.8,5.99,10.97,5.99,17.76c0,4.75-1.64,10.04-5.07,16.18&#10;&#9;c-1.16,2.18-11.03,15.5-11.11,15.64l-0.22,0.3l17.34,27.12l46.59-77h21.68L186.85,540.59z M158.14,322.29&#10;&#9;c-79.73,0-144.38,65.41-144.38,146.09s64.65,146.09,144.38,146.09s144.35-65.41,144.35-146.09S237.87,322.29,158.14,322.29&#10;&#9;L158.14,322.29z" style="fill-rule: evenodd; clip-rule: evenodd; fill: rgb(0, 147, 232);" transform="matrix(2.5743141174316406, 0, 0, 2.5743141174316406, -24.729110060107587, -771.1094360351562)"/></g></g></svg>