<?xml version="1.0" encoding="utf-8"?>
<svg id="master-artboard" viewBox="0 0 50 50" version="1.1" xmlns="http://www.w3.org/2000/svg" x="0px" y="0px" style="enable-background:new 0 0 1400 980;" width="50px" height="50px"><g transform="matrix(0.6944444444444444, 0, 0, 0.6944444444444444, -0.000002543131586207892, 11.111109203762478)"><g fill="#136796" transform="matrix(0.099806, 0, 0, 0.34414, -87.037292, 299.360382)" style="">
    <g style="" transform="matrix(0.518396, 0, 0, 0.146129, 882.947815, -872.669189)">
      <g fill-rule="evenodd" style="" transform="matrix(0.6902344822883606, 0, 0, 0.6458972096443177, 145.72551549992295, -355.3094787597656)">
        <path d="M 767.892 105.5 C 639.892 371.5 183.892 629.5 746.192 1039.5 C 901.192 1154.5 1161.192 1224.5 1028.592 1495.6 C 1016.792 1516.3 1037.392 1522 1055.792 1506.5 C 1245.792 1286.5 1554.792 938.5 1294.592 655.1 C 1146.592 495.1 843.592 390.1 783.192 238.1 C 771.492 208.7 784.392 166.2 800.592 132.6 C 813.592 101.4 774.892 93.2 767.992 105.4 Z"/>
        <path d="M 774.792 105.5 C 646.792 371.5 190.792 629.5 753.092 1039.5 C 908.092 1154.5 1168.092 1224.5 1035.492 1495.6 C 1023.692 1516.3 1044.292 1522 1062.692 1506.5 C 1252.692 1286.5 1561.692 938.5 1301.492 655.1 C 1153.492 495.1 850.492 390.1 790.092 238.1 C 778.392 208.7 791.292 166.2 807.492 132.6 C 820.492 101.4 781.792 93.2 774.892 105.4 Z"/>
        <path d="M 505.092 1026.2 C 439.392 1205.2 107.092 1411.2 550.692 1648.8 C 653.692 1710.1 785.692 1786.8 771.492 1899 C 765.992 1913.3 778.892 1915.3 788.692 1903.7 C 934.692 1735.7 1044.692 1496.7 865.592 1335.7 C 772.092 1245.1 550.592 1195.7 526.792 1041 C 532.192 1019.8 508.192 1017.8 504.992 1026.3 Z"/>
      </g>
      <path d="M 6.811 685.194 L 421.378 685.194 L 421.378 732.834 L 6.811 732.834 Z" style="" transform="matrix(1.8669164180755615, 0, 0, 1.8669164180755615, 273.94769777378815, -362.73910522460926)"/>
      <path d="M 7.292 683.88 L -11.009 732.004 L 20.38 732.419 Z M 421.008 683.88 L 439.309 732.004 L 407.92 732.419 Z M 94.213 720.033 L 124.789 797.842 L 304.509 797.254 L 332.645 720.033 L 94.25 720.033 Z" fill-rule="evenodd" style="" transform="matrix(1.8669164180755615, 0, 0, 1.8669164180755615, 273.94769777378815, -362.73910522460926)"/>
      
      
      
      
      
      
    </g>
    <text x="65.5" y="3375.2" font-family="DejaVu Sans" font-size="233" style="white-space: pre; ; font-weight: DejaVu Sans; font-family: DejaVu Sans; font-size: 233"> </text>
    <text style="white-space: pre;  fill: rgb(51, 51, 51);  font-family: Arial, sans-serif;  font-size: 155.8px; " x="734.917" y="3420.996"> </text>
  </g></g></svg>