<?xml version="1.0" encoding="utf-8"?>
<svg id="master-artboard" viewBox="0 0 50 50" version="1.1" xmlns="http://www.w3.org/2000/svg" x="0px" y="0px" style="enable-background:new 0 0 1400 980;" width="50px" height="50px"><rect id="ee-background" x="0" y="0" width="50" height="50" style="fill: white; fill-opacity: 0; pointer-events: none;"/><g transform="matrix(0.4098360655737705, 0, 0, 0.4098360655737705, -0.000002543131586207892, 18.85245710904481)"><g transform="matrix(0.199097, 0, 0, 0.196876, 0.303161, -0.779694)" style="">
    <title>Layer 1</title>
    <g id="surface1">
      
      <path id="svg_2" fill="rgb(0%,71.398926%,47.799683%)" fill-rule="nonzero" d="m147.19922,58.69922l-54.89844,0l-16.90234,-52.19922l-17,52.19922l-54.89844,-0.09766l44.39844,32.29688l-17,52.19922l44.40234,-32.29688l44.39844,32.29688l-16.89844,-52.19922l44.39844,-32.19922zm0,0" transform="matrix(4.215454578399658, 0, 0, 4.215454578399658, -13.29663321549424, -235.72262300652164)"/>
      <path id="svg_3" fill="rgb(0%,31.799316%,15.699768%)" fill-rule="nonzero" d="m106.60156,102.69922l-3.80078,-11.80078l-27.40234,19.90234l31.20312,-8.10156zm0,0" transform="matrix(4.215454578399658, 0, 0, 4.215454578399658, -13.29663321549424, -235.72262300652164)"/>
    </g>
  </g></g></svg>