<?xml version="1.0" encoding="utf-8"?>
<svg id="master-artboard" viewBox="0 0 50 50" version="1.1" xmlns="http://www.w3.org/2000/svg" x="0px" y="0px" style="enable-background:new 0 0 1400 980;" width="50px" height="50px"><g transform="matrix(1.388888782925076, 0, 0, 1.388888782925076, 0.000006993611805228284, 0)"><path id="path8" class="st0" d="M 18.643 35.501 C 10.628 35.48 3.645 30.554 1.368 23.209 C -0.534 17.056 0.699 11.429 4.978 6.513 C 7.609 3.493 11.001 1.639 14.989 0.847 C 17.219 0.403 19.517 0.386 21.756 0.794 C 22.006 0.839 22.008 0.904 21.911 1.102 C 20.811 3.329 19.715 5.561 18.625 7.796 C 18.569 7.941 18.421 8.029 18.263 8.013 C 13.545 8.13 9.515 11.358 8.491 15.841 C 7.391 20.601 10.039 25.526 14.711 27.27 C 18.418 28.655 21.869 28.103 25.006 25.737 C 25.166 25.62 25.233 25.597 25.347 25.789 C 26.551 27.839 27.764 29.883 28.988 31.924 C 29.096 32.103 29.057 32.184 28.898 32.29 C 26.533 33.917 23.8 34.963 20.929 35.334 C 20.171 35.428 19.408 35.484 18.643 35.501 Z" style="fill: rgb(239, 73, 45);"/><path id="path10" class="st0" d="M 31.094 30.433 C 30.995 30.382 30.968 30.276 30.917 30.19 C 29.547 27.888 28.184 25.583 26.825 23.277 C 26.73 23.083 26.52 22.971 26.3 22.993 C 23.582 23.002 20.867 22.993 18.149 22.993 L 17.81 22.993 C 17.808 22.891 17.846 22.793 17.917 22.719 C 19.296 20.386 20.677 18.055 22.059 15.723 C 22.134 15.565 22.305 15.471 22.482 15.491 C 25.264 15.496 28.044 15.496 30.824 15.491 C 31.001 15.471 31.17 15.566 31.244 15.723 C 32.631 18.075 34.024 20.423 35.424 22.768 C 35.52 22.891 35.525 23.059 35.437 23.188 C 34.031 25.55 32.63 27.91 31.233 30.267 C 31.197 30.328 31.18 30.407 31.094 30.433 L 31.094 30.433 Z" style="fill: rgb(239, 73, 45);"/><path id="path12" class="st0" d="M 25.235 5.67 C 24.736 5.184 24.272 4.722 23.792 4.266 C 23.643 4.124 23.747 4.021 23.811 3.913 C 24.362 2.979 25.259 2.288 26.317 1.978 C 27.615 1.561 29.033 1.698 30.222 2.352 C 32.389 3.493 32.194 6.133 30.944 7.327 C 30.47 7.771 29.933 8.146 29.349 8.443 C 28.748 8.755 28.146 9.048 27.556 9.38 C 27.066 9.653 26.684 10.029 26.508 10.575 C 26.436 10.795 26.48 10.853 26.721 10.85 C 28.312 10.841 29.904 10.85 31.496 10.841 C 31.737 10.841 31.827 10.885 31.818 11.14 C 31.796 11.687 31.804 12.236 31.818 12.779 C 31.818 12.953 31.769 13.013 31.586 13.013 C 29.027 13.009 26.469 13.009 23.913 13.013 C 23.793 13.013 23.681 13.013 23.679 12.842 C 23.679 11.12 24.007 9.514 25.393 8.285 C 26.053 7.717 26.794 7.243 27.594 6.881 C 28.032 6.674 28.474 6.473 28.858 6.171 C 29.192 5.906 29.423 5.586 29.448 5.153 C 29.484 4.476 28.933 3.972 28.1 3.92 C 26.903 3.836 26.039 4.361 25.435 5.335 C 25.374 5.43 25.319 5.53 25.235 5.67 L 25.235 5.67 Z" style="fill: rgb(239, 73, 45);"/></g></svg>