<svg xmlns="http://www.w3.org/2000/svg" width="49.229" height="49.228" viewBox="0 0 49.229 49.228">
  <path id="Exclusion_1" data-name="Exclusion 1" d="M24.615,49.228A24.616,24.616,0,0,1,.464,29.358c-.036-.182-.068-.364-.1-.55a19.769,19.769,0,0,1-.325-3.12c-.016-.228-.026-.432-.031-.623C0,24.929,0,24.786,0,24.614a24.738,24.738,0,0,1,.231-3.38c.03-.22.059-.413.088-.592a24.621,24.621,0,0,1,48.361-1.208l0,.019c.008.036.015.071.024.106l0,.009,0,.009.006.03c.007.038.014.077.024.116a.408.408,0,0,1,.01.048c.006.034.013.071.018.108a.513.513,0,0,1,.01.056,15.4,15.4,0,0,1,.238,1.523c.007.05.014.1.02.151l0,.026c0,.017.005.035.007.052.005.051.009.1.013.148,0,.033.005.065.008.1.013.066.022.132.03.193v.013c0,.047.01.093.014.14q.009.108.016.216a19.778,19.778,0,0,1,.1,2.122A24.595,24.595,0,0,1,24.615,49.228ZM41.53,31.514l-.41,2.408.185.063a4.717,4.717,0,0,0,1.23.173,3.2,3.2,0,0,0,3.278-2.445l3.167-9.5c-.005-.073-.011-.144-.017-.216,0-.051-.009-.1-.015-.152-.014-.153-.03-.295-.05-.432,0-.019,0-.037-.007-.055v-.026c-.005-.047-.012-.094-.018-.141v-.009c-.045-.451-.12-.932-.236-1.515l0-.023c0-.011,0-.022-.006-.033-.007-.039-.013-.075-.018-.107l0-.022c0-.01,0-.018-.005-.026-.006-.033-.013-.067-.02-.1l-.009-.045a.067.067,0,0,0,0-.009l0-.009c-.009-.041-.018-.083-.028-.124H47.242l-2.148,7.165L42.958,19.17H40.773a4.875,4.875,0,0,0-1.585-.247c-2.49,0-4.33,1.822-4.688,4.641V21.992c0-2-1.018-3.054-2.944-3.054a4.076,4.076,0,0,0-2.788,1.231v-.982H26.181V23.1c-.454-2.617-2.1-4.179-4.393-4.179-2.45,0-4.26,1.82-4.612,4.636V19.251H14.592v.887A3.152,3.152,0,0,0,12.161,19C9.96,19,8.481,20.7,8.2,23.532v-.886c0-2.366-1.448-3.723-3.973-3.723A5.528,5.528,0,0,0,.42,20.371c-.03.184-.058.377-.087.59l.893,1.593.218-.219a3.251,3.251,0,0,1,2.415-1.121,1.553,1.553,0,0,1,1.76,1.714v.919a3.636,3.636,0,0,0-2.492-.9,3.321,3.321,0,0,0-3.017,1.83c.006.2.016.4.031.62a19.844,19.844,0,0,0,.323,3.1c.031.18.064.359.1.547a3.336,3.336,0,0,0,2.562,1.174A3.5,3.5,0,0,0,5.6,29.252v.685H8.2V25.529c.276,2.818,1.754,4.5,3.956,4.5a3.234,3.234,0,0,0,2.431-1.184v.778A2.052,2.052,0,0,1,12.38,31.9a3.153,3.153,0,0,1-2.492-1.075l-.219-.265-1.137,2.1.124.124a5.244,5.244,0,0,0,3.832,1.371c2.964,0,4.673-1.658,4.688-4.548V25.573c.358,2.865,2.2,4.645,4.814,4.645a4.925,4.925,0,0,0,3.754-1.652l.125-.155-1.34-1.652-.186.219a2.9,2.9,0,0,1-2.165,1.028,2.432,2.432,0,0,1-2.446-2.492h6.449v4.455h2.587V22.553a2.381,2.381,0,0,1,1.885-1.262c.885,0,1.247.415,1.247,1.433v7.244h2.586l.015-.015V25.565c.358,2.827,2.2,4.653,4.688,4.653a4.009,4.009,0,0,0,3.334-1.5l.109-.124-1.355-1.823-.186.234a2.054,2.054,0,0,1-1.683.888c-1.6,0-2.321-1.667-2.321-3.318a4.394,4.394,0,0,1,.553-2.257,2,2,0,0,1,1.768-1.03,1.937,1.937,0,0,1,1.683.857l.149.186,2.515,7.577-.435,1.167c-.222.6-.485.707-.956.707a1.448,1.448,0,0,1-.547-.1ZM3.874,28.27a1.546,1.546,0,0,1-1.542-1.682A1.531,1.531,0,0,1,3.874,24.9a1.925,1.925,0,0,1,1.714.888v1.573A1.854,1.854,0,0,1,3.874,28.27Zm8.926-.639c-1.785,0-1.978-2.212-1.978-3.163,0-1.989.74-3.177,1.978-3.177a2.182,2.182,0,0,1,1.792,1.247V26.4A2.181,2.181,0,0,1,12.8,27.631Zm10.967-4.1H19.732c.111-1.145.7-2.368,2.01-2.368,1.583,0,1.948,1.483,2.025,2.367Z" fill="#009eda"/>
</svg>