<?xml version="1.0" encoding="utf-8"?>
<svg id="master-artboard" viewBox="0 0 50 50" version="1.1" xmlns="http://www.w3.org/2000/svg" x="0px" y="0px" style="enable-background:new 0 0 1400 980;" width="50px" height="50px"><g transform="matrix(0.05099776938389447, 0, 0, 0.05099776938389447, -0.5000012092615267, -0.830404911219306)"><g>
	<path class="st0" d="M574,164.1c0,0,90.6,146.8,100.6,196.2c10,49.4,4.5,114.6,4.5,114.6l-9.9,121.4c0,0-66.3-110.9-92.9-172.5&#10;&#9;&#9;c-6.8-15.9-13.6-41.7-14.9-70C557.5,272.4,574,164.1,574,164.1z" style="fill: rgb(88, 210, 8);"/>
	<path class="st1" d="M591.7,252c0,0,20.9,136,28.6,168.7c7.7,32.6,45.3,156.5,45.3,156.5s-20.1-122.9-28-161.1&#10;&#9;&#9;C631.2,384.9,591.7,252,591.7,252z" style="fill: rgb(74, 177, 6);"/>
</g><g>
	<path class="st0" d="M896.7,241c0,0-37.6,157.3-64.6,197.9c-27,40.6-75.3,81.5-75.3,81.5l-87.6,76.1c0,0,28.7-120.6,52.9-180.7&#10;&#9;&#9;c6.2-15.5,19.3-37.7,37.7-58C812.9,299.3,896.7,241,896.7,241z" style="fill: rgb(88, 210, 8);"/>
	<path class="st1" d="M836.7,332.5c0,0-77.9,110.9-95,138.4c-17.1,27.5-61,102.7-61,102.7s49.2-63.7,70-95.2&#10;&#9;&#9;C767.7,452.7,836.7,332.5,836.7,332.5z" style="fill: rgb(74, 177, 6);"/>
</g><g>
	<path class="st0" d="M983.4,527.5c0,0-104.5,72.2-153.2,74.8c-48.7,2.6-74.5,1-74.5,1l-86.4-7c0,0,47.9-25.8,106.6-56.4&#10;&#9;&#9;c25.6-13.9,60.5-20.2,87.9-19.1C942.6,524.2,983.4,527.5,983.4,527.5z" style="fill: rgb(88, 210, 8);"/>
	<path class="st1" d="M883.7,548.8c0,0-68,11.1-99.5,18.7c-31.7,7.6-95,25-95,25s58.3-8.6,95.2-16.3&#10;&#9;&#9;C815.8,569.7,883.7,548.8,883.7,548.8z" style="fill: rgb(74, 177, 6);"/>
</g><g>
	<path class="st0" d="M860.6,694.6c0,0-58.2-10.3-86.4-18.7c-20.5-6.1-25-7.5-42.7-20.8c-17.5-13.1-62.1-58.8-62.1-58.8&#10;&#9;&#9;s43.4,6.2,75.6,16.8c27.6,9,38.1,12.3,58.1,31C826.3,665.9,860.6,694.6,860.6,694.6z" style="fill: rgb(88, 210, 8);"/>
	<path class="st1" d="M807.4,668.5c0,0-18.2-15.7-47.2-30C731,624,682,602.9,682,602.9s35.5,20.4,68.8,38.2&#10;&#9;&#9;C779,656.2,807.4,668.5,807.4,668.5z" style="fill: rgb(74, 177, 6);"/>
</g><g>
	<path class="st0" d="M314.6,375.4c0,0,97,121.1,138.4,146.7s100.1,43.7,100.1,43.7l116.1,30.6c0,0-80.4-96.2-127.4-140.7&#10;&#9;&#9;c-12.1-11.5-31.9-23.6-57.1-34.4C412.3,390.3,314.6,375.4,314.6,375.4z" style="fill: rgb(88, 210, 8);"/>
	<path class="st1" d="M440.4,448.2c0,0,67.6,36.4,94.7,54.3c27,17.9,114.4,79,114.4,79s-90.6-49.9-122.6-69.8&#10;&#9;&#9;C500.8,495.5,440.4,448.2,440.4,448.2z" style="fill: rgb(74, 177, 6);"/>
</g><g>
	<path class="st0" d="M364,663c0,0,122.3,12.4,157.1,4.9s70.6-29.5,70.6-29.5l77.5-41.9c0,0-98.2-10.2-145.9-10.2&#10;&#9;&#9;c-12.3,0-28.1,1.4-46.7,8.7C423.1,615.8,364,663,364,663z" style="fill: rgb(88, 210, 8);"/>
	<path class="st1" d="M459.6,641.1c0,0,93.9-27,117.2-31.3c23.3-4.3,75.7-11.7,75.7-11.7s-46.2,14.9-73.1,20.6&#10;&#9;&#9;C557.4,623.4,459.6,641.1,459.6,641.1z" style="fill: rgb(74, 177, 6);"/>
</g><g>
	<path class="st0" d="M548.9,732.9c0,0,43.4-21.9,70.6-44.8c27.3-23,37.5-60.8,37.5-60.8l12.2-30.9c0,0-22.2,11.3-59.8,40.5&#10;&#9;&#9;c-9.7,7.5-21.3,18.3-31.6,35.4C548.2,721.7,548.9,732.9,548.9,732.9z" style="fill: rgb(88, 210, 8);"/>
	<path class="st1" d="M596.1,680.6c0,0,15.2-20.6,31-38.3c15.8-17.7,34.5-34.5,34.5-34.5s-12.7,16.5-30.5,37.6&#10;&#9;&#9;C616.6,662.5,596.1,680.6,596.1,680.6z" style="fill: rgb(74, 177, 6);"/>
</g><path class="st0" d="M670.7,602.9l95.9,225.3c0,0-8.9,11.3-16.8-3.8c-2.5-4.9-12.1-26.6-23.6-55c-9.6-23.7-20.5-52-29.9-78.9&#10;&#9;C682.2,649.7,670.7,602.9,670.7,602.9z" style="fill: rgb(88, 210, 8);"/><path d="M284.8,645.9c0.5-51.9-0.5-95.7-0.5-95.7s15.2-141.1-120.4-147.1c0,0-66.1-2.2-102.7,15.3c0,0-12.1,1.2-8.6,14l13,48.3&#10;&#9;c0,0,1.7,5.8,11.7,2.4c5.1-1.8,32.6-10.6,62-10.5c28,0.1,64.5,10.3,66.6,46.2c0,0-165.6-32-186.9,102.6&#10;&#9;c-2.8,65.5,32.6,94.1,74.3,102.5c21.3,4.3,43.6,6.8,64,2.7c26.7-5.4,49.6-19.7,58-30.8c0,0,17,33.6,48.1,32.9&#10;&#9;c31.2-0.6,45.4-21.4,45.4-21.4S284.2,697.8,284.8,645.9z M205.9,621.8c-4.3,34.4-26.5,42.2-34.7,44.9c-8.2,2.6-14.7,4.6-43.2,1.6&#10;&#9;c-28.5-3-31.4-27.5-31.4-27.5c-5.6-79.5,109.3-59.9,109.3-59.9V621.8z"/><path d="M306.8,302.1l-0.3,360.2c0,0,0.8,58.5,43.1,66.3c46.5,8.6,68.9-31.5,68.9-31.5s-31.8-6.9-31.8-60s0-354.8,0-354.8&#10;&#9;s2.2-7.4-6.9-5.7c-9.1,1.7-68.3,16.2-68.3,16.2S306.8,295.3,306.8,302.1z"/><path d="M419.9,302.1l-0.3,360.2c0,0,0.8,58.5,43.1,66.3c46.5,8.6,68.9-31.5,68.9-31.5s-31.8-6.9-31.8-60s0-354.8,0-354.8&#10;&#9;s2.2-7.4-6.9-5.7c-9.1,1.7-68.3,16.2-68.3,16.2S419.9,295.3,419.9,302.1z"/></g></svg>