<svg id="Layer_1" data-name="Layer 1" xmlns="http://www.w3.org/2000/svg" viewBox="0 0 931.58 731.38"><defs><style>.cls-1{fill:#76d40e;}</style></defs><path class="cls-1" d="M443.81,478.76l1.29,369.58a17.3,17.3,0,0,1-17.3,17.35H266.55a16.38,16.38,0,0,1-16.38-16.38V511.64l-3.08-13.73A18.9,18.9,0,0,0,233,483.61c-27.57-6.52-99.69-31-155.11-115.86-37.17-56.92-43-149-43.66-188.69a18.86,18.86,0,0,1,18.91-19.19l158.08.3a24.47,24.47,0,0,1,24.29,21.74c2.84,25.54,8.22,66.49,15,82.43,15.23,35.76,41.43,36.26,41.43,36.26s59.77-84.18,142.21-123.37c58.76-27.92,170.68-67.46,297.27-22.7C976.94,241.36,965.71,470.2,965.71,470.2v379a16.53,16.53,0,0,1-16.54,16.53H779.88a16.54,16.54,0,0,1-16.54-16.53V461c-5.22-81.5-87.65-139.54-166.42-139.4C527.54,321.73,452.27,380.56,443.81,478.76Z" transform="translate(-34.21 -134.31)"/></svg>