<svg xmlns="http://www.w3.org/2000/svg" width="462.4" height="247.2" viewBox="0 0 462.4 247.2">
  <g id="Group_1" data-name="Group 1" transform="translate(-512 -385)">
    <path id="Path_1" data-name="Path 1" d="M29.2,231c0-111.2,90.7-201.9,201.9-201.9S433.2,119.8,433.2,231q0,7.95-.6,15.9h29.2q.6-7.95.6-15.9C462.1,103.6,358.5,0,231,0,103.6,0,0,103.6,0,231q0,7.95.6,15.9H29.8Q29.2,239.25,29.2,231Z" transform="translate(512 385)" fill="#fff" opacity="0.4"/>
    <path id="Path_2" data-name="Path 2" d="M170.1,189.1H156.4l75.2-75.2,32.9,32.9V130.5h18v34.3l15.9,15.9c2.2,2.2,4.3,4.3,6.7,6.5.4.4.8.6,1,1.2l.8.8H293.4v58H403.2a167.56,167.56,0,0,0,.8-17.4A172.674,172.674,0,0,0,231.3,57.1c-95.4,0-172.8,77.2-172.8,172.6,0,5.9.4,11.7.8,17.4h111v-58h-.2Zm45.7,27.6h32.1V247H215.8Z" transform="translate(512 385)" fill="#fff"/>
    <path id="Path_3" data-name="Path 3" d="M231,29.2c111.4,0,201.9,90.7,201.9,201.9q0,7.95-.6,15.9H403a167.56,167.56,0,0,0,.8-17.4A172.674,172.674,0,0,0,231.1,56.9c-95.4,0-172.8,77.2-172.8,172.6,0,5.9.4,11.7.8,17.4H29.8q-.6-7.95-.6-15.9C29.2,119.8,119.8,29.2,231,29.2Z" transform="translate(512 385)" fill="#fff" opacity="0.8"/>
  </g>
</svg>
