<svg xmlns="http://www.w3.org/2000/svg" width="44.629" height="49.414" viewBox="0 0 44.629 49.414">
  <path id="Exclusion_1" data-name="Exclusion 1" d="M22.314,49.414a7.511,7.511,0,0,1-3.765-1.086c-2.51-1.453-5.056-2.924-7.519-4.346L11,43.962C8.627,42.594,6.179,41.18,3.777,39.79A7.057,7.057,0,0,1,0,33.245c.026-2.872.026-5.792.026-8.616,0-.93,0-1.876.006-2.791C.038,20,.043,18.11.026,16.248A7.1,7.1,0,0,1,3.907,9.521C8.841,6.7,13.761,3.848,18.52,1.089A7.649,7.649,0,0,1,22.328,0a7.644,7.644,0,0,1,3.8,1.086C27.993,2.16,29.877,3.251,31.7,4.305c2.989,1.73,6.078,3.518,9.127,5.267a7.642,7.642,0,0,1,2.842,2.707,7.417,7.417,0,0,1,.96,3.813V33.349a7.262,7.262,0,0,1-.957,3.754,7.7,7.7,0,0,1-2.82,2.687c-2.49,1.442-5.029,2.908-7.484,4.326l-.035.02-.015.009c-2.375,1.371-4.83,2.789-7.238,4.184A7.507,7.507,0,0,1,22.314,49.414ZM21.849,8.7h0a1.333,1.333,0,0,0-.609.2l-1.577.907c-1.48.851-3.009,1.73-4.5,2.611a1.029,1.029,0,0,0-.233.13l-1.566.909-.011.006c-1.4.816-2.856,1.659-4.3,2.474a1.58,1.58,0,0,0-.88,1.241.154.154,0,0,1-.026.1c-.018.018-.01.05,0,.075a.147.147,0,0,1,0,.029V31.822a1.6,1.6,0,0,0,.906,1.552c2.108,1.22,4.258,2.46,6.338,3.66l.028.016c1.962,1.131,3.99,2.3,6,3.465a1.735,1.735,0,0,0,.921.269,1.683,1.683,0,0,0,.451-.062,2.743,2.743,0,0,0,.491-.207c1.193-.7,2.418-1.4,3.6-2.082.745-.427,1.514-.868,2.27-1.306.04-.027.073-.046.106-.066s.063-.038.1-.063l6.08-3.519c.356-.2.537-.419.536-.639s-.2-.459-.589-.68l-1.565-.9-.012-.007c-1.479-.85-3.008-1.729-4.5-2.611a1.6,1.6,0,0,0-1.786,0c-.751.453-1.526.893-2.277,1.319s-1.526.867-2.277,1.319a1.106,1.106,0,0,1-.664.215,1.312,1.312,0,0,1-.293-.034c-1.446-.849-3.246-1.905-4.993-2.846a1.314,1.314,0,0,1-.776-1.4c.026-1.781.026-3.574,0-5.33a1.1,1.1,0,0,1,.672-1.112c.758-.424,1.522-.868,2.261-1.3s1.525-.886,2.293-1.315a1.56,1.56,0,0,0,.905-1.552c-.017-1.553-.011-3.141-.006-4.678,0-.766.006-1.556.006-2.333,0-.6-.178-.9-.53-.9Z" transform="translate(0 0)" fill="#1774d0"/>
</svg>
