<?xml version="1.0" encoding="utf-8"?>
<svg id="master-artboard" viewBox="0 0 50 50" version="1.1" xmlns="http://www.w3.org/2000/svg" x="0px" y="0px" style="enable-background:new 0 0 1400 980;" width="50px" height="50px"><g transform="matrix(0.7692307692307693, 0, 0, 0.7692307692307693, -0.000002543131586207892, 19.230767323420597)"><g fill="none" fill-rule="evenodd">
        <g>
            <g>
                
                
                <path fill="#1976D2" d="M8.408 7.006l-.002-.001-.088-.035L5.32 5.785c-.083-.036-.173-.056-.269-.056-.366 0-.662.295-.662.658 0 .15.051.289.136.4l.005.006c.015.019.031.037.049.055l2.15 2.456c.267.3.658.49 1.094.49.808 0 1.463-.651 1.463-1.454 0-.597-.361-1.11-.878-1.334M7.403 2.095c.679-.212 1.41.137 1.633.78.224.641-.145 1.333-.824 1.545-.678.211-1.41-.138-1.633-.78-.223-.642.146-1.334.824-1.545m4.717.767c-.099-.14-.242-.228-.398-.268v-.002l-.586-.153c-.008-.028-.014-.056-.023-.083C10.506.558 8.517-.419 6.671.173c-.956.306-1.683.975-2.08 1.797L3.533 3.652l-2.51-.991-.001.002C.864 2.598.684 2.584.508 2.64c-.388.125-.598.532-.47.91.018.054.044.105.074.152l-.004.005 2.619 3.468.005.01.008.009 1.874 2.628c.818 1.462 2.59 2.343 4.299 1.795 1.845-.592 2.849-2.529 2.241-4.327-.189-.56-.512-1.039-.923-1.417.518-.495.87-1.134 1.001-1.827l.566-.163v-.007c.05-.019.099-.041.145-.073.316-.212.395-.633.177-.941" transform="matrix(5.272005081176758, 0, 0, 5.272005081176758, 0.22311140596866608, -23.61700637737909)"/>
            <path d="M 46.54140090942383 1.2698131799697876" style="fill: rgb(33, 33, 33); fill-opacity: 1; stroke: rgb(0, 0, 0); stroke-opacity: 1; stroke-width: 0; paint-order: fill;"/></g>
        </g>
    </g></g></svg>