<?xml version="1.0" encoding="utf-8"?>
<svg id="master-artboard" viewBox="0 0 50 50" version="1.1" xmlns="http://www.w3.org/2000/svg" x="0px" y="0px" style="enable-background:new 0 0 1400 980;" width="50px" height="50px"><g transform="matrix(0.3937007874015748, 0, 0, 0.3937007874015748, 0.000005086263172415784, 19.094486281627745)"><g transform="matrix(0.153996, 0, 0, 0.153996, -1.055132, -2.656724)">
    <g transform="matrix(4.267122745513916, 0, 0, 4.267122745513916, 5.492733195105984, -373.364501953125)">
      <path class="st0" d="M10.2,114.4c0-10.8,0.1-21.6,0-32.4c-0.2-11.7,4.9-20.2,15-26c18.9-10.8,37.7-21.7,56.5-32.6 c9.8-5.6,19.6-5.6,29.4,0c18.9,10.9,37.8,21.9,56.8,32.8c9.7,5.6,14.7,13.9,14.7,25.2c0,22.2,0,44.4,0,66.7 c0,11.1-5,19.3-14.6,24.9c-19,11-38.1,22-57.1,33c-9.7,5.6-19.4,5.6-29.1,0c-19-11-38.1-22-57.1-33c-9.7-5.6-14.7-14-14.6-25.3 C10.2,136.6,10.2,125.5,10.2,114.4z" style="fill: rgb(23, 116, 208);"/>
    </g>
    <g transform="matrix(4.267122745513916, 0, 0, 4.267122745513916, 5.492733195105984, -373.364501953125)">
      <path class="st1" d="M146.9,143.5c-7.8-4.5-15.7-9-23.5-13.6c-2.1-1.4-4.8-1.4-6.9,0c-5.8,3.5-11.8,6.7-17.6,10.2 c-1.1,0.8-2.4,1-3.7,0.7c-6.3-3.7-12.8-7.5-19.3-11c-2.1-0.9-3.3-3.1-3-5.4c0.1-6.9,0.1-13.8,0-20.6c-0.2-1.8,0.9-3.6,2.6-4.3 c5.9-3.3,11.7-6.8,17.6-10.1c2.3-1.1,3.7-3.4,3.5-6c-0.1-9,0-18.1,0-27.1c0-3.4-1.5-4.3-4.4-2.7c-7.8,4.5-15.7,9-23.5,13.6 c-0.3,0.1-0.6,0.3-0.9,0.5c-7.6,4.4-15.1,8.8-22.7,13.1c-1.9,0.9-3.1,2.7-3.4,4.8c0,0.1,0,0.3-0.1,0.4c-0.1,0.1,0,0.3,0,0.4 s0,0.3,0,0.5c0,16.7,0,33.4,0,50.1c0,1.7,0,3.5,0,5.2c-0.2,2.5,1.2,4.9,3.5,6c15.9,9.2,31.9,18.4,47.8,27.6c1.6,1,3.5,1.3,5.3,0.8 c0.7-0.2,1.3-0.5,1.9-0.8c7.5-4.4,15.1-8.7,22.7-13.1c0.3-0.2,0.5-0.3,0.8-0.5l23.5-13.6C149.9,147,149.9,145.2,146.9,143.5z" style="fill: rgb(255, 255, 255);"/>
    </g>
    
  </g></g></svg>