<?xml version="1.0" encoding="utf-8"?>
<svg id="master-artboard" viewBox="0 0 50 50" version="1.1" xmlns="http://www.w3.org/2000/svg" x="0px" y="0px" style="enable-background:new 0 0 1400 980;" width="50px" height="50px"><g transform="matrix(0.051760828577638716, 0, 0, 0.051760828577638716, 0, 11.696980206353327)"><rect id="ee-background" x="0" y="0" width="965.9814453125" height="514.0187377929688" style="fill: white; fill-opacity: 0; pointer-events: none;"/><g transform="matrix(0.9800001382827759, 0, 0, 0.9800001382827759, -10.373870849609375, -215.32709381959103)"><path class="st0" d="M526.3,480.12c0,140.49-113.91,254.4-254.4,254.4c-123.67,0-226.83-88.33-249.62-205.37&#10;&#9;c-0.37-1.89-0.71-3.78-1.04-5.68c-1.94-10.58-3.1-21.29-3.36-32.25c-0.15-2.18-0.26-4.31-0.32-6.44c-0.05-1.54-0.07-3.09-0.07-4.66&#10;&#9;c0-11.85,0.81-23.52,2.39-34.94c0.28-2.05,0.58-4.09,0.91-6.12C40.44,318.18,145.4,225.72,271.9,225.72&#10;&#9;c122.04,0,224.09,86.17,248.73,200.86c0.1,0.43,0.19,0.86,0.29,1.29c0.01,0.06,0.03,0.12,0.04,0.18c0.09,0.49,0.18,1,0.31,1.5&#10;&#9;c0.04,0.16,0.07,0.33,0.1,0.5c0.06,0.35,0.13,0.73,0.19,1.11c0.04,0.19,0.07,0.38,0.1,0.58c1.03,5.16,1.93,10.45,2.45,15.74&#10;&#9;c0.08,0.52,0.15,1.04,0.21,1.56c0.01,0.09,0.02,0.18,0.03,0.27c0.03,0.19,0.05,0.38,0.07,0.57c0.08,0.83,0.14,1.66,0.21,2.5&#10;&#9;c0.13,0.66,0.23,1.33,0.31,1.99c0.06,0.53,0.11,1.05,0.16,1.58c0.06,0.75,0.12,1.49,0.17,2.24&#10;&#9;C526.05,465.41,526.3,472.77,526.3,480.12z" style="fill: rgb(0, 158, 218);" transform="matrix(1.907420010061171, 0, 0, 1.907420010061171, -15.87077418536725, -431.69037546110917)"/><path class="st1" d="M525.1,455.95c-0.05-0.53-0.1-1.05-0.16-1.58c-0.14-1.51-0.31-3.01-0.52-4.49c-0.02-0.19-0.04-0.38-0.07-0.57&#10;&#9;c-0.01-0.09-0.02-0.18-0.03-0.27c-0.06-0.52-0.13-1.04-0.21-1.56c-0.52-5.29-1.42-10.58-2.45-15.74c-0.03-0.2-0.06-0.39-0.1-0.58&#10;&#9;c-0.06-0.38-0.13-0.76-0.19-1.11c-0.03-0.17-0.06-0.34-0.1-0.5c-0.09-0.51-0.2-1-0.31-1.5c-0.01-0.06-0.03-0.12-0.04-0.18&#10;&#9;c-0.1-0.43-0.19-0.86-0.29-1.29h-13.42l-22.32,74.44l-22.19-74.44H440c-4.6-1.58-10.04-2.56-16.46-2.56&#10;&#9;c-25.96,0-45.04,19.37-48.71,48.22V455.9c0-20.71-10.68-31.72-30.58-31.72c-11.49,0-22.01,5.83-28.97,12.79v-10.2h-26.87v40.66&#10;&#9;c-4.64-26.8-21.45-43.41-45.63-43.41c-25.66,0-44.31,19.35-47.91,48.16v-44.76h-26.86v9.22c-6.47-7.6-15.38-11.81-25.25-11.81&#10;&#9;c-23.1,0-38.25,17.87-41.1,47.07v-9.2c0-24.6-14.89-38.68-41.27-38.68c-15.27,0-29.22,5.3-39.6,15.04&#10;&#9;c-0.33,2.03-0.63,4.07-0.91,6.12l9.28,16.55l2.26-2.27c7.61-7.93,15.86-11.65,25.09-11.65c11.81,0,18.28,6.15,18.28,17.8v9.55&#10;&#9;c-6.47-5.99-15.69-9.39-25.89-9.39c-12.18,0-25.03,6.08-31.34,19.01c0.06,2.13,0.17,4.26,0.32,6.44&#10;&#9;c0.26,10.96,1.42,21.67,3.36,32.25c0.33,1.9,0.67,3.79,1.04,5.68c6.81,8.09,16.77,12.2,26.62,12.2c9.87,0,19.26-3.56,25.73-10.03&#10;&#9;v7.12h27.03v-45.79c2.85,29.14,18,46.76,41.1,46.76c9.39,0,18.61-4.53,25.25-12.3v8.09c0,21.36-16.02,23.63-22.98,23.63&#10;&#9;c-10.68,0-19.42-3.73-25.89-11.17l-2.27-2.75l-11.81,21.85l1.29,1.29c10.52,9.71,22.82,14.24,39.81,14.24&#10;&#9;c30.91,0,48.55-17.48,48.71-47.25V493.1c3.65,29.25,22.73,48.25,50.01,48.25c15.37,0,29.13-5.99,39-17.16l1.3-1.61l-13.92-17.16&#10;&#9;l-1.94,2.27c-5.67,6.63-14.08,10.68-22.5,10.68c-14.24,0-23.79-9.55-25.41-25.89h67v46.28h26.87v-77.03&#10;&#9;c3.88-6.64,11.33-13.11,19.58-13.11c9.22,0,12.95,4.37,12.95,14.89v75.25h26.86l0.16-0.16v-45.59&#10;&#9;c3.67,28.97,22.75,48.34,48.71,48.34c14.73,0,26.71-5.18,34.64-15.54l1.13-1.29l-14.08-18.94l-1.94,2.43&#10;&#9;c-5.02,6.31-10.52,9.23-17.48,9.23c-16.67,0-24.11-17.32-24.11-34.47c0-17,7.28-34.15,24.11-34.15c7.28,0,12.78,2.59,17.48,8.9&#10;&#9;l1.55,1.94l26.12,78.71l-4.52,12.13c-2.32,6.32-5.16,7.35-9.93,7.35c-1.94,0-4.39-0.38-5.68-1.03l-2.96-1.8l-4.26,25.02l1.93,0.65&#10;&#9;c3.23,1.16,9.68,1.8,12.78,1.8c17.67-0.38,27.73-7.86,34.05-25.41l32.9-98.69C525.22,457.44,525.16,456.7,525.1,455.95z&#10;&#9; M74.47,511.73c-3.24,5.99-9.71,9.39-17.8,9.39c-9.55,0-16.02-7.28-16.02-17.48c0-10.36,6.47-17.48,16.02-17.48&#10;&#9;c5.01,0,13.43,1.46,17.8,9.23V511.73z M168.01,501.7c-3.72,7.44-11.49,12.78-18.61,12.78c-18.61,0-20.55-22.98-20.55-32.85&#10;&#9;c0-20.71,7.6-33.01,20.55-33.01c6.96,0,15.05,5.5,18.61,12.95V501.7z M221.41,471.92c1.14-11.81,7.12-24.6,20.88-24.6&#10;&#9;c17.32,0,20.39,17.16,21.04,24.6H221.41z" style="fill: rgb(255, 255, 255);" transform="matrix(1.8976467885593278, 0, 0, 1.8976467885593278, -13.679253971453974, -432.7310399644873)"/></g></g></svg>