<svg xmlns="http://www.w3.org/2000/svg" width="42" height="42.912" viewBox="0 0 42 42.912">
  <g id="Group_1" data-name="Group 1" transform="translate(-918 -604)">
    <path id="Path_1" data-name="Path 1" d="M5.79,53.3a24.859,24.859,0,0,0-.34-4.059h-20.2V57.3H-3.186a9.961,9.961,0,0,1-4.291,6.4v5.364h6.9C3.466,65.331,5.79,59.824,5.79,53.3Z" transform="translate(954.21 572.641)" fill="#4285f4"/>
    <path id="Path_2" data-name="Path 2" d="M-6.315,70.89a20.438,20.438,0,0,0,14.179-5.2l-6.9-5.364A12.943,12.943,0,0,1-6.315,62.4a12.814,12.814,0,0,1-12.033-8.868h-7.116v5.525A21.424,21.424,0,0,0-6.315,70.89Z" transform="translate(945.771 576.021)" fill="#34a853"/>
    <path id="Path_3" data-name="Path 3" d="M-17.331,59.573a12.451,12.451,0,0,1-.679-4.095,12.935,12.935,0,0,1,.679-4.094V45.859h-7.116a21.207,21.207,0,0,0-2.307,9.619A21.207,21.207,0,0,0-24.447,65.1Z" transform="translate(944.754 569.977)" fill="#fbbc05"/>
    <path id="Path_4" data-name="Path 4" d="M-6.315,47.732A11.641,11.641,0,0,1,1.91,50.95l6.115-6.115a20.514,20.514,0,0,0-14.34-5.6A21.424,21.424,0,0,0-25.464,51.076l7.116,5.525A12.814,12.814,0,0,1-6.315,47.732Z" transform="translate(945.771 564.761)" fill="#ea4335"/>
  </g>
</svg>
