<?xml version="1.0" encoding="utf-8"?>
<svg id="master-artboard" viewBox="0 0 50 50" version="1.1" xmlns="http://www.w3.org/2000/svg" x="0px" y="0px" style="enable-background:new 0 0 1400 980;" width="50px" height="50px"><g transform="matrix(0.3333333333333333, 0, 0, 0.3333333333333333, 0.000005086263172415784, 21.3333314259847)"><g transform="matrix(0.719077, 0, 0, 0.719077, -0.13413, 0.05935)">
    
    <path class="st0" d="M113.03,15.35c0-7.9-6.41-14.32-14.31-14.32c-7.91,0-14.32,6.41-14.32,14.32c0,7.9,6.41,14.31,14.32,14.31 c2.58,0,5-0.7,7.1-1.89c-0.61-0.6-4.71-3.87-6.35-5.05c-0.18,0.02-0.36,0.07-0.54,0.07c-4.95-0.02-8.51-2.81-8.51-7.91 c0-4.64,3.63-7.93,8.25-7.93c4.68,0,8.45,2.67,8.45,7.58c0,4.5-2.79,6.82-5.86,7.87c1.23,0.91,4.42,3.16,6.11,4.35 C110.8,24.13,113.03,20.01,113.03,15.35z" style="fill: rgb(0, 45, 86);" transform="matrix(7.217464045034865, 0, 0, 7.217464045034865, -608.194291280738, -96.10231888097354)"/>
    <path class="st0" d="M104.92,14.75c0-1.85-0.25-3.41-1.4-4.88c-1.12-1.43-2.85-2.18-4.64-2.18c-4.39,0-6.29,3.59-6.29,7.49 c0,4.79,2.94,6.89,6.08,6.89C103.88,22.06,104.95,16.58,104.92,14.75z" style="fill: rgb(0, 45, 86);" transform="matrix(7.217464045034865, 0, 0, 7.217464045034865, -608.194291280738, -96.10231888097354)"/>
  </g></g><path d="M 14.927067756652832 21.28917121887207" style="fill: rgb(1, 161, 221); fill-opacity: 1; stroke: rgb(0, 0, 0); stroke-opacity: 1; stroke-width: 0; paint-order: fill;"/><path d="M 16.260400772094727 23.78917121887207" style="fill: rgb(1, 161, 221); fill-opacity: 1; stroke: rgb(0, 0, 0); stroke-opacity: 1; stroke-width: 0; paint-order: stroke;"/></svg>