<?xml version="1.0" encoding="utf-8"?>
<svg id="master-artboard" viewBox="0 0 50 50" version="1.1" xmlns="http://www.w3.org/2000/svg" x="0px" y="0px" style="enable-background:new 0 0 1400 980;" width="50px" height="50px"><g transform="matrix(0.352112676056338, 0, 0, 0.352112676056338, 0.000005086263172415784, 22.007040346172495)"><g id="Normal-Registered" transform="matrix(0.233389, 0, 0, 0.233389, -3.911216, -66.756065)">
    <linearGradient id="Fill-1_1_" gradientUnits="userSpaceOnUse" x1="-149.5705" y1="85.2655" x2="-149.5705" y2="85.6349" gradientTransform="matrix(133.03 0 0 109.4733 20491.3184 -9037.6592)">
      <stop offset="0" style="stop-color:#F2C069"/>
      <stop offset="1" style="stop-color:#EB8F3B"/>
    </linearGradient>
    
    
    
    
    
    
    
    
    
    
    
    
    
    
    
    
  <path id="Fill-1" class="st0" d="M567.1,294.3c0-3.2,2.6-5.7,5.7-5.7h42.4c3.2,0,5.7,2.6,5.7,5.7v20.8c0,3.2-2.6,5.7-5.7,5.7h-4.4 c-3.2,0-8,1.3-10.8,2.8l-15.4,8.6c-2.8,1.5-3.9,0.4-2.6-2.4l1.8-3.9c1.3-2.9-0.2-5.2-3.4-5.2h-7.7c-3.2,0-5.7-2.6-5.7-5.7v-20.7" style="fill: url('#Fill-1_1_');" transform="matrix(11.1238374710083, 0, 0, 11.1238374710083, -6285.89111328125, -3130.63226561244)"/></g></g></svg>