<?xml version="1.0" encoding="utf-8"?>
<svg id="master-artboard" viewBox="0 0 50 50" version="1.1" xmlns="http://www.w3.org/2000/svg" x="0px" y="0px" style="enable-background:new 0 0 1400 980;" width="50px" height="50px"><g transform="matrix(0.05, 0, 0, 0.05, 0, 0)"><path class="st0" d="M986,603.8c0,14.4-9.3,24.5-23.2,24.5s-23.6-10.1-23.6-24.5c0-14.4,9.7-24.5,23.6-24.5S986,589.4,986,603.8z" style="fill: rgb(11, 125, 108);"/><path class="st0" d="M986,415.8l-78.4,231.9c-12.1,37.1-32.9,66-77.2,66c-18.7,0-36.6-7.2-50-20.2l17.5-30.3&#10;&#9;c8.6,7.4,19.5,11.7,30.9,12.1c17.5,0,30.8-15,37.1-33.4l5.8-17.5h-13.2l-73-208.5h46.3l54.3,167.3h0.7l54.6-167.3H986z" style="fill: rgb(11, 125, 108);"/><path class="st0" d="M804.4,587.3v37.1h-22.3c-52.3,0-52.3-46.8-52.3-46.8V333.1h41.6v230.6c0,16.9,5.2,23.6,14,23.6H804.4z" style="fill: rgb(11, 125, 108);"/><path class="st0" d="M661.9,393.3v22.5h51.9V451h-51.9l-0.3,173.4h-41.8V451h-31.6v-35.2h31.6v-30.6c0-29,20-52.2,50.5-52.2h45.5&#10;&#9;v37.1h-31.4C669.8,370.1,661.6,375.6,661.9,393.3z" style="fill: rgb(11, 125, 108);"/><path class="st0" d="M536,415.8l-3.2,29c-10.9-21.8-34.8-33.1-63.1-33.1c-54.2,0-97.1,42.9-97.1,108.3s41.6,108.3,95,108.3&#10;&#9;c32.9,0,53.9-15.4,64.6-34.1l3.7,29.9h38.3V415.8H536z M473.2,589.6c-35.4,0-60.7-29.1-60.7-70.5c0-41.3,24.7-70.4,60.7-70.4&#10;&#9;c35.9,0,59.3,28.7,59.3,70.4S508.4,589.6,473.2,589.6z" style="fill: rgb(11, 125, 108);"/><path class="st0" d="M358.6,517.2c-0.3-73.4-45.2-105.4-97.2-105.4c-57.1,0-100.5,44.2-100.5,107.6c0,65.9,39.8,109.2,103.8,109.2&#10;&#9;c39.3,0,80.1-22.9,90.5-66.7H314c-8.8,20.2-29.2,30.3-48.8,30.3c-39.6,0-59.6-24.6-63-61.7h156.3V517.2z M204,498.4&#10;&#9;c6.2-31.7,27.9-52.1,58.8-52.1c34.2,0,54.6,24.6,55.4,52.1H204z" style="fill: rgb(11, 125, 108);"/><path d="M 163.10000610351562 587.2999877929688 L 163.10000610351562 624.4000244140625 L 14.800000190734863 624.4000244140625 L 14.800000190734863 333.1000061035156 L 56.400001525878906 333.1000061035156 L 56.400001525878906 587.2999877929688 Z" class="st0" style="fill: rgb(11, 125, 108);"/></g></svg>