<?xml version="1.0" encoding="utf-8"?>
<svg id="master-artboard" viewBox="0 0 50 50" version="1.1" xmlns="http://www.w3.org/2000/svg" x="0px" y="0px" style="enable-background:new 0 0 1400 980;" width="50px" height="50px"><g transform="matrix(0.4166666666666667, 0, 0, 0.4166666666666667, 0.000005086263172415784, 19.791664759318024)"><g transform="matrix(0.130157, 0, 0, 0.130157, -5.078342, -52.851665)">
    <g transform="matrix(5.401943206787109, 0, 0, 5.401943206787109, -134.8915222528442, -2195.984375)">
      <path class="st0" d="M119.66,415.96c3.36,3.68,3.05,7.43,1.28,11.95c-3.37,8.66-8.77,16.46-10.77,25.68 c-0.62,2.83-2.14,5.66-0.6,8.71c0.52,1.03,1.75,1.46,2.84,1.1c5.2-1.76,7.23-7.08,9.97-11.06c8.26-11.99,18.78-21.4,30.83-29.27 c5.74-3.75,12.01-5.85,18.97-5.43c3.02,0.18,5.93,0.93,7.45,3.78c1.8,3.38-1.01,5.46-2.88,7.5c-7.29,7.93-15.33,15.22-22.04,23.64 c-2.61,3.28-5.14,7.05-7.44,10.75c-3.42,5.5-2.61,9.63,3.82,12.49c7.73,3.44,14.72,8.08,20.62,15.61 c-6.51,3.98-11.47,9.12-14.23,16.86c-5.26-4.38-9.98-8.89-16.44-10.78c-15.58-4.55-30.89,3.07-35.73,18.04 c-4.47,13.83,2.86,28.75,16.72,33.99c14.35,5.43,31.18-1.89,36.98-16.13c2.22-5.45,3.13-11.13,3.29-17.04 c0.25-9.36,5.6-15.57,13.02-15.7c6.49-0.12,11.3,5.45,12.36,14.3c4.68,39.14-23.07,69.32-63.51,69.09 c-41.97-0.23-68.9-29.42-75.77-68.48c-3.26-18.55-1.74-36.85,3.8-54.89c1.64-5.33,4.69-10.16,9.04-13.64 c6.01-4.8,9.65-3.26,10.77,4.26c1.12,7.5,1.76,15.04,1.51,22.64c-0.11,3.4,0.03,6.81,3.83,9.47c0.68,0.47,1.63,0.12,1.87-0.68 c7.37-24.75,8.43-52.75,35.19-66.77C116.74,414.56,118.77,415.07,119.66,415.96z" style="fill: rgb(12, 134, 136);"/>
    </g>
    
  </g></g></svg>