<?xml version="1.0" encoding="utf-8"?>
<svg id="master-artboard" viewBox="0 0 50 50" version="1.1" xmlns="http://www.w3.org/2000/svg" x="0px" y="0px" style="enable-background:new 0 0 336 235.2;" width="50px" height="50px"><g transform="matrix(0.05239960713087525, 0, 0, 0.05239960713087525, 0, 21.273258642145287)"><rect id="ee-background" x="0" y="0" width="954.2056274414062" height="142.24310302734375" style="fill: white; fill-opacity: 0; pointer-events: none;"/><g transform="matrix(0.9800001382827759, 0, 0, 0.9800001382827759, -18.785079956054688, -407.10275910279415)"><path class="st0" d="M 81.98 420.21 C 115.78 414.68 148.57 434.15999999999997 159.88 466.57 C 162.76999999999998 474.86 164.03 483.65999999999997 163.76999999999998 492.45 C 150.82999999999998 479.38 137.89 466.32 124.94999999999999 453.12 C 117.15999999999998 461.04 109.49999999999999 468.83 101.71 476.74 C 101.71 471.97 101.71 467.19 101.71 462.29 L 73.81 462.29 C 73.81 476.11 73.81 489.93 73.81 503.75 C 68.28 509.4 62.63 515.06 56.97 520.84 C 62.5 520.84 68.15 520.84 73.68 520.84 C 73.68 532.9 73.68 544.84 73.68 556.9000000000001 C 60.11000000000001 553.0100000000001 47.92 545.0900000000001 38.75000000000001 534.2800000000001 C 14.000000000000007 504.5000000000001 18.140000000000008 460.2800000000001 48.05000000000001 435.5200000000001 C 57.98 427.5 69.54 422.22 81.98 420.21" style="fill: rgb(1, 161, 221);" transform="matrix(6.82210397720337, 0, 0, 6.82210397720337, -131.54115295410134, -2846.767352210617)"/></g></g></svg>