<?xml version="1.0" encoding="utf-8"?>
<svg id="master-artboard" viewBox="0 0 50 50" version="1.1" xmlns="http://www.w3.org/2000/svg" x="0px" y="0px" style="enable-background:new 0 0 1400 980;" width="50px" height="50px"><g transform="matrix(0.38461538461538464, 0, 0, 0.38461538461538464, 0.000005086263172415784, 20.769228861882137)"><g transform="matrix(0.134422, 0, 0, 0.134422, -2.201882, -56.345493)">
    <g>
      
      
      
      
      
      
      
      
      
    </g>
    <g transform="matrix(8.047608637159563, 0, 0, 8.047608637159563, -4408.600741404431, -3482.427601804048)">
      <path class="st1" d="M657.9,465c-3.7-4.4-8.4-7.4-12-11.8c-18.7-22.8-53.5-22.9-72.4-0.2c-1.8,2.2-3.8,4.1-6,5.9 c-23.5,19.7-23,53.7,0.8,73c2,1.7,3.8,3.7,5.5,5.7c18.1,22,53.3,22,71.4,0.2c2-2.4,4.3-4.7,6.7-6.7c11.2-9.4,16.8-21.5,17.1-36 C668.8,483.8,665.3,473.8,657.9,465z M563.4,518.2c-10.7-8.4-11.3-37.6,0.6-47.6C561.8,486.3,562.7,502.2,563.4,518.2z M648.9,469.5c-3.8-5.2-7.6-8.5-12-12.9C644.6,458.3,647.3,462.5,648.9,469.5z M603,523.9c-2.9-0.3-5.8-1.3-8.6-2.3 c-11.8-4.1-12.9-14.6-14.2-24.5c-1-7.4,1.6-14.4,4.6-21c1.1-2.3,2.8-4.1,5.1-5.3c13.2-6.8,26.7-6.9,39.6,0.2 c7.1,3.9,7.7,11.9,9.2,19c0.4,1.8,0,3.6,0,5.4c0.1,0-0.1,0,0,0c-0.2,2.5,0,5-0.4,7.4C635.7,522.6,619.1,525.5,603,523.9z M622.7,527.3c-8.9,8.9-17.8,8.8-25.7,0.2C605.5,529.6,613.6,529.9,622.7,527.3z M571.2,480.8c4-12.2,12.1-20.2,24.2-24.9 C587.1,464.5,579.1,472.6,571.2,480.8z M597.3,462.7c6.2-8.7,17.5-8.7,25-0.1C613.9,460.8,605.7,460.2,597.3,462.7z M624.2,456.8 c9.5,1.2,22.4,14.2,23.9,23.3C640.5,472.6,632.4,464.7,624.2,456.8z M634.1,449.5c-16.5-1.4-32.8-1.4-49.5,0.2 C598.3,438.2,621.4,438.2,634.1,449.5z M582,456.7c-4.1,4.3-7.6,8-11.1,11.6C572.2,462.9,574.6,458.1,582,456.7z M576.6,482.8 c-1.4,8.4-1.5,16.2,0,24.2C568.2,499.3,568.1,492.3,576.6,482.8z M568.2,506.4c2.9,1.8,19.6,19.8,27.1,27.1 c-10.8-3.3-20.7-16-23.1-19.6C569.8,510.3,570,509.5,568.2,506.4z M570.6,521.9c3.6,3.7,7.1,7.4,10.7,11.1 C574.6,532,572.1,527.4,570.6,521.9z M585.1,540.8c16.5,1,32.6,1.1,48.8,0C622.8,551.8,597.8,552,585.1,540.8z M635.4,534.3 c5.2-4.1,9.3-7.8,12.8-12.2C647.2,529,642.9,532.5,635.4,534.3z M624.2,533.8c8.1-8.1,16.2-16.2,24.8-24.8 C644.5,521.6,635.9,529.2,624.2,533.8z M642.8,507.5c1.4-8.4,1.5-16.3-0.1-24.5C651.2,492.8,651.2,497.2,642.8,507.5z M654.8,520.2c2.5-8.5,1.8-16.8,1.7-25c0-8.2,0.8-16.5-1.8-25.1C666.9,481.4,667.1,508.2,654.8,520.2z" style="fill: rgb(254, 181, 72);"/>
    </g>
  </g></g></svg>