<svg xmlns="http://www.w3.org/2000/svg" width="49.331" height="49.331" viewBox="0 0 49.331 49.331">
  <path id="Exclusion_1" data-name="Exclusion 1" d="M24.665,49.331a24.672,24.672,0,0,1-9.6-47.392,24.672,24.672,0,0,1,19.2,45.454A24.511,24.511,0,0,1,24.665,49.331Zm-8.222-30.7h3.288V37.273A3.567,3.567,0,0,0,23.3,40.835V15.073H16.444a9.592,9.592,0,1,0,0,19.184h1.37V30.7h-1.37a6.03,6.03,0,1,1,0-12.06ZM26.035,8.5V34.257h6.852a9.592,9.592,0,1,0,0-19.184h-1.37v3.562h1.37a6.03,6.03,0,1,1,0,12.06H29.6V12.057A3.567,3.567,0,0,0,26.035,8.5Z" fill="#2ca01c"/>
</svg>