<?xml version="1.0" encoding="utf-8"?>
<svg id="master-artboard" viewBox="0 0 50 50" version="1.1" xmlns="http://www.w3.org/2000/svg" x="0px" y="0px" style="enable-background:new 0 0 1400 980;" width="50px" height="50px"><g transform="matrix(0.4, 0, 0, 0.4, 0.000005086263172415784, 19.399998092651366)"><path class="st0" d="M 0.3 10.44 L 11.666 10.44 L 18.57 10.44 L 18.57 3.599 L 0.3 10.44 Z" style="fill: rgb(255, 157, 40);" transform="matrix(4.512261390686035, 0, 0, 4.512261390686035, 0.6129882484674454, -49.650428771972656)"/><path class="st1" d="M 18.569 3.599 L 18.569 27.779 L 27.208 0.375 L 18.569 3.599 Z" style="fill: rgb(104, 197, 237);" transform="matrix(4.512261390686035, 0, 0, 4.512261390686035, 0.6129882484674454, -49.650428771972656)"/><path class="st2" d="M 18.569 10.439 L 11.666 10.439 L 18.569 27.758 L 18.569 10.439 Z" style="fill: rgb(4, 77, 128);" transform="matrix(4.512261390686035, 0, 0, 4.512261390686035, 0.6129882484674454, -49.650428771972656)"/><path class="st3" d="M 0.3 10.44 L 13.444 14.883 L 11.666 10.44 L 0.3 10.44 Z" style="fill: rgb(229, 71, 71);" transform="matrix(4.512261390686035, 0, 0, 4.512261390686035, 0.6129882484674454, -49.650428771972656)"/></g></svg>