<svg id="Layer_1" data-name="Layer 1" xmlns="http://www.w3.org/2000/svg" viewBox="0 0 991.53 991.53"><defs><style>.cls-1{fill:#76d40e;}.cls-2{fill:#fff;}</style></defs><circle class="cls-1" cx="495.76" cy="495.76" r="495.76"/><path class="cls-2" d="M434.9,487.71l.75,213.86a10,10,0,0,1-10,10H332.33a9.48,9.48,0,0,1-9.48-9.47V506.74l-1.78-7.95a11,11,0,0,0-8.16-8.28c-16-3.77-57.69-17.94-89.76-67-21.51-32.94-24.87-86.22-25.26-109.19a10.9,10.9,0,0,1,10.93-11.1l91.48.17a14.16,14.16,0,0,1,14.06,12.58c1.64,14.78,4.76,38.48,8.69,47.7,8.81,20.69,24,21,24,21s34.58-48.71,82.29-71.39c34-16.15,98.76-39,172-13.13,142.07,50.24,135.57,182.67,135.57,182.67V702.05a9.56,9.56,0,0,1-9.56,9.56h-98a9.56,9.56,0,0,1-9.57-9.56V477.43c-3-47.16-50.72-80.75-96.31-80.66C483.36,396.84,439.8,430.88,434.9,487.71Z" transform="translate(-4.24 -4.24)"/></svg>