<?xml version="1.0" encoding="utf-8"?>
<svg id="master-artboard" viewBox="0 0 50 50" version="1.1" xmlns="http://www.w3.org/2000/svg" x="0px" y="0px" style="enable-background:new 0 0 336 235.2;" width="50px" height="50px"><g transform="matrix(0.8333333333333334, 0, 0, 0.8333333333333334, 0, 9.166666666666666)"><path d="M 18.667 1.982 L 15.252 1.982 L 11.752 1.982 L 9.387 16.44 C 9.337 16.447 9.287 16.45 9.235 16.457 C 4.01 17.138 -0.044 21.45 0 26.273 C 0.021 28.29 0.722 29.865 1.98 31.156 C 3.117 32.322 4.665 32.954 6.228 32.954 C 6.84 32.954 7.454 32.859 8.045 32.659 C 10.862 31.709 11.797 29.391 12.235 27.27 C 12.235 27.272 12.233 27.275 12.233 27.278 C 12.36 24.91 11.07 22.571 8.61 21.187 L 7.832 26.006 C 7.583 27.374 7.257 28.191 6.561 28.426 C 6.144 28.567 5.63 28.421 5.283 28.065 C 4.837 27.606 4.5760000000000005 27.095 4.567 26.231 C 4.543 23.821 6.477 21.928 8.61 21.187 C 9.28 20.95 9.978 20.839 10.756 20.839 C 11.546 20.839 12.378 20.988 13.137 21.238 C 16.018 21.904 17.765 24.902 18.198 28.147 L 18.45 29.966 L 23.245 29.966 L 18.667 1.982 Z M 13.748 16.751 L 15.123 6.405 L 15.165 6.405 L 15.293 6.405 L 16.828 17.949 C 15.853 17.428 14.817 17.022 13.748 16.751 Z" fill="#FF6153" style="" transform="matrix(1.9238500595092776, 0, 0, 1.9238500595092776, 6.943304199068095, -14.454665837273737)"/><path d="M 12.109 27.888 C 12.35 26.759 12.908 22.422 13.008 21.145 C 12.251 20.867 11.421 20.699 10.633 20.699 C 9.857 20.699 9.162 20.825 8.495 21.088 C 10.949 22.633 12.235 25.244 12.109 27.888 Z" fill="#A03027" style="" transform="matrix(1.9238500595092776, 0, 0, 1.9238500595092776, 6.943304199068095, -14.454665837273737)"/></g></svg>