<?xml version="1.0" encoding="utf-8"?>
<svg id="master-artboard" viewBox="0 0 50 50" version="1.1" xmlns="http://www.w3.org/2000/svg" x="0px" y="0px" style="enable-background:new 0 0 1400 980;" width="50px" height="50px"><g transform="matrix(0.6097560975609756, 0, 0, 0.6097560975609756, -0.000002543131586207892, 12.19512004387088)"><g transform="matrix(0.091151, 0, 0, 0.091151, -4.690448, -24.331097)">
    
    
    
    
    
    
    <path class="st3" d="M689.43,463.59l62.32,30.39c11.99,5.85,10.14,23.47-2.81,26.7l-67.27,16.77c-8.39,2.09-16.68-3.7-17.67-12.29 c-2.12-18.38-0.03-36.53,5.62-53.33C672.37,463.69,681.69,459.82,689.43,463.59z" style="fill-rule: evenodd; clip-rule: evenodd; fill: rgb(211, 35, 35);" transform="matrix(2.779108762741089, 0, 0, 2.779108762741089, -1682.2923891925755, -818.2728881835938)"/>
    <path class="st3" d="M714.38,591.89l46.38-51.52c8.92-9.91,25.36-3.27,24.89,10.06l-2.42,69.31c-0.3,8.64-8.14,15.03-16.67,13.6 c-17.92-3.01-34.88-9.94-49.68-20.1C709.78,608.34,708.61,598.3,714.38,591.89z" style="fill-rule: evenodd; clip-rule: evenodd; fill: rgb(211, 35, 35);" transform="matrix(2.779108762741089, 0, 0, 2.779108762741089, -1682.2923891925755, -818.2728881835938)"/>
    <path class="st3" d="M824.36,523.32l65.93,21.43c8.21,2.67,12.21,11.95,8.49,19.74c-7.73,16.2-18.95,30.68-32.97,42.25 c-6.67,5.5-16.65,3.89-21.23-3.44l-36.75-58.81C800.76,533.17,811.67,519.2,824.36,523.32z" style="fill-rule: evenodd; clip-rule: evenodd; fill: rgb(211, 35, 35);" transform="matrix(2.779108762741089, 0, 0, 2.779108762741089, -1682.2923891925755, -818.2728881835938)"/>
    <path class="st3" d="M891.41,481.26l-66.65,19.11c-12.82,3.68-23.24-10.66-15.78-21.72l38.78-57.48 c4.81-7.14,14.82-8.45,21.28-2.75c13.29,11.73,24.18,26.4,31.53,43.37C904,469.72,899.72,478.88,891.41,481.26z" style="fill-rule: evenodd; clip-rule: evenodd; fill: rgb(211, 35, 35);" transform="matrix(2.779108762741089, 0, 0, 2.779108762741089, -1682.2923891925755, -818.2728881835938)"/>
    <path class="st3" d="M735.67,319.54c-11.99,3.21-23.44,7.46-34.26,12.62c-7.51,3.58-10.35,12.83-6.19,20.03l65.14,112.83 c7.31,12.66,26.66,7.47,26.66-7.14l0-130.28c0-8.32-7.08-14.91-15.37-14.26C759.7,314.28,747.67,316.32,735.67,319.54z" style="fill-rule: evenodd; clip-rule: evenodd; fill: rgb(211, 35, 35);" transform="matrix(2.779108762741089, 0, 0, 2.779108762741089, -1682.2923891925755, -818.2728881835938)"/>
  </g></g></svg>