<?xml version="1.0" encoding="utf-8"?>
<svg id="master-artboard" viewBox="0 0 50 50" version="1.1" xmlns="http://www.w3.org/2000/svg" x="0px" y="0px" style="enable-background:new 0 0 1400 980;" width="50px" height="50px"><g transform="matrix(0.4, 0, 0, 0.4, 0.000005086263172415784, 19.59999809265137)"><path class="st0" d="M 31.62 11.072 L 23.249 2.701 C 22.961 2.433 22.526 2.433 22.257 2.701 L 20.604 4.355 L 27.322 11.072 C 27.589 11.341 27.589 11.795 27.322 12.064 L 27.322 12.064 L 20.397 18.987 L 22.051 20.641 C 22.341 20.909 22.774 20.909 23.043 20.641 L 31.599 12.085 C 31.889 11.795 31.889 11.362 31.62 11.072" style="fill: rgb(0, 156, 156);" transform="matrix(3.9632515907287598, 0, 0, 3.9632515907287598, -1.4816257953643799, -33.24146272614597)"/><path class="st1" d="M 17.359 3.321 L 16.76 2.722 C 16.471 2.453 16.037 2.453 15.768 2.722 L 14.115 4.376 L 15.21 5.471 L 17.359 7.621 L 19.509 5.471 L 17.359 3.321 Z" style="fill: rgb(64, 227, 227);" transform="matrix(3.9632515907287598, 0, 0, 3.9632515907287598, -1.4816257953643799, -33.24146272614597)"/><path class="st1" d="M 17.173 15.763 L 15.024 17.913 L 13.929 19.008 L 15.582 20.661 C 15.871 20.93 16.306 20.93 16.574 20.661 L 17.173 20.062 L 19.323 17.913 L 17.173 15.763 Z" style="fill: rgb(64, 227, 227);" transform="matrix(3.9632515907287598, 0, 0, 3.9632515907287598, -1.4816257953643799, -33.24146272614597)"/><path class="st2" d="M 20.852 11.072 C 21.121 11.362 21.121 11.795 20.852 12.064 L 17.173 15.743 L 19.323 17.892 L 25.151 12.064 C 25.42 11.795 25.42 11.341 25.151 11.072 L 25.151 11.072 L 19.529 5.45 L 17.359 7.6 L 20.852 11.072 Z" style="fill: rgb(26, 186, 184);" transform="matrix(3.9632515907287598, 0, 0, 3.9632515907287598, -1.4816257953643799, -33.24146272614597)"/><path class="st3" d="M 7.191 11.278 L 13.019 5.45 L 10.87 3.301 L 10.25 2.701 C 9.961 2.433 9.526 2.433 9.257 2.701 L 0.701 11.278 C 0.433 11.547 0.433 12.002 0.701 12.27 L 0.701 12.27 L 9.072 20.641 C 9.362 20.909 9.795 20.909 10.064 20.641 L 10.684 20.041 L 12.834 17.892 L 7.212 12.27 C 6.922 12.002 6.922 11.568 7.191 11.278 L 7.191 11.278" style="fill: rgb(135, 240, 240);" transform="matrix(3.9632515907287598, 0, 0, 3.9632515907287598, -1.4816257953643799, -33.24146272614597)"/><path class="st1" d="M 13.681 11.278 L 16.243 8.716 L 14.094 6.566 L 12.998 5.471 L 7.212 11.299 C 6.943 11.568 6.943 12.022 7.212 12.291 L 7.212 12.291 L 12.813 17.892 L 13.908 16.797 L 16.058 14.647 L 13.681 12.27 C 13.412 12.022 13.412 11.568 13.681 11.278" style="fill: rgb(64, 227, 227);" transform="matrix(3.9632515907287598, 0, 0, 3.9632515907287598, -1.4816257953643799, -33.24146272614597)"/><path class="st4" d="M 13.681 12.27 L 16.058 14.647 L 18.62 12.085 C 18.889 11.816 18.889 11.362 18.62 11.093 L 18.62 11.093 L 16.243 8.716 L 13.681 11.278 C 13.433 11.568 13.433 12.002 13.681 12.27" style="fill: rgb(23, 207, 207);" transform="matrix(3.9632515907287598, 0, 0, 3.9632515907287598, -1.4816257953643799, -33.24146272614597)"/></g></svg>