<?xml version="1.0" encoding="utf-8"?>
<svg id="master-artboard" viewBox="0 0 50 50" version="1.1" xmlns="http://www.w3.org/2000/svg" x="0px" y="0px" style="enable-background:new 0 0 1400 980;" width="50px" height="50px"><g transform="matrix(0.4, 0, 0, 0.4, 0.000005086263172415784, 18.999998092651367)"><g transform="matrix(0.151593, 0, 0, 0.151593, -13.426163, -61.096287)">
    <path class="st0" d="M908,487c-3.2-11-8.9-20.7-15.6-29.9c-12.8-17.7-28-33.1-44.4-47.4c-4.2-3.7-10.6-3.6-14.9,0.2 c-13.5,11.7-26.1,24.3-37.3,38.2c-7.3,8.9-13.9,18.3-18.7,28.8c-3.3,7.1-5.6,14.4-5.6,22.3c0,8.1,1.2,16,4.1,23.6 c8.9,23.2,25.5,37.8,49.5,44c3.2,0.8,6.4,1.2,9.8,1.8c0.1,0.7,0.2,1.4,0.2,2.2c0,5,0,9.9,0,14.9c0,3.7,2.3,6.1,5.6,6.1 c3.3,0,5.5-2.5,5.6-6.2c0-4.9,0-9.8,0-14.7c0-0.8,0.1-1.6,0.2-2.2c0.3-0.2,0.4-0.2,0.5-0.3c1.2-0.2,2.4-0.3,3.6-0.5 c15.4-2.3,28.6-9,39.6-20.1c8.9-9,14.8-19.7,17.8-32C910.1,506.3,910.8,496.7,908,487z M895.6,517.3c-8,22.5-23.9,35.9-47.4,39.5 c-30.1,4.6-59.2-17-64.6-46.7c-2.3-12.8,0.7-24.2,7.1-35.1c7.9-13.5,17.9-25.4,28.8-36.5c6.4-6.5,13.1-12.6,19.7-18.9 c0.4-0.4,0.9-0.7,1.5-1.2c1.9,1.7,3.7,3.2,5.5,4.9c12.5,11.5,24.3,23.7,34.6,37.2c5,6.5,9.3,13.4,13,20.8 C899.7,493,899.9,505.1,895.6,517.3z" style="fill: rgb(97, 97, 97);" transform="matrix(4.40573787689209, 0, 0, 4.40573787689209, -3200.3974534165195, -1696.6793907754827)"/>
    
    
    
    
    
    
    
    
    
    
    <path class="st0" d="M868.3,492.4c-1.4-1.9-3.3-2.3-5.5-1.9c-1.6,0.3-3.2,0.6-4.8,0.8c-1.4,0.2-2.9,0.4-4.4,0.6 c-0.1-0.6-0.1-0.8-0.1-1.1c0.4-6.9,0.8-13.8,1.2-20.7c0.3-6,0.7-12,0.9-18c0.1-2.8-1.5-4.7-4.1-5.2c-2.3-0.4-4.4,0.9-5.4,3.3 c-2.8,6.5-5.6,13.1-8.3,19.6c-5.4,12.6-10.7,25.2-16.1,37.7c-0.8,1.9-0.9,3.7,0.4,5.4c1.3,1.7,3,2.3,5.1,1.9 c1.8-0.3,3.5-0.6,5.3-0.9c1.3-0.2,2.6-0.4,4.3-0.6c-0.6,2.9-1,5.4-1.5,7.9c-1.5,7.8-3.1,15.6-4.6,23.4c-0.6,2.9,0.6,5.1,3.1,6 c2.3,0.8,4.7-0.1,6.1-2.5c2.8-4.7,5.5-9.5,8.2-14.3c6.8-11.9,13.6-23.7,20.4-35.6C869.4,496.3,869.6,494.3,868.3,492.4z M837.9,539.2c-0.2-0.1-0.4-0.1-0.6-0.2c1.8-10.8,3.7-21.6,5.6-32.9c-5.2,0.9-10,1.7-15.4,2.6c7.2-16.9,14.2-33.4,21.2-49.8 c0.2,0,0.4,0.1,0.6,0.1c-0.7,13.3-1.3,26.5-2,40.1c5-0.8,9.6-1.6,14.3-2.4c0.1,0.1,0.2,0.3,0.4,0.4 C854,511.2,846,525.2,837.9,539.2z" style="fill: rgb(97, 97, 97);" transform="matrix(4.40573787689209, 0, 0, 4.40573787689209, -3200.3974534165195, -1696.6793907754827)"/>
  </g></g></svg>