<?xml version="1.0" encoding="utf-8"?>
<svg id="master-artboard" viewBox="0 0 50 50" version="1.1" xmlns="http://www.w3.org/2000/svg" x="0px" y="0px" style="enable-background:new 0 0 1400 980;" width="50px" height="50px"><g transform="matrix(0.35714285714285715, 0, 0, 0.35714285714285715, 0.000005086263172415784, 19.464283806937082)"><g transform="matrix(0.15173, 0, 0, 0.15173, -7.043732, -60.540981)">
    <g transform="matrix(4.685097694396973, 0, 0, 4.685097694396973, -172.20747208722105, -1839.2890625)">
      <path class="st0" d="M219.5,511.6c0,0,0.8-11.9,23-16.6c0,0-23.3-4-24.5-12.6c0,0-3.9-11.5,14.7-24.5c0,0-22.7,5.7-27.1-1.8 c0,0-7-9.4,5.5-28.3c-0.5,0.4-20.3,13.8-27,8.6c0,0-9.3-5.7-5.1-28c0,0-14.3,20-22.7,17.8c0,0-10.8-1.7-15.5-23.9 c0,0-5.1,24.2-13.7,25.4c0,0-10.6,2.6-23.6-16c0,0,5.2,23.4-2.2,27.8c-6.4,5.6-27.3-4.9-27.9-5.2c13.8,18,6.9,27.5,6.9,27.5 c-3.8,7.8-26.8,4.6-26.8,4.6C73.2,477.6,70,489.1,70,489.1C69.4,498,48.4,505,48.4,505c22.5,2.8,22.8,13.9,22.8,13.9 c2.9,8-13.7,23.8-14.2,24.2c21.8-6.2,26.4,2.3,26.4,2.3c5.7,6.4-4.1,27-4.4,27.5c18-13.8,25.6-7.7,25.6-7.7c7.8,3.7,7.6,27,7.6,27 c11.2-19.7,19.8-16.7,19.8-16.7c8.6,0.5,19,22.1,19,22.1c2.8-22.5,10.6-23.3,10.6-23.3c8-2.9,26.1,13.1,26.5,13.6 c-6.2-21.8,1.4-26.9,1.4-26.9s8.8-8.6,27.7,3.9c-0.4-0.5-13.2-18.6-8-25.4c0,0,6-10.3,28.3-6.2C237.6,533.3,217.3,520,219.5,511.6 z M210.1,510.9c0,0-2.5,12.8-9.6,24.2c0,0-6.9,10.3-17.9,18c-10.6,8.1-21.7,9.8-21.7,9.8c-13,3.3-26.3,0.9-26.3,0.9 c-13.2-1.9-22.4-8.1-22.4-8.1c-11.4-7-18.2-16.2-18.2-16.2c-8.1-10.7-11.4-22.2-11.4-22.2c-3.3-13-1.5-26.3-1.5-26.3 c1.9-13.2,7.7-23,7.7-23c6.9-11.4,18.3-20.2,18.3-20.2s9.8-7.9,22.8-11.1c0,0,12.3-3.3,25.5-1.1c0,0,12.9,2.1,24.3,9.2 c0,0,10.9,6.5,18.6,17.4c0,0,7.6,10.2,10.7,23.2C209,485.4,212.3,497.7,210.1,510.9z" style="fill: rgb(254, 209, 11);"/>
      <path d="M 211.099991 500.100006 A 65.199997 65.199997 0 0 1 145.899994 565.300003 A 65.199997 65.199997 0 0 1 80.699997 500.100006 A 65.199997 65.199997 0 0 1 145.899994 434.900009 A 65.199997 65.199997 0 0 1 211.099991 500.100006 Z" class="st1" style="fill: rgb(255, 255, 255);"/>
      <linearGradient id="SVGID_1_" gradientUnits="userSpaceOnUse" x1="94.1897" y1="470.245" x2="197.6103" y2="529.955">
        <stop offset="0" style="stop-color:#4EC6EF"/>
        <stop offset="1" style="stop-color:#1560A5"/>
      </linearGradient>
      <path d="M 205.599995 500.100006 A 59.700001 59.700001 0 0 1 145.899994 559.800007 A 59.700001 59.700001 0 0 1 86.199993 500.100006 A 59.700001 59.700001 0 0 1 145.899994 440.400005 A 59.700001 59.700001 0 0 1 205.599995 500.100006 Z" class="st2" style="fill: url('#SVGID_1_');"/>
      <linearGradient id="SVGID_2_" gradientUnits="userSpaceOnUse" x1="94.1672" y1="470.2603" x2="197.5333" y2="529.9387">
        <stop offset="0" style="stop-color:#4EC6EF"/>
        <stop offset="1" style="stop-color:#1560A5"/>
      </linearGradient>
      <path class="st3" d="M205.5,500.1c0,33-26.7,59.7-59.7,59.7c-20.2,0-38-10-48.8-25.4c-6.8-9.7-10.8-21.5-10.8-34.3 c0-33,26.7-59.7,59.7-59.7c10.1,0,19.5,2.5,27.9,6.9C192.6,457.4,205.5,477.2,205.5,500.1z" style="fill: url('#SVGID_2_');"/>
      <path d="M 105.699997 454.299988 L 179.699997 451.299988" class="st4" style="fill: none; stroke: rgb(255, 255, 255); stroke-miterlimit: 10;"/>
      <path d="M 87.699997 483.799988 L 199.600006 474.399994" class="st4" style="fill: none; stroke: rgb(255, 255, 255); stroke-miterlimit: 10;"/>
      <path d="M 86.699997 515.5 L 205.199997 498.799988" class="st4" style="fill: none; stroke: rgb(255, 255, 255); stroke-miterlimit: 10;"/>
      <path d="M 106 544.799988 L 200 526.299988" class="st4" style="fill: none; stroke: rgb(255, 255, 255); stroke-miterlimit: 10;"/>
      <path d="M 105 454.700012 L 123.5 556.299988" class="st4" style="fill: none; stroke: rgb(255, 255, 255); stroke-miterlimit: 10;"/>
      <path d="M 128.699997 440.399994 L 153.800003 559" class="st5" style="fill: none;"/>
      <path d="M 153 438.799988 L 178.300003 550.200012" class="st4" style="fill: none; stroke: rgb(255, 255, 255); stroke-miterlimit: 10;"/>
      <path d="M 178.800003 448.600006 L 198.399994 531.700012" class="st4" style="fill: none; stroke: rgb(255, 255, 255); stroke-miterlimit: 10;"/>
      <path d="M 111.0999984741211 487.70001220703125 L 104.0999984741211 482.3999938964844 L 109.0999984741211 476.79998779296875 L 115.69999694824219 481.6000061035156 Z" class="st1" style="fill: rgb(255, 255, 255);"/>
      <path d="M 116.5999984741211 516.9000244140625 L 109.5999984741211 512.2999877929688 L 114.5999984741211 506 L 121.19999694824219 510.70001220703125 Z" class="st1" style="fill: rgb(255, 255, 255);"/>
      <path d="M 122.0999984741211 547.5999755859375 L 115.4000015258789 543 L 119.80000305175781 536 L 127 540.7000122070312 Z" class="st1" style="fill: rgb(255, 255, 255);"/>
      <path d="M 150.10000610351562 541.9000244140625 L 143.39999389648438 537.5 L 147.8000030517578 531 L 154.1999969482422 535.2999877929688 Z" class="st1" style="fill: rgb(255, 255, 255);"/>
      <path d="M 174.89999389648438 536.5 L 169.10000610351562 532.2999877929688 L 173.10000610351562 526.5 L 179.5 530.4000244140625 Z" class="st1" style="fill: rgb(255, 255, 255);"/>
      <path d="M 198.60000610351562 533.5 L 191.6999969482422 528.2000122070312 L 196.1999969482422 522.7000122070312 L 203.3000030517578 527.4000244140625 Z" class="st1" style="fill: rgb(255, 255, 255);"/>
      <path d="M 144.10000610351562 513.7000122070312 L 137.10000610351562 508.3999938964844 L 142.10000610351562 502.79998779296875 L 148.6999969482422 506.79998779296875 Z" class="st1" style="fill: rgb(255, 255, 255);"/>
      <path d="M 169 510.20001220703125 L 162 504.8999938964844 L 167 499.29998779296875 L 173.60000610351562 503.29998779296875 Z" class="st1" style="fill: rgb(255, 255, 255);"/>
      <path d="M 192.8000030517578 507.29998779296875 L 185.5 501.70001220703125 L 189.89999389648438 495.70001220703125 L 197.10000610351562 499.70001220703125 Z" class="st1" style="fill: rgb(255, 255, 255);"/>
      <path d="M 138.3000030517578 485.5 L 131.3000030517578 480.20001220703125 L 136 474.8999938964844 L 142.60000610351562 479.20001220703125 Z" class="st1" style="fill: rgb(255, 255, 255);"/>
      <path d="M 163.1999969482422 483.3999938964844 L 156.3000030517578 478 L 160.6999969482422 472.6000061035156 L 167.10000610351562 477.1000061035156 Z" class="st1" style="fill: rgb(255, 255, 255);"/>
      <path d="M 157.3000030517578 457.70001220703125 L 151 452.5 L 154.89999389648438 447 L 161.10000610351562 452.1000061035156 Z" class="st1" style="fill: rgb(255, 255, 255);"/>
      <path d="M 132.39999389648438 458.20001220703125 L 126.30000305175781 453.5 L 130.3000030517578 447.70001220703125 L 136.89999389648438 452.79998779296875 Z" class="st1" style="fill: rgb(255, 255, 255);"/>
      <path d="M 106 459.70001220703125 L 101.5999984741211 455.70001220703125 L 105.19999694824219 451.8999938964844 L 110.0999984741211 454.1000061035156 Z" class="st1" style="fill: rgb(255, 255, 255);"/>
      <path d="M 180.6999969482422 456.70001220703125 L 174.39999389648438 451.5 L 178.3000030517578 446 L 185.1999969482422 451.1000061035156 Z" class="st1" style="fill: rgb(255, 255, 255);"/>
      <path d="M 186.5 481.29998779296875 L 179.5 476.1000061035156 L 183.89999389648438 470.6000061035156 L 190.3000030517578 475.20001220703125 Z" class="st1" style="fill: rgb(255, 255, 255);"/>
      <linearGradient id="SVGID_3_" gradientUnits="userSpaceOnUse" x1="103.025" y1="458.625" x2="137.95" y2="493.55">
        <stop offset="0" style="stop-color:#4EC6EF;stop-opacity:0"/>
        <stop offset="1" style="stop-color:#000000;stop-opacity:0.2"/>
      </linearGradient>
      <path class="st6" d="M173.7,447.4c-45.2,26.2-71.9,77.4-76.7,87.1c-6.8-9.7-10.8-21.5-10.8-34.3c0-33,26.7-59.7,59.7-59.7 C155.9,440.5,165.4,443,173.7,447.4z" style="fill: url('#SVGID_3_');"/>
    </g>
    
    <g class="st7">
      
      
      
      
      
      
      
    </g>
  </g></g></svg>