<svg xmlns="http://www.w3.org/2000/svg" width="100" height="100" viewBox="0 0 100 100">
  <g id="leafy-black" transform="translate(-18.02 -18.02)">
    <circle id="Ellipse_1" data-name="Ellipse 1" cx="50" cy="50" r="50" transform="translate(18.02 18.02)"/>
    <path id="Path_1" data-name="Path 1" d="M138.16,380.871h11.476V378h-8.251V358.33H138.16Z" transform="translate(-107.677 -305.007)" fill="#fff"/>
    <path id="Path_2" data-name="Path 2" d="M572.226,358.33a3.845,3.845,0,0,0-3.912,4.04v2.365H565.87v2.723h2.444v13.413h3.234l.026-13.413h4.016v-2.723h-4.016V362.99c-.026-1.369.615-1.792,1.74-1.792h2.434V358.33h-3.521Z" transform="translate(-491.017 -305.007)" fill="#fff"/>
    <path id="Path_3" data-name="Path 3" d="M671.51,358.33v18.919a3.7,3.7,0,0,0,4.05,3.623h1.721V378h-1.473c-.675,0-1.08-.522-1.08-1.826V358.33Z" transform="translate(-585.698 -305.007)" fill="#fff"/>
    <path id="Path_4" data-name="Path 4" d="M417.738,417.3l-.245,2.24a5.163,5.163,0,0,0-4.88-2.561c-4.191,0-7.514,3.321-7.514,8.382s3.223,8.383,7.352,8.383a5.451,5.451,0,0,0,5-2.637l.289,2.315H420.7V417.3Zm-4.861,13.447c-2.739,0-4.694-2.253-4.694-5.45s1.914-5.451,4.694-5.451,4.584,2.22,4.584,5.451S415.6,430.748,412.877,430.748Z" transform="translate(-346.925 -357.572)" fill="#fff"/>
    <path id="Path_5" data-name="Path 5" d="M262.436,425.218c-.021-5.683-3.5-8.158-7.519-8.158-4.42,0-7.777,3.419-7.777,8.325,0,5.1,3.08,8.453,8.036,8.453a6.978,6.978,0,0,0,7-5.162h-3.185a4.049,4.049,0,0,1-3.776,2.348c-3.064,0-4.611-1.907-4.872-4.775h12.093Zm-11.963-1.455a4.554,4.554,0,0,1,4.549-4.032,4.087,4.087,0,0,1,4.284,4.032Z" transform="translate(-205.351 -357.644)" fill="#fff"/>
    <path id="Path_6" data-name="Path 6" d="M709.6,420.08l5.646,16.136h1.017l-.451,1.356a3.331,3.331,0,0,1-2.868,2.582,3.862,3.862,0,0,1-2.389-.937l-1.356,2.348a5.556,5.556,0,0,0,3.873,1.564c3.427,0,5.036-2.238,5.97-5.106l6.069-17.943h-3.453l-4.227,12.949h-.05l-4.2-12.949H709.6Z" transform="translate(-619.478 -360.351)" fill="#fff"/>
    <path id="Path_7" data-name="Path 7" d="M829.526,541.98a1.9,1.9,0,0,0,0,3.8,1.9,1.9,0,0,0,0-3.8Z" transform="translate(-725.685 -469.605)" fill="#fff"/>
  </g>
</svg>
