<svg xmlns="http://www.w3.org/2000/svg" width="70" height="27.437" viewBox="0 0 70 27.437">
  <g id="Group_1" data-name="Group 1" transform="translate(-0.519 -11.704)">
    <path id="path857" d="M.519,11.7v21H11.208V30.028H3.522V11.7Zm47.25,0a3.582,3.582,0,0,0-3.644,3.763v2.2H41.848v2.536h2.276V32.7h3.012l.025-12.494H50.9V17.671H47.161V16.045c-.025-1.275.573-1.669,1.62-1.669h2.267V11.7H47.769Zm4.288,0V29.326A3.443,3.443,0,0,0,55.829,32.7h1.6V30.028H56.06c-.629,0-1.005-.486-1.005-1.7V11.7ZM33.312,17.371c-3.9,0-7,3.093-7,7.808s3,7.808,6.848,7.808a5.076,5.076,0,0,0,4.655-2.456l.27,2.157h2.76V17.671h-2.76l-.228,2.087A4.807,4.807,0,0,0,33.312,17.371Zm-15.018.007c-4.118,0-7.244,3.185-7.244,7.754,0,4.749,2.869,7.874,7.484,7.874a6.5,6.5,0,0,0,6.52-4.808H22.089a3.772,3.772,0,0,1-3.517,2.186c-2.854,0-4.3-1.776-4.538-4.448H25.3v-.959C25.279,19.684,22.04,17.379,18.295,17.379Zm37.777.292L61.331,32.7h.947l-.42,1.264a3.1,3.1,0,0,1-2.672,2.405,3.6,3.6,0,0,1-2.225-.872L55.7,37.684a5.175,5.175,0,0,0,3.607,1.457c3.192,0,4.691-2.084,5.561-4.756l5.653-16.714H67.3L63.365,29.733h-.046L59.408,17.671Zm-37.68,2.2a3.807,3.807,0,0,1,3.992,3.756H14.154A4.241,4.241,0,0,1,18.392,19.867Zm15.166.174c2.59,0,4.271,2.067,4.271,5.077S36.1,30.2,33.557,30.2s-4.373-2.1-4.373-5.077S30.968,20.041,33.557,20.041ZM68.85,29.45a1.77,1.77,0,0,0,0,3.538,1.772,1.772,0,0,0,0-3.538Z" transform="translate(0 0)" fill="#0b7d6c"/>
  </g>
</svg>
