<svg id="Layer_1" data-name="Layer 1" xmlns="http://www.w3.org/2000/svg" viewBox="0 0 966.64 162.36"><defs><style>.cls-1{fill:#76d40e;}</style></defs><path class="cls-1" d="M81.46,517.11l.2,58.45a2.74,2.74,0,0,1-2.73,2.75H53.42a2.59,2.59,0,0,1-2.59-2.6v-53.4l-.48-2.17a3,3,0,0,0-2.24-2.26c-4.36-1-15.76-4.91-24.53-18.32-5.88-9-6.79-23.57-6.9-29.85a3,3,0,0,1,3-3l25,.05a3.86,3.86,0,0,1,3.84,3.43c.45,4,1.3,10.52,2.38,13,2.41,5.66,6.55,5.74,6.55,5.74s9.45-13.32,22.49-19.52c9.29-4.41,27-10.67,47-3.59C165.77,479.57,164,515.76,164,515.76v59.93a2.62,2.62,0,0,1-2.62,2.62H134.61a2.62,2.62,0,0,1-2.62-2.62V514.3c-.82-12.89-13.86-22.07-26.32-22C94.7,492.28,82.8,501.58,81.46,517.11Z" transform="translate(-16.68 -418.82)"/><path class="cls-1" d="M287.07,553.83a4.41,4.41,0,0,1,.35,6.75c-5.09,4.71-10.1,9-15.37,12.13-10.05,5.94-20.85,8.47-33.36,8.47-17.43,0-30.82-5.37-42.2-16.11s-18-26.34-16.91-44.37c1.06-17,4-26.92,15.74-38.91a56.19,56.19,0,0,1,41.23-17.21c15.79,0,29.84,3.76,40.54,13.65a44.78,44.78,0,0,1,12.11,17.82c2.17,5.48,4.43,11.71,4.43,19.1v10.31a4.42,4.42,0,0,1-4.42,4.42H208.82c1,7.88,4.24,13.53,11,17.7,5.81,3.59,11.81,6.16,18.78,6,13.57-.37,20.47-5.12,26.86-11.38a4.42,4.42,0,0,1,5.76-.36Zm-32.76-58.51a26.88,26.88,0,0,0-16.9-6.1c-6.33,0-13.44,1.87-18.7,5.71s-8.08,7.92-8.93,14.46h52.59C261.65,502.56,258.72,499,254.31,495.32Z" transform="translate(-16.68 -418.82)"/><path class="cls-1" d="M334.28,467l22.53,34.46L380,467h29.75a2.94,2.94,0,0,1,2.45,4.56l-34.63,52.33,35.79,49.74a2.94,2.94,0,0,1-2.38,4.66H379.71l-23-32.48-22.38,32.48H303.09a2.94,2.94,0,0,1-2.4-4.62l34.82-49.86-34.33-52.26a2.94,2.94,0,0,1,2.46-4.55Z" transform="translate(-16.68 -418.82)"/><path class="cls-1" d="M481.77,493.57a3.75,3.75,0,0,0-3.75,3.75V538q0,6.62,3.42,10.35a10.6,10.6,0,0,0,8.1,3.73c4.06,0,11.73,0,16.25.05a3.63,3.63,0,0,1,3.61,3.6l.2,18.37a3.61,3.61,0,0,1-2.74,3.56,69.68,69.68,0,0,1-24.6,1.64c-10.86-1.37-20.4-6.84-23.87-10.15Q447,558.26,447,539.47V497.32a3.75,3.75,0,0,0-3.75-3.75H427.83a3.64,3.64,0,0,1-3.64-3.64V470.66a3.64,3.64,0,0,1,3.64-3.64h14.23a3.74,3.74,0,0,0,3.74-3.75V438.64a3.64,3.64,0,0,1,3.64-3.64h24.94a3.64,3.64,0,0,1,3.64,3.64v24.63a3.75,3.75,0,0,0,3.75,3.75H501a3.64,3.64,0,0,1,3.64,3.64v19.27a3.64,3.64,0,0,1-3.64,3.64Z" transform="translate(-16.68 -418.82)"/><path class="cls-1" d="M572.12,581.18c-13.58,0-25.71-6.93-36.38-18.45s-14.83-23.48-14.83-40.55,4.86-27.66,14.45-39.43A48.4,48.4,0,0,1,573,464.36c13.93-.28,24.08,4.48,32.9,14.29v-56a3.87,3.87,0,0,1,3.87-3.87h23.1a3.87,3.87,0,0,1,3.87,3.87V574.44a3.87,3.87,0,0,1-3.87,3.87h-23.1a3.87,3.87,0,0,1-3.87-3.87v-9C597,576.73,585.7,581.18,572.12,581.18ZM552,521.12q0,13.88,8.32,22.73t19.42,8.85c7.39,0,16-1.78,21.22-7.69s7.78-13.51,7.78-22.82-2.59-14.74-7.78-20.93S587,492,579.48,492c-4,0-14.15,2.29-20.09,9C553.76,507.37,552,516.74,552,521.12Z" transform="translate(-16.68 -418.82)"/><path class="cls-1" d="M770.69,522.08q0,25-17.28,42T710,581.18c-17.43,0-29.57-5.69-41.09-17.07s-17.28-25.39-17.28-42,5.76-29.52,17.28-41S692.56,464.5,710,464.5s30.73,5.16,42.25,16.61S770.69,505.44,770.69,522.08ZM690.07,543c5.33,5.9,11.59,9.73,19.92,9.73s15.14-1.78,20.48-7.69,8-13.54,8-22.93c0-4.92-2.18-16-8.65-22.08a25,25,0,0,0-19.11-7.46,29.44,29.44,0,0,0-21.09,10.38c-5.76,6.57-6.74,16.52-6.67,20.77C683.09,532.31,687.4,540,690.07,543Z" transform="translate(-16.68 -418.82)"/><path class="cls-1" d="M900.32,522.08q0,25-17.28,42t-43.42,17.07c-17.43,0-29.56-5.69-41.08-17.07s-17.29-25.39-17.29-42,5.76-29.52,17.29-41,23.66-16.61,41.08-16.61,30.73,5.16,42.25,16.61S900.32,505.44,900.32,522.08ZM819.7,543c5.34,5.9,11.6,9.73,19.92,9.73s15.15-1.78,20.48-7.69,8-13.54,8-22.93c0-4.92-2.19-16-8.66-22.08a25,25,0,0,0-19.11-7.46,29.41,29.41,0,0,0-21.08,10.38c-5.77,6.57-6.75,16.52-6.68,20.77C812.72,532.31,817,540,819.7,543Z" transform="translate(-16.68 -418.82)"/><path class="cls-1" d="M975.17,495.43a24.84,24.84,0,0,0-8.21-.36,21.18,21.18,0,0,0-16.26,9.08c-4.69,6.76-4.7,13.35-4.7,24.44v46.92a2.79,2.79,0,0,1-2.79,2.8H918a2.8,2.8,0,0,1-2.8-2.8V469.67a2.79,2.79,0,0,1,2.8-2.79h25.1a2.79,2.79,0,0,1,2.79,2.8v13.66c2-2.26,6.14-10.94,14.76-14.68,6.36-2.76,10.86-3.15,14.16-3a20.08,20.08,0,0,1,8.51,2.14l0,27.14a5.39,5.39,0,0,1-3.5,1.31A12.15,12.15,0,0,1,975.17,495.43Z" transform="translate(-16.68 -418.82)"/></svg>