<svg xmlns="http://www.w3.org/2000/svg" width="300" height="50.401" viewBox="0 0 300 50.401">
  <g id="nextdoor" transform="translate(0 0.04)">
    <path id="Path_1" data-name="Path 1" d="M36.785,479.533l.062,18.14a.85.85,0,0,1-.847.853H28.082a.8.8,0,0,1-.8-.807V481.147l-.149-.673a.931.931,0,0,0-.7-.7,12.808,12.808,0,0,1-7.613-5.686c-1.825-2.793-2.107-7.315-2.141-9.264a.931.931,0,0,1,.931-.931l7.759.016a1.2,1.2,0,0,1,1.192,1.064,20.153,20.153,0,0,0,.739,4.035c.748,1.757,2.033,1.781,2.033,1.781a21.109,21.109,0,0,1,6.98-6.058A19.022,19.022,0,0,1,50.9,463.615c12.051,4.267,11.5,15.5,11.5,15.5v18.6a.813.813,0,0,1-.813.813H53.28a.813.813,0,0,1-.813-.813V478.661c-.254-4-4.3-6.85-8.169-6.828C40.894,471.827,37.2,474.713,36.785,479.533Z" transform="translate(-16.68 -449.056)" fill="#76d40e"/>
    <path id="Path_2" data-name="Path 2" d="M212.859,492.276a1.369,1.369,0,0,1,.109,2.095,29.391,29.391,0,0,1-4.77,3.765,19.624,19.624,0,0,1-10.353,2.629,18.009,18.009,0,0,1-13.1-5,17.178,17.178,0,0,1-5.248-13.77c.329-5.276,1.241-8.355,4.885-12.076a17.439,17.439,0,0,1,12.8-5.341c4.9,0,9.261,1.167,12.582,4.236a13.9,13.9,0,0,1,3.758,5.53,15.73,15.73,0,0,1,1.375,5.928v3.2a1.372,1.372,0,0,1-1.372,1.372H188.574a6.957,6.957,0,0,0,3.414,5.493,10.473,10.473,0,0,0,5.828,1.862,11.062,11.062,0,0,0,8.336-3.532,1.372,1.372,0,0,1,1.788-.112Zm-10.167-18.159a8.343,8.343,0,0,0-5.245-1.893,10.156,10.156,0,0,0-5.8,1.772,6.079,6.079,0,0,0-2.771,4.488h16.321A5.974,5.974,0,0,0,202.692,474.117Z" transform="translate(-128.943 -450.402)" fill="#76d40e"/>
    <path id="Path_3" data-name="Path 3" d="M310.751,467l6.992,10.695L324.94,467h9.233a.912.912,0,0,1,.76,1.415l-10.748,16.241,11.108,15.437a.912.912,0,0,1-.739,1.446h-9.7l-7.138-10.08-6.946,10.08h-9.7a.912.912,0,0,1-.745-1.434l10.806-15.474-10.654-16.219a.912.912,0,0,1,.763-1.412Z" transform="translate(-212.183 -452.075)" fill="#76d40e"/>
    <path id="Path_4" data-name="Path 4" d="M442.06,453.177a1.164,1.164,0,0,0-1.164,1.164v12.625a4.576,4.576,0,0,0,1.061,3.212,3.29,3.29,0,0,0,2.514,1.158c1.26,0,3.64,0,5.043.016a1.127,1.127,0,0,1,1.12,1.117l.062,5.7a1.12,1.12,0,0,1-.85,1.1,21.627,21.627,0,0,1-7.635.509,14.716,14.716,0,0,1-7.408-3.15q-3.535-3.38-3.535-9.211V454.341a1.164,1.164,0,0,0-1.164-1.164H425.32a1.13,1.13,0,0,1-1.13-1.13v-5.981a1.13,1.13,0,0,1,1.13-1.13h4.416a1.161,1.161,0,0,0,1.161-1.164V436.13a1.13,1.13,0,0,1,1.13-1.13h7.74a1.13,1.13,0,0,1,1.13,1.13v7.644a1.164,1.164,0,0,0,1.164,1.164h5.968a1.13,1.13,0,0,1,1.13,1.13v5.981a1.13,1.13,0,0,1-1.13,1.13Z" transform="translate(-297.718 -430.006)" fill="#76d40e"/>
    <path id="Path_5" data-name="Path 5" d="M536.8,469.181c-4.215,0-7.979-2.151-11.291-5.726s-4.6-7.287-4.6-12.585a17.465,17.465,0,0,1,4.485-12.237,15.021,15.021,0,0,1,11.682-5.707,12.444,12.444,0,0,1,10.211,4.435v-17.38a1.2,1.2,0,0,1,1.2-1.2h7.169a1.2,1.2,0,0,1,1.2,1.2V467.09a1.2,1.2,0,0,1-1.2,1.2h-7.169a1.2,1.2,0,0,1-1.2-1.2V464.3A12.476,12.476,0,0,1,536.8,469.181Zm-6.244-18.64a9.885,9.885,0,0,0,2.582,7.054,8.029,8.029,0,0,0,6.027,2.747c2.294,0,4.966-.552,6.586-2.387a10.29,10.29,0,0,0,2.415-7.082,9.026,9.026,0,0,0-9.081-9.37,9.507,9.507,0,0,0-6.235,2.793A10.429,10.429,0,0,0,530.559,450.542Z" transform="translate(-364.421 -418.82)" fill="#76d40e"/>
    <path id="Path_6" data-name="Path 6" d="M688.581,482.37a17.561,17.561,0,0,1-5.363,13.035,18.537,18.537,0,0,1-13.472,5.307,16.769,16.769,0,0,1-12.752-5.3,17.612,17.612,0,0,1-5.363-13.035,16.976,16.976,0,0,1,5.363-12.724,16.542,16.542,0,0,1,12.752-5.155c5.413,0,9.537,1.6,13.112,5.155S688.581,477.206,688.581,482.37Zm-25.021,6.493a8.068,8.068,0,0,0,6.182,3.02c2.585,0,4.7-.552,6.356-2.387a10.2,10.2,0,0,0,2.483-7.116c0-1.527-.677-4.966-2.685-6.853a7.759,7.759,0,0,0-5.931-2.315,9.137,9.137,0,0,0-6.545,3.221,10.269,10.269,0,0,0-2.07,6.446A10.145,10.145,0,0,0,663.56,488.863Z" transform="translate(-454.571 -450.351)" fill="#76d40e"/>
    <path id="Path_7" data-name="Path 7" d="M818.2,482.349a17.561,17.561,0,0,1-5.363,13.035,18.508,18.508,0,0,1-13.476,5.3,16.762,16.762,0,0,1-12.749-5.3,17.614,17.614,0,0,1-5.366-13.035,16.968,16.968,0,0,1,5.366-12.724,16.548,16.548,0,0,1,12.749-5.155c5.406,0,9.537,1.6,13.112,5.155S818.2,477.185,818.2,482.349Zm-25.021,6.493a8.077,8.077,0,0,0,6.182,3.02c2.582,0,4.7-.552,6.356-2.387a10.214,10.214,0,0,0,2.483-7.116c0-1.527-.68-4.966-2.688-6.853a7.759,7.759,0,0,0-5.931-2.315,9.127,9.127,0,0,0-6.542,3.221,10.256,10.256,0,0,0-2.073,6.446A10.1,10.1,0,0,0,793.183,488.842Z" transform="translate(-543.963 -450.33)" fill="#76d40e"/>
    <path id="Path_8" data-name="Path 8" d="M933.812,474.88a7.709,7.709,0,0,0-2.548-.112,6.573,6.573,0,0,0-5.046,2.818c-1.456,2.1-1.459,4.143-1.459,7.585v14.562a.866.866,0,0,1-.866.869h-7.824a.869.869,0,0,1-.869-.869V466.885a.866.866,0,0,1,.869-.866h7.79a.866.866,0,0,1,.866.869v4.239c.621-.7,1.906-3.4,4.581-4.556a9.593,9.593,0,0,1,4.395-.931,6.232,6.232,0,0,1,2.641.664v8.423a1.673,1.673,0,0,1-1.086.407A3.772,3.772,0,0,1,933.812,474.88Z" transform="translate(-636.341 -451.132)" fill="#76d40e"/>
  </g>
</svg>
