<svg xmlns="http://www.w3.org/2000/svg" width="120" height="22.363" viewBox="0 0 120 22.363">
  <g id="oneflare" transform="translate(-6.079 -54.028)">
    <g id="Group_18" data-name="Group 18" transform="translate(6.079 54.028)">
      <path id="Path_127" data-name="Path 127" d="M15.736,54.143a1.356,1.356,0,0,1,.169,1.582,23.155,23.155,0,0,0-1.426,3.4c-.082.375-.283.749-.079,1.153a.31.31,0,0,0,.376.146c.688-.233.957-.937,1.32-1.464a14.384,14.384,0,0,1,4.081-3.874,4.062,4.062,0,0,1,2.511-.719,1.082,1.082,0,0,1,.986.5c.238.447-.134.723-.381.993-.965,1.05-2.029,2.015-2.917,3.129a15.277,15.277,0,0,0-.985,1.423.991.991,0,0,0,.506,1.653,6.863,6.863,0,0,1,2.729,2.066,4.189,4.189,0,0,0-1.884,2.232,6.289,6.289,0,0,0-2.176-1.427,3.727,3.727,0,0,0-4.729,2.388,3.63,3.63,0,0,0,2.213,4.5,3.881,3.881,0,0,0,4.895-2.135,6.351,6.351,0,0,0,.435-2.255c.033-1.239.741-2.061,1.723-2.078.859-.016,1.5.721,1.636,1.893.619,5.181-3.054,9.175-8.406,9.145C10.777,76.36,7.213,72.5,6.3,67.327a15.373,15.373,0,0,1,.5-7.265A3.682,3.682,0,0,1,8,58.256c.8-.635,1.277-.432,1.426.564a16.571,16.571,0,0,1,.2,3,1.273,1.273,0,0,0,.507,1.253.163.163,0,0,0,.248-.09C11.358,59.7,11.5,56,15.041,54.142A.571.571,0,0,1,15.736,54.143Z" transform="translate(-6.079 -54.028)" fill="#0c8688"/>
    </g>
    <g id="Group_19" data-name="Group 19" transform="translate(28.624 56.003)">
      <path id="Path_128" data-name="Path 128" d="M100.626,72.442c-.024-1.541-.007-3.081-.007-4.621V62.855c0-.938-.422-1.445-1.406-1.4-.385.016-.772.012-1.156,0-.719-.019-1.23.259-1.281,1.017-.044.674-.238.608-.627.222a4.624,4.624,0,0,0-3.193-1.423,6.187,6.187,0,0,0-6.371,6.892c.195,2.5,1.154,4.6,3.539,5.678a5.1,5.1,0,0,0,6.176-.991c.3-.306.357-.209.473.172.343,1.117,1.019,1.371,2.711,1.117C100.487,73.986,100.638,73.289,100.626,72.442Zm-7.153-1.052c-1.886-.079-3.116-1.59-3.039-3.737a3.326,3.326,0,0,1,3.324-3.4c1.86.077,3.137,1.628,3.073,3.739C96.768,70.157,95.466,71.47,93.474,71.389Z" transform="translate(-27.262 -55.881)" fill="#263133"/>
      <path id="Path_129" data-name="Path 129" d="M114.977,68.154c1.35.034,2.7.009,4.054.009,1.272,0,2.545.009,3.82,0,1.312-.015,1.571-.318,1.418-1.608-.42-3.554-3.122-5.7-7-5.555a6.586,6.586,0,0,0-6.569,6.319,6.289,6.289,0,0,0,3.79,6.1,8.205,8.205,0,0,0,8.347-.813.966.966,0,0,0,.222-1.43,1.455,1.455,0,0,0-2.152-.645,5.385,5.385,0,0,1-3.351.651,3.566,3.566,0,0,1-3.166-2.171C114.173,68.482,114.266,68.135,114.977,68.154Zm-.214-2.76a3.53,3.53,0,0,1,5.618-.408c.2.278.48.614.324.929-.1.2-.544.154-.83.163-.729.022-1.46.007-2.189.007-.846,0-1.692-.013-2.535.005C114.55,66.1,114.513,65.869,114.762,65.394Z" transform="translate(-26.853 -55.886)" fill="#263133"/>
      <path id="Path_130" data-name="Path 130" d="M61.7,68.165c1.275-.009,2.545,0,3.817,0,1.312,0,4.1-.009,4.181-.016.927-.068,1.161-.453,1.038-1.5-.438-3.718-3.24-5.9-7.251-5.648a6.579,6.579,0,0,0-6.111,4.954A6.226,6.226,0,0,0,60,72.911a8.327,8.327,0,0,0,8.789.052c.683-.385,1.242-.9.739-1.76a1.453,1.453,0,0,0-2.131-.7,7.349,7.349,0,0,1-1.392.547c-2.008.556-4.23-.2-5-1.674C60.5,68.411,60.631,68.17,61.7,68.165Zm-.6-2.7a3.155,3.155,0,0,1,2.833-1.674,3.087,3.087,0,0,1,2.958,1.42c.339.563.343.92-.482.883-.806-.037-1.615-.009-2.421-.009-.846,0-1.692-.013-2.535.005C60.9,66.1,60.863,65.864,61.094,65.466Z" transform="translate(-27.759 -55.886)" fill="#263133"/>
      <path id="Path_131" data-name="Path 131" d="M35.293,60.984a6.76,6.76,0,0,0-7.044,6.466,6.87,6.87,0,0,0,6.994,6.692A6.734,6.734,0,0,0,42.271,67.8,6.827,6.827,0,0,0,35.293,60.984Zm.115,10.228a3.62,3.62,0,1,1,3.284-3.595A3.457,3.457,0,0,1,35.408,71.212Z" transform="translate(-28.249 -55.886)" fill="#263133"/>
      <path id="Path_132" data-name="Path 132" d="M43.705,67.7q0-2.309,0-4.619c0-1.628.173-1.79,1.764-1.813,1.01-.015,2-.078,1.979,1.394-.005.308.116.33.457-.074a4.086,4.086,0,0,1,3.076-1.6,4.292,4.292,0,0,1,4.756,3.889,59.838,59.838,0,0,1,.163,7.841,1.092,1.092,0,0,1-1.091,1.129,6.512,6.512,0,0,1-.924.02c-1.419-.008-1.714-.287-1.723-1.669-.011-1.5,0-3-.005-4.5,0-.5-.013-1-.058-1.5a2.026,2.026,0,0,0-1.42-2.028,2.377,2.377,0,0,0-2.578.864,3.231,3.231,0,0,0-.717,2.257c.005,1.694-.008,3.387,0,5.081,0,.66-.1,1.4-.807,1.477a12.362,12.362,0,0,1-1.763.041H44.8a1.386,1.386,0,0,1-.966-.371.93.93,0,0,1-.206-.744c.024-1.69.077-3.382.077-5.073Z" transform="translate(-27.988 -55.886)" fill="#263133"/>
      <path id="Path_133" data-name="Path 133" d="M72.615,68.791c0-1.269-.016-2.539.007-3.808.009-.567-.036-.981-.782-.921-1.01.081-.929-.676-.954-1.336-.026-.695.106-1.239.99-1.189,1.04-.038.925.15.95-.633.4-3.48,1.767-4.731,5.259-4.913,1.674-.087,1.756.034,1.763,1.682,0,.909-.438,1.071-1.21,1.116-1.482.086-2.193.705-2.273,1.8-.026.974-.128.839.713.833.236-.009.478,0,.692-.008,1.087-.065,1.362.351,1.385,1.394.024,1.129-.376,1.328-1.424,1.306-1.583.041-1.408-.1-1.4,1.367.1,2.266.033,4.537.026,6.807,0,1.419-.31,1.67-1.963,1.666-1.527,0-1.778-.238-1.784-1.7C72.61,71.1,72.615,69.945,72.615,68.791Z" transform="translate(-27.527 -55.97)" fill="#263133"/>
      <path id="Path_134" data-name="Path 134" d="M80.828,65.347c0-2.345.026-4.692-.013-7.036-.016-1,.372-1.31,1.367-1.355,1.873-.086,2.277.21,2.283,1.358.024,4.768,0,9.537.016,14.3,0,1.212-.744,1.338-1.69,1.326-1.516-.02-1.942-.257-1.955-1.329C80.808,70.193,80.828,67.77,80.828,65.347Z" transform="translate(-27.359 -55.954)" fill="#263133"/>
      <path id="Path_135" data-name="Path 135" d="M102.655,67.431c0-1.576.029-3.154-.011-4.731-.026-1.047.442-1.485,1.46-1.432.384.02.77-.011,1.156.007a1.049,1.049,0,0,1,1.109,1.077c.024.3.058.6.087.9.394-.11.4-.523.594-.785a3.608,3.608,0,0,1,2.282-1.447c.892-.173,1.432.143,1.453,1.112.009.461.012.924,0,1.385-.025.7-.341,1-1.1.973a2.656,2.656,0,0,0-3.067,2.559,38.06,38.06,0,0,0-.146,5.183c-.03,1.377-.289,1.623-1.752,1.633-1.69.012-2.037-.238-2.057-1.591C102.638,70.662,102.655,69.048,102.655,67.431Z" transform="translate(-26.989 -55.886)" fill="#263133"/>
    </g>
  </g>
</svg>
