<?xml version="1.0" encoding="utf-8"?>
<!-- Generator: Adobe Illustrator 24.2.1, SVG Export Plug-In . SVG Version: 6.00 Build 0)  -->
<svg version="1.1" id="Layer_1" xmlns="http://www.w3.org/2000/svg" xmlns:xlink="http://www.w3.org/1999/xlink" x="0px" y="0px"
	 viewBox="0 0 1000 1000" style="enable-background:new 0 0 1000 1000;" xml:space="preserve">
<style type="text/css">
	.st0{fill:#FFFFFF;}
</style>
<circle cx="500.12" cy="500.2" r="493"/>
<path class="st0" d="M495.77,265.16c1.07-0.31,2.42-0.51,4.26-0.42c3.05,0.15,4.31,1.03,5.28,1.63
	c11.13,6.33,13.53,11.23,9.53,23.07c-3.19,9.44-7.07,18.72-11.51,27.65c-10.42,20.97-20.26,42.12-24.07,65.45
	c-0.38,2.32-0.4,4.7-0.3,7.1c0.19,4.7,5.7,7.13,9.24,4.04c1.8-1.58,3.54-3.21,5.04-5.04c6.87-8.36,12.96-17.36,19.87-25.68
	c22.28-26.85,46.52-51.68,75.36-71.65c17.42-12.06,36.09-21.4,57.73-21.35c10.19,0.03,21.56,1.68,25.88,13.19
	c3.97,10.59-3.96,17.91-10.24,24.72c-19.8,21.47-40.92,41.8-59.72,64.08c-10.37,12.28-17.45,27.43-25.34,41.66
	c-3.06,5.53-0.02,9.78,5.7,12.65c10.41,5.22,20.99,10.32,30.67,16.71c12.72,8.38,25.1,17.37,34.08,28.7
	c1.92,2.42,1.47,5.98-0.98,7.86c-8.15,6.26-16.43,11.83-22.55,19.2c-5.51,6.63-9.25,14.72-13.28,22.85
	c-1.77,3.57-6.61,4.18-9.22,1.16c-0.02-0.02-0.04-0.05-0.06-0.07c-24.69-28.56-62.56-40.77-96.86-23.77
	c-34.95,17.33-54.75,62.68-30.2,101.39c23.34,36.8,67.2,47.29,105.13,25.55c26.89-15.42,37.44-40.41,39.77-70.15
	c0.93-11.84,2.24-23.91,5.55-35.24c4.27-14.64,15.83-21.62,30.89-22.38c13.91-0.7,24.66,4.56,32.08,16.85
	c7.82,12.97,9.13,27.39,9.73,41.77c1.55,37.48-7.77,71.97-29.13,103.26c-21.9,32.08-51.07,53.99-88.2,64.84
	c-14.78,4.32-30.15,6.6-45.24,9.85c-10.52,0.06-20.7,0.12-31.22,0.18c-11.61-2.34-23.29-4.37-34.84-6.98
	c-52.49-11.87-92.69-41.53-122.27-85.87c-18.57-27.83-30.37-58.67-37.13-91.35c-7.96-38.53-8.66-77.4-2.18-116.13
	c3.7-22.12,7.62-44.49,18.72-64.52c7.11-12.83,16.01-24.13,30.98-28.61c11.52-3.45,18.33,0.05,19.57,12.03
	c1.96,19.03,2.34,38.21,3.75,57.3c0.73,9.95,1.72,19.94,3.61,29.72c0.1,0.54,0.26,1.06,0.47,1.58c1.97,4.99,9.25,4.43,10.57-0.78
	c1.8-7.11,3.63-14.22,4.94-21.42c6.21-34.06,14.87-67.28,32.22-97.62C446.68,296.24,464.58,273.54,495.77,265.16z"/>
</svg>
