<svg xmlns="http://www.w3.org/2000/svg" width="135" height="25.991" viewBox="0 0 135 25.991">
  <g id="quickbooks" transform="translate(-0.8 -0.5)">
    <path id="Path_136" data-name="Path 136" d="M135.133,20.217c0-.256-.256-.358-.486-.358h-.436v1.28h.231v-.512h.179l.282.512h.281l-.332-.563a.356.356,0,0,0,.281-.333Zm-.691.205v-.358h.205c.128,0,.256.025.256.179s-.154.179-.282.179Zm.205-1.024a.8.8,0,1,0,.025-.026.025.025,0,0,0-.025.026Zm0,2.048a.973.973,0,1,1,.973-.973V20.5a.973.973,0,0,1-.973.973ZM61.411,19.577A2.683,2.683,0,0,1,58.9,16.632a2.521,2.521,0,0,1,4.4-2l1.741-1.767a5.364,5.364,0,0,0-9.013,3.79,5.089,5.089,0,0,0,5.377,5.249A4.979,4.979,0,0,0,65.1,20.576l-1.716-1.844A2.73,2.73,0,0,1,61.411,19.577Zm-9.858,2.049h2.765v-9.91h-2.74Zm-4.994-4.482a2.267,2.267,0,0,1-2.151,2.407c-1.1,0-1.69-.768-1.69-2.381V11.741h-2.74v6.146c0,2.049,1.025,4.046,3.765,4.046a3.884,3.884,0,0,0,2.893-1.793h.051v1.511H49.3V11.716h-2.74ZM35.036,12.971h-.051a4.187,4.187,0,0,0-3.124-1.537,4.945,4.945,0,0,0-4.942,5.2c0,3.073,2,5.275,4.814,5.275a4.337,4.337,0,0,0,3.175-1.485h.051v6.069h2.715V11.716H35.062ZM32.4,19.577a2.772,2.772,0,0,1-2.663-2.945A2.692,2.692,0,0,1,32.4,13.739a2.806,2.806,0,0,1,2.612,2.919A2.788,2.788,0,0,1,32.4,19.577Zm62.3-8.143a5.121,5.121,0,0,0-5.377,5.2,5.378,5.378,0,0,0,10.755,0A5.107,5.107,0,0,0,94.7,11.434Zm0,8.143a2.675,2.675,0,0,1-2.586-2.945A2.647,2.647,0,0,1,94.7,13.739a2.688,2.688,0,0,1,2.638,2.893A2.7,2.7,0,0,1,94.7,19.577Zm34.211-4.046c-1.409-.333-1.921-.512-1.921-1.1,0-.768,1.025-.947,1.46-.947a3.208,3.208,0,0,1,2.176.973l1.614-1.537a4.968,4.968,0,0,0-3.764-1.459c-2,0-4.072,1-4.072,3.2,0,1.92,1.511,2.483,2.97,2.842,1.537.358,2.1.614,2.1,1.255,0,.9-1.024,1.05-1.408,1.05a3.575,3.575,0,0,1-2.484-1.178l-1.664,1.69a5.453,5.453,0,0,0,4.045,1.613c2.689,0,4.277-1.28,4.277-3.38,0-2-1.946-2.689-3.329-3.022Zm-5.2-3.815h-3.534l-3.534,4.1h-.051V6.262h-2.74V21.626h2.74V16.76h.051l3.662,4.866h3.585l-4.251-5.4ZM83.151,11.46a4.3,4.3,0,0,0-3.072,1.331h-.026V6.262h-2.74V21.626h2.612V20.217h.051a3.686,3.686,0,0,0,3.1,1.665,4.98,4.98,0,0,0,4.967-5.25,4.9,4.9,0,0,0-4.891-5.2Zm-.537,8.117a2.761,2.761,0,0,1-2.638-2.919,2.8,2.8,0,0,1,2.638-2.919,2.687,2.687,0,0,1,2.637,2.893A2.751,2.751,0,0,1,82.614,19.577Zm-6.325-7.861H72.755l-3.534,4.1H69.17V6.262H66.43V21.626h2.74V16.76h.051l3.662,4.866h3.585l-4.225-5.4Zm30.421-.256a5.1,5.1,0,0,0-5.378,5.172,5.378,5.378,0,0,0,10.755,0,5.121,5.121,0,0,0-5.377-5.2Zm0,8.117a2.7,2.7,0,0,1-2.612-2.945,2.614,2.614,0,1,1,5.2,0A2.691,2.691,0,0,1,106.71,19.577Z"/>
    <circle id="Ellipse_1" data-name="Ellipse 1" cx="11.523" cy="11.523" r="11.523" transform="translate(0.8 0.5)" fill="#2ca01c"/>
    <path id="Path_137" data-name="Path 137" d="M4,12.023A4.469,4.469,0,0,0,8.482,16.5h.64V14.84h-.64a2.817,2.817,0,1,1,0-5.634h1.536v8.707a1.662,1.662,0,0,0,1.665,1.664h0V7.542h-3.2A4.469,4.469,0,0,0,4,12.023ZM16.164,7.542h-.64V9.206h.64a2.817,2.817,0,1,1,0,5.634H14.628V6.133a1.662,1.662,0,0,0-1.665-1.664V16.5h3.2a4.481,4.481,0,1,0,0-8.962Z" fill="#fff"/>
    <path id="Path_138" data-name="Path 138" d="M38.186,3.137a.754.754,0,0,0,.768-.768.768.768,0,1,0-1.536,0A.754.754,0,0,0,38.186,3.137Zm-4.532.513a1.7,1.7,0,0,0-1.537.947h-.051V3.778H30.888V8.822h1.255V6.057A1.233,1.233,0,0,1,33.321,4.7c.793,0,.947.742.947,1.331V8.848h1.255v-3.2A1.844,1.844,0,0,0,33.654,3.6V3.65ZM28.327,8.822h1.281V3.778H28.327Zm22.918-5.71a.755.755,0,0,0,.769-.768.768.768,0,1,0-1.537,0A.755.755,0,0,0,51.245,3.112ZM49.2,3.778V4.9H50.6V8.822h1.281V4.9h1.408V3.778ZM47.046,8.822h1.28V3.778h-1.28ZM36.163,4.9h1.408V8.822h1.281V4.9H40.26V3.778h-4.1Zm8.348,1.665a1.233,1.233,0,0,1-1.178,1.357c-.794,0-.948-.768-.948-1.357V3.778H41.1V6.927a1.858,1.858,0,0,0,1.869,2.049,1.743,1.743,0,0,0,1.562-.948h.026v.82h1.2V3.778H44.485l.026,2.791Z"/>
  </g>
</svg>
