<?xml version="1.0" encoding="utf-8"?>
<!-- Generator: Adobe Illustrator 24.2.1, SVG Export Plug-In . SVG Version: 6.00 Build 0)  -->
<svg version="1.1" id="Layer_1" xmlns="http://www.w3.org/2000/svg" xmlns:xlink="http://www.w3.org/1999/xlink" x="0px" y="0px"
	 viewBox="0 0 1000 1000" style="enable-background:new 0 0 1000 1000;" xml:space="preserve">
<style type="text/css">
	.st0{fill:#FFFFFF;}
</style>
<circle cx="500" cy="500" r="493"/>
<path class="st0" d="M245.23,500.98c0,76.04,61.14,137.18,137.18,137.18h19.6v-50.95h-19.6c-47.82,0-86.23-38.41-86.23-86.23
	s38.41-86.23,86.23-86.23h47.03v266.53c0,28.22,22.73,50.95,50.95,50.95l0,0V363.8h-97.99C306.38,363.8,245.23,424.94,245.23,500.98
	z M617.58,363.8h-19.6v50.95h19.6c47.82,0,86.23,38.41,86.23,86.23s-38.41,86.23-86.23,86.23h-47.03V320.68
	c0-28.22-22.73-50.95-50.95-50.95v368.43h97.99c76.04,0,137.18-61.14,137.18-137.18S693.62,363.8,617.58,363.8z"/>
</svg>
