<svg xmlns="http://www.w3.org/2000/svg" width="130" height="20.454" viewBox="0 0 130 20.454">
  <g id="saasworthy" transform="translate(-2.702 -57.045)">
    <g id="Group_20" data-name="Group 20" transform="translate(2.702 57.045)">
      <path id="Path_139" data-name="Path 139" d="M128.939,71.589a4.065,4.065,0,0,1-2.709,1.571,3.727,3.727,0,0,1-4.728-3.779c-.027-2.411-.014-4.823-.014-7.247a4.7,4.7,0,0,1,.054-.569h2.56c.014.19.041.379.041.582.041,2.073.068,4.145.122,6.218.027,1.287.555,2.073,1.49,2.3a2.189,2.189,0,0,0,2.52-1.382c.19.135.379.284.732.528v-8.25h2.7a6.861,6.861,0,0,1,.068.759c0,3.089.027,6.177-.014,9.266a9.417,9.417,0,0,1-.3,2.208,4.517,4.517,0,0,1-3.481,3.4,7.706,7.706,0,0,1-3.685.081c-1.951-.447-3.183-1.626-2.736-4.037a3.1,3.1,0,0,1,.312.23,4.954,4.954,0,0,0,5.066,1.219A2.725,2.725,0,0,0,128.939,71.589Z" transform="translate(-1.78 -57.01)" fill="#036fa2"/>
      <path id="Path_140" data-name="Path 140" d="M69.285,73.108H67.524q-1.24-3.251-2.479-6.529l-.2-.041q-1.28,3.271-2.56,6.556H60.521c-1.368-3.82-2.736-7.627-4.132-11.514h2.669c.772,2.14,1.558,4.321,2.4,6.678.19-.406.312-.61.393-.826.582-1.49,1.138-2.994,1.734-4.47a1.888,1.888,0,0,1,2.195-1.4c.8,2.1,1.612,4.24,2.506,6.57a8.117,8.117,0,0,0,.393-.813c.528-1.436,1.016-2.9,1.558-4.321a2.33,2.33,0,0,1,2.777-1.612,2.359,2.359,0,0,1,.433.149C72.076,65.4,70.681,69.22,69.285,73.108Z" transform="translate(-2.285 -57.011)" fill="#036fa2"/>
      <path id="Path_141" data-name="Path 141" d="M38.65,61.526h2.208c.149,0,.312.027.515.041V73.054H38.69c-.027-.366-.054-.7-.095-1.124a1.475,1.475,0,0,0-.393.2,5.226,5.226,0,0,1-8.494-2.791,6.258,6.258,0,0,1,3.427-7.762,4.7,4.7,0,0,1,2.926-.19A2.464,2.464,0,0,1,37.918,64.4a12.139,12.139,0,0,0-1.842-.6c-2.791-.393-4.267,2.113-3.779,4.416a3.17,3.17,0,0,0,3.617,2.628,3.1,3.1,0,0,0,2.574-2.912c.163-1.747.122-3.509.176-5.27C38.663,62.325,38.65,61.973,38.65,61.526Z" transform="translate(-2.494 -57.012)" fill="#036fa2"/>
      <path id="Path_142" data-name="Path 142" d="M23.616,64.317a14.02,14.02,0,0,0-2.438-.515c-2.046-.081-3.495,1.72-3.319,3.969a3.3,3.3,0,0,0,3.847,3.075,3.108,3.108,0,0,0,2.4-2.858c.176-1.829.135-3.685.19-5.54.014-.284.027-.569.041-.894H27V73.081H24.361c-.041-.352-.081-.718-.135-1.151a3.824,3.824,0,0,0-.393.23,4.994,4.994,0,0,1-5.459.759,5.377,5.377,0,0,1-3.2-4.619,6.192,6.192,0,0,1,1.856-5.622,4.927,4.927,0,0,1,4.619-1.3A2.524,2.524,0,0,1,23.616,64.317Z" transform="translate(-2.605 -57.012)" fill="#036fa2"/>
      <path id="Path_143" data-name="Path 143" d="M2.7,69.822c.61-.447,1.192-.881,1.775-1.314a1.8,1.8,0,0,1,.284-.176C5.574,69.064,6.292,69.8,7.1,70.4A2.3,2.3,0,0,0,9.3,70.73a1.46,1.46,0,0,0,.881-2.3,16.32,16.32,0,0,0-1.951-2.046,43.131,43.131,0,0,1-3.251-3.238,3.547,3.547,0,0,1,.352-4.809,5.256,5.256,0,0,1,6.719-.149,2.051,2.051,0,0,1,0,3.319,15.062,15.062,0,0,0-1.666-1.436A2.391,2.391,0,0,0,7.7,60.055a1.039,1.039,0,0,0-.244,1.8c.813.8,1.734,1.517,2.574,2.3A19.624,19.624,0,0,1,12.455,66.6a4.3,4.3,0,0,1-2.682,6.868A6.564,6.564,0,0,1,2.7,69.822Z" transform="translate(-2.702 -57.045)" fill="#036fa2"/>
      <path id="Path_144" data-name="Path 144" d="M53.276,61.545A21.992,21.992,0,0,0,51.1,59.92a2.227,2.227,0,0,0-2.262.108c-.813.474-.962,1.165-.3,1.829.894.881,1.883,1.68,2.818,2.533.515.474,1.043.935,1.544,1.422a4.4,4.4,0,0,1,1.246,4.877,4.345,4.345,0,0,1-3.969,2.885,6.626,6.626,0,0,1-6.34-3.766c.7-.515,1.422-1.043,1.991-1.477.881.772,1.626,1.5,2.452,2.127a2.242,2.242,0,0,0,2.073.3,1.493,1.493,0,0,0,.881-2.4,16.556,16.556,0,0,0-1.924-1.978c-1.03-1-2.154-1.924-3.089-3.007A3.779,3.779,0,0,1,48.4,57.237a5.65,5.65,0,0,1,4.064.515A2.37,2.37,0,0,1,53.9,60.339,5.051,5.051,0,0,1,53.276,61.545Z" transform="translate(-2.382 -57.044)" fill="#036fa2"/>
      <path id="Path_145" data-name="Path 145" d="M111.764,57.586V63c.054.027.108.041.163.068a3.971,3.971,0,0,1,2.452-1.4,3.7,3.7,0,0,1,4.687,3.685c.095,2.506.014,5.012.014,7.518a1.073,1.073,0,0,1-.054.23h-2.6V72.067c-.027-1.937-.041-3.874-.108-5.811a1.948,1.948,0,0,0-2.113-2.113,1.665,1.665,0,0,0-1.558,1.341c-.271-.217-.515-.406-.867-.691v8.331h-2.6a4.034,4.034,0,0,1-.068-.528c0-4.308-.014-8.616,0-12.937A2.152,2.152,0,0,1,111.764,57.586Z" transform="translate(-1.876 -57.041)" fill="#036fa2"/>
      <path id="Path_146" data-name="Path 146" d="M101.5,64.008c-.542-.027-.962-.054-1.436-.081V61.745c.447-.027.894-.054,1.436-.081V59.822a2.25,2.25,0,0,1,2.669-2.384v4.24h2.628a1.827,1.827,0,0,1-.664,1.856,8.523,8.523,0,0,1-1.883.637c.014-.027-.041.027-.041.081-.014,2.032-.041,4.064-.014,6.082.014.759.637,1.057,1.5.786a7.069,7.069,0,0,0,.786-.325,2.754,2.754,0,0,1-.014.759,2.462,2.462,0,0,1-2.56,1.6,2.19,2.19,0,0,1-2.316-1.585,3.148,3.148,0,0,1-.095-.8v-6.76Z" transform="translate(-1.946 -57.042)" fill="#036fa2"/>
      <path id="Path_147" data-name="Path 147" d="M90.774,61.554h2.235c.041.406.081.786.135,1.4.759-1.192,1.639-1.937,2.953-1.693a2.573,2.573,0,0,1,1.273.664,1.884,1.884,0,0,1,.041,2.574,1.676,1.676,0,0,0-2.222-.5,2.731,2.731,0,0,0-1.68,2.574c-.041,1.91-.014,3.834-.027,5.757V73.1H90.76C90.774,69.248,90.774,65.441,90.774,61.554Z" transform="translate(-2.018 -57.012)" fill="#036fa2"/>
    </g>
    <g id="Group_21" data-name="Group 21" transform="translate(74.506 58.624)">
      <path id="Path_148" data-name="Path 148" d="M88.547,62.536c-.5-.6-1.138-1-1.626-1.6a6.358,6.358,0,0,0-9.808-.027,5.667,5.667,0,0,1-.813.8A6.289,6.289,0,0,0,76.41,71.6a6.69,6.69,0,0,1,.745.772,6.368,6.368,0,0,0,9.672.027,7.181,7.181,0,0,1,.908-.908,6.287,6.287,0,0,0,.813-8.954Zm-12.8,7.207c-1.449-1.138-1.531-5.093.081-6.448A35.315,35.315,0,0,0,75.746,69.742Zm11.582-6.6A14.266,14.266,0,0,0,85.7,61.4,1.94,1.94,0,0,1,87.328,63.145ZM81.11,70.514a5.114,5.114,0,0,1-1.165-.312c-1.6-.555-1.747-1.978-1.924-3.319a5.22,5.22,0,0,1,.623-2.845,1.542,1.542,0,0,1,.691-.718,5.447,5.447,0,0,1,5.364.027c.962.528,1.043,1.612,1.246,2.574a3.3,3.3,0,0,1,0,.732h0c-.027.339,0,.677-.054,1C85.54,70.338,83.291,70.731,81.11,70.514Zm2.669.461c-1.206,1.206-2.411,1.192-3.481.027A6.47,6.47,0,0,0,83.779,70.975Zm-6.976-6.3A5.213,5.213,0,0,1,80.081,61.3C78.957,62.468,77.873,63.565,76.8,64.676Zm3.536-2.452a2.069,2.069,0,0,1,3.387-.014A6.673,6.673,0,0,0,80.338,62.224Zm3.644-.8a4.761,4.761,0,0,1,3.238,3.156C86.19,63.565,85.093,62.495,83.982,61.425Zm1.341-.989a36.966,36.966,0,0,0-6.705.027A5.432,5.432,0,0,1,85.323,60.436Zm-7.058.975c-.555.582-1.03,1.084-1.5,1.571A1.8,1.8,0,0,1,78.266,61.411Zm-.732,3.536a9.191,9.191,0,0,0,0,3.278C76.4,67.182,76.383,66.234,77.534,64.947Zm-1.138,3.2c.393.244,2.655,2.682,3.671,3.671a7.3,7.3,0,0,1-3.129-2.655A11.052,11.052,0,0,1,76.4,68.144Zm.325,2.1c.488.5.962,1,1.449,1.5A1.737,1.737,0,0,1,76.721,70.243Zm1.964,2.56a51.259,51.259,0,0,0,6.611,0C83.793,74.294,80.406,74.321,78.686,72.8Zm6.814-.881a10.173,10.173,0,0,0,1.734-1.653C87.1,71.205,86.515,71.679,85.5,71.923Zm-1.517-.068,3.36-3.359A5.44,5.44,0,0,1,83.982,71.855Zm2.52-3.563a9.108,9.108,0,0,0-.014-3.319C87.64,66.3,87.64,66.9,86.5,68.293Zm1.626,1.72a11.08,11.08,0,0,0,.23-3.387,11.211,11.211,0,0,0-.244-3.4C89.767,64.757,89.794,68.388,88.127,70.013Z" transform="translate(-73.952 -58.612)" fill="#feb548"/>
    </g>
  </g>
</svg>
