<?xml version="1.0" encoding="utf-8"?>
<!-- Generator: Adobe Illustrator 24.2.1, SVG Export Plug-In . SVG Version: 6.00 Build 0)  -->
<svg version="1.1" id="Layer_1" xmlns="http://www.w3.org/2000/svg" xmlns:xlink="http://www.w3.org/1999/xlink" x="0px" y="0px"
	 viewBox="0 0 1000 1000" style="enable-background:new 0 0 1000 1000;" xml:space="preserve">
<style type="text/css">
	.st0{fill:#FFFFFF;}
</style>
<circle cx="500" cy="500" r="493"/>
<path class="st0" d="M711.31,656.04c-8.34,0-15.59,0-24.13,0c-19.86-57.34-39.76-114.78-59.65-172.22c-0.85,0.01-1.7,0.03-2.55,0.04
	c-18.46,57.03-36.93,114.06-55.6,171.74c-8.03,0-15.8,0-24.49,0c-31.07-99.85-62.11-199.64-93.52-300.62c19.23,0,37.42,0,57.21,0
	C525,411.95,541.6,469.5,558.2,527.05c0.69,0.01,1.39,0.01,2.08,0.02c18.11-57.41,36.23-114.81,54.43-172.49c8.64,0,16.48,0,25.54,0
	c17.84,57.1,35.7,114.27,53.56,171.44c0.83,0.05,1.65,0.1,2.48,0.15c16.75-57.06,33.51-114.12,50.37-171.54c18.96,0,37.26,0,57.17,0
	C772.86,455.53,742.19,555.42,711.31,656.04z"/>
<path class="st0" d="M228.99,633.86c6.63-16.75,13.15-33.23,18.87-47.67c16.94,6.49,32.77,13.63,49.28,18.42
	c7.8,2.26,17.17,1.27,25.37-0.43c14.15-2.93,24.02-11.78,26.72-26.54c2.66-14.54-0.84-28.2-13.33-36.43
	c-14.26-9.4-30.18-16.25-45.12-24.67c-11.32-6.38-23.39-12.15-33.09-20.54c-28.24-24.43-33.66-56.53-23.54-90.5
	c9.79-32.87,35.08-50.04,68.27-54.7c11.92-1.68,31.24-0.77,49.62,3.79c19,4.72,36.94,13.17,40.29,15.09
	c-5.74,16.83-11.11,32.6-16.71,49.01c-7.51-4.17-34.75-17.7-54.84-19.28c-17.77-1.4-28.92,3.71-34.37,19.43
	c-5.31,15.3,0.53,32.97,14.37,42.07c6.62,4.35,13.83,7.85,20.89,11.49c13.86,7.14,28.27,13.32,41.62,21.29
	c35.58,21.23,44.81,54.87,39.85,93.12c-4.24,32.75-33.21,59.18-70.07,67.25C296.26,662.12,256.31,654.62,228.99,633.86z"/>
</svg>
