<svg xmlns="http://www.w3.org/2000/svg" xmlns:xlink="http://www.w3.org/1999/xlink" width="140.001" height="15.66" viewBox="0 0 140.001 15.66">
  <defs>
    <linearGradient id="linear-gradient" x1="-13.294" y1="-4.593" x2="-13.294" y2="-4.584" gradientUnits="objectBoundingBox">
      <stop offset="0" stop-color="#f2c069"/>
      <stop offset="1" stop-color="#eb8f3b"/>
    </linearGradient>
  </defs>
  <g id="Normal-Registered" transform="translate(-4.911 -67.356)">
    <path id="Fill-1" d="M132.355,68.687a1.33,1.33,0,0,1,1.33-1.33h9.9a1.33,1.33,0,0,1,1.33,1.33v4.855a1.33,1.33,0,0,1-1.33,1.33h-1.027a6.306,6.306,0,0,0-2.521.653l-3.594,2.007c-.653.35-.91.093-.607-.56l.42-.91a.8.8,0,0,0-.794-1.214h-1.8a1.33,1.33,0,0,1-1.33-1.33V68.687" fill="url(#linear-gradient)"/>
    <path id="Fill-19" d="M127.338,76.9h-2.194a.185.185,0,0,1-.21-.21l.023-.28a1.193,1.193,0,0,1,1.307-1,1.211,1.211,0,0,1,1.307.98l.023.28C127.594,76.809,127.548,76.9,127.338,76.9Zm-1.144-3.781a3.844,3.844,0,0,0-4.061,3.641v2.591c0,2.171,1.61,3.664,4.061,3.664a4.1,4.1,0,0,0,2.964-1.12,4.907,4.907,0,0,0,.794-1.074c.117-.21.07-.42-.07-.49l-1.984-1c-.117-.07-.233-.023-.3.163a1.433,1.433,0,0,1-1.424,1.027,1.162,1.162,0,0,1-1.26-1.144v-.443c0-.14.07-.21.233-.21H130a.2.2,0,0,0,.21-.21v-1.75A3.845,3.845,0,0,0,126.194,73.121Z" fill="#2d2e2c"/>
    <path id="Fill-18" d="M117.512,75.572c.63,0,1.074.4,1.424,1.214.07.14.163.187.3.117l1.96-.887a.251.251,0,0,0,.093-.35,5.172,5.172,0,0,0-.63-1.12,3.609,3.609,0,0,0-3.174-1.377c-2.5,0-3.991,1.494-3.991,3.664v2.451c0,2.171,1.494,3.641,3.991,3.641a3.694,3.694,0,0,0,2.987-1.167,4.368,4.368,0,0,0,.817-1.354.225.225,0,0,0-.093-.327l-1.96-.91c-.14-.07-.233-.023-.3.117-.35.794-.794,1.214-1.424,1.214a1.14,1.14,0,0,1-1.214-1.167V76.715a1.163,1.163,0,0,1,1.214-1.144" fill="#2d2e2c"/>
    <path id="Fill-17" d="M111.747,73.4h-2.381a.186.186,0,0,0-.21.21v8.915a.186.186,0,0,0,.21.21h2.381c.117,0,.187-.07.187-.21V73.611c-.023-.163-.093-.21-.187-.21" fill="#2d2e2c"/>
    <path id="Fill-20" d="M110.534,69.457a1.4,1.4,0,1,0,1.4,1.4,1.39,1.39,0,0,0-1.4-1.4" fill="#2d2e2c"/>
    <path id="Fill-16" d="M107.9,73.4h-2.544a.224.224,0,0,0-.21.163l-1.494,4.318a6.322,6.322,0,0,0-.233,1h-.07a7.793,7.793,0,0,0-.233-1l-1.564-4.341a.2.2,0,0,0-.21-.14H98.794c-.187,0-.233.117-.187.28l3.594,8.892a.224.224,0,0,0,.21.14h1.867a.2.2,0,0,0,.21-.14l3.618-8.892c.047-.163-.023-.28-.21-.28" fill="#2d2e2c"/>
    <path id="Fill-15" d="M94.756,79.259a1.187,1.187,0,0,1-1.237,1.167,1.14,1.14,0,0,1-1.214-1.167v-2.4a1.118,1.118,0,0,1,1.214-1.12,1.151,1.151,0,0,1,1.237,1.12Zm2.567-9.172H94.966a.208.208,0,0,0-.21.21v2.777c0,.3.07.887.07.887a2.6,2.6,0,0,0-1.54-.56,3.536,3.536,0,0,0-3.758,3.641v2.03c0,2.334,1.354,3.641,3.8,3.641a2.69,2.69,0,0,0,1.634-.537c.117-.093.257-.07.257.093v.3a.156.156,0,0,0,.163.14h1.937a.2.2,0,0,0,.21-.21V70.274A.191.191,0,0,0,97.324,70.087Z" fill="#2d2e2c"/>
    <path id="Fill-14" d="M84.3,78.419H83.087c-.21,0-.28-.117-.233-.233l.42-1.634a13.358,13.358,0,0,0,.4-2.147h.07a15.575,15.575,0,0,0,.35,2.147l.42,1.634C84.557,78.279,84.464,78.419,84.3,78.419Zm.467-8.192a.2.2,0,0,0-.21-.14h-1.8a.2.2,0,0,0-.21.14l-3.9,12.23c-.07.163.023.257.21.257h2.521c.093,0,.14-.047.187-.14l.583-1.82c.047-.093.07-.117.21-.117H85c.14,0,.187.023.21.117l.56,1.82c.047.093.07.14.21.14h2.544c.21,0,.257-.093.21-.257Z" fill="#2d2e2c"/>
    <path id="Fill-13" d="M71.441,76.9H69.247a.185.185,0,0,1-.21-.21l.023-.28a1.193,1.193,0,0,1,1.307-1,1.211,1.211,0,0,1,1.307.98l.023.28C71.674,76.809,71.651,76.9,71.441,76.9Zm-1.167-3.781a3.844,3.844,0,0,0-4.061,3.641v2.591c0,2.171,1.61,3.664,4.061,3.664a4.1,4.1,0,0,0,2.964-1.12,4.907,4.907,0,0,0,.794-1.074c.117-.21.07-.42-.07-.49l-1.984-1c-.117-.07-.233-.023-.3.163A1.433,1.433,0,0,1,70.25,80.52a1.162,1.162,0,0,1-1.26-1.144v-.443c0-.14.07-.21.233-.21h4.831a.2.2,0,0,0,.21-.21v-1.75A3.779,3.779,0,0,0,70.274,73.121Z" fill="#2d2e2c"/>
    <path id="Fill-12" d="M65.022,73.448a2.972,2.972,0,0,0-.513-.047,2.322,2.322,0,0,0-1.8.77c-.093.093-.257.07-.257-.093v-.467a.186.186,0,0,0-.21-.21H60.331a.2.2,0,0,0-.21.21v8.915a.186.186,0,0,0,.21.21h2.357a.2.2,0,0,0,.21-.21V77.205a1.164,1.164,0,0,1,1.214-1.214,3.9,3.9,0,0,1,.794.093c.187.047.3-.023.3-.21V73.611a.181.181,0,0,0-.187-.163" fill="#2d2e2c"/>
    <path id="Fill-11" d="M54.4,80.566h-.747c-.42,0-.653-.257-.653-.817a.649.649,0,0,1,.677-.677h1.7c.117,0,.163.21.163.28A1.241,1.241,0,0,1,54.4,80.566Zm-.07-7.4a4.026,4.026,0,0,0-2.847,1.027,5.132,5.132,0,0,0-.934,1.19c-.117.21-.07.42.07.49l1.984,1c.117.07.233.023.3-.163a1.433,1.433,0,0,1,1.424-1.027,1.135,1.135,0,0,1,1.214,1.144v.093a.186.186,0,0,1-.21.21H53.563c-1.774,0-3.2.957-3.2,2.637v.21a2.727,2.727,0,0,0,3.011,2.731h.7A2.668,2.668,0,0,0,55.64,82.2a.129.129,0,0,1,.21.023l.07.35a.2.2,0,0,0,.21.163h1.96a.2.2,0,0,0,.21-.21V76.855C58.3,74.685,56.784,73.168,54.333,73.168Z" fill="#2d2e2c"/>
    <path id="Fill-10" d="M49.572,73.4H47.145a.189.189,0,0,0-.21.163l-.91,3.758a10.3,10.3,0,0,0-.21,1.447h-.07a8.657,8.657,0,0,0-.21-1.447l-.91-3.758a.2.2,0,0,0-.21-.163H42.43a.2.2,0,0,0-.21.163l-.887,3.758a9.543,9.543,0,0,0-.21,1.354h-.047a7.068,7.068,0,0,0-.21-1.354l-.934-3.758a.189.189,0,0,0-.21-.163H37.249c-.187,0-.233.093-.187.257l2.824,8.915a.2.2,0,0,0,.21.14H41.87a.188.188,0,0,0,.21-.14l1.1-4.154c.117-.467.21-1.237.21-1.237h.07a11.908,11.908,0,0,0,.21,1.237l1.074,4.131a.189.189,0,0,0,.21.163H46.7a.224.224,0,0,0,.21-.14l2.871-8.915c.047-.14-.023-.257-.21-.257" fill="#2d2e2c"/>
    <path id="Fill-9" d="M36.059,73.4H34.705c-.187,0-.233-.07-.233-.21v-1.26c0-.14-.047-.187-.187-.187h-1.26a.415.415,0,0,0-.233.093l-2.5,2.5v1.354c0,.14.07.187.21.187h1c.187,0,.233.07.233.21v3.127a3.289,3.289,0,0,0,3.407,3.641h.84c.187,0,.257-.07.257-.21V80.59a.2.2,0,0,0-.21-.21h-.327c-.817,0-1.214-.49-1.214-1.354V76.108c0-.14.07-.21.233-.21h1.354c.14,0,.187-.047.187-.187V73.588c-.023-.14-.07-.187-.21-.187" fill="#2d2e2c"/>
    <path id="Fill-8" d="M30.061,69.994a7.926,7.926,0,0,0-1.424-.14,3.707,3.707,0,0,0-4.084,3.688v.49a.186.186,0,0,1-.21.21h-.467a.2.2,0,0,0-.21.21v2.1a.186.186,0,0,0,.21.21h.467c.187,0,.21.07.21.21V82.55a.186.186,0,0,0,.21.21H27.12a.186.186,0,0,0,.21-.21V76.972a.186.186,0,0,1,.21-.21h1.307a.186.186,0,0,0,.21-.21v-2.1a.186.186,0,0,0-.21-.21H27.54c-.163,0-.21-.07-.21-.21v-.537a1.125,1.125,0,0,1,1.26-1.144,4.091,4.091,0,0,1,.77.093.176.176,0,0,0,.257-.117l.63-2.054a.213.213,0,0,0-.187-.28" fill="#2d2e2c"/>
    <path id="Fill-7" d="M19.7,79.376a1.167,1.167,0,0,1-1.214,1.167,1.18,1.18,0,0,1-1.26-1.167V76.762a1.194,1.194,0,0,1,1.26-1.167A1.167,1.167,0,0,1,19.7,76.762Zm-1.214-6.208c-2.451,0-4.061,1.494-4.061,3.664v2.451c0,2.171,1.61,3.641,4.061,3.641,2.4,0,4.014-1.47,4.014-3.641V76.832C22.5,74.661,20.888,73.168,18.484,73.168Z" fill="#2d2e2c"/>
    <path id="Fill-4" d="M10.129,75.175c-1.1-.42-2.287-.724-2.287-1.634a1.183,1.183,0,0,1,1.237-1.214h.3a1.433,1.433,0,0,1,1.424,1.027c.07.187.187.21.3.163l1.984-1a.367.367,0,0,0,.07-.49,3.616,3.616,0,0,0-.607-.864,4.089,4.089,0,0,0-3.174-1.354h-.3c-2.5,0-4.061,1.494-4.061,3.758,0,2.311,1.494,3.174,3.337,3.921,1.214.49,2.241.747,2.241,1.75a1.2,1.2,0,0,1-1.354,1.19h-.49A1.433,1.433,0,0,1,7.328,79.4c-.07-.187-.187-.21-.3-.163l-1.984,1a.367.367,0,0,0-.07.49,6.131,6.131,0,0,0,.653.934,3.932,3.932,0,0,0,3.1,1.284h.63c2.544,0,4.038-1.47,4.038-3.734,0-2.357-1.377-3.291-3.267-4.038" fill="#2d2e2c"/>
  </g>
</svg>
