<svg xmlns="http://www.w3.org/2000/svg" xmlns:xlink="http://www.w3.org/1999/xlink" width="140" height="29.846" viewBox="0 0 140 29.846">
  <defs>
    <linearGradient id="linear-gradient" x1="0.067" y1="0.25" x2="0.933" y2="0.75" gradientUnits="objectBoundingBox">
      <stop offset="0" stop-color="#4ec6ef"/>
      <stop offset="1" stop-color="#1560a5"/>
    </linearGradient>
    <linearGradient id="linear-gradient-2" x1="0.067" y1="0.25" x2="0.933" y2="0.75" xlink:href="#linear-gradient"/>
    <linearGradient id="linear-gradient-3" x1="0.192" y1="0.193" x2="0.591" y2="0.564" gradientUnits="objectBoundingBox">
      <stop offset="0" stop-color="#4ec6ef" stop-opacity="0"/>
      <stop offset="1" stop-opacity="0.2"/>
    </linearGradient>
  </defs>
  <g id="solarreviews" transform="translate(-7.344 -61.041)">
    <g id="Group_24" data-name="Group 24" transform="translate(7.344 61.041)">
      <path id="Path_154" data-name="Path 154" d="M33.492,77.744s.122-1.819,3.515-2.537c0,0-3.561-.611-3.744-1.926,0,0-.6-1.757,2.246-3.744,0,0-3.469.871-4.141-.275,0,0-1.07-1.437.841-4.325-.076.061-3.1,2.109-4.126,1.314,0,0-1.421-.871-.779-4.279,0,0-2.185,3.056-3.469,2.72,0,0-1.65-.26-2.369-3.652,0,0-.779,3.7-2.094,3.882,0,0-1.62.4-3.607-2.445,0,0,.795,3.576-.336,4.248-.978.856-4.172-.749-4.264-.795,2.109,2.751,1.054,4.2,1.054,4.2-.581,1.192-4.1.7-4.1.7,3.011,1.712,2.522,3.469,2.522,3.469-.092,1.36-3.3,2.43-3.3,2.43,3.438.428,3.484,2.124,3.484,2.124.443,1.223-2.094,3.637-2.17,3.7,3.332-.948,4.034.351,4.034.351.871.978-.627,4.126-.672,4.2,2.751-2.109,3.912-1.177,3.912-1.177,1.192.565,1.161,4.126,1.161,4.126,1.712-3.011,3.026-2.552,3.026-2.552,1.314.076,2.9,3.377,2.9,3.377.428-3.438,1.62-3.561,1.62-3.561,1.223-.443,3.989,2,4.05,2.078-.947-3.332.214-4.111.214-4.111s1.345-1.314,4.233.6c-.061-.076-2.017-2.842-1.223-3.882,0,0,.917-1.574,4.325-.948C36.258,81.061,33.155,79.028,33.492,77.744Zm-1.437-.107a12.414,12.414,0,0,1-1.467,3.7,11.83,11.83,0,0,1-2.736,2.751,8.083,8.083,0,0,1-3.316,1.5,10.746,10.746,0,0,1-4.019.138,9,9,0,0,1-3.423-1.238,10.844,10.844,0,0,1-2.781-2.476,11.62,11.62,0,0,1-1.742-3.393,11.991,11.991,0,0,1-.229-4.019,10.575,10.575,0,0,1,1.177-3.515,13.062,13.062,0,0,1,2.8-3.087A10.008,10.008,0,0,1,19.8,66.3a10.326,10.326,0,0,1,3.9-.168,11.4,11.4,0,0,1,3.714,1.406,10.532,10.532,0,0,1,2.842,2.659,10.875,10.875,0,0,1,1.635,3.545A10.325,10.325,0,0,1,32.055,77.637Z" transform="translate(-7.344 -61.041)" fill="#fed10b"/>
      <circle id="Ellipse_2" data-name="Ellipse 2" cx="9.964" cy="9.964" r="9.964" transform="translate(4.936 4.982)" fill="#fff"/>
      <circle id="Ellipse_3" data-name="Ellipse 3" cx="9.123" cy="9.123" r="9.123" transform="translate(5.777 5.823)" fill="url(#linear-gradient)"/>
      <path id="Path_155" data-name="Path 155" d="M31.311,75.945a9.1,9.1,0,1,1-4.844-8.069A9.118,9.118,0,0,1,31.311,75.945Z" transform="translate(-7.302 -60.999)" fill="url(#linear-gradient-2)"/>
      <line id="Line_1" data-name="Line 1" y1="0.458" x2="11.309" transform="translate(8.757 7.488)" fill="none" stroke="#fff" stroke-miterlimit="10" stroke-width="0.152"/>
      <line id="Line_2" data-name="Line 2" y1="1.437" x2="17.101" transform="translate(6.006 11.018)" fill="none" stroke="#fff" stroke-miterlimit="10" stroke-width="0.152"/>
      <line id="Line_3" data-name="Line 3" y1="2.552" x2="18.109" transform="translate(5.853 14.747)" fill="none" stroke="#fff" stroke-miterlimit="10" stroke-width="0.152"/>
      <line id="Line_4" data-name="Line 4" y1="2.827" x2="14.365" transform="translate(8.803 18.95)" fill="none" stroke="#fff" stroke-miterlimit="10" stroke-width="0.152"/>
      <line id="Line_5" data-name="Line 5" x2="2.827" y2="15.527" transform="translate(8.65 8.008)" fill="none" stroke="#fff" stroke-miterlimit="10" stroke-width="0.152"/>
      <line id="Line_6" data-name="Line 6" x2="3.836" y2="18.125" transform="translate(12.272 5.823)" fill="none"/>
      <line id="Line_7" data-name="Line 7" x2="3.866" y2="17.024" transform="translate(15.985 5.578)" fill="none" stroke="#fff" stroke-miterlimit="10" stroke-width="0.152"/>
      <line id="Line_8" data-name="Line 8" x2="2.995" y2="12.699" transform="translate(19.928 7.076)" fill="none" stroke="#fff" stroke-miterlimit="10" stroke-width="0.152"/>
      <path id="Path_156" data-name="Path 156" d="M16.865,74.011,15.8,73.2l.764-.856,1.009.734Z" transform="translate(-7.283 -60.96)" fill="#fff"/>
      <path id="Path_157" data-name="Path 157" d="M17.7,78.441l-1.07-.7.764-.963,1.009.718Z" transform="translate(-7.277 -60.928)" fill="#fff"/>
      <path id="Path_158" data-name="Path 158" d="M18.534,83.1l-1.024-.7.672-1.07,1.1.718Z" transform="translate(-7.271 -60.895)" fill="#fff"/>
      <path id="Path_159" data-name="Path 159" d="M22.782,82.234l-1.024-.672.672-.993.978.657Z" transform="translate(-7.24 -60.9)" fill="#fff"/>
      <path id="Path_160" data-name="Path 160" d="M26.544,81.414l-.886-.642.611-.886.978.6Z" transform="translate(-7.212 -60.905)" fill="#fff"/>
      <path id="Path_161" data-name="Path 161" d="M30.141,80.96l-1.054-.81.688-.841,1.085.718Z" transform="translate(-7.187 -60.91)" fill="#fff"/>
      <path id="Path_162" data-name="Path 162" d="M21.872,77.956l-1.07-.81.764-.856,1.009.611Z" transform="translate(-7.247 -60.931)" fill="#fff"/>
      <path id="Path_163" data-name="Path 163" d="M25.65,77.425l-1.07-.81.764-.856,1.009.611Z" transform="translate(-7.22 -60.935)" fill="#fff"/>
      <path id="Path_164" data-name="Path 164" d="M29.262,76.985l-1.116-.856.672-.917,1.1.611Z" transform="translate(-7.194 -60.939)" fill="#fff"/>
      <path id="Path_165" data-name="Path 165" d="M20.992,73.676l-1.07-.81.718-.81,1.009.657Z" transform="translate(-7.253 -60.962)" fill="#fff"/>
      <path id="Path_166" data-name="Path 166" d="M24.77,73.358l-1.054-.825.672-.825.978.688Z" transform="translate(-7.226 -60.964)" fill="#fff"/>
      <path id="Path_167" data-name="Path 167" d="M23.874,69.459l-.963-.795.6-.841.947.779Z" transform="translate(-7.232 -60.992)" fill="#fff"/>
      <path id="Path_168" data-name="Path 168" d="M20.1,69.534l-.932-.718.611-.886,1.009.779Z" transform="translate(-7.259 -60.991)" fill="#fff"/>
      <path id="Path_169" data-name="Path 169" d="M16.088,69.759l-.672-.611.55-.581.749.336Z" transform="translate(-7.286 -60.987)" fill="#fff"/>
      <path id="Path_170" data-name="Path 170" d="M27.424,69.307l-.963-.795.6-.841,1.054.779Z" transform="translate(-7.206 -60.993)" fill="#fff"/>
      <path id="Path_171" data-name="Path 171" d="M28.305,73.039l-1.07-.795.672-.841.978.7Z" transform="translate(-7.201 -60.966)" fill="#fff"/>
      <path id="Path_172" data-name="Path 172" d="M26.451,67.892C19.543,71.9,15.463,79.72,14.73,81.2A9.122,9.122,0,0,1,26.451,67.892Z" transform="translate(-7.302 -60.999)" fill="url(#linear-gradient-3)"/>
    </g>
    <g id="Group_25" data-name="Group 25" transform="translate(39.543 68.01)">
      <path id="Path_173" data-name="Path 173" d="M41.254,77.618a2.243,2.243,0,0,0,2.17,2.415,2.08,2.08,0,0,0,2.14-2.262c0-1.5-1.223-1.819-2.14-2.185a6.9,6.9,0,0,1-2.827-1.5,3.558,3.558,0,0,1-.9-2.506,3.648,3.648,0,0,1,3.729-3.622,3.59,3.59,0,0,1,3.821,3.714H45.3a1.786,1.786,0,0,0-1.88-1.926,1.828,1.828,0,0,0-1.788,1.819c0,1.284,1.207,1.62,1.788,1.834,1.681.627,4.1,1.161,4.1,4.371a3.892,3.892,0,0,1-4.1,4.035,4,4,0,0,1-4.111-4.2l1.941.015Z" transform="translate(-39.313 -67.96)" fill="#2eaae0"/>
      <path id="Path_174" data-name="Path 174" d="M53.554,81.8a5.369,5.369,0,0,1-5.395-5.318,5.4,5.4,0,0,1,10.789.031A5.372,5.372,0,0,1,53.554,81.8Zm0-8.8a3.546,3.546,0,1,0,3.515,3.515A3.525,3.525,0,0,0,53.554,72.994Z" transform="translate(-39.25 -67.936)" fill="#2eaae0"/>
      <path id="Path_175" data-name="Path 175" d="M62.192,81.574h-1.88V68.218h1.88Z" transform="translate(-39.162 -67.958)" fill="#2eaae0"/>
      <path id="Path_176" data-name="Path 176" d="M72.347,81.552V79.994h-.031a3.822,3.822,0,0,1-3.393,1.8,5.129,5.129,0,0,1-5.3-5.211,5.181,5.181,0,0,1,5.3-5.3,3.96,3.96,0,0,1,3.393,1.681h.031V71.558h1.88v9.995Zm-3.423-8.558a3.546,3.546,0,1,0,3.469,3.576A3.436,3.436,0,0,0,68.923,72.994Z" transform="translate(-39.138 -67.936)" fill="#2eaae0"/>
      <path id="Path_177" data-name="Path 177" d="M76.093,81.552V71.558H77.85v.9h.031a3.088,3.088,0,0,1,2.537-1.177v1.926a3.427,3.427,0,0,0-1.36.367,2.617,2.617,0,0,0-1.1,2.506v5.471Z" transform="translate(-39.049 -67.936)" fill="#2eaae0"/>
    </g>
    <g id="Group_26" data-name="Group 26" transform="translate(82.517 68.269)">
      <path id="Path_178" data-name="Path 178" d="M88.352,81.574l-4.4-6.189h-.031v6.189H81.98V68.218h4.126a4.773,4.773,0,0,1,3.561,1.116A4.43,4.43,0,0,1,90.889,72.5a3.843,3.843,0,0,1-3.821,4.1L90.8,81.574ZM83.905,75.11h1.33c.795,0,3.683-.031,3.683-2.613,0-1.116-.764-2.491-2.965-2.491H83.89v5.1Z" transform="translate(-81.98 -68.218)" fill="#213e7d"/>
      <path id="Path_179" data-name="Path 179" d="M93.57,77.365a3.393,3.393,0,0,0,3.286,2.72A3.207,3.207,0,0,0,99.714,78.4h1.864a5.09,5.09,0,0,1-4.8,3.393,5.217,5.217,0,0,1-5.089-5.272,5.105,5.105,0,1,1,10.208-.138,7.227,7.227,0,0,1-.061.963l-8.268.015Zm6.449-1.437a3.241,3.241,0,0,0-6.449,0Z" transform="translate(-81.91 -68.196)" fill="#213e7d"/>
      <path id="Path_180" data-name="Path 180" d="M107.2,81.55H105.89l-3.973-9.995h2l2.613,7.137h.031l2.567-7.137h2Z" transform="translate(-81.836 -68.194)" fill="#213e7d"/>
      <path id="Path_181" data-name="Path 181" d="M113.932,70.418h-1.88v-2.2h1.88Zm0,11.156h-1.88V71.58h1.88Z" transform="translate(-81.763 -68.218)" fill="#213e7d"/>
      <path id="Path_182" data-name="Path 182" d="M117.24,77.365a3.393,3.393,0,0,0,3.286,2.72,3.207,3.207,0,0,0,2.858-1.681h1.864a5.09,5.09,0,0,1-4.8,3.393,5.217,5.217,0,0,1-5.089-5.272,5.105,5.105,0,1,1,10.208-.138,7.226,7.226,0,0,1-.061.963l-8.268.015Zm6.464-1.437a3.241,3.241,0,0,0-6.449,0Z" transform="translate(-81.74 -68.196)" fill="#213e7d"/>
      <path id="Path_183" data-name="Path 183" d="M135.765,81.55h-1.039l-2.17-6.724h-.031l-2.17,6.724h-1.024L125.6,71.556h2l2.216,6.495h.031l2.078-6.495h1.223l2.078,6.495h.031l2.2-6.495h2Z" transform="translate(-81.666 -68.194)" fill="#213e7d"/>
      <path id="Path_184" data-name="Path 184" d="M144.284,74.2A1.231,1.231,0,0,0,143,72.994a1.074,1.074,0,0,0-1.177,1.07c0,.825.718,1.039,1.559,1.3.779.229,3.011.871,3.011,3.24a3.111,3.111,0,0,1-3.362,3.194,3.416,3.416,0,0,1-3.53-3.53h1.88c.076,1.116.657,1.819,1.7,1.819a1.324,1.324,0,0,0,1.437-1.375c0-.886-.779-1.192-1.742-1.528-1.085-.4-2.812-.886-2.812-3.011a3.109,3.109,0,0,1,6.2.031Z" transform="translate(-81.566 -68.196)" fill="#213e7d"/>
    </g>
  </g>
</svg>
