<svg xmlns="http://www.w3.org/2000/svg" xmlns:xlink="http://www.w3.org/1999/xlink" width="135" height="24.822" viewBox="0 0 135 24.822">
  <defs>
    <linearGradient id="linear-gradient" y1="0.5" x2="1" y2="0.5" gradientUnits="objectBoundingBox">
      <stop offset="0" stop-color="#b2d7f3"/>
      <stop offset="1" stop-color="#9da0ce"/>
    </linearGradient>
    <linearGradient id="linear-gradient-2" y1="0.5" x2="1" y2="0.5" gradientUnits="objectBoundingBox">
      <stop offset="0" stop-color="#60b0e2"/>
      <stop offset="1" stop-color="#5060a8"/>
    </linearGradient>
    <linearGradient id="linear-gradient-3" y1="0.5" x2="1" y2="0.5" gradientUnits="objectBoundingBox">
      <stop offset="0" stop-color="#23aae1"/>
      <stop offset="1" stop-color="#244e9e"/>
    </linearGradient>
    <linearGradient id="linear-gradient-4" y1="0.5" x2="1" y2="0.5" gradientUnits="objectBoundingBox">
      <stop offset="0" stop-color="#1b85cb"/>
      <stop offset="1" stop-color="#1480c7"/>
    </linearGradient>
    <linearGradient id="linear-gradient-5" y1="0.5" x2="1" y2="0.5" gradientUnits="objectBoundingBox">
      <stop offset="0" stop-color="#22a5de"/>
      <stop offset="1" stop-color="#264598"/>
    </linearGradient>
  </defs>
  <g id="solarquotes" transform="translate(-5.23 -60.982)">
    <g id="Group_22" data-name="Group 22" transform="translate(5.23 60.982)">
      <path id="Path_149" data-name="Path 149" d="M50.693,83.715c0,.534-.018,1.061-.054,1.586H5.284q-.054-.785-.054-1.586a22.731,22.731,0,1,1,45.463,0Z" transform="translate(-5.23 -60.982)" fill="url(#linear-gradient)"/>
      <path id="Path_150" data-name="Path 150" d="M47.842,83.674q0,.8-.062,1.586H8.06Q8,84.475,8,83.674a19.922,19.922,0,0,1,39.845,0Z" transform="translate(-5.189 -60.941)" fill="url(#linear-gradient-2)"/>
      <path id="Path_151" data-name="Path 151" d="M45.108,83.634c0,.535-.025,1.063-.071,1.586H10.723q-.071-.785-.071-1.586a17.228,17.228,0,0,1,34.456,0Z" transform="translate(-5.149 -60.901)" fill="url(#linear-gradient-3)"/>
      <path id="Path_152" data-name="Path 152" d="M21.632,85.134V79.364H20.446l7.232-7.232,3.2,3.2V73.651h1.849v3.339l2.292,2.29H33.7v5.853Z" transform="translate(-5.002 -60.815)" fill="#fff"/>
      <rect id="Rectangle_1" data-name="Rectangle 1" width="3.175" height="2.926" transform="translate(21.131 21.415)" fill="url(#linear-gradient-4)"/>
    </g>
    <g id="Group_23" data-name="Group 23" transform="translate(55.084 69.66)">
      <path id="Path_153" data-name="Path 153" d="M60.25,77.947a4.982,4.982,0,0,1,.832,4.864A2.723,2.723,0,0,1,59.045,84.7a4.636,4.636,0,0,1-2.582-.055,3.126,3.126,0,0,1-2.1-3.073c-.016-.217,0-.441,0-.661H54.35c0-.208-.009-.419,0-.627a1.105,1.105,0,0,1,2.21,0c.013.394-.009.786.009,1.18A1.126,1.126,0,0,0,57.743,82.7a1.115,1.115,0,0,0,1.25-1.113,2.95,2.95,0,0,0-.806-2.4c-.56-.6-1.171-1.155-1.763-1.727A6.691,6.691,0,0,1,54.8,75.3a5.165,5.165,0,0,1-.07-3.848,2.651,2.651,0,0,1,1.877-1.724,4.416,4.416,0,0,1,2.757.077,3,3,0,0,1,1.907,2.668,6.721,6.721,0,0,1,.055,1.066,1.1,1.1,0,1,1-2.194-.042,5.208,5.208,0,0,0-.08-.95,1.032,1.032,0,0,0-1.25-.863,1.053,1.053,0,0,0-1.017,1.02,2.868,2.868,0,0,0,.675,2.37c.505.569,1.075,1.078,1.605,1.618C59.47,77.1,59.889,77.5,60.25,77.947Zm9.061,3.7a3.031,3.031,0,0,1-1.721,2.8,4.253,4.253,0,0,1-2.668.291,3.077,3.077,0,0,1-2.671-3.253c-.055-2.885-.086-5.775.009-8.657.077-2.329,1.561-3.368,3.751-3.3a4.479,4.479,0,0,1,1.052.166,3.077,3.077,0,0,1,2.246,2.993c.028,1.5.006,3,.006,4.494h.006C69.325,78.677,69.366,80.163,69.311,81.647Zm-2.28-4.481c0-1.3,0-2.6,0-3.906a3.517,3.517,0,0,0-.055-.586,1.193,1.193,0,0,0-2.376.138c-.025.7-.025,1.4-.022,2.1,0,2.2,0,4.4.025,6.6A1.083,1.083,0,0,0,65.7,82.7a1.1,1.1,0,0,0,1.272-1.036,3.553,3.553,0,0,0,.055-.547c0-1.314,0-2.629,0-3.947Zm8.516,5.373c-.739-.006-1.474,0-2.213,0-.48,0-.48,0-.48-.492q0-5.435,0-10.872a3.968,3.968,0,0,0-.013-.48.953.953,0,0,0-.624-.883c-1.02-.33-1.724.175-1.711,1.149.025,2.185.006,4.372.006,6.56h0q0,3.373,0,6.746c0,.227,0,.4.317.4,1.586-.013,3.17,0,4.756-.013a1.058,1.058,0,1,0-.028-2.109Zm9.477.868a1.043,1.043,0,0,1-1.02,1.225,1.08,1.08,0,0,1-1.266-.944c-.067-.486-.15-.972-.211-1.458a.309.309,0,0,0-.364-.311c-.749.006-1.5.013-2.249,0-.294-.006-.383.138-.416.391-.064.473-.128.95-.214,1.419a1.046,1.046,0,1,1-2.055-.37q.359-2.254.725-4.506.591-3.689,1.183-7.375a2,2,0,0,1,3.94-.195c.2,1.1.358,2.2.538,3.307l.844,5.267C84.653,81.078,84.848,82.3,85.025,83.407ZM82.1,79.492q-.354-2.423-.7-4.845c-.1-.669-.195-1.333-.294-2a1.5,1.5,0,0,0-.083-.236.775.775,0,0,0-.1.2c-.048.317-.083.633-.128.95-.294,2.015-.583,4.029-.892,6.044-.045.285.045.352.294.345.272-.006.541,0,.813,0,.233,0,.467,0,.7,0C82.165,79.946,82.165,79.94,82.1,79.492ZM92.668,80c.045,1.164.022,2.332.013,3.5a1.111,1.111,0,0,1-1.144,1.1,1.1,1.1,0,0,1-1.132-1.11c-.009-.944.013-1.89-.006-2.837a5.89,5.89,0,0,0-.141-1.164,1.1,1.1,0,0,0-.985-.914c-.3-.039-.614-.019-.918-.042s-.383.1-.38.383c.009,1.327.006,2.654.006,3.982,0,.195,0,.394-.006.589a1.143,1.143,0,0,1-2.286-.048q0-3.335,0-6.669h.006c0-2.2.006-4.4-.006-6.594,0-.352.089-.473.45-.464,1.263.036,2.53,0,3.793.061a2.625,2.625,0,0,1,2.687,2.587,9.783,9.783,0,0,1-.108,3.256,2.32,2.32,0,0,1-1.155,1.544c-.156.089-.259.186-.033.3A2.705,2.705,0,0,1,92.668,80Zm-2.284-5.927a.2.2,0,0,1-.042,0c0-.355.013-.713,0-1.069a1.135,1.135,0,0,0-1.254-1.228c-.259-.006-.519,0-.774,0-.227,0-.339.083-.339.323.006,1.352.006,2.7,0,4.056,0,.239.108.333.336.32.32-.016.639-.013.956-.051a1.043,1.043,0,0,0,1-.883A14.056,14.056,0,0,0,90.384,74.077Zm12.09,10.586a1.022,1.022,0,0,1-1.011,1.008,2.359,2.359,0,0,1-2.2-.832c-.061-.077-.256-.089-.38-.077-.409.042-.813.144-1.219.156A3.236,3.236,0,0,1,94,81.393c-.016-2.729,0-5.453,0-8.179a5,5,0,0,1,.08-.786,2.992,2.992,0,0,1,2.7-2.654,5.4,5.4,0,0,1,1.18-.028,3.111,3.111,0,0,1,3.1,3.268c.036,1.436.006,2.871.006,4.308h.013c0,1.289.033,2.582-.016,3.87a10.3,10.3,0,0,1-.317,1.846c-.073.339-.016.492.336.534.144.019.294,0,.438.019A1.034,1.034,0,0,1,102.474,84.663Zm-3.717-7.291c0-1.3,0-2.61,0-3.915a3.207,3.207,0,0,0-.045-.611,1.181,1.181,0,0,0-2.338,0,3.7,3.7,0,0,0-.055.655q0,3.848.006,7.7a3.245,3.245,0,0,0,.064.655,1.175,1.175,0,0,0,2.3,0,3.014,3.014,0,0,0,.061-.652c.006-1.277,0-2.552,0-3.828h0Zm10.567-6.147a1.26,1.26,0,0,0-.511-1.152,1.02,1.02,0,0,0-1.125-.051,1.074,1.074,0,0,0-.569,1.017q.009,5.038,0,10.072a4.177,4.177,0,0,1-.051.655,1.078,1.078,0,0,1-1.277,1.03,1.109,1.109,0,0,1-1.107-1.177c-.016-.205-.006-.413-.009-.617q0-4.947,0-9.9a1.157,1.157,0,1,0-2.308.006c0,1.746,0,3.49,0,5.236,0,1.788-.019,3.579.009,5.367a2.982,2.982,0,0,0,2.06,3.013,5.6,5.6,0,0,0,1.819.2,2.838,2.838,0,0,0,2.793-2.032,6.787,6.787,0,0,0,.272-1.813c.036-1.555.009-3.109.009-4.664Q109.323,73.82,109.324,71.225ZM117.5,81.312a5.679,5.679,0,0,1-.272,1.552,2.719,2.719,0,0,1-2.2,1.929,6.326,6.326,0,0,1-1.788.067,3.013,3.013,0,0,1-2.766-2.837,10.489,10.489,0,0,1-.061-1.141c0-2.449-.019-4.9.016-7.349a5.954,5.954,0,0,1,.3-1.849,3.093,3.093,0,0,1,3.354-1.948,5.043,5.043,0,0,1,1.733.413,3.182,3.182,0,0,1,1.679,3.07c.048,1.378.009,2.757.009,4.135h.006C117.515,78.674,117.541,79.993,117.5,81.312Zm-2.31-5.636c0-.95.006-1.907-.067-2.853a1.062,1.062,0,0,0-1.171-1.011,1.128,1.128,0,0,0-1.18,1.066,5.853,5.853,0,0,0-.028.7c0,1.247,0,2.491,0,3.739h.019c0,1.424-.019,2.846.006,4.267a1.1,1.1,0,0,0,1.158,1.216c.749.013,1.155-.375,1.235-1.186a4.77,4.77,0,0,0,.016-.483C115.184,79.313,115.2,77.5,115.193,75.676Zm8.7-5.795c-1.586-.009-3.17-.006-4.753,0a1.765,1.765,0,0,0-.519.08,1.027,1.027,0,0,0,.282,2.008,7.482,7.482,0,0,0,.966,0c.364-.025.48.106.477.473-.016,1.861-.006,3.726-.006,5.587h0q0,2.749,0,5.5a1.074,1.074,0,0,0,1.174,1.216,1.044,1.044,0,0,0,1.132-1.193q0-3.785,0-7.568c0-1.19.009-2.376-.009-3.565,0-.349.119-.473.461-.45a8.327,8.327,0,0,0,1.055-.006,1,1,0,0,0,.944-1.152A1.1,1.1,0,0,0,123.889,69.881ZM131.74,83a1.56,1.56,0,0,0-.866-.336c-.819-.048-1.641-.025-2.46-.016-.291,0-.428-.077-.425-.4.013-1.2.009-2.4,0-3.607,0-.288.114-.383.394-.38.586.013,1.171.016,1.76-.006a1.057,1.057,0,0,0,1.077-1.049,1.044,1.044,0,0,0-1.1-1.02c-.541-.006-1.085-.022-1.624,0-.372.016-.522-.083-.511-.486.025-1.085.019-2.168,0-3.256-.006-.361.108-.489.477-.48.847.019,1.7.016,2.549,0a1.021,1.021,0,0,0,.578-1.858,1.71,1.71,0,0,0-.786-.217c-1.538-.022-3.079,0-4.618-.019-.394-.006-.5.125-.492.505.016,2.3.006,4.6.006,6.9h0v.658q0,3.166,0,6.336c0,.236-.028.47.339.47,1.672-.013,3.342,0,5.014-.016a.946.946,0,0,0,.914-.644A.917.917,0,0,0,131.74,83Zm7.737-2.216a5.367,5.367,0,0,0-1.83-3.548c-.649-.636-1.318-1.25-1.941-1.91a2.915,2.915,0,0,1-.764-2.437,1.112,1.112,0,0,1,1.144-1.094,1.081,1.081,0,0,1,1.155,1.075c.033.291.045.586.067.877a1.063,1.063,0,0,0,2.124-.006,6.191,6.191,0,0,0-.022-1.011,2.968,2.968,0,0,0-2.054-2.793,4.578,4.578,0,0,0-2.307-.089,2.582,2.582,0,0,0-2.088,1.688,5.033,5.033,0,0,0,1.18,5.555c.62.644,1.3,1.228,1.929,1.861a3.217,3.217,0,0,1,1.088,2.674,1.139,1.139,0,0,1-1.208,1.177,1.117,1.117,0,0,1-1.2-1.18c-.033-.422-.022-.847-.051-1.272a1.071,1.071,0,0,0-2.136-.019c-.022.25,0,.5,0,.749a3.408,3.408,0,0,0,4.812,3.637,2.76,2.76,0,0,0,1.708-1.488A4.975,4.975,0,0,0,139.478,80.781Z" transform="translate(-54.346 -69.532)" fill="url(#linear-gradient-5)"/>
    </g>
  </g>
</svg>
