<svg id="solarreviews" xmlns="http://www.w3.org/2000/svg" xmlns:xlink="http://www.w3.org/1999/xlink" width="140" height="30.95" viewBox="0 0 140 30.95">
  <defs>
    <radialGradient id="radial-gradient" cx="1.87" cy="4.093" r="6.154" gradientTransform="translate(-0.142) scale(0.926 1)" gradientUnits="objectBoundingBox">
      <stop offset="0.06" stop-color="#ecf8fe"/>
      <stop offset="0.24" stop-color="#5fccf5"/>
      <stop offset="0.28" stop-color="#50c5f1"/>
      <stop offset="0.34" stop-color="#2bb4e7"/>
      <stop offset="0.4" stop-color="#00a0dc"/>
      <stop offset="0.59" stop-color="#1b75bc"/>
      <stop offset="0.8" stop-color="#0054a6"/>
    </radialGradient>
    <radialGradient id="radial-gradient-2" cx="1.021" cy="4.336" r="6.454" gradientTransform="translate(-0.15) scale(0.951 1)" xlink:href="#radial-gradient"/>
    <radialGradient id="radial-gradient-3" cx="0.587" cy="2.031" r="5.661" gradientTransform="translate(0.186) scale(1.055 1)" xlink:href="#radial-gradient"/>
    <radialGradient id="radial-gradient-4" cx="1.459" cy="1.808" r="5.367" gradientTransform="translate(0.069) scale(1.031 1)" xlink:href="#radial-gradient"/>
    <radialGradient id="radial-gradient-5" cx="0.805" cy="3.134" r="6.049" gradientTransform="translate(0.005)" xlink:href="#radial-gradient"/>
    <radialGradient id="radial-gradient-6" cx="1.665" cy="2.897" r="5.745" gradientTransform="translate(-0.047) scale(0.977 1)" xlink:href="#radial-gradient"/>
    <radialGradient id="radial-gradient-7" cx="0.122" cy="4.585" r="6.763" gradientTransform="translate(-0.112) scale(0.974 1)" xlink:href="#radial-gradient"/>
    <radialGradient id="radial-gradient-8" cx="-0.105" cy="3.371" r="6.348" gradientTransform="translate(0.108) scale(1.025 1)" xlink:href="#radial-gradient"/>
    <radialGradient id="radial-gradient-9" cx="-1.393" cy="3.628" r="6.72" gradientTransform="translate(2.472) scale(1.337 1)" xlink:href="#radial-gradient"/>
    <radialGradient id="radial-gradient-10" cx="-0.336" cy="2.259" r="5.964" gradientTransform="translate(0.356) scale(1.077 1)" xlink:href="#radial-gradient"/>
    <radialGradient id="radial-gradient-11" cx="1.268" cy="1.274" r="7.838" gradientTransform="translate(-0.707) scale(0.706 1)" xlink:href="#radial-gradient"/>
    <radialGradient id="radial-gradient-12" cx="2.713" cy="2.65" r="5.436" gradientTransform="translate(0.157) scale(1.119 1)" xlink:href="#radial-gradient"/>
    <radialGradient id="radial-gradient-13" cx="2.366" cy="1.671" r="5.367" gradientTransform="translate(0.037) scale(1.029 1)" xlink:href="#radial-gradient"/>
    <radialGradient id="radial-gradient-14" cx="0.364" cy="1.244" r="6.493" gradientTransform="translate(-0.199) scale(0.946 1)" xlink:href="#radial-gradient"/>
    <radialGradient id="radial-gradient-15" cx="3.645" cy="4.195" r="6.564" gradientTransform="translate(0.55) scale(1.284 1)" xlink:href="#radial-gradient"/>
    <radialGradient id="radial-gradient-16" cx="-0.75" cy="1.76" r="8.03" gradientTransform="translate(0.082) scale(1.013 1)" xlink:href="#radial-gradient"/>
    <radialGradient id="radial-gradient-17" cx="3.444" cy="1.922" r="15.036" gradientTransform="translate(-1.044) scale(0.718 1)" xlink:href="#radial-gradient"/>
    <radialGradient id="radial-gradient-18" cx="0.289" cy="11.835" r="15.94" gradientTransform="translate(-2.482) scale(0.479 1)" xlink:href="#radial-gradient"/>
    <radialGradient id="radial-gradient-19" cx="-2.578" cy="2.622" r="6.677" gradientTransform="translate(11.565) scale(2.009 1)" xlink:href="#radial-gradient"/>
    <radialGradient id="radial-gradient-20" cx="-1.075" cy="5.163" r="7.695" gradientTransform="translate(1.194) scale(1.17 1)" xlink:href="#radial-gradient"/>
    <radialGradient id="radial-gradient-21" cx="2.446" cy="11.277" r="15.419" gradientTransform="translate(-1.356) scale(0.512 1)" xlink:href="#radial-gradient"/>
    <radialGradient id="radial-gradient-22" cx="1.238" cy="10.3" r="13.812" gradientTransform="translate(-1.651) scale(0.489 1)" xlink:href="#radial-gradient"/>
    <radialGradient id="radial-gradient-23" cx="0.568" cy="3.251" r="6.668" gradientTransform="translate(-0.117) scale(0.966 1)" xlink:href="#radial-gradient"/>
    <radialGradient id="radial-gradient-24" cx="1.405" cy="2.774" r="5.758" gradientTransform="matrix(1, 0, 0, 1, 0, 0)" xlink:href="#radial-gradient"/>
    <radialGradient id="radial-gradient-25" cx="-1.142" cy="11.412" r="23.201" gradientTransform="translate(-3.338) scale(0.704 1)" xlink:href="#radial-gradient"/>
    <radialGradient id="radial-gradient-26" cx="2.897" cy="0.77" r="7.458" gradientTransform="translate(0.092) scale(1.047 1)" xlink:href="#radial-gradient"/>
    <radialGradient id="radial-gradient-27" cx="2.216" cy="1.485" r="5.086" gradientTransform="translate(0.157) scale(1.119 1)" xlink:href="#radial-gradient"/>
    <radialGradient id="radial-gradient-28" cx="1.605" cy="2.024" r="6.569" gradientTransform="translate(0.213) scale(1.077 1)" xlink:href="#radial-gradient"/>
    <radialGradient id="radial-gradient-29" cx="1.802" cy="7.973" r="14.427" gradientTransform="translate(-1.356) scale(0.512 1)" xlink:href="#radial-gradient"/>
    <radialGradient id="radial-gradient-30" cx="0.687" cy="7.34" r="12.923" gradientTransform="translate(-1.651) scale(0.489 1)" xlink:href="#radial-gradient"/>
    <radialGradient id="radial-gradient-31" cx="2.957" cy="2.789" r="6.142" gradientTransform="translate(0.55) scale(1.284 1)" xlink:href="#radial-gradient"/>
    <radialGradient id="radial-gradient-32" cx="-0.366" cy="8.419" r="14.915" gradientTransform="translate(-2.48) scale(0.525 1)" xlink:href="#radial-gradient"/>
  </defs>
  <path id="Path_1" data-name="Path 1" d="M51.084,20.34c0,2.4-1.777,3.726-4.969,3.726s-4.969-1.36-4.969-3.814h1.67c0,1.516,1.168,2.354,3.292,2.354,2.093,0,3.292-.783,3.292-2.267,0-3.7-8.047-.54-8.047-5.782,0-2.18,1.708-3.379,4.757-3.379s4.757,1.238,4.757,3.465H49.2c0-1.292-1.1-2.006-3.087-2.006-1.969,0-3.087.7-3.087,1.919C43.034,18.247,51.084,15.088,51.084,20.34Z" transform="translate(-7.655 -2.08)" fill="#14b1e7"/>
  <path id="Path_2" data-name="Path 2" d="M63.754,20.154a4.7,4.7,0,1,1-4.7-4.7,4.7,4.7,0,0,1,4.7,4.7Zm-1.565,0a3.131,3.131,0,1,0-3.137,3.292,3.223,3.223,0,0,0,3.137-3.292Z" transform="translate(-10.114 -2.875)" fill="#14b1e7"/>
  <path id="Path_3" data-name="Path 3" d="M67.335,11.172h1.67V23.718h-1.67Z" transform="translate(-12.528 -2.078)" fill="#14b1e7"/>
  <path id="Path_4" data-name="Path 4" d="M80.029,15.8v8.714H78.357V23.386a4.221,4.221,0,0,1-3.174,1.479,4.539,4.539,0,0,1-4.354-4.7,4.539,4.539,0,0,1,4.354-4.7,4.244,4.244,0,0,1,3.174,1.479V15.808h1.67Zm-1.571,4.354a3.041,3.041,0,1,0-6.062,0,3.041,3.041,0,1,0,6.062,0Z" transform="translate(-13.178 -2.876)" fill="#14b1e7"/>
  <path id="Path_5" data-name="Path 5" d="M88.558,15.451v1.41c-1.988,0-3,1.118-3,3.292v4.354h-1.67V15.8h1.67v.869A3.741,3.741,0,0,1,88.558,15.451Z" transform="translate(-15.607 -2.874)" fill="#14b1e7"/>
  <path id="Path_6" data-name="Path 6" d="M97.365,19.164l3.348,4.634H98.744L95.472,19.27H92.837V23.8H91.166V11.6h4.515c3.626,0,5.211,1.168,5.211,3.832C100.887,17.661,99.788,18.828,97.365,19.164Zm-1.69-1.36c2.459,0,3.537-.714,3.537-2.373s-1.081-2.373-3.537-2.373H92.836V17.8h2.839Z" transform="translate(-16.961 -2.158)" fill="#0054a6"/>
  <path id="Path_7" data-name="Path 7" d="M111.256,21.833h1.659a4.333,4.333,0,0,1-4.218,3.031,4.7,4.7,0,1,1,0-9.4c2.578,0,4.528,2.211,4.528,5.155h-7.614a3.156,3.156,0,0,0,3.086,2.839,2.849,2.849,0,0,0,2.559-1.622Zm-5.54-2.633H111.5a2.943,2.943,0,0,0-2.808-2.335,3.119,3.119,0,0,0-2.975,2.334Z" transform="translate(-19.349 -2.876)" fill="#0054a6"/>
  <path id="Path_8" data-name="Path 8" d="M125.032,15.88l-3.626,8.714h-2.3l-3.626-8.714h1.708l3.068,7.2,3.068-7.2Z" transform="translate(-21.485 -2.955)" fill="#0054a6"/>
  <path id="Path_9" data-name="Path 9" d="M127.939,11.894a1.135,1.135,0,1,1,.339.8,1.14,1.14,0,0,1-.339-.8Zm.317,3.031h1.67v8.715h-1.669Z" transform="translate(-23.802 -1.999)" fill="#0054a6"/>
  <path id="Path_10" data-name="Path 10" d="M139.063,21.833h1.658a4.333,4.333,0,0,1-4.217,3.031,4.7,4.7,0,1,1,0-9.4c2.578,0,4.528,2.211,4.528,5.155h-7.614a3.156,3.156,0,0,0,3.086,2.839,2.851,2.851,0,0,0,2.559-1.622ZM133.522,19.2h5.783a2.943,2.943,0,0,0-2.808-2.335,3.126,3.126,0,0,0-2.976,2.334Z" transform="translate(-24.523 -2.876)" fill="#0054a6"/>
  <path id="Path_11" data-name="Path 11" d="M158.282,15.88l-2.72,8.714h-2.354l-2.318-7.2-2.317,7.2h-2.354L143.5,15.88h1.658l2.335,7.2,2.318-7.2h2.178l2.3,7.2,2.335-7.2Z" transform="translate(-26.698 -2.955)" fill="#0054a6"/>
  <path id="Path_12" data-name="Path 12" d="M170.164,22.073c0,1.8-1.448,2.789-4.025,2.789s-4.007-1.031-4.007-2.857H163.8c0,1.012.838,1.565,2.335,1.565,1.516,0,2.354-.522,2.354-1.5,0-2.547-6.148-.177-6.148-4.112,0-1.6,1.36-2.51,3.8-2.51s3.813.938,3.813,2.6h-1.671c0-.838-.763-1.3-2.143-1.3-1.36,0-2.122.435-2.122,1.218C164.015,20.521,170.164,18.154,170.164,22.073Z" transform="translate(-30.164 -2.875)" fill="#0054a6"/>
  <path id="Path_13" data-name="Path 13" d="M30.944,14.689c-5.012-1.205-5.379-2.571-1.522-5.956-5.049.919-5.876-.177-3.565-4.751C21.54,6.745,20.367,6.031,20.77.913,17.8,5.093,16.4,4.87,14.69,0c-1.205,5.012-2.575,5.379-5.956,1.522C9.652,6.571,8.556,7.4,3.982,5.087,6.746,9.4,6.032,10.578.913,10.174c4.18,2.981,3.956,4.378-.913,6.08,5.012,1.205,5.379,2.571,1.522,5.963,5.05-.92,5.882.177,3.565,4.751,4.317-2.764,5.49-2.05,5.081,3.068,2.981-4.181,4.378-3.957,6.08.913,1.205-5.012,2.578-5.379,5.963-1.522-.919-5.049.177-5.882,4.751-3.565-2.764-4.317-2.05-5.49,3.068-5.087C25.851,17.788,26.081,16.391,30.944,14.689Z" fill="#ffd400"/>
  <path id="Path_14" data-name="Path 14" d="M26.811,17.826a10.193,10.193,0,1,0-11.28,8.968,10.193,10.193,0,0,0,11.28-8.968Z" transform="translate(-1.207 -1.205)" fill="#fff"/>
  <path id="Path_15" data-name="Path 15" d="M14.644,10.149l-.491.025h-.062l-1.565.068-.062.006-.516.025-.577.721.522,2.783.851.652.522-.043.062-.006,1.584-.143.062-.006.5-.043.522-.745-.553-2.658Z" transform="translate(-2.115 -1.888)" fill="url(#radial-gradient)"/>
  <path id="Path_16" data-name="Path 16" d="M19.581,9.927l-.454.025h-.056l-1.429.062-.062.006-.466.019-.509.69.553,2.658.8.619.472-.043.062-.006,1.441-.13.056-.006.454-.037.46-.707-.571-2.541Z" transform="translate(-3.09 -1.847)" fill="url(#radial-gradient-2)"/>
  <path id="Path_17" data-name="Path 17" d="M21.829,20.061l-.454.068-.056.006-1.457.205-.062.012-.478.068-.509.807.6,2.876.814.608.485-.093.062-.012,1.472-.286.056-.012.46-.088.46-.826L22.6,20.653Z" transform="translate(-3.5 -3.732)" fill="url(#radial-gradient-3)"/>
  <path id="Path_18" data-name="Path 18" d="M16.8,20.771l-.5.068-.062.012-1.6.224-.062.012-.531.074-.584.857.571,3.025.884.633.531-.1.068-.012,1.621-.317.062-.012.5-.093.522-.875-.6-2.876Z" transform="translate(-2.504 -3.865)" fill="url(#radial-gradient-4)"/>
  <path id="Path_19" data-name="Path 19" d="M20.682,14.9l-.454.037-.056.006-1.448.136h-.054l-.472.043-.509.752.571,2.758.807.619.478-.068.062-.006,1.454-.205.062-.012.454-.062.46-.764-.6-2.64Z" transform="translate(-3.291 -2.772)" fill="url(#radial-gradient-5)"/>
  <path id="Path_20" data-name="Path 20" d="M15.7,15.353l-.5.043-.062.006-1.584.149-.062.006-.522.043-.584.789.546,2.9.869.646.522-.074.068-.006,1.6-.224.062-.012.5-.068.522-.807-.571-2.764Z" transform="translate(-2.306 -2.856)" fill="url(#radial-gradient-6)"/>
  <path id="Path_21" data-name="Path 21" d="M24.1,9.729l-.41.019h-.056l-1.31.062h-.056l-.429.019-.447.665.571,2.534.745.6.435-.037.056-.006,1.326-.118.05-.006.416-.037.4-.677-.59-2.428Z" transform="translate(-3.979 -1.81)" fill="url(#radial-gradient-7)"/>
  <path id="Path_22" data-name="Path 22" d="M25.95,15.061l-.707-.577-.416.037-.05.006-1.326.124-.056.006-.435.037-.447.714.6,2.627.758.6.435-.062.057,0,1.335-.187.05-.012.416-.056.4-.727Z" transform="translate(-4.188 -2.695)" fill="url(#radial-gradient-8)"/>
  <path id="Path_23" data-name="Path 23" d="M28.992,14.155l-1.218.111-.05.006-.4.037-.4.677.619,2.516.707.571.4-.056.05-.006,1.156-.162a9.241,9.241,0,0,0-.873-3.7Z" transform="translate(-5.011 -2.634)" fill="url(#radial-gradient-9)"/>
  <path id="Path_24" data-name="Path 24" d="M27.138,19.99l-.714-.577L26,19.475l-.05.006-1.335.193-.056.006-.435.062-.447.77.619,2.733.764.584.442-.08.056-.012,1.341-.265.058,0,.416-.08.4-.783Z" transform="translate(-4.405 -3.612)" fill="url(#radial-gradient-10)"/>
  <path id="Path_25" data-name="Path 25" d="M17.948,26.41l-.5.1-.062.012-1.621.317-.068.012-.531.105-.584.932.236,1.255a9.333,9.333,0,0,0,3.373.627,10.1,10.1,0,0,0,1.15-.068l-.553-2.671Z" transform="translate(-2.712 -4.913)" fill="url(#radial-gradient-11)"/>
  <path id="Path_26" data-name="Path 26" d="M8.759,20.613l.074-.012,1.764-.248.068-.012.553-.074.6-.851-.54-2.907-.869-.659-.546.05L9.79,15.9l-1.746.162-.068.006-.2.019a9.409,9.409,0,0,0-.093,4.245l.5.36Z" transform="translate(-1.393 -2.948)" fill="url(#radial-gradient-12)"/>
  <path id="Path_27" data-name="Path 27" d="M11.651,26.263l.559-.105.6-.926L12.249,22.2l-.884-.652-.553.08-.068.012L8.977,21.9l-.074.012-.584.08-.279.378a9.383,9.383,0,0,0,2.653,4.087l.884-.177Z" transform="translate(-1.496 -4.009)" fill="url(#radial-gradient-13)"/>
  <path id="Path_28" data-name="Path 28" d="M23.03,25.426l-.46.093-.056.012-1.472.286-.062.012-.478.093-.509.875.559,2.683a9.373,9.373,0,0,0,3.726-1.4l-.466-2.068Z" transform="translate(-3.72 -4.73)" fill="url(#radial-gradient-14)"/>
  <path id="Path_29" data-name="Path 29" d="M8.089,14.936l1.746-.156.068-.006.546-.05.6-.783-.522-2.789-.273-.211a9.385,9.385,0,0,0-2.329,4.013l.1-.006Z" transform="translate(-1.474 -2.036)" fill="url(#radial-gradient-15)"/>
  <path id="Path_30" data-name="Path 30" d="M28.128,24.905l-.478-.372-.423.08-.05.012-1.341.265-.056.012-.442.088-.447.826.454,2a9.487,9.487,0,0,0,2.784-2.913Z" transform="translate(-4.631 -4.564)" fill="url(#radial-gradient-16)"/>
  <path id="Path_31" data-name="Path 31" d="M12.913,27.486l-.559.111-.068.012-.7.136a9.2,9.2,0,0,0,2.441,1.491l-.211-1.112Z" transform="translate(-2.155 -5.114)" fill="url(#radial-gradient-17)"/>
  <path id="Path_32" data-name="Path 32" d="M21.663,9.252l.429-.019h.056l1.317-.056h.05l.41-.019.211-.329A9.368,9.368,0,0,0,20.687,7.6l.236,1.05Z" transform="translate(-3.849 -1.414)" fill="url(#radial-gradient-18)"/>
  <path id="Path_33" data-name="Path 33" d="M30.09,18.916l-1.118.162-.05.006-.4.056-.391.735.639,2.609.485.378a9.379,9.379,0,0,0,.838-3.876Z" transform="translate(-5.233 -3.519)" fill="url(#radial-gradient-19)"/>
  <path id="Path_34" data-name="Path 34" d="M26.368,12.763l.7.571.4-.037.05-.006,1.187-.105a9.373,9.373,0,0,0-2.658-3.272l-.265.423Z" transform="translate(-4.796 -1.844)" fill="url(#radial-gradient-20)"/>
  <path id="Path_35" data-name="Path 35" d="M12.523,9.642h.062l1.565-.068h.062l.491-.019.522-.684-.193-.913a9.346,9.346,0,0,0-3.143,1.621l.118.088Z" transform="translate(-2.212 -1.481)" fill="url(#radial-gradient-21)"/>
  <path id="Path_36" data-name="Path 36" d="M16.954,9.4l.472-.019h.056l1.435-.062h.056l.447-.019.46-.653-.242-1.081a9.457,9.457,0,0,0-3.658.255l.195.956Z" transform="translate(-2.973 -1.394)" fill="url(#radial-gradient-22)"/>
  <path id="Path_37" data-name="Path 37" d="M19.58,9.927l-.447.019h-.057l-1.435.062h-.056l-.472.019-.509.69.553,2.653.323.255c.242-.242.485-.478.727-.7l.05-.05c.416-.385.82-.752,1.224-1.1l.05-.043c.3-.265.608-.509.9-.745l-.105-.472Z" transform="translate(-3.09 -1.847)" fill="url(#radial-gradient-23)"/>
  <path id="Path_38" data-name="Path 38" d="M14.644,10.149l-.491.025h-.062l-1.565.068-.062.006-.516.025-.577.721.522,2.783.851.652.522-.043.062-.006,1.584-.143.062-.006.5-.043.522-.745-.553-2.658Z" transform="translate(-2.115 -1.888)" fill="url(#radial-gradient-24)"/>
  <path id="Path_39" data-name="Path 39" d="M22.265,9.823l-.429.019-.447.659.08.36c.3-.236.6-.46.884-.671l.043-.031c.168-.124.335-.242.5-.36l-.577.025Z" transform="translate(-3.979 -1.823)" fill="url(#radial-gradient-25)"/>
  <path id="Path_40" data-name="Path 40" d="M9.442,24.577q.671-1.276,1.391-2.434l.056-.088c.105-.168.205-.329.31-.491l-.391.056-.068.012-1.761.256L8.9,21.9l-.584.08-.273.378a9.3,9.3,0,0,0,1.245,2.51c.031-.062.062-.118.093-.177Z" transform="translate(-1.497 -4.012)" fill="url(#radial-gradient-26)"/>
  <path id="Path_41" data-name="Path 41" d="M8.759,20.613l.074-.012,1.764-.248.068-.012.553-.074.6-.851-.54-2.907-.869-.659-.546.05L9.79,15.9l-1.746.162-.068.006-.2.019a9.409,9.409,0,0,0-.093,4.245l.5.36Z" transform="translate(-1.393 -2.948)" fill="url(#radial-gradient-27)"/>
  <path id="Path_42" data-name="Path 42" d="M15.209,15.4l-.062.006-1.584.149-.062.006-.522.05L12.4,16.4l.509,2.715c.335-.466.671-.92,1.019-1.348l.055-.068c.435-.546.875-1.068,1.317-1.559l.05-.056c.177-.2.354-.4.531-.584l-.177-.137Z" transform="translate(-2.307 -2.858)" fill="url(#radial-gradient-28)"/>
  <path id="Path_43" data-name="Path 43" d="M12.523,9.642h.062l1.565-.068h.062l.491-.019.522-.684-.193-.913a9.346,9.346,0,0,0-3.143,1.621l.118.088Z" transform="translate(-2.212 -1.481)" fill="url(#radial-gradient-29)"/>
  <path id="Path_44" data-name="Path 44" d="M16.954,9.4l.472-.019h.056l1.435-.062h.056l.447-.019.46-.653-.242-1.081a9.457,9.457,0,0,0-3.658.255l.195.956Z" transform="translate(-2.973 -1.394)" fill="url(#radial-gradient-30)"/>
  <path id="Path_45" data-name="Path 45" d="M8.089,14.936l1.746-.156.068-.006.546-.05.6-.783-.522-2.789-.273-.211a9.385,9.385,0,0,0-2.329,4.013l.1-.006Z" transform="translate(-1.474 -2.036)" fill="url(#radial-gradient-31)"/>
  <path id="Path_46" data-name="Path 46" d="M21.663,9.252l.429-.019h.056l.894-.042c.125-.088.242-.168.36-.248l.043-.031.392-.265A9.3,9.3,0,0,0,20.688,7.6l.236,1.05Z" transform="translate(-3.849 -1.414)" fill="url(#radial-gradient-32)"/>
</svg>
