<?xml version="1.0" encoding="utf-8"?>
<!-- Generator: Adobe Illustrator 24.2.1, SVG Export Plug-In . SVG Version: 6.00 Build 0)  -->
<svg version="1.1" id="Layer_1" xmlns="http://www.w3.org/2000/svg" xmlns:xlink="http://www.w3.org/1999/xlink" x="0px" y="0px"
	 viewBox="0 0 1000 1000" style="enable-background:new 0 0 1000 1000;" xml:space="preserve">
<style type="text/css">
	.st0{fill:#EFEFEF;}
	.st1{fill:#F3F6F4;}
	.st2{fill:#FFFFFF;}
</style>
<circle cx="500" cy="500" r="493"/>
<g>
	<path class="st0" d="M794.78,582.58c0,6.91-0.24,13.76-0.7,20.55H206.15c-0.46-6.79-0.7-13.64-0.7-20.55
		c0-162.74,131.93-294.67,294.67-294.67S794.78,419.84,794.78,582.58z"/>
	<path class="st1" d="M758.36,582.58c0,6.91-0.27,13.78-0.81,20.55H242.68c-0.53-6.78-0.81-13.64-0.81-20.55
		c0-142.63,115.62-258.24,258.24-258.24S758.36,439.95,758.36,582.58z"/>
	<path class="st2" d="M723.43,582.58c0,6.93-0.32,13.78-0.93,20.55H277.73c-0.61-6.78-0.93-13.63-0.93-20.55
		c0-123.34,99.98-223.32,223.32-223.32S723.43,459.24,723.43,582.58z"/>
	<polygon points="421.04,603.13 421.04,528.35 405.66,528.35 499.4,434.61 540.9,476.11 540.9,454.29 564.87,454.29 564.87,497.58 
		594.57,527.28 577.4,527.28 577.4,603.13 	"/>
	<rect x="479.36" y="564.49" class="st2" width="41.15" height="37.93"/>
</g>
</svg>
