<svg xmlns="http://www.w3.org/2000/svg" viewBox="0 0 1406.4 330.5" enable-background="new 0 0 1406.4 330.5"><style type="text/css">.st0{opacity:0.4;fill:#FFFFFF;} .st1{fill:#FFFFFF;} .st2{opacity:0.8;fill:#FFFFFF;}</style><path d="M29.2 231c0-111.2 90.7-201.9 201.9-201.9S433.2 119.8 433.2 231c0 5.3-.2 10.6-.6 15.9h29.2c.4-5.3.6-10.6.6-15.9C462.1 103.6 358.5 0 231 0 103.6 0 0 103.6 0 231c0 5.3.2 10.6.6 15.9h29.2c-.4-5.1-.6-10.4-.6-15.9z" class="st0"/><path d="M987.6 232.6h-1.4c-3.9 0-5.7-.4-6.7-3.1 2.9-5.7 4.5-12.7 4.5-21v-77.7c0-23.9-12.5-37.6-35.6-37.6s-35.6 13.7-35.6 37.6v77.5c0 23.9 12.5 37.6 35.6 37.6 6.3 0 11.7-1 16.4-2.7 3.1 6.3 9.8 10.2 20.2 10.2h2.5c5.7 0 10.4-4.7 10.4-10.4s-4.6-10.4-10.3-10.4zm-27-22.7c0 10.6-4.7 14.7-12.1 14.7-7.4 0-12.1-4.1-12.1-14.7v-80.7c0-10.6 4.7-14.7 12.1-14.7 7.4 0 12.1 4.1 12.1 14.7v80.7zM1055.5 94.8c-6.3 0-11.2 5.1-11.2 11.2v104.4c0 10.6-4.7 14.5-12.1 14.5-7.4 0-12.1-3.9-12.1-14.5V106.1c0-6.3-5.1-11.2-11.2-11.2v-.2h-1.2c-6.3 0-11.2 5.1-11.2 11.2v102.6c0 23.9 11.9 37.6 35 37.6s35-13.7 35-37.6V105.9c.2-6.2-4.9-11.1-11-11.1zM1113.3 93.2c-23.1 0-35.6 13.7-35.6 37.6v77.7c0 23.9 12.5 37.6 35.6 37.6s35.6-13.7 35.6-37.6v-77.7c0-23.9-12.5-37.6-35.6-37.6zm12 116.7c0 10.6-4.7 14.7-12.1 14.7-7.4 0-12.1-4.1-12.1-14.7v-80.7c0-10.6 4.7-14.7 12.1-14.7 7.4 0 12.1 4.1 12.1 14.7v80.7zM1214.3 95h-51.1c-5.9 0-10.6 4.7-10.6 10.8 0 5.9 4.7 10.6 10.6 10.6h13.9v117.1c0 5.9 4.7 10.6 10.6 10.6h2.2c5.9 0 10.6-4.7 10.6-10.6V116.1h13.9c5.9 0 10.6-4.7 10.6-10.6-.1-5.8-4.8-10.5-10.7-10.5zM1284.2 116.1c5.9 0 10.6-4.7 10.6-10.6 0-5.9-4.7-10.6-10.6-10.6H1231v148.8h53.3c5.9 0 10.6-4.7 10.6-10.6 0-5.9-4.7-10.6-10.6-10.6h-30V179h21.5c5.9 0 10.6-4.7 10.6-10.6s-4.7-10.6-10.6-10.6h-21.5v-41.7h29.9zM1334.8 93.2c-22.9 0-34.7 13.7-34.9 37.4 0 17.2 6.3 29.6 25.8 46.8 15.3 13.5 20 21.5 20 32.5 0 10.6-4.7 14.5-12.1 14.5-7.4 0-12.1-3.9-12.1-14.5v-9.2c0-6.3-5.1-11.2-11.2-11.2-6.3 0-11.2 5.1-11.2 11.2v7.8c0 23.9 11.9 37.6 35 37.6s35-13.7 35-37.6c0-17.2-6.3-29.6-25.8-46.8-15.3-13.5-20-21.5-20-32.5 0-10.6 4.3-14.7 11.7-14.7 7.4 0 11.7 4.1 11.7 14.7v3.9c0 6.3 5.1 11.2 11.2 11.2 6.3 0 11.2-5.1 11.2-11.2v-2.3c.1-23.9-11.4-37.6-34.3-37.6zM624.2 246.7c23.5 0 36.2-13.9 36.2-38.2v-79.1c0-24.3-12.7-38.2-36.2-38.2-23.5 0-36.2 13.9-36.2 38.2v79.1c0 24.3 12.7 38.2 36.2 38.2zm-12.3-118.8c0-11 4.7-15.1 12.3-15.1 7.6 0 12.3 4.3 12.3 15.1v82c0 11-4.7 15.1-12.3 15.1-7.6 0-12.3-4.3-12.3-15.1v-82zM735.2 234c0-5.9-4.7-10.8-10.8-10.8h-28.6V103.8c0-5.9-4.7-10.8-10.8-10.8h-2.2c-6.1 0-10.8 4.7-10.8 10.8v141h52.3c6-.1 10.9-4.8 10.9-10.8zM819.8 232.4l-19.6-122.2C798.6 100.2 790 93 780 93s-18.6 7.2-20.2 17.2l-19.6 122.2c-1.2 6.7 3.9 12.5 10.6 12.5 5.3 0 9.8-3.9 10.6-9.2l2.7-18.4h29.4l2.7 18.4c.8 5.3 5.3 9.2 10.6 9.2h2.2c6.7 0 11.8-6 10.8-12.5zm-52.7-35.6l11.4-76.9h.4l11.4 76.9h-23.2zM837.8 244.6c6.7.2 11.9-5.1 11.9-11.7v-49.7h8.2c10.8 0 15.7 5.3 15.7 19.4V233c0 6.7 5.3 11.9 11.9 11.9 6.7 0 11.9-5.3 11.9-11.9v-29.8c0-15.9-3.9-27.2-15.9-32.1v-.8c10.6-5.1 15.7-15.1 15.7-30.5v-11.9c0-23.5-10.6-35-35.4-35h-36v139.8c.1 6.6 5.4 11.9 12 11.9zm12-130.1h11.6c8.4 0 12.1 4.7 12.1 15.7v15.1c0 12.1-5.5 16.1-14.3 16.1h-9.4v-46.9zM543.9 91.4c-23.3 0-35.2 13.9-35.2 38.2 0 17.4 6.3 30 26.2 47.6 15.7 13.7 20.4 21.9 20.4 33.1 0 10.8-4.7 14.7-12.3 14.7-7.6 0-12.3-3.9-12.3-14.7v-9.4c0-6.3-5.1-11.4-11.4-11.4-6.3 0-11.4 5.1-11.4 11.4v7.8c0 24.3 12.1 38.2 35.6 38.2s35.6-13.9 35.6-38.2c0-17.4-6.3-30-26.2-47.6-15.7-13.7-20.4-21.9-20.4-33.1 0-11 4.3-15.1 11.9-15.1 7.6 0 11.9 4.3 11.9 15.1v3.9c0 6.3 5.1 11.4 11.4 11.4 6.3 0 11.4-5.1 11.4-11.4v-2.3c.1-24.3-11.9-38.2-35.2-38.2zM1396.4 101.4c0-3.7-2.5-6.1-6.9-6.1h-8.2v18.2h3.9v-5.9h3.1l3.9 5.9h4.7l-4.5-6.5c2.5-.9 4-2.6 4-5.6zm-7 3h-4.1v-5.3h3.9c2 0 3.1.8 3.1 2.5 0 1.6-1 2.6-2.9 2.8zM1388.6 86.2c-10 0-17.6 7.8-17.6 18.2v.2c0 10.4 7.8 18.4 17.8 18.4s17.6-7.8 17.6-18.2v-.2c0-10.4-7.8-18.4-17.8-18.4zm13.1 18.6c0 7.6-5.5 13.5-12.9 13.5s-13.1-5.9-13.1-13.7v-.2c0-7.6 5.5-13.5 12.9-13.5s13.1 5.9 13.1 13.7v.2zM552 297c-2-1.2-3.9-2.2-5.9-2.7s-3.5-1-4.7-1.2c-3.9-1-6.9-1.8-9.2-2.3-2.3-.6-4.1-1.2-5.5-1.8-1.4-.6-2.3-1.2-2.7-2-.4-.8-.6-1.8-.6-2.9 0-1.2.2-2.3.8-3.1.6-1 1.4-1.6 2.2-2.2 1-.6 2-1 2.9-1.2 1-.2 2.2-.4 3.1-.4 1.6 0 3.1.2 4.5.4s2.7.8 3.7 1.4c1 .6 2 1.6 2.5 2.7.6 1.2 1 2.7 1.2 4.5H557c0-3.3-.6-6.5-2-8.8-1.2-2.5-3.1-4.5-5.3-6.1-2.2-1.6-4.7-2.5-7.6-3.3-2.9-.6-5.9-1-9-1-2.7 0-5.3.4-8 1.2-2.7.8-5.1 1.8-7.2 3.3-2 1.6-3.7 3.3-5.1 5.7-1.4 2.3-2 4.9-2 8 0 2.7.6 5.1 1.6 7 1 2 2.3 3.5 4.1 4.9 1.6 1.2 3.5 2.3 5.7 3.1 2 1 4.3 1.6 6.5 2.2 2.2.8 4.3 1.2 6.5 1.8s3.9 1.2 5.7 1.8c1.8.8 3.1 1.6 4.1 2.5 1 1 1.6 2.3 1.6 3.9s-.4 2.7-1.2 3.7c-.8 1-1.8 1.8-2.9 2.3-1.2.6-2.3 1-3.7 1.2-1.4.2-2.5.2-3.7.2-1.8 0-3.5-.2-5.1-.6-1.8-.4-3.1-1.2-4.3-2-1.2-.8-2.2-2-2.9-3.3-.8-1.4-1.2-2.9-1-6.1h-12.7c-.2 3.7.6 6.9 2 9.6 1.4 2.7 3.3 4.9 5.7 6.7 2.3 1.8 5.1 3.1 8.2 3.9 3.1.8 6.3 1.2 9.6 1.2 4.1 0 7.6-.4 10.8-1.4 3.1-.8 5.7-2.2 7.8-3.9 2-1.8 3.7-3.7 4.7-6.1 1-2.3 1.6-4.9 1.6-7.6 0-3.3-.8-6.1-2.2-8.2-1.6-2-3.4-3.6-5.3-5zM564.5 268.8h13.1v60.1h-13.1zM624.6 309.2h-.2l-25.1-40.4h-13.1v60.1h12.4v-40.1h.2l25 40.1h13.1v-60.1h-12.3zM681.6 315.8c-2.2 2.5-5.3 3.7-9.4 3.7-3.1 0-5.5-.6-7.6-1.8-2.2-1-3.7-2.5-5.1-4.5-1.2-2-2.2-4.1-2.7-6.5-.8-2.5-1-4.9-1-7.4s.4-5.1 1-7.6 1.4-4.7 2.7-6.7c1.4-2 2.9-3.5 5.1-4.7s4.7-1.8 7.6-1.8c1.6 0 3.1.2 4.7.8 1.4.4 2.7 1.2 3.9 2.2 1.2 1 2.2 2.2 2.9 3.3.8 1.4 1.4 2.7 1.6 4.7H698c-.4-3.5-1.4-6.5-2.9-9.2-1.4-2.7-3.3-5.1-5.7-6.9-2.3-1.8-4.9-3.1-7.8-4.1-2.9-1-6.1-1.4-9.4-1.4-4.5 0-8.6.8-12.3 2.3-3.5 1.6-6.7 3.7-9.2 6.7-2.5 2.7-4.5 6.1-5.9 10-1.4 3.9-2 8-2 12.5 0 4.3.6 8.4 2 12.1 1.4 3.7 3.3 7 5.9 9.8 2.3 2.9 5.5 5.1 9.2 6.7 3.5 1.6 7.8 2.3 12.3 2.3 3.7 0 7-.6 10.2-1.8 3.1-1.2 5.7-2.7 8-4.9 2.2-2 4.1-4.5 5.5-7.6 1.4-3.1 2.2-6.5 2.5-10.2h-12.7c-.4 4.3-1.8 7.5-4.1 10zM717.4 303.1h29.2v-10.2h-29.2V280h31.7v-11.2h-45v60.1h45.6v-11.1h-32.3zM793.6 313.3c2-1.6 3.9-2.9 5.9-4.3 2.2-1.2 4.1-2.5 6.1-3.9s3.7-2.9 5.3-4.5c1.6-1.6 2.7-3.5 3.7-5.7s1.4-4.7 1.4-7.6-.4-5.5-1.6-7.8c-1.2-2.3-2.7-4.3-4.5-5.9-2-1.6-4.1-2.7-6.5-3.5-2.3-.8-4.9-1.2-7.6-1.2-3.5 0-6.7.6-9.4 1.8-2.7 1.2-5.1 2.9-6.9 5.1-2 2.2-3.1 4.7-4.1 7.6-.8 2.9-1.2 6.1-1.2 9h11.4c0-1.6 0-3.1.4-4.7s.8-2.9 1.6-4.3c.8-1.2 1.8-2.3 2.9-3.1 1.4-.8 2.7-1.2 4.5-1.2 2.5 0 4.7.8 6.3 2.3 1.8 1.6 2.5 3.7 2.5 6.7 0 1.8-.4 3.3-1.2 4.7-.8 1.4-1.8 2.5-2.9 3.7-1.2 1.2-2.5 2.2-3.9 3.1-1.4 1-2.7 1.8-4.1 2.7-2.5 1.8-4.9 3.3-7.2 5.1-2.2 1.6-4.1 3.5-5.9 5.5-1.6 2.2-2.9 4.3-3.9 6.9-1.2 2.5-1.6 5.7-1.6 9h43.3v-10.2h-27.8c1.4-2 3-3.7 5-5.3zM854.9 275.5c-2-2.3-4.3-4.1-6.9-5.1-2.7-1-5.5-1.6-8.4-1.6-2.9 0-5.7.6-8.2 1.6-2.5 1-4.9 2.7-6.9 5.1-2 2.3-3.5 5.5-4.7 9.4-1.2 3.9-1.8 8.6-1.8 14.5s.6 10.8 1.8 14.7c1.2 3.9 2.7 7 4.7 9.4 2 2.3 4.3 4.1 6.9 5.1 2.5 1 5.3 1.6 8.2 1.6 2.9 0 5.9-.6 8.4-1.6s4.9-2.7 6.9-5.1c2-2.3 3.5-5.5 4.7-9.4 1.2-3.9 1.8-8.8 1.8-14.7 0-5.9-.6-10.6-1.8-14.5-1.2-3.9-2.8-7.1-4.7-9.4zm-5.7 23.9c0 1.6 0 3.7-.2 6.1 0 2.3-.4 4.7-1 6.9s-1.6 4.1-2.9 5.7c-1.4 1.6-3.1 2.3-5.7 2.3-2.3 0-4.1-.8-5.5-2.3-1.2-1.6-2.2-3.5-2.7-5.7s-.8-4.5-1-6.9c-.2-2.5-.2-4.5-.2-6.1 0-1 0-2.3 0-3.7.2-1.6.2-2.9.4-4.5s.4-2.9.8-4.5c.4-1.4.8-2.7 1.6-3.9.8-1.2 1.6-2.2 2.7-2.9 1.2-.8 2.5-1.2 4.1-1.2 1.6 0 2.9.4 4.1 1.2 1.2.8 2.2 1.8 2.7 2.9.6 1.2 1.2 2.3 1.6 3.9.4 1.6.6 2.9.8 4.5.2 1.6.4 3.1.4 4.5 0 1.5 0 2.7 0 3.7zM900.9 275.5c-2-2.3-4.3-4.1-6.9-5.1-2.7-1-5.5-1.6-8.4-1.6s-5.7.6-8.2 1.6-4.9 2.7-6.9 5.1c-2 2.3-3.5 5.5-4.7 9.4-1.2 3.9-1.8 8.6-1.8 14.5s.6 10.8 1.8 14.7c1.2 3.9 2.7 7 4.7 9.4 2 2.3 4.3 4.1 6.9 5.1 2.5 1 5.3 1.6 8.2 1.6s5.9-.6 8.4-1.6 4.9-2.7 6.9-5.1c2-2.3 3.5-5.5 4.7-9.4 1.2-3.9 1.8-8.8 1.8-14.7 0-5.9-.6-10.6-1.8-14.5-1.2-3.9-2.8-7.1-4.7-9.4zm-5.7 23.9c0 1.6 0 3.7-.2 6.1 0 2.3-.4 4.7-1 6.9s-1.6 4.1-2.9 5.7c-1.4 1.6-3.1 2.3-5.7 2.3-2.3 0-4.1-.8-5.5-2.3-1.2-1.6-2.2-3.5-2.7-5.7-.6-2.2-.8-4.5-1-6.9-.2-2.5-.2-4.5-.2-6.1 0-1 0-2.3 0-3.7.2-1.6.2-2.9.4-4.5s.4-2.9.8-4.5c.4-1.4.8-2.7 1.6-3.9.8-1.2 1.6-2.2 2.7-2.9 1.2-.8 2.5-1.2 4.1-1.2 1.6 0 2.9.4 4.1 1.2 1.2.8 2.2 1.8 2.7 2.9.6 1.2 1.2 2.3 1.6 3.9.4 1.6.6 2.9.8 4.5.2 1.6.4 3.1.4 4.5 0 1.5 0 2.7 0 3.7zM947.5 278.6c-1.6-2.9-4.1-5.1-6.9-7-2.7-2-6.5-2.7-11-2.7-3.1 0-5.9.6-8.4 1.8-2.5 1-4.7 2.5-6.5 4.5-1.8 2-3.1 4.3-4.1 6.9-1.2 2.5-1.6 5.5-1.6 8.4 0 2.3.4 4.7 1.2 7 .8 2.2 2 4.3 3.5 6.1 1.6 2 3.7 3.3 6.1 4.5 2.5 1 4.9 1.6 7.4 1.6 2.9 0 5.5-.6 7.6-1.6 2.2-1 4.1-2.7 5.7-5.1l.2.2c-.2 1.6-.4 3.3-.8 5.5s-1 4.1-1.8 5.9c-.8 2-2 3.5-3.3 4.7-1.4 1.4-3.1 2-5.3 2-2.2 0-3.9-.8-5.3-2.2-1.4-1.6-2.2-3.1-3.5-5.1h-11.4c.4 2.5 1.2 4.9 2.2 6.9 1 2 2.3 3.7 4.1 5.1 1.8 1.4 3.7 2.3 5.9 3.1 2.2.6 4.5 1 7 1 4.3 0 7.8-1 10.8-2.7 2.9-1.8 5.5-4.1 7.2-7 2-2.9 3.3-6.1 4.1-9.8.8-3.7 1.2-7.2 1.2-11s-.4-7.2-1-11c-.4-3.9-1.6-7-3.3-10zm-8.3 15.3c-.4 1.4-1 2.5-1.8 3.5s-1.8 1.8-2.9 2.3c-1.2.6-2.5.8-4.3 1-1.4 0-2.7-.4-3.9-1-1-.6-2-1.6-2.7-2.5-.6-1-1.2-2.2-1.6-3.5-.4-1.4-.6-2.7-.6-4.1 0-1.4.2-2.5.6-3.9.4-1.4 1-2.5 1.8-3.5s1.8-1.8 2.9-2.3c1-.6 2.3-1 3.7-1 1.6 0 2.9.4 4.1 1 1.2.6 2.2 1.6 2.9 2.5.8 1 1.4 2.2 1.8 3.5.4 1.2.6 2.5.6 3.9s-.2 2.7-.6 4.1zM170.1 189.1h-13.7l75.2-75.2 32.9 32.9v-16.3h18v34.3l15.9 15.9c2.2 2.2 4.3 4.3 6.7 6.5.4.4.8.6 1 1.2l.8.8h-13.5v58h109.8c.6-5.7.8-11.6.8-17.4 0-95.4-77.3-172.7-172.7-172.7S58.5 134.3 58.5 229.7c0 5.9.4 11.7.8 17.4h111v-58h-.2zM215.8 216.7h32.1V247h-32.1z" class="st1"/><path d="M231 29.2c111.4 0 201.9 90.7 201.9 201.9 0 5.3-.2 10.6-.6 15.9H403c.6-5.7.8-11.6.8-17.4 0-95.4-77.3-172.7-172.7-172.7S58.3 134.1 58.3 229.5c0 5.9.4 11.7.8 17.4H29.8c-.4-5.3-.6-10.6-.6-15.9 0-111.2 90.6-201.8 201.8-201.8z" class="st2"/></svg>