<svg id="solartribune" xmlns="http://www.w3.org/2000/svg" xmlns:xlink="http://www.w3.org/1999/xlink" width="150.081" height="33.595" viewBox="0 0 150.081 33.595">
  <defs>
    <linearGradient id="linear-gradient" x1="4.239" y1="18.03" x2="4.239" y2="11.875" gradientUnits="objectBoundingBox">
      <stop offset="0" stop-color="#f6ae03"/>
      <stop offset="1" stop-color="#ffdc55"/>
    </linearGradient>
    <linearGradient id="linear-gradient-2" x1="5.726" y1="25.674" x2="5.726" y2="19.519" gradientUnits="objectBoundingBox">
      <stop offset="0" stop-color="#e6e6e6"/>
      <stop offset="1" stop-color="#fefefe"/>
    </linearGradient>
  </defs>
  <path id="Path_1" data-name="Path 1" d="M28.476,16.847c1.553-.867,4.563-4.236,4.563-4.236a50.771,50.771,0,0,1-5.97-.769c1.308-1.733,2.4-5.773,2.4-5.773C27.919,7.2,23.716,7.622,23.716,7.622a27.868,27.868,0,0,0,.246-6.133,25.605,25.605,0,0,1-5.447,3.957A15.137,15.137,0,0,0,15.6,0c-.115,2.045-2.421,5.757-2.421,5.757A55.546,55.546,0,0,0,7.458,2.78,21.453,21.453,0,0,1,8.734,8.423a66.045,66.045,0,0,0-6.624.246c.8,1.047,2.683,2.274,3.6,4.3A50.388,50.388,0,0,0,0,15.833c1.031.393,3.778,1.357,5.1,2.584-.18.54-2.6,2.11-4.22,4.792a19,19,0,0,1,6.068,0,33.17,33.17,0,0,0-1.6,5.921A21.489,21.489,0,0,1,10.7,27.02s.393,5.021.867,5.9c2.879-3.762,4.4-4.351,4.4-4.351s3.467,4.58,4.318,5.021a20.785,20.785,0,0,1,1.063-6,27.968,27.968,0,0,0,5.414,2.7l-1.128-4.71-.049-.229,2.453-3.714.1-.147a16.208,16.208,0,0,0,5.152-1.309C30.88,18.711,28.476,16.847,28.476,16.847Zm-5.234.49a6.639,6.639,0,1,1-6.33-6.935A6.639,6.639,0,0,1,23.242,17.337Z" fill="url(#linear-gradient)"/>
  <path id="Path_2" data-name="Path 2" d="M31.153,25.344A46.66,46.66,0,0,1,28,21.6a2.981,2.981,0,0,1-.8-2,11.351,11.351,0,0,0,.262-3.352,10.918,10.918,0,1,0-4.155,9.42,4.347,4.347,0,0,1,2.29-.131c1.946.164,4.5.589,5.446.246A.276.276,0,0,0,31.153,25.344ZM23.2,17.3a6.639,6.639,0,1,1-6.33-6.935A6.639,6.639,0,0,1,23.2,17.3Z" transform="translate(0.038 0.041)" fill="url(#linear-gradient-2)"/>
  <path id="Path_3" data-name="Path 3" d="M31.153,25.344A46.66,46.66,0,0,1,28,21.6a2.981,2.981,0,0,1-.8-2,11.351,11.351,0,0,0,.262-3.352,10.918,10.918,0,1,0-4.155,9.42,4.347,4.347,0,0,1,2.29-.131c1.946.164,4.5.589,5.446.246A.276.276,0,0,0,31.153,25.344ZM23.2,17.3a6.639,6.639,0,1,1-6.33-6.935A6.639,6.639,0,0,1,23.2,17.3Z" transform="translate(0.038 0.041)" fill="none" stroke="#c9c9c9" stroke-miterlimit="10" stroke-width="0.5" opacity="0.4"/>
  <g id="Group_1" data-name="Group 1" transform="translate(37.32 12.61)">
    <path id="Path_4" data-name="Path 4" d="M51.218,77.6a8.434,8.434,0,0,0-1.8-.687,7.866,7.866,0,0,0-1.865-.229,4.772,4.772,0,0,0-1.914.294c-.425.2-.654.458-.654.8,0,.36.229.622.7.785a3.461,3.461,0,0,0,.736.18c.278.033.572.065.9.082s.671.033,1.047.065c.376.016.769.065,1.178.115a4.785,4.785,0,0,1,2.241.736,1.814,1.814,0,0,1,.72,1.57,2.242,2.242,0,0,1-1.129,2,6.218,6.218,0,0,1-3.288.7,10.729,10.729,0,0,1-2.748-.327,5.758,5.758,0,0,1-2.077-1.03L44,81.671a7.291,7.291,0,0,0,1.979.883,8.11,8.11,0,0,0,2.11.278A4.938,4.938,0,0,0,50.3,82.44a1.162,1.162,0,0,0,.752-1.047.889.889,0,0,0-.245-.671,1.552,1.552,0,0,0-.736-.36,6.9,6.9,0,0,0-1.178-.18c-.474-.033-1-.065-1.587-.115-.622-.049-1.178-.1-1.636-.18a3.892,3.892,0,0,1-1.161-.36,1.646,1.646,0,0,1-.7-.622,1.724,1.724,0,0,1-.229-.965,2.014,2.014,0,0,1,1.047-1.8,5.734,5.734,0,0,1,3.026-.654,7.6,7.6,0,0,1,4.384,1.194Z" transform="translate(-43.268 -75.488)" fill="#445f8b"/>
  </g>
  <g id="Group_2" data-name="Group 2" transform="translate(37.32 12.61)">
    <path id="Path_5" data-name="Path 5" d="M51.218,77.6a8.434,8.434,0,0,0-1.8-.687,7.866,7.866,0,0,0-1.865-.229,4.772,4.772,0,0,0-1.914.294c-.425.2-.654.458-.654.8,0,.36.229.622.7.785a3.461,3.461,0,0,0,.736.18c.278.033.572.065.9.082s.671.033,1.047.065c.376.016.769.065,1.178.115a4.785,4.785,0,0,1,2.241.736,1.814,1.814,0,0,1,.72,1.57,2.242,2.242,0,0,1-1.129,2,6.218,6.218,0,0,1-3.288.7,10.729,10.729,0,0,1-2.748-.327,5.758,5.758,0,0,1-2.077-1.03L44,81.671a7.291,7.291,0,0,0,1.979.883,8.11,8.11,0,0,0,2.11.278A4.938,4.938,0,0,0,50.3,82.44a1.162,1.162,0,0,0,.752-1.047.889.889,0,0,0-.245-.671,1.552,1.552,0,0,0-.736-.36,6.9,6.9,0,0,0-1.178-.18c-.474-.033-1-.065-1.587-.115-.622-.049-1.178-.1-1.636-.18a3.892,3.892,0,0,1-1.161-.36,1.646,1.646,0,0,1-.7-.622,1.724,1.724,0,0,1-.229-.965,2.014,2.014,0,0,1,1.047-1.8,5.734,5.734,0,0,1,3.026-.654,7.6,7.6,0,0,1,4.384,1.194Z" transform="translate(-43.268 -75.488)" fill="none" stroke="#445f8b" stroke-miterlimit="10" stroke-width="0.162"/>
  </g>
  <g id="Group_3" data-name="Group 3" transform="translate(48.132 13.689)">
    <path id="Path_6" data-name="Path 6" d="M63.053,80.273a3.335,3.335,0,0,1-1.423,2.8,4.51,4.51,0,0,1-1.374.687,6.134,6.134,0,0,1-3.435,0,4.42,4.42,0,0,1-1.39-.687,3.417,3.417,0,0,1,.016-5.561,4.824,4.824,0,0,1,1.39-.7,5.7,5.7,0,0,1,1.7-.245,5.78,5.78,0,0,1,1.7.245,4.355,4.355,0,0,1,1.374.7A3.273,3.273,0,0,1,63.053,80.273Zm-1.21,0a2.35,2.35,0,0,0-1.047-2,3.159,3.159,0,0,0-1-.491,4.533,4.533,0,0,0-2.584.016,3.051,3.051,0,0,0-1.047.556,2.468,2.468,0,0,0-.687.851,2.361,2.361,0,0,0-.245,1.063,2.6,2.6,0,0,0,.229,1.08,2.366,2.366,0,0,0,.671.834,3.332,3.332,0,0,0,1.047.54,4.5,4.5,0,0,0,1.374.2,4.315,4.315,0,0,0,1.358-.2,3.076,3.076,0,0,0,1.03-.54,2.322,2.322,0,0,0,.654-.834A2.38,2.38,0,0,0,61.843,80.273Z" transform="translate(-54.008 -76.561)" fill="#445f8b"/>
    <path id="Path_7" data-name="Path 7" d="M64.96,83.789V76.756h1.161v5.986h5.43v1.047Z" transform="translate(-53.935 -76.559)" fill="#445f8b"/>
    <path id="Path_8" data-name="Path 8" d="M79.975,83.789l-.818-1.57H74.43l-.818,1.57H72.336l3.729-7.033h1.472l3.729,7.033ZM76.8,77.77l-1.8,3.4h3.582Z" transform="translate(-53.886 -76.559)" fill="#445f8b"/>
    <path id="Path_9" data-name="Path 9" d="M89.05,83.789l-1.914-2.682H83.587v2.682H82.426V76.756h5.545a2.463,2.463,0,0,1,1.75.589,2.085,2.085,0,0,1,.622,1.619,2.449,2.449,0,0,1-.131.818,1.974,1.974,0,0,1-.376.622,1.9,1.9,0,0,1-.589.409,3.363,3.363,0,0,1-.72.229l1.881,2.748ZM87.791,80.06a1.576,1.576,0,0,0,1-.278.971.971,0,0,0,.343-.8c0-.785-.491-1.161-1.456-1.161H83.571v2.257l4.22-.016Z" transform="translate(-53.819 -76.559)" fill="#445f8b"/>
  </g>
  <g id="Group_4" data-name="Group 4" transform="translate(48.132 13.689)">
    <path id="Path_10" data-name="Path 10" d="M63.053,80.273a3.335,3.335,0,0,1-1.423,2.8,4.51,4.51,0,0,1-1.374.687,6.134,6.134,0,0,1-3.435,0,4.42,4.42,0,0,1-1.39-.687,3.417,3.417,0,0,1,.016-5.561,4.824,4.824,0,0,1,1.39-.7,5.7,5.7,0,0,1,1.7-.245,5.78,5.78,0,0,1,1.7.245,4.355,4.355,0,0,1,1.374.7A3.273,3.273,0,0,1,63.053,80.273Zm-1.21,0a2.35,2.35,0,0,0-1.047-2,3.159,3.159,0,0,0-1-.491,4.533,4.533,0,0,0-2.584.016,3.051,3.051,0,0,0-1.047.556,2.468,2.468,0,0,0-.687.851,2.361,2.361,0,0,0-.245,1.063,2.6,2.6,0,0,0,.229,1.08,2.366,2.366,0,0,0,.671.834,3.332,3.332,0,0,0,1.047.54,4.5,4.5,0,0,0,1.374.2,4.315,4.315,0,0,0,1.358-.2,3.076,3.076,0,0,0,1.03-.54,2.322,2.322,0,0,0,.654-.834A2.38,2.38,0,0,0,61.843,80.273Z" transform="translate(-54.008 -76.561)" fill="none" stroke="#445f8b" stroke-miterlimit="10" stroke-width="0.162"/>
    <path id="Path_11" data-name="Path 11" d="M64.96,83.789V76.756h1.161v5.986h5.43v1.047Z" transform="translate(-53.935 -76.559)" fill="none" stroke="#445f8b" stroke-miterlimit="10" stroke-width="0.162"/>
    <path id="Path_12" data-name="Path 12" d="M79.975,83.789l-.818-1.57H74.43l-.818,1.57H72.336l3.729-7.033h1.472l3.729,7.033ZM76.8,77.77l-1.8,3.4h3.582Z" transform="translate(-53.886 -76.559)" fill="none" stroke="#445f8b" stroke-miterlimit="10" stroke-width="0.162"/>
    <path id="Path_13" data-name="Path 13" d="M89.05,83.789l-1.914-2.682H83.587v2.682H82.426V76.756h5.545a2.463,2.463,0,0,1,1.75.589,2.085,2.085,0,0,1,.622,1.619,2.449,2.449,0,0,1-.131.818,1.974,1.974,0,0,1-.376.622,1.9,1.9,0,0,1-.589.409,3.363,3.363,0,0,1-.72.229l1.881,2.748ZM87.791,80.06a1.576,1.576,0,0,0,1-.278.971.971,0,0,0,.343-.8c0-.785-.491-1.161-1.456-1.161H83.571v2.257l4.22-.016Z" transform="translate(-53.819 -76.559)" fill="none" stroke="#445f8b" stroke-miterlimit="10" stroke-width="0.162"/>
  </g>
  <g id="Group_5" data-name="Group 5" transform="translate(88.074 12.822)">
    <path id="Path_14" data-name="Path 14" d="M98.9,76.91V83.8H97.562V76.91H93.686V75.7h9.078v1.21Z" transform="translate(-93.686 -75.699)" fill="#445f8b"/>
  </g>
  <g id="Group_6" data-name="Group 6" transform="translate(88.074 12.822)">
    <path id="Path_15" data-name="Path 15" d="M98.9,76.91V83.8H97.562V76.91H93.686V75.7h9.078v1.21Z" transform="translate(-93.686 -75.699)" fill="none" stroke="#445f8b" stroke-miterlimit="10" stroke-width="0.162"/>
  </g>
  <g id="Group_7" data-name="Group 7" transform="translate(98.575 13.869)">
    <path id="Path_16" data-name="Path 16" d="M110.742,83.789l-1.914-2.682h-3.549v2.682h-1.161V76.756h5.545a2.463,2.463,0,0,1,1.75.589,2.085,2.085,0,0,1,.622,1.619,2.449,2.449,0,0,1-.131.818,1.974,1.974,0,0,1-.376.622,1.9,1.9,0,0,1-.589.409,3.364,3.364,0,0,1-.72.229l1.881,2.748Zm-1.259-3.729a1.576,1.576,0,0,0,1-.278.971.971,0,0,0,.343-.8c0-.785-.491-1.161-1.456-1.161h-4.105v2.257l4.22-.016Z" transform="translate(-104.117 -76.739)" fill="#445f8b"/>
    <path id="Path_17" data-name="Path 17" d="M113.833,83.789V76.756h1.161v7.033Z" transform="translate(-104.052 -76.739)" fill="#445f8b"/>
    <path id="Path_18" data-name="Path 18" d="M124.312,80.174a1.706,1.706,0,0,1,1.21,1.783,1.578,1.578,0,0,1-.671,1.374,3.5,3.5,0,0,1-2,.458h-5.61V76.756h5.692a3.442,3.442,0,0,1,.965.131,2.038,2.038,0,0,1,.72.393,1.61,1.61,0,0,1,.442.605,2.04,2.04,0,0,1,.164.785,1.565,1.565,0,0,1-.213.851A1.824,1.824,0,0,1,124.312,80.174Zm-1.358-.458a1.237,1.237,0,0,0,.818-.278.868.868,0,0,0,.327-.687.845.845,0,0,0-.294-.687,1.209,1.209,0,0,0-.8-.262h-4.58v1.9h4.531Zm-.1,3.026a2.1,2.1,0,0,0,1.1-.229.818.818,0,0,0,.36-.736.911.911,0,0,0-.311-.769,1.551,1.551,0,0,0-.965-.245h-4.629v1.979Z" transform="translate(-104.03 -76.739)" fill="#445f8b"/>
    <path id="Path_19" data-name="Path 19" d="M135.366,81.515a1.953,1.953,0,0,1-.278,1,2.563,2.563,0,0,1-.785.785,4.125,4.125,0,0,1-1.243.523,7.422,7.422,0,0,1-3.32-.016,4.23,4.23,0,0,1-1.259-.523,2.4,2.4,0,0,1-.785-.785,1.953,1.953,0,0,1-.278-1v-4.76h1.161v4.482a1.4,1.4,0,0,0,.72,1.259,4.055,4.055,0,0,0,2.11.442,3.99,3.99,0,0,0,2.094-.442,1.4,1.4,0,0,0,.7-1.259V76.739h1.161Z" transform="translate(-103.962 -76.739)" fill="#445f8b"/>
    <path id="Path_20" data-name="Path 20" d="M144.147,83.789l-5.381-5.757v5.774H137.6V76.772h1.456l5.381,5.774V76.772H145.6v7.033l-1.456-.016Z" transform="translate(-103.894 -76.739)" fill="#445f8b"/>
    <path id="Path_21" data-name="Path 21" d="M147.873,83.789V76.756h7.1V77.8h-5.921v1.832h4.122v1.047h-4.122v2.061h6.2v1.047Z" transform="translate(-103.825 -76.739)" fill="#445f8b"/>
  </g>
  <g id="Group_8" data-name="Group 8" transform="translate(98.575 13.869)">
    <path id="Path_22" data-name="Path 22" d="M110.742,83.789l-1.914-2.682h-3.549v2.682h-1.161V76.756h5.545a2.463,2.463,0,0,1,1.75.589,2.085,2.085,0,0,1,.622,1.619,2.449,2.449,0,0,1-.131.818,1.974,1.974,0,0,1-.376.622,1.9,1.9,0,0,1-.589.409,3.364,3.364,0,0,1-.72.229l1.881,2.748Zm-1.259-3.729a1.576,1.576,0,0,0,1-.278.971.971,0,0,0,.343-.8c0-.785-.491-1.161-1.456-1.161h-4.105v2.257l4.22-.016Z" transform="translate(-104.117 -76.739)" fill="none" stroke="#445f8b" stroke-miterlimit="10" stroke-width="0.162"/>
    <path id="Path_23" data-name="Path 23" d="M113.833,83.789V76.756h1.161v7.033Z" transform="translate(-104.052 -76.739)" fill="none" stroke="#445f8b" stroke-miterlimit="10" stroke-width="0.162"/>
    <path id="Path_24" data-name="Path 24" d="M124.312,80.174a1.706,1.706,0,0,1,1.21,1.783,1.578,1.578,0,0,1-.671,1.374,3.5,3.5,0,0,1-2,.458h-5.61V76.756h5.692a3.442,3.442,0,0,1,.965.131,2.038,2.038,0,0,1,.72.393,1.61,1.61,0,0,1,.442.605,2.04,2.04,0,0,1,.164.785,1.565,1.565,0,0,1-.213.851A1.824,1.824,0,0,1,124.312,80.174Zm-1.358-.458a1.237,1.237,0,0,0,.818-.278.868.868,0,0,0,.327-.687.845.845,0,0,0-.294-.687,1.209,1.209,0,0,0-.8-.262h-4.58v1.9h4.531Zm-.1,3.026a2.1,2.1,0,0,0,1.1-.229.818.818,0,0,0,.36-.736.911.911,0,0,0-.311-.769,1.551,1.551,0,0,0-.965-.245h-4.629v1.979Z" transform="translate(-104.03 -76.739)" fill="none" stroke="#445f8b" stroke-miterlimit="10" stroke-width="0.162"/>
    <path id="Path_25" data-name="Path 25" d="M135.366,81.515a1.953,1.953,0,0,1-.278,1,2.563,2.563,0,0,1-.785.785,4.125,4.125,0,0,1-1.243.523,7.422,7.422,0,0,1-3.32-.016,4.23,4.23,0,0,1-1.259-.523,2.4,2.4,0,0,1-.785-.785,1.953,1.953,0,0,1-.278-1v-4.76h1.161v4.482a1.4,1.4,0,0,0,.72,1.259,4.055,4.055,0,0,0,2.11.442,3.99,3.99,0,0,0,2.094-.442,1.4,1.4,0,0,0,.7-1.259V76.739h1.161Z" transform="translate(-103.962 -76.739)" fill="none" stroke="#445f8b" stroke-miterlimit="10" stroke-width="0.162"/>
    <path id="Path_26" data-name="Path 26" d="M144.147,83.789l-5.381-5.757v5.774H137.6V76.772h1.456l5.381,5.774V76.772H145.6v7.033l-1.456-.016Z" transform="translate(-103.894 -76.739)" fill="none" stroke="#445f8b" stroke-miterlimit="10" stroke-width="0.162"/>
    <path id="Path_27" data-name="Path 27" d="M147.873,83.789V76.756h7.1V77.8h-5.921v1.832h4.122v1.047h-4.122v2.061h6.2v1.047Z" transform="translate(-103.825 -76.739)" fill="none" stroke="#445f8b" stroke-miterlimit="10" stroke-width="0.162"/>
  </g>
</svg>
