<?xml version="1.0" encoding="utf-8"?>
<!-- Generator: Adobe Illustrator 24.2.1, SVG Export Plug-In . SVG Version: 6.00 Build 0)  -->
<svg version="1.1" id="Layer_1" xmlns="http://www.w3.org/2000/svg" xmlns:xlink="http://www.w3.org/1999/xlink" x="0px" y="0px"
	 viewBox="0 0 1000 1000" style="enable-background:new 0 0 1000 1000;" xml:space="preserve">
<style type="text/css">
	.st0{fill:#FFFFFF;}
</style>
<circle cx="500" cy="500" r="493"/>
<g>
	<path class="st0" d="M340.29,670.86c-31.71-0.54-56.46-7.37-79.43-20.92c-5.43-3.2-6.81-6.09-4.12-12.22
		c5.94-13.52,11.16-27.36,16.26-41.23c2.18-5.94,4.15-7.55,9.97-3.24c16.63,12.34,35.46,19.5,56.2,20.73
		c17.37,1.03,32.99-3.57,42.83-18.9c8.53-13.3,7.96-28.09-0.12-41.22c-4.34-7.05-11.29-13.48-18.55-17.55
		c-19.03-10.69-38.93-19.79-58.36-29.77c-61.44-31.55-61.94-112.6-24.76-148c19.23-18.31,42.25-26.82,68.12-27.39
		c27.19-0.6,53.98,1.98,78.01,16.95c5.78,3.6,7.96,6.98,5.15,13.98c-4.78,11.91-8.75,24.17-12.37,36.49
		c-2.23,7.57-4.71,9.15-11.69,4.23c-15.03-10.6-32.09-16.04-50.47-17.16c-21-1.28-34.71,6.63-39.88,22.98
		c-5.42,17.15,1.79,37.23,18.4,46.53c19.33,10.81,39.48,20.14,59.17,30.31c45.92,23.69,60.78,67.04,49.66,114.05
		c-9.25,39.08-38.87,59.03-76.59,67.56C357.11,669.48,346.11,670.09,340.29,670.86z"/>
	<path class="st0" d="M676.11,529.23c0,41.83-0.26,83.67,0.21,125.5c0.1,8.73-2.54,11.04-10.91,10.61
		c-13.16-0.68-26.42-0.82-39.56,0.04c-9.41,0.61-11.05-3.09-11.02-11.52c0.27-83.02,0.16-166.05,0.16-249.08
		c0-12.36-0.01-12.38-12.72-12.38c-25.74-0.01-51.49-0.22-77.23,0.15c-6.72,0.1-9.19-1.8-8.97-8.64
		c0.41-12.86,0.34-25.75,0.02-38.61c-0.16-6.43,1.74-9.24,8.7-9.23c82.06,0.17,164.12,0.14,246.18,0.04
		c5.54-0.01,8.18,1.45,8.02,7.63c-0.37,13.83-0.42,27.68,0.02,41.51c0.2,6.45-2.66,7.29-8.09,7.25c-27.35-0.21-54.71-0.1-82.06-0.09
		c-12.74,0-12.75,0.01-12.75,12.29C676.11,446.2,676.11,487.72,676.11,529.23z"/>
</g>
</svg>
