<svg id="solarreviews" xmlns="http://www.w3.org/2000/svg" xmlns:xlink="http://www.w3.org/1999/xlink" width="158.322" height="35" viewBox="0 0 158.322 35">
  <defs>
    <radialGradient id="radial-gradient" cx="1.87" cy="4.093" r="6.154" gradientTransform="translate(-0.142 0) scale(0.926 1)" gradientUnits="objectBoundingBox">
      <stop offset="0.06" stop-color="#ecf8fe"/>
      <stop offset="0.24" stop-color="#5fccf5"/>
      <stop offset="0.28" stop-color="#50c5f1"/>
      <stop offset="0.34" stop-color="#2bb4e7"/>
      <stop offset="0.4" stop-color="#00a0dc"/>
      <stop offset="0.59" stop-color="#1b75bc"/>
      <stop offset="0.8" stop-color="#0054a6"/>
    </radialGradient>
    <radialGradient id="radial-gradient-2" cx="1.021" cy="4.336" r="6.454" gradientTransform="translate(-0.15 0) scale(0.951 1)" xlink:href="#radial-gradient"/>
    <radialGradient id="radial-gradient-3" cx="0.587" cy="2.031" r="5.661" gradientTransform="translate(0.186 0) scale(1.055 1)" xlink:href="#radial-gradient"/>
    <radialGradient id="radial-gradient-4" cx="1.459" cy="1.808" r="5.367" gradientTransform="translate(0.069 0) scale(1.031 1)" xlink:href="#radial-gradient"/>
    <radialGradient id="radial-gradient-5" cx="0.805" cy="3.134" r="6.049" gradientTransform="translate(0.005 0)" xlink:href="#radial-gradient"/>
    <radialGradient id="radial-gradient-6" cx="1.665" cy="2.897" r="5.745" gradientTransform="translate(-0.047 0) scale(0.977 1)" xlink:href="#radial-gradient"/>
    <radialGradient id="radial-gradient-7" cx="0.122" cy="4.585" r="6.763" gradientTransform="translate(-0.112 0) scale(0.974 1)" xlink:href="#radial-gradient"/>
    <radialGradient id="radial-gradient-8" cx="-0.105" cy="3.371" r="6.348" gradientTransform="translate(0.108 0) scale(1.025 1)" xlink:href="#radial-gradient"/>
    <radialGradient id="radial-gradient-9" cx="-1.393" cy="3.628" r="6.72" gradientTransform="translate(2.472 0) scale(1.337 1)" xlink:href="#radial-gradient"/>
    <radialGradient id="radial-gradient-10" cx="-0.336" cy="2.259" r="5.964" gradientTransform="translate(0.356 0) scale(1.077 1)" xlink:href="#radial-gradient"/>
    <radialGradient id="radial-gradient-11" cx="1.268" cy="1.274" r="7.838" gradientTransform="translate(-0.707 0) scale(0.706 1)" xlink:href="#radial-gradient"/>
    <radialGradient id="radial-gradient-12" cx="2.713" cy="2.65" r="5.436" gradientTransform="translate(0.157 0) scale(1.119 1)" xlink:href="#radial-gradient"/>
    <radialGradient id="radial-gradient-13" cx="2.366" cy="1.671" r="5.367" gradientTransform="translate(0.037 0) scale(1.029 1)" xlink:href="#radial-gradient"/>
    <radialGradient id="radial-gradient-14" cx="0.364" cy="1.244" r="6.493" gradientTransform="translate(-0.199 0) scale(0.946 1)" xlink:href="#radial-gradient"/>
    <radialGradient id="radial-gradient-15" cx="3.645" cy="4.195" r="6.564" gradientTransform="translate(0.55 0) scale(1.284 1)" xlink:href="#radial-gradient"/>
    <radialGradient id="radial-gradient-16" cx="-0.75" cy="1.76" r="8.03" gradientTransform="translate(0.082 0) scale(1.013 1)" xlink:href="#radial-gradient"/>
    <radialGradient id="radial-gradient-17" cx="3.444" cy="1.922" r="15.036" gradientTransform="translate(-1.044 0) scale(0.718 1)" xlink:href="#radial-gradient"/>
    <radialGradient id="radial-gradient-18" cx="0.289" cy="11.835" r="15.94" gradientTransform="translate(-2.482 0) scale(0.479 1)" xlink:href="#radial-gradient"/>
    <radialGradient id="radial-gradient-19" cx="-2.578" cy="2.622" r="6.677" gradientTransform="translate(11.565 0) scale(2.009 1)" xlink:href="#radial-gradient"/>
    <radialGradient id="radial-gradient-20" cx="-1.075" cy="5.163" r="7.695" gradientTransform="translate(1.194 0) scale(1.17 1)" xlink:href="#radial-gradient"/>
    <radialGradient id="radial-gradient-21" cx="2.446" cy="11.277" r="15.419" gradientTransform="translate(-1.356 0) scale(0.512 1)" xlink:href="#radial-gradient"/>
    <radialGradient id="radial-gradient-22" cx="1.238" cy="10.3" r="13.812" gradientTransform="translate(-1.651 0) scale(0.489 1)" xlink:href="#radial-gradient"/>
    <radialGradient id="radial-gradient-23" cx="0.568" cy="3.251" r="6.668" gradientTransform="translate(-0.117 0) scale(0.966 1)" xlink:href="#radial-gradient"/>
    <radialGradient id="radial-gradient-24" cx="1.405" cy="2.774" r="5.758" xlink:href="#radial-gradient"/>
    <radialGradient id="radial-gradient-25" cx="-1.142" cy="11.412" r="23.201" gradientTransform="translate(-3.338 0) scale(0.704 1)" xlink:href="#radial-gradient"/>
    <radialGradient id="radial-gradient-26" cx="2.897" cy="0.77" r="7.458" gradientTransform="translate(0.092 0) scale(1.047 1)" xlink:href="#radial-gradient"/>
    <radialGradient id="radial-gradient-27" cx="2.216" cy="1.485" r="5.086" gradientTransform="translate(0.157 0) scale(1.119 1)" xlink:href="#radial-gradient"/>
    <radialGradient id="radial-gradient-28" cx="1.605" cy="2.024" r="6.569" gradientTransform="translate(0.213 0) scale(1.077 1)" xlink:href="#radial-gradient"/>
    <radialGradient id="radial-gradient-29" cx="1.802" cy="7.973" r="14.427" gradientTransform="translate(-1.356 0) scale(0.512 1)" xlink:href="#radial-gradient"/>
    <radialGradient id="radial-gradient-30" cx="0.687" cy="7.34" r="12.923" gradientTransform="translate(-1.651 0) scale(0.489 1)" xlink:href="#radial-gradient"/>
    <radialGradient id="radial-gradient-31" cx="2.957" cy="2.789" r="6.142" gradientTransform="translate(0.55 0) scale(1.284 1)" xlink:href="#radial-gradient"/>
    <radialGradient id="radial-gradient-32" cx="-0.366" cy="8.419" r="14.915" gradientTransform="translate(-2.48 0) scale(0.525 1)" xlink:href="#radial-gradient"/>
  </defs>
  <path id="Path_1" data-name="Path 1" d="M52.385,21.539c0,2.718-2.009,4.214-5.619,4.214s-5.619-1.538-5.619-4.313h1.889c0,1.714,1.321,2.662,3.723,2.662,2.367,0,3.723-.885,3.723-2.564,0-4.179-9.1-.611-9.1-6.539,0-2.465,1.932-3.821,5.38-3.821s5.38,1.4,5.38,3.919H50.249c0-1.461-1.243-2.269-3.491-2.269-2.227,0-3.491.787-3.491,2.17C43.281,19.172,52.385,15.6,52.385,21.539Z" transform="translate(-3.272 -0.889)" fill="#14b1e7"/>
  <path id="Path_2" data-name="Path 2" d="M64.983,20.769a5.31,5.31,0,1,1-5.317-5.317A5.318,5.318,0,0,1,64.983,20.769Zm-1.77,0a3.541,3.541,0,1,0-3.547,3.723A3.645,3.645,0,0,0,63.213,20.769Z" transform="translate(-4.323 -1.229)" fill="#14b1e7"/>
  <path id="Path_3" data-name="Path 3" d="M67.335,11.172h1.889V25.36H67.335Z" transform="translate(-5.355 -0.888)" fill="#14b1e7"/>
  <path id="Path_4" data-name="Path 4" d="M81.233,15.846V25.7H79.343V24.423a4.774,4.774,0,0,1-3.589,1.672,5.133,5.133,0,0,1-4.924-5.317,5.133,5.133,0,0,1,4.924-5.317,4.8,4.8,0,0,1,3.589,1.672V15.853h1.889ZM79.456,20.77a3.439,3.439,0,1,0-6.855,0,3.439,3.439,0,1,0,6.855,0Z" transform="translate(-5.633 -1.229)" fill="#14b1e7"/>
  <path id="Path_5" data-name="Path 5" d="M89.169,15.452v1.594c-2.248,0-3.393,1.264-3.393,3.723v4.924H83.887V15.846h1.889v.983A4.231,4.231,0,0,1,89.169,15.452Z" transform="translate(-6.671 -1.229)" fill="#14b1e7"/>
  <path id="Path_6" data-name="Path 6" d="M98.176,20.154l3.786,5.24H99.736l-3.7-5.12H93.056v5.12H91.166V11.6h5.106c4.1,0,5.893,1.321,5.893,4.334C102.159,18.454,100.916,19.774,98.176,20.154Zm-1.911-1.538c2.781,0,4-.808,4-2.683s-1.222-2.683-4-2.683h-3.21v5.359h3.21Z" transform="translate(-7.25 -0.922)" fill="#0054a6"/>
  <path id="Path_7" data-name="Path 7" d="M112.206,22.667h1.876a4.9,4.9,0,0,1-4.77,3.428,5.317,5.317,0,0,1,0-10.634c2.915,0,5.121,2.5,5.121,5.83h-8.611a3.569,3.569,0,0,0,3.49,3.21A3.222,3.222,0,0,0,112.206,22.667Zm-6.265-2.978h6.539a3.328,3.328,0,0,0-3.175-2.641A3.527,3.527,0,0,0,105.941,19.688Z" transform="translate(-8.271 -1.229)" fill="#0054a6"/>
  <path id="Path_8" data-name="Path 8" d="M126.282,15.88l-4.1,9.854h-2.6l-4.1-9.854h1.932l3.469,8.141,3.47-8.141Z" transform="translate(-9.183 -1.263)" fill="#0054a6"/>
  <path id="Path_9" data-name="Path 9" d="M127.939,12.044a1.289,1.289,0,1,1,1.3,1.278A1.284,1.284,0,0,1,127.939,12.044Zm.359,3.428h1.889v9.855H128.3Z" transform="translate(-10.174 -0.854)" fill="#0054a6"/>
  <path id="Path_10" data-name="Path 10" d="M140.013,22.667h1.875a4.9,4.9,0,0,1-4.769,3.428,5.317,5.317,0,0,1,0-10.634c2.915,0,5.121,2.5,5.121,5.83h-8.611a3.569,3.569,0,0,0,3.49,3.21A3.224,3.224,0,0,0,140.013,22.667Zm-6.266-2.978h6.54a3.328,3.328,0,0,0-3.175-2.641A3.535,3.535,0,0,0,133.747,19.688Z" transform="translate(-10.483 -1.229)" fill="#0054a6"/>
  <path id="Path_11" data-name="Path 11" d="M160.216,15.88l-3.076,9.854h-2.662l-2.621-8.141-2.62,8.141h-2.662L143.5,15.88h1.875l2.641,8.141,2.621-8.141H153.1l2.6,8.141,2.641-8.141Z" transform="translate(-11.412 -1.263)" fill="#0054a6"/>
  <path id="Path_12" data-name="Path 12" d="M171.215,22.94c0,2.03-1.637,3.154-4.552,3.154s-4.531-1.166-4.531-3.231h1.89c0,1.145.948,1.77,2.641,1.77,1.714,0,2.662-.59,2.662-1.693,0-2.88-6.953-.2-6.953-4.65,0-1.812,1.538-2.838,4.3-2.838s4.312,1.061,4.312,2.936h-1.89c0-.948-.863-1.475-2.423-1.475-1.538,0-2.4.492-2.4,1.377C164.261,21.184,171.215,18.508,171.215,22.94Z" transform="translate(-12.893 -1.229)" fill="#0054a6"/>
  <path id="Path_13" data-name="Path 13" d="M34.994,16.611c-5.668-1.363-6.083-2.908-1.721-6.736-5.71,1.039-6.645-.2-4.032-5.373-4.882,3.126-6.209,2.318-5.753-3.47C20.124,5.76,18.543,5.507,16.612,0,15.249,5.668,13.7,6.083,9.876,1.721c1.039,5.71-.2,6.645-5.373,4.032,3.126,4.882,2.318,6.209-3.47,5.753C5.76,14.877,5.507,16.457,0,18.382c5.668,1.363,6.083,2.908,1.721,6.743,5.711-1.04,6.652.2,4.032,5.373,4.882-3.126,6.209-2.318,5.746,3.47C14.87,29.24,16.45,29.493,18.375,35c1.363-5.668,2.915-6.083,6.743-1.721-1.039-5.71.2-6.652,5.373-4.032-3.126-4.882-2.318-6.209,3.47-5.753C29.234,20.116,29.494,18.536,34.994,16.611Z" fill="#ffd400"/>
  <path id="Path_14" data-name="Path 14" d="M29.47,19.312A11.527,11.527,0,1,0,16.714,29.454,11.525,11.525,0,0,0,29.47,19.312Z" transform="translate(-0.516 -0.516)" fill="#fff"/>
  <path id="Path_15" data-name="Path 15" d="M15.072,10.149l-.555.028h-.07l-1.77.077-.07.007-.583.028-.653.815.59,3.147.962.737.59-.049.07-.007,1.791-.162.07-.007.562-.049.59-.843-.625-3.006Z" transform="translate(-0.904 -0.807)" fill="url(#radial-gradient)"/>
  <path id="Path_16" data-name="Path 16" d="M19.97,9.927l-.513.028h-.063l-1.616.07-.07.007-.527.021-.576.78.625,3.006.9.7.534-.049.07-.007,1.63-.147.063-.007.513-.042.52-.8-.646-2.873Z" transform="translate(-1.321 -0.789)" fill="url(#radial-gradient-2)"/>
  <path id="Path_17" data-name="Path 17" d="M22.224,20.061l-.513.077-.063.007L20,20.377l-.07.014-.541.077-.576.913.681,3.252.92.688.548-.105.07-.014,1.665-.323.063-.014.52-.1.52-.934-.7-3.1Z" transform="translate(-1.496 -1.595)" fill="url(#radial-gradient-3)"/>
  <path id="Path_18" data-name="Path 18" d="M17.24,20.771l-.569.077-.07.014-1.812.253-.07.014-.6.084-.66.969.646,3.421,1,.716.6-.112.077-.014,1.833-.358.07-.014.569-.105.59-.99-.674-3.252Z" transform="translate(-1.07 -1.652)" fill="url(#radial-gradient-4)"/>
  <path id="Path_19" data-name="Path 19" d="M21.074,14.9l-.513.042-.063.007-1.637.154H18.8l-.534.049-.576.85.646,3.119.913.7.541-.077.07-.007,1.644-.232.07-.014.513-.07.52-.864-.674-2.985Z" transform="translate(-1.407 -1.185)" fill="url(#radial-gradient-5)"/>
  <path id="Path_20" data-name="Path 20" d="M16.137,15.353l-.562.049-.07.007-1.791.169-.07.007-.59.049-.66.892.618,3.28.983.73.59-.084.077-.007,1.812-.253.07-.014.562-.077.59-.913-.646-3.126Z" transform="translate(-0.986 -1.221)" fill="url(#radial-gradient-6)"/>
  <path id="Path_21" data-name="Path 21" d="M24.452,9.729l-.464.021h-.063l-1.482.07H22.38l-.485.021-.506.752.646,2.866.843.674.492-.042.063-.007,1.5-.133.056-.007.471-.042.457-.766-.667-2.746Z" transform="translate(-1.701 -0.774)" fill="url(#radial-gradient-7)"/>
  <path id="Path_22" data-name="Path 22" d="M26.4,15.137l-.8-.653-.471.042-.056.007-1.5.14-.063.007-.492.042-.506.808.674,2.971.857.674.492-.07L24.6,19.1l1.51-.211.056-.014.471-.063.457-.822Z" transform="translate(-1.79 -1.152)" fill="url(#radial-gradient-8)"/>
  <path id="Path_23" data-name="Path 23" d="M29.262,14.155l-1.377.126-.056.007-.45.042-.45.766.7,2.845.8.646.457-.063.056-.007,1.307-.183A10.45,10.45,0,0,0,29.262,14.155Z" transform="translate(-2.142 -1.126)" fill="url(#radial-gradient-9)"/>
  <path id="Path_24" data-name="Path 24" d="M27.591,20.066l-.808-.653-.478.07-.056.007-1.51.218-.063.007-.492.07-.506.871.7,3.091.864.66.5-.091.063-.014,1.517-.3L27.388,24l.471-.091.457-.885Z" transform="translate(-1.883 -1.544)" fill="url(#radial-gradient-10)"/>
  <path id="Path_25" data-name="Path 25" d="M18.389,26.41l-.569.112-.07.014-1.833.358-.077.014-.6.119-.66,1.054.267,1.419a10.554,10.554,0,0,0,3.814.709,11.424,11.424,0,0,0,1.3-.077l-.625-3.02Z" transform="translate(-1.159 -2.1)" fill="url(#radial-gradient-11)"/>
  <path id="Path_26" data-name="Path 26" d="M8.926,21.236l.084-.014,1.995-.281.077-.014.625-.084.674-.962-.611-3.287-.983-.745-.618.056-.077.007-1.974.183-.077.007-.225.021a10.64,10.64,0,0,0-.105,4.8l.562.407Z" transform="translate(-0.595 -1.26)" fill="url(#radial-gradient-12)"/>
  <path id="Path_27" data-name="Path 27" d="M12.124,26.88l.632-.119.681-1.047L12.8,22.286l-1-.737-.625.091-.077.014L9.1,21.942l-.084.014-.66.091-.316.428a10.611,10.611,0,0,0,3,4.622l1-.2Z" transform="translate(-0.64 -1.714)" fill="url(#radial-gradient-13)"/>
  <path id="Path_28" data-name="Path 28" d="M23.428,25.426l-.52.105-.063.014-1.665.323-.07.014-.541.105-.576.99.632,3.034a10.6,10.6,0,0,0,4.214-1.58l-.527-2.339Z" transform="translate(-1.59 -2.022)" fill="url(#radial-gradient-14)"/>
  <path id="Path_29" data-name="Path 29" d="M8.111,15.459l1.974-.176.077-.007.618-.056.674-.885-.59-3.154-.309-.239A10.613,10.613,0,0,0,7.921,15.48l.112-.007Z" transform="translate(-0.63 -0.87)" fill="url(#radial-gradient-15)"/>
  <path id="Path_30" data-name="Path 30" d="M28.552,24.954l-.541-.421-.478.091-.056.014-1.517.3-.063.014-.5.1-.506.934.513,2.262A10.728,10.728,0,0,0,28.552,24.954Z" transform="translate(-1.98 -1.951)" fill="url(#radial-gradient-16)"/>
  <path id="Path_31" data-name="Path 31" d="M13.087,27.486l-.632.126-.077.014-.794.154a10.4,10.4,0,0,0,2.76,1.686l-.239-1.257Z" transform="translate(-0.921 -2.186)" fill="url(#radial-gradient-17)"/>
  <path id="Path_32" data-name="Path 32" d="M21.791,9.468l.485-.021h.063l1.489-.063h.056l.464-.021.239-.372a10.594,10.594,0,0,0-3.9-1.391l.267,1.187Z" transform="translate(-1.645 -0.604)" fill="url(#radial-gradient-18)"/>
  <path id="Path_33" data-name="Path 33" d="M30.347,18.916l-1.264.183-.056.007-.457.063L28.128,20l.723,2.95.548.428a10.606,10.606,0,0,0,.948-4.383Z" transform="translate(-2.237 -1.504)" fill="url(#radial-gradient-19)"/>
  <path id="Path_34" data-name="Path 34" d="M26.445,13.136l.794.646.45-.042.056-.007,1.342-.119a10.6,10.6,0,0,0-3.006-3.7l-.3.478Z" transform="translate(-2.05 -0.788)" fill="url(#radial-gradient-20)"/>
  <path id="Path_35" data-name="Path 35" d="M12.606,9.862h.07l1.77-.077h.07l.555-.021.59-.773-.218-1.033a10.569,10.569,0,0,0-3.554,1.833l.133.1Z" transform="translate(-0.945 -0.633)" fill="url(#radial-gradient-21)"/>
  <path id="Path_36" data-name="Path 36" d="M17.082,9.65l.534-.021h.063l1.623-.07h.063l.506-.021.52-.738-.274-1.222a10.695,10.695,0,0,0-4.137.288L16.2,8.947Z" transform="translate(-1.271 -0.596)" fill="url(#radial-gradient-22)"/>
  <path id="Path_37" data-name="Path 37" d="M19.97,9.927l-.506.021H19.4l-1.623.07h-.063l-.534.021-.576.78.625,3,.365.288c.274-.274.548-.541.822-.794l.056-.056c.471-.435.927-.85,1.384-1.243l.056-.049c.344-.3.688-.576,1.018-.843l-.119-.534Z" transform="translate(-1.321 -0.789)" fill="url(#radial-gradient-23)"/>
  <path id="Path_38" data-name="Path 38" d="M15.072,10.149l-.555.028h-.07l-1.77.077-.07.007-.583.028-.653.815.59,3.147.962.737.59-.049.07-.007,1.791-.162.07-.007.562-.049.59-.843-.625-3.006Z" transform="translate(-0.904 -0.807)" fill="url(#radial-gradient-24)"/>
  <path id="Path_39" data-name="Path 39" d="M22.38,9.826l-.485.021-.506.745.091.407c.337-.267.674-.52,1-.759l.049-.035c.19-.14.379-.274.569-.407l-.653.028Z" transform="translate(-1.701 -0.779)" fill="url(#radial-gradient-25)"/>
  <path id="Path_40" data-name="Path 40" d="M9.624,24.971q.759-1.443,1.573-2.753l.063-.1c.119-.19.232-.372.351-.555l-.442.063-.077.014L9.1,21.929l-.084.014-.66.091-.309.428A10.511,10.511,0,0,0,9.455,25.3c.035-.07.07-.133.105-.2Z" transform="translate(-0.64 -1.715)" fill="url(#radial-gradient-26)"/>
  <path id="Path_41" data-name="Path 41" d="M8.926,21.236l.084-.014,1.995-.281.077-.014.625-.084.674-.962-.611-3.287-.983-.745-.618.056-.077.007-1.974.183-.077.007-.225.021a10.64,10.64,0,0,0-.105,4.8l.562.407Z" transform="translate(-0.595 -1.26)" fill="url(#radial-gradient-27)"/>
  <path id="Path_42" data-name="Path 42" d="M15.576,15.4l-.07.007-1.791.169-.07.007-.59.056-.653.892.576,3.07c.379-.527.759-1.04,1.152-1.524L14.192,18c.492-.618.99-1.208,1.489-1.763l.056-.063c.2-.225.4-.45.6-.66l-.2-.155Z" transform="translate(-0.986 -1.222)" fill="url(#radial-gradient-28)"/>
  <path id="Path_43" data-name="Path 43" d="M12.606,9.862h.07l1.77-.077h.07l.555-.021.59-.773-.218-1.033a10.569,10.569,0,0,0-3.554,1.833l.133.1Z" transform="translate(-0.945 -0.633)" fill="url(#radial-gradient-29)"/>
  <path id="Path_44" data-name="Path 44" d="M17.082,9.65l.534-.021h.063l1.623-.07h.063l.506-.021.52-.738-.274-1.222a10.695,10.695,0,0,0-4.137.288L16.2,8.947Z" transform="translate(-1.271 -0.596)" fill="url(#radial-gradient-30)"/>
  <path id="Path_45" data-name="Path 45" d="M8.111,15.459l1.974-.176.077-.007.618-.056.674-.885-.59-3.154-.309-.239A10.613,10.613,0,0,0,7.921,15.48l.112-.007Z" transform="translate(-0.63 -0.87)" fill="url(#radial-gradient-31)"/>
  <path id="Path_46" data-name="Path 46" d="M21.791,9.468l.485-.021h.063L23.35,9.4c.141-.1.274-.19.407-.281l.049-.035.443-.3A10.514,10.514,0,0,0,20.688,7.6l.267,1.187Z" transform="translate(-1.645 -0.604)" fill="url(#radial-gradient-32)"/>
</svg>
