<?xml version="1.0" encoding="utf-8"?>
<!-- Generator: Adobe Illustrator 24.2.1, SVG Export Plug-In . SVG Version: 6.00 Build 0)  -->
<svg version="1.1" id="Layer_1" xmlns="http://www.w3.org/2000/svg" xmlns:xlink="http://www.w3.org/1999/xlink" x="0px" y="0px"
	 viewBox="0 0 1000 1000" style="enable-background:new 0 0 1000 1000;" xml:space="preserve">
<style type="text/css">
	.st0{fill:#FFFFFF;}
</style>
<circle cx="500" cy="500" r="493"/>
<g>
	<path class="st0" d="M527.8,500.59c0-54.17,0.21-108.34-0.21-162.51c-0.07-8.76,2.63-10.37,10.97-10.95
		c18.94-1.3,37.41-2.31,55.4-2.29c32.06-0.53,62.95-0.64,92.94,10.96c62.21,24.07,67.64,89.79,52.16,128.54
		c-8.69,21.75-23.08,39.15-42.87,51.4c-7.21,4.47-6.6,7.48-2.78,13.48c28.2,44.29,56.15,88.75,84.17,133.15
		c1.38,2.19,3.4,4.28,3.85,6.66c0.28,1.49-1.8,4.94-2.85,4.95c-21.08,0.28-42.18,0.49-63.24-0.19c-3.06-0.1-6.82-4.31-8.83-7.51
		c-25.18-40.07-50.39-80.12-74.86-120.63c-5.51-9.12-11.39-13.18-22.25-12.93c-1.69,0.04-3.03-0.12-4.64-0.19
		c-1.65-0.07-3.11,0-5.07-0.13c-7.14-0.46-8.76,2.18-8.73,8.77c0.23,40.87-0.18,81.75,0.34,122.61c0.11,8.81-2.38,11-10.84,10.58
		c-14.56-0.72-29.2-0.67-43.77-0.01c-7.62,0.35-9.07-2.26-9.04-9.33C527.92,610.23,527.8,555.41,527.8,500.59z M591.07,430.33
		c0,12.32,0.23,24.65-0.1,36.96c-0.16,6.04,1.54,9.02,8.12,8.8c11.01-0.37,22.15,0.78,33.04-0.46
		c34.87-3.97,51.25-15.65,47.66-55.91c-1.22-13.7-8.96-22.56-21.45-27.51c-20.15-8-41.19-7.88-62.26-6.07
		c-1.86,0.16-4.68,4.66-4.78,7.23C590.79,405.68,591.07,418.01,591.07,430.33z"/>
	<path class="st0" d="M451.31,574.47c0.89,48.51-27.43,85.78-72.72,98.82c-42.83,12.33-83.96,7.63-122.86-14.81
		c-5.94-3.43-8.4-6.47-5.24-13.61c6.42-14.5,12.09-29.34,17.62-44.21c2.29-6.15,4.59-6.17,9.6-2.6
		c19.74,14.03,41.42,22.57,66.1,22.01c20.38-0.47,37.67-11.74,42.6-27.93c6.07-19.92-0.8-39.77-19.53-51.23
		c-14.04-8.59-29.46-14.88-43.81-23c-14.87-8.41-30.86-15.92-43.44-27.1c-31.81-28.28-37.56-65.24-25.59-104.05
		c11.77-38.18,40.98-57.6,79.82-63.14c24.45-3.49,48.51-1.16,72.05,6.03c6.45,1.97,12.75,4.78,18.69,7.99
		c13.38,7.22,13.26,7.42,8.43,21.54c-3.98,11.64-8.43,23.15-11.71,34.98c-2.41,8.68-5.76,7.94-11.99,3.66
		c-17.25-11.84-36.48-17.96-57.5-18.16c-18.38-0.18-30.99,7.2-36.81,21.53c-5.89,14.51-2.29,34.25,9.77,44.86
		c7.18,6.32,15.85,11.18,24.38,15.69c14.6,7.71,29.7,14.45,44.43,21.91C432.7,503.44,452.13,535.25,451.31,574.47z"/>
	<path d="M591.07,430.33c0-12.32-0.28-24.66,0.23-36.96c0.11-2.58,2.92-7.07,4.78-7.23c21.08-1.81,42.11-1.92,62.26,6.07
		c12.5,4.96,20.23,13.82,21.45,27.51c3.59,40.26-12.79,51.94-47.66,55.91c-10.89,1.24-22.03,0.09-33.04,0.46
		c-6.58,0.22-8.28-2.76-8.12-8.8C591.3,454.99,591.07,442.66,591.07,430.33z"/>
</g>
</svg>
