<svg xmlns="http://www.w3.org/2000/svg" width="100" height="100" viewBox="0 0 100 100">
  <g id="sortlist-black" transform="translate(-14.74 -14.68)">
    <path id="Path-Copy-2" d="M64.74,14.68h0a50,50,0,0,1,50,50h0a50,50,0,0,1-50,50h0a50,50,0,0,1-50-50h0A50,50,0,0,1,64.74,14.68Z" fill-rule="evenodd"/>
    <path id="l" d="M599.5,266.25H591.77v44.435H599.5Z" transform="translate(-517.62 -225.669)" fill="#fff"/>
    <path id="s" d="M309.371,384.478c-5.046-1.507-7.078-2.1-7.078-4.26,0-2.294,2.294-3.6,5.243-3.6a18.508,18.508,0,0,1,9.5,3.211l3.015-5.243a23.187,23.187,0,0,0-12.518-3.932c-7.34,0-12.387,4.195-12.387,10.29,0,5.964,4.522,7.93,11.6,9.831,3.932,1.048,7.013,1.9,7.013,4.522,0,2.294-2.1,3.735-5.571,3.735a20.025,20.025,0,0,1-11.273-4l-3.277,5.112a23.808,23.808,0,0,0,14.418,4.915c7.6,0,12.911-4.064,12.911-10.42C320.971,387.886,314.941,386.051,309.371,384.478Z" transform="translate(-250.185 -319.32)" fill="#fff"/>
  </g>
</svg>
