<svg xmlns="http://www.w3.org/2000/svg" width="125" height="31.9" viewBox="0 0 125 31.9">
  <g id="Group_4" data-name="Group 4" transform="translate(-10.584 -291.491)">
    <path id="t_00000168116443345552084520000008045110189526751657_" d="M895.3,339.583a3.191,3.191,0,0,1-2.2.793,2.331,2.331,0,0,1-2.159-2.556V326.541h4.979v-4.318h-4.979v-6.036H885.92v22.3a6.028,6.028,0,0,0,6.212,6.345,7.609,7.609,0,0,0,4.758-1.763S895.3,339.583,895.3,339.583Z" transform="translate(-761.306 -21.479)" fill="#0f0d0a"/>
    <path id="s_00000129170792285138441900000002990503752284750491_" d="M21.158,367.761c-3.393-1.014-4.758-1.409-4.758-2.864,0-1.542,1.542-2.423,3.525-2.423a12.445,12.445,0,0,1,6.388,2.159l2.027-3.525a15.6,15.6,0,0,0-8.416-2.644c-4.934.045-8.328,2.863-8.328,6.962,0,4.01,3.04,5.331,7.8,6.609,2.644.7,4.715,1.278,4.715,3.04,0,1.542-1.409,2.511-3.746,2.511a13.46,13.46,0,0,1-7.578-2.687l-2.2,3.437a16,16,0,0,0,9.694,3.3c5.112,0,8.68-2.732,8.68-7.006C28.957,370.051,24.9,368.818,21.158,367.761Z" transform="translate(0 -58.249)" fill="#0f0d0a"/>
    <path id="_x2E_" d="M667.378,297.439a2.981,2.981,0,0,0,2.908-3,2.942,2.942,0,0,0-2.908-2.952,2.991,2.991,0,0,0-3,2.952A3.028,3.028,0,0,0,667.378,297.439Z" transform="translate(-568.627)" fill="#0f0d0a"/>
    <path id="i" d="M672.619,362.512h-5.2v22.074h5.2Z" transform="translate(-571.269 -61.769)" fill="#0f0d0a"/>
    <path id="l" d="M597.531,302.987h-5.2V332.86h5.2Z" transform="translate(-505.964 -9.998)" fill="#0f0d0a"/>
    <path id="t" d="M471.546,340.411a2.331,2.331,0,0,1-2.159-2.556V326.531h4.979v-4.318h-4.979v-6.036h-2.864a6.7,6.7,0,0,1-1.278,4.01,4.62,4.62,0,0,1-3.658,1.983h-.7l-.793,4.406h4.23v11.94a6.028,6.028,0,0,0,6.212,6.345,7.609,7.609,0,0,0,4.758-1.763l-1.5-3.525a3.416,3.416,0,0,1-2.247.837Z" transform="translate(-390.949 -21.47)" fill="#0f0d0a"/>
    <path id="r" d="M362.8,367.178v-4.67h-5.2v22.074h5.2V373.919c0-4.186,2.423-7.05,6.653-7.05l.837-4.362C365.534,362.463,364.211,364.313,362.8,367.178Z" transform="translate(-301.812 -61.764)" fill="#0f0d0a"/>
    <path id="o" d="M170.618,358.8a11.568,11.568,0,1,0,11.809,11.543A11.747,11.747,0,0,0,170.618,358.8Zm0,18.681a7.126,7.126,0,0,1,0-14.232,7.132,7.132,0,0,1,0,14.232Z" transform="translate(-128.839 -58.538)" fill="#0f0d0a"/>
    <path id="s" d="M738.881,367.761c-3.393-1.014-4.758-1.409-4.758-2.864,0-1.542,1.542-2.423,3.525-2.423a12.445,12.445,0,0,1,6.388,2.159l2.027-3.525a15.6,15.6,0,0,0-8.416-2.644c-4.934,0-8.328,2.82-8.328,6.918,0,4.01,3.04,5.331,7.8,6.609,2.644.7,4.715,1.278,4.715,3.04,0,1.542-1.409,2.511-3.746,2.511a13.46,13.46,0,0,1-7.578-2.687l-2.2,3.437A16,16,0,0,0,738,381.6c5.112,0,8.68-2.732,8.68-7.006C746.68,370.051,742.625,368.818,738.881,367.761Z" transform="translate(-624.225 -58.249)" fill="#0f0d0a"/>
  </g>
</svg>
