<svg xmlns="http://www.w3.org/2000/svg" width="125" height="30.345" viewBox="0 0 125 30.345">
  <g id="trustpilot" transform="translate(-0.697 -1.28)">
    <g id="surface1" transform="translate(0.697 1.28)">
      <path id="svg_1" d="M117.6,15.821h1.9V12.443h2.5V15.8h2.25v1.833h-2.25v5.974a6.173,6.173,0,0,0,.042.68,1.426,1.426,0,0,0,.145.474.817.817,0,0,0,.355.288,1.868,1.868,0,0,0,.667.1,4.508,4.508,0,0,0,.521-.02,4.669,4.669,0,0,0,.521-.083v1.916c-.271.041-.541.062-.813.082a5.148,5.148,0,0,1-.812.042,5.434,5.434,0,0,1-1.584-.186,2.284,2.284,0,0,1-.937-.535,1.912,1.912,0,0,1-.457-.886,6.938,6.938,0,0,1-.146-1.236V17.655h-1.9V15.821Zm-6.458,9.538a2.906,2.906,0,0,0,1.438-.35,3.015,3.015,0,0,0,1-.906,3.87,3.87,0,0,0,.583-1.257,5.545,5.545,0,0,0,0-2.863,3.679,3.679,0,0,0-.583-1.257,3.153,3.153,0,0,0-1-.886,2.971,2.971,0,0,0-1.438-.35,2.911,2.911,0,0,0-1.437.35,3.176,3.176,0,0,0-1,.886,3.666,3.666,0,0,0-.584,1.257,5.568,5.568,0,0,0,0,2.863A3.666,3.666,0,0,0,108.7,24.1a3.223,3.223,0,0,0,1,.906,2.754,2.754,0,0,0,1.437.35m0,1.957a6.013,6.013,0,0,1-2.416-.453,5.476,5.476,0,0,1-1.791-1.215,5.278,5.278,0,0,1-1.105-1.875,7.274,7.274,0,0,1-.4-2.369,6.635,6.635,0,0,1,.4-2.348,5.467,5.467,0,0,1,1.105-1.875,4.982,4.982,0,0,1,1.791-1.215,6.379,6.379,0,0,1,2.416-.454,6.009,6.009,0,0,1,2.417.454,5.183,5.183,0,0,1,1.792,1.215,5.274,5.274,0,0,1,1.1,1.875,7.105,7.105,0,0,1,.4,2.348,6.639,6.639,0,0,1-.4,2.369,5.82,5.82,0,0,1-1.1,1.875,5,5,0,0,1-1.792,1.215,6.313,6.313,0,0,1-2.417.453m-10.125-15.76h2.5V27.007h-2.5Zm-4.729,4.264h2.5V27.007h-2.5Zm0-4.264h2.5v2.328h-2.5Zm-4.4,9.868a4.947,4.947,0,0,0-.208-1.463,3.732,3.732,0,0,0-.6-1.257,3.311,3.311,0,0,0-.98-.885,2.684,2.684,0,0,0-1.354-.33,2.779,2.779,0,0,0-2.375,1.071,4.839,4.839,0,0,0-.791,2.884,5.261,5.261,0,0,0,.208,1.566,3.446,3.446,0,0,0,.625,1.236,2.966,2.966,0,0,0,1,.824,2.85,2.85,0,0,0,1.354.309,2.8,2.8,0,0,0,1.437-.35,3.349,3.349,0,0,0,.98-.886,3.609,3.609,0,0,0,.542-1.257,6.994,6.994,0,0,0,.166-1.462m-8.729-5.6h2.354v1.525h.042a3.078,3.078,0,0,1,1.458-1.4,4.772,4.772,0,0,1,2.041-.433,5.191,5.191,0,0,1,2.334.474,4.375,4.375,0,0,1,1.646,1.277,5.308,5.308,0,0,1,.98,1.9,8.23,8.23,0,0,1,.041,4.49,6.037,6.037,0,0,1-.9,1.875,4.416,4.416,0,0,1-1.521,1.3,4.545,4.545,0,0,1-2.167.494,6.4,6.4,0,0,1-1.082-.1,4.649,4.649,0,0,1-1.042-.309,3.729,3.729,0,0,1-.917-.556,3.151,3.151,0,0,1-.709-.783H85.68v5.583h-2.5V15.821h-.021Zm-8.4,0h1.9V12.443h2.5V15.8h2.251v1.833H79.158v5.974a6.177,6.177,0,0,0,.042.68,1.426,1.426,0,0,0,.146.474.819.819,0,0,0,.354.288,1.876,1.876,0,0,0,.667.1,4.523,4.523,0,0,0,.521-.02,4.73,4.73,0,0,0,.521-.083v1.916c-.272.041-.542.062-.813.082a5.158,5.158,0,0,1-.813.042A5.432,5.432,0,0,1,78.2,26.9a2.274,2.274,0,0,1-.937-.535,1.913,1.913,0,0,1-.458-.886,7.014,7.014,0,0,1-.146-1.236V17.655h-1.9V15.821Zm-8.229,7.6a1.94,1.94,0,0,0,.833,1.524,3.3,3.3,0,0,0,1.729.433,5.8,5.8,0,0,0,.791-.062,3.5,3.5,0,0,0,.833-.206,1.457,1.457,0,0,0,.646-.453A1.045,1.045,0,0,0,71.6,23.9a1.1,1.1,0,0,0-.355-.783,2.963,2.963,0,0,0-.833-.495,7.387,7.387,0,0,0-1.166-.309c-.437-.082-.875-.185-1.334-.288s-.916-.227-1.354-.371a3.89,3.89,0,0,1-1.166-.6,2.583,2.583,0,0,1-.813-.948,2.931,2.931,0,0,1-.312-1.421,2.419,2.419,0,0,1,.459-1.525,3.3,3.3,0,0,1,1.146-.988,5.219,5.219,0,0,1,1.541-.536,8.931,8.931,0,0,1,1.6-.144,7.276,7.276,0,0,1,1.667.185,4.235,4.235,0,0,1,1.437.6,3.279,3.279,0,0,1,1.063,1.071,3.691,3.691,0,0,1,.541,1.586h-2.6a1.586,1.586,0,0,0-.813-1.2,3.384,3.384,0,0,0-1.479-.309c-.167,0-.4.021-.625.041a3.807,3.807,0,0,0-.688.165,1.649,1.649,0,0,0-.542.35.825.825,0,0,0-.229.6.9.9,0,0,0,.313.721,2.864,2.864,0,0,0,.833.474,7.387,7.387,0,0,0,1.166.309c.438.082.9.185,1.354.288s.9.227,1.334.371a3.654,3.654,0,0,1,1.166.6,2.975,2.975,0,0,1,.833.927,2.823,2.823,0,0,1,.313,1.38,2.978,2.978,0,0,1-.457,1.69,3.885,3.885,0,0,1-1.188,1.133,5.927,5.927,0,0,1-1.624.638,8.808,8.808,0,0,1-1.771.206,7.53,7.53,0,0,1-1.979-.247,5.07,5.07,0,0,1-1.584-.721,3.468,3.468,0,0,1-1.042-1.215,3.931,3.931,0,0,1-.417-1.731h2.521v.021h.02Zm-4.25,3.584H59.825V25.442h-.042A3.474,3.474,0,0,1,58.408,26.8a3.665,3.665,0,0,1-1.855.515,4.153,4.153,0,0,1-3.229-1.092,4.741,4.741,0,0,1-1-3.3V15.821h2.5v6.86a2.9,2.9,0,0,0,.583,2.081,2.07,2.07,0,0,0,1.6.618,3.109,3.109,0,0,0,1.312-.247,2.258,2.258,0,0,0,.854-.639,2.49,2.49,0,0,0,.479-.968A4.529,4.529,0,0,0,59.8,22.31V15.821h2.5V27.007h-.021ZM44.2,15.821h2.333v2.163h.042a2.694,2.694,0,0,1,.438-.885,4.184,4.184,0,0,1,1.771-1.36,2.941,2.941,0,0,1,1.1-.227c.292,0,.5.021.6.021a1.809,1.809,0,0,0,.333.041v2.369a4.188,4.188,0,0,0-.541-.082,4.724,4.724,0,0,0-.542-.041,2.916,2.916,0,0,0-1.187.247,3,3,0,0,0-.979.721,3.871,3.871,0,0,0-.667,1.2,4.982,4.982,0,0,0-.251,1.648v5.314h-2.5L44.2,15.821ZM32.1,11.557H44.741v2.328H39.763V27.007H37.033V13.885H32.075l.021-2.328Zm0,0" transform="translate(0.758 -0.803)"/>
      <path id="svg_2" d="M30.634,12.033H19.2L15.676,1.28,12.134,12.033.7,12.013l9.25,6.653L6.4,29.42l9.25-6.653L24.9,29.42l-3.52-10.754,9.25-6.633Zm0,0" transform="translate(-0.697 -1.28)" fill="#00b67a"/>
      <path id="svg_3" d="M21.513,20.327,20.721,17.9,15.012,22l6.5-1.669Zm0,0" transform="translate(-0.033 -0.509)" fill="#005128"/>
    </g>
  </g>
</svg>
