<svg xmlns="http://www.w3.org/2000/svg" width="125" height="30.688" viewBox="0 0 125 30.688">
  <g id="trustpilot" transform="translate(-3.5 -6.5)">
    <g id="surface1" transform="translate(3.5 6.5)">
      <path id="svg_1" d="M246.619,63.011h1.9V59.6h2.5v3.4h2.25v1.854h-2.25v6.042a6.316,6.316,0,0,0,.042.688,1.454,1.454,0,0,0,.145.479.819.819,0,0,0,.355.291,1.849,1.849,0,0,0,.667.1,4.458,4.458,0,0,0,.521-.02,4.622,4.622,0,0,0,.521-.084v1.938c-.271.042-.541.063-.813.083a5.092,5.092,0,0,1-.812.042,5.377,5.377,0,0,1-1.584-.188,2.279,2.279,0,0,1-.937-.541,1.941,1.941,0,0,1-.457-.9,7.092,7.092,0,0,1-.146-1.25V64.866h-1.9V63.011Zm-6.458,9.646A2.88,2.88,0,0,0,241.6,72.3a3.027,3.027,0,0,0,1-.916,3.934,3.934,0,0,0,.583-1.271,5.668,5.668,0,0,0,0-2.9,3.739,3.739,0,0,0-.583-1.271,3.164,3.164,0,0,0-1-.9,2.945,2.945,0,0,0-1.438-.354,2.886,2.886,0,0,0-1.437.354,3.187,3.187,0,0,0-1,.9,3.726,3.726,0,0,0-.584,1.271,5.693,5.693,0,0,0,0,2.9,3.726,3.726,0,0,0,.584,1.271,3.236,3.236,0,0,0,1,.916,2.73,2.73,0,0,0,1.437.354m0,1.979a5.955,5.955,0,0,1-2.416-.458,5.474,5.474,0,0,1-1.791-1.229,5.35,5.35,0,0,1-1.105-1.9,7.431,7.431,0,0,1-.4-2.4,6.778,6.778,0,0,1,.4-2.375,5.542,5.542,0,0,1,1.105-1.9,4.98,4.98,0,0,1,1.791-1.229,6.316,6.316,0,0,1,2.416-.459,5.951,5.951,0,0,1,2.417.459,5.181,5.181,0,0,1,1.792,1.229,5.347,5.347,0,0,1,1.1,1.9,7.259,7.259,0,0,1,.4,2.375,6.782,6.782,0,0,1-.4,2.4,5.9,5.9,0,0,1-1.1,1.9,5,5,0,0,1-1.792,1.229,6.251,6.251,0,0,1-2.417.458M230.036,58.7h2.5V74.324h-2.5Zm-4.729,4.312h2.5V74.324h-2.5Zm0-4.312h2.5v2.354h-2.5Zm-4.4,9.98A5.055,5.055,0,0,0,220.7,67.2a3.792,3.792,0,0,0-.6-1.271,3.325,3.325,0,0,0-.98-.9,2.66,2.66,0,0,0-1.354-.334,2.767,2.767,0,0,0-2.375,1.083A4.934,4.934,0,0,0,214.6,68.7a5.376,5.376,0,0,0,.208,1.584,3.5,3.5,0,0,0,.625,1.25,2.973,2.973,0,0,0,1,.833,2.824,2.824,0,0,0,1.354.313,2.774,2.774,0,0,0,1.437-.354,3.363,3.363,0,0,0,.98-.9,3.672,3.672,0,0,0,.542-1.271,7.149,7.149,0,0,0,.166-1.479m-8.729-5.667h2.354v1.542h.042a3.093,3.093,0,0,1,1.458-1.417,4.727,4.727,0,0,1,2.041-.438,5.142,5.142,0,0,1,2.334.479,4.382,4.382,0,0,1,1.646,1.292,5.389,5.389,0,0,1,.98,1.917,8.414,8.414,0,0,1,.041,4.541,6.136,6.136,0,0,1-.9,1.9,4.43,4.43,0,0,1-1.521,1.313,4.5,4.5,0,0,1-2.167.5,6.33,6.33,0,0,1-1.082-.1,4.61,4.61,0,0,1-1.042-.312,3.721,3.721,0,0,1-.917-.562,3.175,3.175,0,0,1-.709-.792H214.7v5.646h-2.5v-15.5h-.021Zm-8.4,0h1.9V59.6h2.5v3.4h2.251v1.854h-2.251v6.042a6.312,6.312,0,0,0,.042.688,1.454,1.454,0,0,0,.146.479.821.821,0,0,0,.354.291,1.857,1.857,0,0,0,.667.1,4.472,4.472,0,0,0,.521-.02,4.681,4.681,0,0,0,.521-.084v1.938c-.272.042-.542.063-.813.083a5.1,5.1,0,0,1-.813.042,5.374,5.374,0,0,1-1.583-.188,2.268,2.268,0,0,1-.937-.541,1.942,1.942,0,0,1-.458-.9,7.171,7.171,0,0,1-.146-1.25V64.866h-1.9V63.011ZM195.557,70.7a1.967,1.967,0,0,0,.833,1.541,3.276,3.276,0,0,0,1.729.438,5.737,5.737,0,0,0,.791-.063,3.463,3.463,0,0,0,.833-.208,1.458,1.458,0,0,0,.646-.458,1.065,1.065,0,0,0,.229-.771,1.122,1.122,0,0,0-.355-.792,2.956,2.956,0,0,0-.833-.5,7.322,7.322,0,0,0-1.166-.312c-.437-.083-.875-.187-1.334-.291s-.916-.229-1.354-.375a3.874,3.874,0,0,1-1.166-.6,2.6,2.6,0,0,1-.813-.959,2.992,2.992,0,0,1-.312-1.437,2.465,2.465,0,0,1,.459-1.542,3.31,3.31,0,0,1,1.146-1,5.181,5.181,0,0,1,1.541-.542,8.834,8.834,0,0,1,1.6-.146,7.2,7.2,0,0,1,1.667.187,4.209,4.209,0,0,1,1.437.6,3.3,3.3,0,0,1,1.063,1.083,3.76,3.76,0,0,1,.541,1.6h-2.6a1.6,1.6,0,0,0-.813-1.208,3.352,3.352,0,0,0-1.479-.312c-.167,0-.4.021-.625.042a3.772,3.772,0,0,0-.688.167,1.647,1.647,0,0,0-.542.354.84.84,0,0,0-.229.6.917.917,0,0,0,.313.729,2.856,2.856,0,0,0,.833.479,7.321,7.321,0,0,0,1.166.313c.438.083.9.187,1.354.291s.9.229,1.334.375a3.64,3.64,0,0,1,1.166.6,3,3,0,0,1,.833.938,2.881,2.881,0,0,1,.313,1.4,3.037,3.037,0,0,1-.457,1.709,3.9,3.9,0,0,1-1.188,1.146,5.889,5.889,0,0,1-1.624.645,8.715,8.715,0,0,1-1.771.208,7.451,7.451,0,0,1-1.979-.25,5.044,5.044,0,0,1-1.584-.729,3.5,3.5,0,0,1-1.042-1.229,4.011,4.011,0,0,1-.417-1.75h2.521V70.7h.02Zm-4.25,3.625h-2.458V72.741h-.042a3.493,3.493,0,0,1-1.375,1.375,3.634,3.634,0,0,1-1.855.521,4.126,4.126,0,0,1-3.229-1.1,4.83,4.83,0,0,1-1-3.333V63.011h2.5v6.938a2.96,2.96,0,0,0,.583,2.1,2.058,2.058,0,0,0,1.6.625,3.079,3.079,0,0,0,1.312-.25,2.26,2.26,0,0,0,.854-.646,2.529,2.529,0,0,0,.479-.979,4.629,4.629,0,0,0,.146-1.23V63.011h2.5V74.324h-.021ZM173.224,63.011h2.333V65.2h.042a2.737,2.737,0,0,1,.438-.9,3.443,3.443,0,0,1,.771-.792,3.4,3.4,0,0,1,1-.583,2.913,2.913,0,0,1,1.1-.229c.292,0,.5.021.6.021a1.79,1.79,0,0,0,.333.042v2.4a4.145,4.145,0,0,0-.541-.083,4.673,4.673,0,0,0-.542-.042,2.888,2.888,0,0,0-1.187.25,3.007,3.007,0,0,0-.979.729,3.927,3.927,0,0,0-.667,1.208,5.091,5.091,0,0,0-.251,1.667v5.374h-2.5l.042-11.25Zm-12.1-4.312h12.646v2.354h-4.979V74.324h-2.729V61.053H161.1l.021-2.354Zm0,0" transform="translate(-128.265 -47.824)"/>
      <path id="svg_2" d="M33.437,17.375H22L18.479,6.5,14.937,17.375,3.5,17.354l9.25,6.729L9.208,34.958l9.25-6.729,9.25,6.729-3.52-10.875,9.25-6.708Zm0,0" transform="translate(-3.5 -6.5)" fill="#00b67a"/>
      <path id="svg_3" d="M81.9,93.357,81.108,90.9,75.4,95.045l6.5-1.688Zm0,0" transform="translate(-60.42 -73.315)" fill="#005128"/>
    </g>
  </g>
</svg>
