<svg id="Group_14" data-name="Group 14" xmlns="http://www.w3.org/2000/svg" width="125" height="30.029" viewBox="0 0 125 30.029">
  <path id="Path_43" data-name="Path 43" d="M876.53,348.614a3.983,3.983,0,0,1-1.905,3.572,5.57,5.57,0,0,1-1.935.744,11.1,11.1,0,0,1-4.434-.031,5.868,5.868,0,0,1-1.935-.773,4.135,4.135,0,0,1-1.993-3.6h3.422a2.389,2.389,0,0,0,.268.953,1.98,1.98,0,0,0,.625.684,2.856,2.856,0,0,0,.864.387,4,4,0,0,0,1.042.12,3.692,3.692,0,0,0,.8-.09,3.39,3.39,0,0,0,.773-.267,1.552,1.552,0,0,0,.566-.506,1.363,1.363,0,0,0,.238-.8c0-.535-.357-.951-1.072-1.22a21.711,21.711,0,0,0-3.006-.8c-.536-.118-1.042-.267-1.547-.416a5.566,5.566,0,0,1-1.339-.626,3.3,3.3,0,0,1-.953-.982,2.789,2.789,0,0,1-.357-1.458,4,4,0,0,1,.506-2.084,3.6,3.6,0,0,1,1.309-1.28,5.3,5.3,0,0,1,1.816-.655,12,12,0,0,1,2.082-.178,9.7,9.7,0,0,1,2.084.207,5.309,5.309,0,0,1,1.786.686,4.138,4.138,0,0,1,1.31,1.28,4.18,4.18,0,0,1,.624,2.024h-3.423a1.586,1.586,0,0,0-.8-1.4,3.719,3.719,0,0,0-1.668-.357,4.913,4.913,0,0,0-.654.031,2.35,2.35,0,0,0-.655.178,1.552,1.552,0,0,0-.506.357,1.064,1.064,0,0,0,.149,1.428,2.982,2.982,0,0,0,.922.506,10.623,10.623,0,0,0,1.31.327c.506.089.982.209,1.488.327a13.361,13.361,0,0,1,1.547.446,4.751,4.751,0,0,1,1.339.686,3.186,3.186,0,0,1,.953,1.042A3.052,3.052,0,0,1,876.53,348.614Z" transform="translate(-751.53 -334.597)" fill="#00cdbe"/>
  <path id="Path_44" data-name="Path 44" d="M770.127,343.251a6.946,6.946,0,0,0-1.1-2.263,5.191,5.191,0,0,0-1.844-1.547,5.744,5.744,0,0,0-2.679-.6,5.1,5.1,0,0,0-2.232.476,4.129,4.129,0,0,0-1.666,1.548h-.06V339.2h-3.452v17.738h3.6V350.72h.06a4.205,4.205,0,0,0,1.7,1.459,5.621,5.621,0,0,0,4.792-.06,4.947,4.947,0,0,0,1.816-1.488,6.736,6.736,0,0,0,1.071-2.173,8.812,8.812,0,0,0,.357-2.53A10.028,10.028,0,0,0,770.127,343.251Zm-3.392,4.137a4.519,4.519,0,0,1-.536,1.339,2.835,2.835,0,0,1-.953.922,2.868,2.868,0,0,1-1.459.357,2.9,2.9,0,0,1-1.488-.357,2.678,2.678,0,0,1-.982-.922,4.519,4.519,0,0,1-.536-1.339,6.716,6.716,0,0,1-.178-1.548,9.169,9.169,0,0,1,.149-1.577,4.489,4.489,0,0,1,.536-1.339,2.912,2.912,0,0,1,.953-.951,2.816,2.816,0,0,1,1.488-.357,2.777,2.777,0,0,1,1.458.357,3.315,3.315,0,0,1,.982.951,5.043,5.043,0,0,1,.535,1.37,6.631,6.631,0,0,1,.179,1.547A8.833,8.833,0,0,1,766.734,347.387Z" transform="translate(-658.43 -334.203)" fill="#00cdbe"/>
  <path id="Path_45" data-name="Path 45" d="M652.621,339.365v1.666h-.06a3.772,3.772,0,0,0-1.666-1.458,5.554,5.554,0,0,0-4.762.06,5.645,5.645,0,0,0-1.815,1.517,6.009,6.009,0,0,0-1.1,2.173,9.175,9.175,0,0,0-.356,2.559,9.661,9.661,0,0,0,.356,2.65,7.658,7.658,0,0,0,1.1,2.262,5.21,5.21,0,0,0,1.846,1.548,5.531,5.531,0,0,0,2.589.565,5.315,5.315,0,0,0,2.321-.476,3.789,3.789,0,0,0,1.668-1.548h.059v1.666h3.423V339.365Zm.06,6.578a9.164,9.164,0,0,1-.149,1.577,3.95,3.95,0,0,1-.506,1.369,2.89,2.89,0,0,1-.953.953,2.823,2.823,0,0,1-1.487.357,2.758,2.758,0,0,1-1.43-.357,3.318,3.318,0,0,1-.982-.953,4.277,4.277,0,0,1-.565-1.369A6.574,6.574,0,0,1,646.43,346a6.708,6.708,0,0,1,.179-1.577,4.484,4.484,0,0,1,.536-1.339,2.746,2.746,0,0,1,.982-.953,2.9,2.9,0,0,1,3.929.923,3.046,3.046,0,0,1,.535,1.309A5.566,5.566,0,0,1,652.68,345.943Z" transform="translate(-559.258 -334.396)" fill="#00cdbe"/>
  <path id="Path_46" data-name="Path 46" d="M504.4,343.548v8.809h-3.572v-7.44c0-.446-.029-.864-.059-1.25a2.682,2.682,0,0,0-.268-1.011,1.68,1.68,0,0,0-.684-.684,2.311,2.311,0,0,0-1.22-.268,2.12,2.12,0,0,0-1.221.3,2.074,2.074,0,0,0-.744.773,3.25,3.25,0,0,0-.356,1.072,8.07,8.07,0,0,0-.09,1.22v7.291h-3.6v-7.38c0-.387,0-.775-.029-1.161a3.6,3.6,0,0,0-.209-1.042,1.587,1.587,0,0,0-.625-.773,2.593,2.593,0,0,0-1.994-.178,1.954,1.954,0,0,0-.8.446,2.568,2.568,0,0,0-.684.922,3.865,3.865,0,0,0-.267,1.577v7.589h-3.6V339.2h3.363v1.785h.06a5.147,5.147,0,0,1,1.726-1.577,4.763,4.763,0,0,1,2.292-.565,5.142,5.142,0,0,1,2.262.476,3.276,3.276,0,0,1,1.577,1.7,5.928,5.928,0,0,1,1.577-1.518,4.207,4.207,0,0,1,2.381-.655,6.774,6.774,0,0,1,1.935.267,4.115,4.115,0,0,1,1.517.8,3.933,3.933,0,0,1,.982,1.459A5.912,5.912,0,0,1,504.4,343.548Z" transform="translate(-421.661 -334.203)" fill="#00cdbe"/>
  <path id="Path_47" data-name="Path 47" d="M376.966,303.628v6.636h-.06a3.786,3.786,0,0,0-1.666-1.458,5.554,5.554,0,0,0-4.762.06,5.618,5.618,0,0,0-1.815,1.517,5.987,5.987,0,0,0-1.1,2.173,9.174,9.174,0,0,0-.357,2.559,9.66,9.66,0,0,0,.357,2.65,7.625,7.625,0,0,0,1.1,2.262,5.194,5.194,0,0,0,1.844,1.548,5.536,5.536,0,0,0,2.59.565,5.318,5.318,0,0,0,2.321-.476,3.786,3.786,0,0,0,1.666-1.548h.06v1.666h3.423V303.628Zm.059,11.547a9.044,9.044,0,0,1-.149,1.577,3.949,3.949,0,0,1-.5,1.369,2.915,2.915,0,0,1-.953.953,2.827,2.827,0,0,1-1.488.357,2.681,2.681,0,0,1-1.428-.357,3.3,3.3,0,0,1-.982-.953,4.281,4.281,0,0,1-.566-1.369,6.642,6.642,0,0,1-.178-1.518,6.777,6.777,0,0,1,.178-1.577,4.519,4.519,0,0,1,.535-1.339,2.75,2.75,0,0,1,.983-.953,2.9,2.9,0,0,1,3.928.923,3.029,3.029,0,0,1,.536,1.309A5.565,5.565,0,0,1,377.025,315.175Z" transform="translate(-319.942 -303.628)" fill="#00cdbe"/>
  <path id="Path_48" data-name="Path 48" d="M274.154,343.756a7.149,7.149,0,0,0-1.16-2.5,5.889,5.889,0,0,0-2.054-1.755,6.028,6.028,0,0,0-2.917-.655,6.8,6.8,0,0,0-2.737.536,6.56,6.56,0,0,0-2.114,1.458,6.709,6.709,0,0,0-1.369,2.2,7.464,7.464,0,0,0-.476,2.737,7.68,7.68,0,0,0,.476,2.8,6.511,6.511,0,0,0,1.339,2.2,5.833,5.833,0,0,0,2.113,1.4,7.569,7.569,0,0,0,2.8.506,6.8,6.8,0,0,0,3.808-1.013,5.984,5.984,0,0,0,2.352-3.392h-3.185a2.126,2.126,0,0,1-.951,1.16,3.235,3.235,0,0,1-1.875.537,3.164,3.164,0,0,1-2.352-.775,3.88,3.88,0,0,1-.922-2.53h9.494A9.487,9.487,0,0,0,274.154,343.756Zm-9.2.626a5.584,5.584,0,0,1,.179-.864,2.489,2.489,0,0,1,.476-.922,3.3,3.3,0,0,1,.922-.715,3,3,0,0,1,1.428-.3,2.567,2.567,0,0,1,1.965.715,3.861,3.861,0,0,1,.893,2.084Z" transform="translate(-228.024 -334.203)" fill="#00cdbe"/>
  <path id="Path_49" data-name="Path 49" d="M169.4,343.756a7.174,7.174,0,0,0-1.161-2.5,5.874,5.874,0,0,0-2.053-1.755,6.028,6.028,0,0,0-2.917-.655,6.8,6.8,0,0,0-2.739.536,6.555,6.555,0,0,0-2.113,1.458,6.709,6.709,0,0,0-1.369,2.2,7.438,7.438,0,0,0-.477,2.737,7.654,7.654,0,0,0,.477,2.8,6.529,6.529,0,0,0,1.338,2.2,5.838,5.838,0,0,0,2.114,1.4,7.562,7.562,0,0,0,2.8.506,6.8,6.8,0,0,0,3.81-1.013,5.983,5.983,0,0,0,2.351-3.392h-3.184a2.008,2.008,0,0,1-.953,1.16,3.232,3.232,0,0,1-1.875.537,3.161,3.161,0,0,1-2.351-.775,3.451,3.451,0,0,1-.893-2.53h9.464A9.448,9.448,0,0,0,169.4,343.756Zm-9.2.626a5.566,5.566,0,0,1,.178-.864,2.489,2.489,0,0,1,.476-.922,3.321,3.321,0,0,1,.923-.715,2.994,2.994,0,0,1,1.428-.3,2.566,2.566,0,0,1,1.964.715,4.357,4.357,0,0,1,.893,2.084Z" transform="translate(-137.077 -334.203)" fill="#00cdbe"/>
  <path id="Path_50" data-name="Path 50" d="M29.09,341.557l-4.137,13.154H21.232l-2.351-8.839h-.06l-2.2,8.839H12.869L8.7,341.557h3.81l2.41,8.928h.06l2.173-8.928h3.512l2.231,8.9h.06l2.41-8.9Z" transform="translate(-8.703 -336.557)" fill="#00cdbe"/>
  <path id="path11576" d="M394.172,479.761c7.8,0,11.756-2.977,11.756-2.977l1.666,2.262s-5.833,4.94-13.422,4.94c-7.619,0-13.422-4.94-13.422-4.94l1.666-2.262C382.417,476.814,386.375,479.761,394.172,479.761Z" transform="translate(-331.703 -453.957)"/>
</svg>
