<?xml version="1.0" encoding="utf-8"?>
<!-- Generator: Adobe Illustrator 24.2.1, SVG Export Plug-In . SVG Version: 6.00 Build 0)  -->
<svg version="1.1" id="Layer_1" xmlns="http://www.w3.org/2000/svg" xmlns:xlink="http://www.w3.org/1999/xlink" x="0px" y="0px"
	 viewBox="0 0 1000 1000" style="enable-background:new 0 0 1000 1000;" xml:space="preserve">
<style type="text/css">
	.st0{fill:#FFFFFF;}
</style>
<circle cx="500" cy="500" r="481.98"/>
<path id="path11574_1_" class="st0" d="M377.28,511.83l-33.11-124.47h-0.84l-31.01,124.47h-52.8L200.85,326.6h53.64l33.95,125.72
	h0.84l30.59-125.72h49.45l31.43,125.3h0.84l33.95-125.3h52.38l-58.25,185.23H377.28z M565.21,326.6v25.14h0.84
	c6.71-9.64,14.67-16.76,24.31-22.21c9.22-5.03,20.12-7.96,32.27-7.96c11.73,0,22.21,2.1,31.85,6.71
	c9.64,4.61,17.18,12.57,22.21,23.89c5.45-7.96,12.99-15.09,22.21-21.37c9.64-6.29,20.53-9.22,33.53-9.22
	c9.64,0,18.86,1.26,27.24,3.77c8.38,2.51,15.51,6.29,21.37,11.32c5.87,5.45,10.48,12.15,13.83,20.53
	c3.35,8.38,5.03,18.86,5.03,30.59v124.05H749.6V407.07c0-6.29-0.42-12.15-0.84-17.6c-0.42-5.45-1.68-10.06-3.77-14.25
	c-2.1-4.19-5.45-7.12-9.64-9.64c-4.19-2.51-9.64-3.77-17.18-3.77c-7.12,0-12.99,1.26-17.18,4.19c-4.61,2.93-7.96,6.29-10.48,10.9
	c-2.51,4.61-4.19,9.64-5.03,15.09c-0.84,5.45-1.26,11.31-1.26,17.18v102.67h-50.71V407.91c0-5.45,0-10.9-0.42-16.34
	s-1.26-10.48-2.93-14.67c-1.68-4.61-4.61-7.96-8.8-10.9c-4.19-2.93-10.48-4.19-18.44-4.19c-2.51,0-5.45,0.42-9.64,1.68
	c-3.77,1.26-7.96,2.93-11.32,6.29c-3.77,2.93-6.71,7.12-9.64,12.99c-2.51,5.45-3.77,12.99-3.77,22.21v106.86h-50.71V326.6
	L565.21,326.6z"/>
<path id="path11576_1_" class="st0" d="M507.33,619.54c109.8,0,165.53-41.91,165.53-41.91l23.47,31.85c0,0-82.14,69.57-189,69.57
	c-107.28,0-189-69.57-189-69.57l23.47-31.85C341.8,578.05,397.54,619.54,507.33,619.54z"/>
</svg>
