<?xml version="1.0" encoding="utf-8"?>
<!-- Generator: Adobe Illustrator 24.2.1, SVG Export Plug-In . SVG Version: 6.00 Build 0)  -->
<svg version="1.1" id="Layer_1" xmlns="http://www.w3.org/2000/svg" xmlns:xlink="http://www.w3.org/1999/xlink" x="0px" y="0px"
	 viewBox="0 0 1000 1000" style="enable-background:new 0 0 1000 1000;" xml:space="preserve">
<style type="text/css">
	.st0{fill:#FFFFFF;}
</style>
<circle cx="500" cy="500" r="481.98"/>
<g>
	<path class="st0" d="M500,260.67c32.32,0,63.66,6.32,93.15,18.8c28.5,12.05,54.09,29.31,76.08,51.3s39.25,47.58,51.3,76.08
		c12.47,29.49,18.8,60.83,18.8,93.15s-6.32,63.66-18.8,93.15c-12.05,28.5-29.31,54.09-51.3,76.08s-47.59,39.25-76.08,51.3
		c-29.49,12.47-60.83,18.8-93.15,18.8s-63.66-6.32-93.15-18.8c-28.5-12.05-54.09-29.31-76.08-51.3s-39.25-47.59-51.3-76.08
		c-12.47-29.49-18.8-60.83-18.8-93.15s6.32-63.66,18.8-93.15c12.05-28.5,29.31-54.09,51.3-76.08s47.58-39.25,76.08-51.3
		C436.34,266.99,467.68,260.67,500,260.67 M500,237.67c-144.88,0-262.33,117.45-262.33,262.33S355.12,762.33,500,762.33
		S762.33,644.88,762.33,500S644.88,237.67,500,237.67L500,237.67z"/>
</g>
<path class="st0" d="M683.19,440.41h-72.1c0,0-10.77,3.23-10.59,12.91c0.18,9.69,10.39,11.62,10.39,11.62h16.26
	c1.3,0,2.09,1.43,1.39,2.53l-77.53,121.34l-33.03-52.99c0,0,6.64-8.46,14.33-20.64c6.27-9.94,13.88-21.61,13.88-39.23
	c0-20.26-11.7-31.53-23.01-37.69c-6.86-3.73-14.43-5.75-22.01-5.94c-7.58,0.19-15.15,2.21-22.01,5.94
	c-11.31,6.16-23.01,17.43-23.01,37.69c0,17.62,7.61,29.29,13.88,39.23c7.69,12.18,14.33,20.64,14.33,20.64l-33.03,52.99
	L373.8,467.47c-0.7-1.1,0.09-2.53,1.39-2.53h16.26c0,0,10.21-1.93,10.39-11.62c0.18-9.68-10.59-12.91-10.59-12.91h-72.1
	c0,0-9.5,2.51-9.32,11.66c0.18,9.15,7.89,12.73,7.89,12.73h16.04c2.19,0,4.22,1.11,5.4,2.95L439.5,623.54c0,0,8.99,11.26,18.12,0
	c7.39-9.14,42.46-64.42,43.55-66.15c1.09,1.73,36.16,57.01,43.55,66.15c9.13,11.26,18.12,0,18.12,0l100.34-155.79
	c1.18-1.84,3.21-2.95,5.4-2.95h16.04c0,0,7.71-3.58,7.89-12.73C692.69,442.92,683.19,440.41,683.19,440.41z M479.01,478.98
	c-1.37-11.46,9.27-25.16,22-25.1c0.05,0,0.11,0,0.16,0.01c0.05-0.01,0.11-0.01,0.16-0.01c12.73-0.06,23.37,13.64,22,25.1
	c-1.36,11.46-22.16,36.28-22.16,36.28S480.37,490.44,479.01,478.98z"/>
<path d="M523.33,478.98c-1.36,11.46-22.16,36.28-22.16,36.28s-20.8-24.82-22.16-36.28c-1.37-11.46,9.27-25.16,22-25.1
	c0.05,0,0.11,0,0.16,0.01c0.05-0.01,0.11-0.01,0.16-0.01C514.06,453.82,524.7,467.52,523.33,478.98z"/>
</svg>
