<?xml version="1.0" encoding="utf-8"?>
<svg id="master-artboard" viewBox="0 0 109.31953430175781 35.14158630371094" version="1.1" xmlns="http://www.w3.org/2000/svg" x="0px" y="0px" style="enable-background:new 0 0 1400 980;" width="109.31953430175781px" height="35.14158630371094px"><rect id="ee-background" x="0" y="0" width="109.31953430175781" height="35.14158630371094" style="fill: white; fill-opacity: 0; pointer-events: none;"/><g transform="matrix(0.10804427415132523, 0, 0, 0.10804427415132523, 0.837921142578125, -32.84626770019534)"><path id="Fill-2" class="st0" d="M557.42,419.32c-1.62-1.58-3.51-2.37-5.66-2.37c-2.16,0-4.04,0.79-5.64,2.37&#10;&#9;c-1.62,1.56-2.4,3.49-2.4,5.78c0,2.18,0.75,4.07,2.32,5.65c1.56,1.56,3.45,2.35,5.72,2.35c2.16,0,4.04-0.79,5.66-2.35&#10;&#9;c1.59-1.58,2.4-3.47,2.4-5.65C559.82,422.82,559.01,420.88,557.42,419.32L557.42,419.32z M545.56,524.27h12.13v-72.88h-12.13V524.27&#10;&#9;z" style="fill-rule: evenodd; clip-rule: evenodd; fill: rgb(23, 33, 38);"/><path d="M 612.5800170898438 483.1199951171875 L 642.9400024414062 451.3900146484375 L 627.8200073242188 451.3900146484375 L 596.1900024414062 483.3900146484375 L 596.1900024414062 413.239990234375 L 584.0599975585938 413.239990234375 L 584.0599975585938 524.27001953125 L 596.1900024414062 524.27001953125 L 596.1900024414062 499.82000732421875 L 603.9600219726562 492.1300048828125 L 630.780029296875 524.27001953125 L 646.3099975585938 524.27001953125 Z" id="Fill-4" class="st0" style="fill-rule: evenodd; clip-rule: evenodd; fill: rgb(23, 33, 38);"/><path id="Fill-6" class="st0" d="M675.3,419.32c-1.59-1.58-3.48-2.37-5.64-2.37c-2.16,0-4.04,0.79-5.66,2.37&#10;&#9;c-1.59,1.56-2.4,3.49-2.4,5.78c0,2.18,0.78,4.07,2.35,5.65c1.54,1.56,3.45,2.35,5.72,2.35c2.16,0,4.04-0.79,5.64-2.35&#10;&#9;c1.62-1.58,2.4-3.47,2.4-5.65C677.7,422.82,676.91,420.88,675.3,419.32L675.3,419.32z M663.46,524.27h12.13v-72.88h-12.13V524.27z" style="fill-rule: evenodd; clip-rule: evenodd; fill: rgb(23, 33, 38);"/><path d="M 716.0900268554688 512.7000122070312 L 716.0900268554688 417.3900146484375 L 703.0900268554688 417.3900146484375 L 703.0900268554688 524.27001953125 L 769.0399780273438 524.27001953125 L 769.0399780273438 512.7000122070312 Z" id="Fill-8" class="st0" style="fill-rule: evenodd; clip-rule: evenodd; fill: rgb(23, 33, 38);"/><path id="Fill-10" class="st0" d="M795.65,482.55c0.38-6.96,2.62-12.31,6.71-16.07c4.1-3.77,9.33-5.65,15.75-5.65&#10;&#9;c6.69,0,11.81,1.96,15.4,5.92c3.56,3.96,5.45,9.22,5.64,15.8H795.65z M851.28,485.82c0-10.86-2.94-19.51-8.82-26&#10;&#9;c-5.88-6.47-13.97-9.71-24.21-9.71c-10.43,0-18.95,3.38-25.56,10.15c-6.58,6.77-9.87,15.96-9.87,27.59s3.32,20.82,9.95,27.64&#10;&#9;c6.63,6.79,15.21,10.21,25.75,10.21c8.2,0,15.21-2.16,21.06-6.49c5.82-4.34,9.49-9.82,11-16.51l-12.13-0.71&#10;&#9;c-1.24,4.09-3.59,7.29-7.06,9.58c-3.48,2.29-7.87,3.44-13.13,3.44c-6.39,0-11.67-2.02-15.8-6c-4.15-4.01-6.42-9.5-6.79-16.45h55.62&#10;&#9;V485.82z" style="fill-rule: evenodd; clip-rule: evenodd; fill: rgb(23, 33, 38);"/><path id="Fill-12" class="st0" d="M914.29,494.96c0,6.88-1.81,11.95-5.42,15.23c-3.64,3.3-8.41,4.94-14.34,4.94&#10;&#9;c-8.76,0-13.13-3.49-13.13-10.42c0-7.07,5.23-10.91,15.66-11.6l17.23-1.15V494.96z M919.3,457.47c-4.75-4.91-11.54-7.37-20.41-7.37&#10;&#9;c-8.36,0-15.1,2.56-20.17,7.72c-5.1,5.16-7.63,11.05-7.63,17.71l12.27,0.57c0-4.17,1.35-7.75,4.04-10.7&#10;&#9;c2.67-2.97,6.55-4.45,11.65-4.45c10.06,0,15.1,5.92,15.1,17.74v3.41l-18.63,1.15c-17.61,0.96-26.4,8.19-26.4,21.72&#10;&#9;c0,6.47,2.13,11.54,6.42,15.23c4.29,3.66,10,5.48,17.15,5.48c8.76,0,15.91-3.33,21.46-9.99v8.57h12.29V478.4&#10;&#9;C926.45,469.34,924.05,462.38,919.3,457.47L919.3,457.47z" style="fill-rule: evenodd; clip-rule: evenodd; fill: rgb(23, 33, 38);"/><path id="Fill-14" class="st0" d="M972.23,427.54c2.7-2.76,6.23-4.15,10.65-4.15c1.24,0,2.59,0.11,4.1,0.3v-10.72&#10;&#9;c-2.05-0.19-3.86-0.3-5.37-0.3c-7.79,0-14.02,2.37-18.63,7.09c-4.61,4.69-6.9,11.21-6.9,19.48v12.14h-13.99v10.72h13.99v62.16h12.13&#10;&#9;v-62.16h18.5v-10.72h-18.5v-12.42C968.21,434.11,969.56,430.29,972.23,427.54" style="fill-rule: evenodd; clip-rule: evenodd; fill: rgb(23, 33, 38);"/><path id="Fill-20" class="st1" d="M168.09,447.13c0,4.26-1.19,5.57-2.35,7.64c-1.7,2.95-7.63,11.46-7.63,11.46&#10;&#9;s-5.96-8.51-7.63-11.46c-1.16-2.07-2.35-3.38-2.35-7.64c0-5.57,4.48-10.1,9.98-10.1C163.61,437.03,168.09,441.56,168.09,447.13" style="fill-rule: evenodd; clip-rule: evenodd; fill: rgb(0, 147, 232);"/><path id="Fill-22" class="st1" d="M186.85,540.59l-0.13-0.16l-28.61-45.43l-28.61,45.43l-0.13,0.16L61.94,430.59h21.68l46.59,77&#10;&#9;l17.34-27.12l-0.22-0.3c-0.08-0.14-9.95-13.45-11.14-15.64c-3.4-6.14-5.07-11.43-5.07-16.18c0-6.79,2.24-12.96,5.99-17.76&#10;&#9;c4.91-6.25,12.43-10.18,21-10.18c8.55,0,16.07,3.93,20.98,10.18c3.77,4.8,5.99,10.97,5.99,17.76c0,4.75-1.64,10.04-5.07,16.18&#10;&#9;c-1.16,2.18-11.03,15.5-11.11,15.64l-0.22,0.3l17.34,27.12l46.59-77h21.68L186.85,540.59z M158.14,322.29&#10;&#9;c-79.73,0-144.38,65.41-144.38,146.09s64.65,146.09,144.38,146.09s144.35-65.41,144.35-146.09S237.87,322.29,158.14,322.29&#10;&#9;L158.14,322.29z" style="fill-rule: evenodd; clip-rule: evenodd; fill: rgb(0, 147, 232);"/><path d="M 515.530029296875 418.0199890136719 L 486.760009765625 499.9200134277344 L 458.1600036621094 418.0199890136719 L 447.4700012207031 418.0199890136719 L 419.010009765625 499.9200134277344 L 390.1000061035156 418.0199890136719 L 375.989990234375 418.0199890136719 L 413.29998779296875 522.3900146484375 L 424.25 522.3900146484375 L 452.75 441.4599914550781 L 481.3500061035156 522.3900146484375 L 492.30999755859375 522.3900146484375 L 529.47998046875 418.0199890136719 Z" id="Fill-1" class="st0" style="fill-rule: evenodd; clip-rule: evenodd; fill: rgb(23, 33, 38);"/></g></svg>