<?xml version="1.0" encoding="utf-8"?>
<!-- Generator: Adobe Illustrator 24.2.1, SVG Export Plug-In . SVG Version: 6.00 Build 0)  -->
<svg version="1.1" id="Layer_1" xmlns="http://www.w3.org/2000/svg" xmlns:xlink="http://www.w3.org/1999/xlink" x="0px" y="0px"
	 viewBox="0 0 1000 1000" style="enable-background:new 0 0 1000 1000;" xml:space="preserve">
<style type="text/css">
	.st0{fill:#FFFFFF;}
</style>
<circle cx="500" cy="500" r="493"/>
<g>
	<path class="st0" d="M762.54,500c0,138.78-107.67,252.4-244.03,261.9c-0.56,0.04-1.11,0.08-1.67,0.11
		c-1.11,0.07-2.22,0.14-3.33,0.19c-4.47,0.23-8.98,0.34-13.5,0.34c-4.52,0-9.02-0.12-13.49-0.34
		C347.79,755.19,237.46,640.48,237.46,500s110.33-255.19,249.06-262.2c4.47-0.23,8.97-0.34,13.49-0.34c4.53,0,9.03,0.12,13.5,0.34
		c1.11,0.06,2.22,0.12,3.33,0.19c0.56,0.03,1.11,0.07,1.67,0.11C654.87,247.6,762.54,361.22,762.54,500z"/>
	<path d="M707.13,386.75c1.01,7.52,1.59,15.59,1.59,24.27c0,23.95-4.47,50.88-17.95,84.55l-72.1,208.47
		C688.84,663.1,736.04,587.08,736.04,500C736.05,458.96,725.56,420.37,707.13,386.75z M707.13,386.74
		C707.13,386.74,707.13,386.74,707.13,386.74C707.13,386.74,707.13,386.74,707.13,386.74L707.13,386.74z M659.36,488.08
		L659.36,488.08c0-29.17-10.48-49.38-19.47-65.1c-11.97-19.45-23.18-35.91-23.18-55.35c0-21.7,16.46-41.9,39.64-41.9
		c1.05,0,2.04,0.13,3.06,0.19c-42-38.48-97.95-61.97-159.4-61.97c-82.47,0-155.02,42.31-197.22,106.4
		c5.54,0.17,10.76,0.28,15.19,0.28c24.69,0,62.91-2.99,62.91-2.99c12.73-0.75,14.23,17.94,1.52,19.45c0,0-12.79,1.5-27.02,2.25
		l85.96,255.68L493,490.08l-36.78-100.76c-12.71-0.74-24.75-2.25-24.75-2.25c-12.72-0.75-11.23-20.19,1.49-19.45
		c0,0,38.98,3,62.18,3c24.69,0,62.91-3,62.91-3c12.73-0.75,14.23,17.94,1.51,19.45c0,0-12.81,1.5-27.02,2.25l85.3,253.74
		l23.54-78.68C651.59,531.74,659.36,508.29,659.36,488.08z M504.15,520.64l-70.82,205.8c21.65,6.38,44.11,9.61,66.68,9.61
		c27.49,0,53.85-4.75,78.39-13.38c-0.65-1.03-1.22-2.12-1.68-3.25L504.15,520.64z M263.96,499.99c0,93.43,54.3,174.18,133.04,212.44
		l-112.6-308.5C270.9,434.15,263.93,466.89,263.96,499.99z M518.51,238.1c136.16,9.53,244.03,123.35,244.03,261.89
		c0,138.55-107.87,252.38-244.03,261.91c136.36-9.5,244.03-123.12,244.03-261.9S654.87,247.6,518.51,238.1z M618.67,704.03
		C688.84,663.1,736.04,587.08,736.04,500c0.01-41.04-10.48-79.63-28.92-113.25c1.01,7.52,1.59,15.59,1.59,24.27
		c0,23.95-4.47,50.88-17.95,84.55L618.67,704.03z M707.13,386.74C707.13,386.74,707.13,386.74,707.13,386.74
		C707.13,386.74,707.13,386.74,707.13,386.74L707.13,386.74z M302.79,370.35c5.54,0.17,10.76,0.28,15.19,0.28
		c24.69,0,62.91-2.99,62.91-2.99c12.73-0.75,14.23,17.94,1.52,19.45c0,0-12.79,1.5-27.02,2.25l85.96,255.68L493,490.08
		l-36.78-100.76c-12.71-0.74-24.75-2.25-24.75-2.25c-12.72-0.75-11.23-20.19,1.49-19.45c0,0,38.98,3,62.18,3
		c24.69,0,62.91-3,62.91-3c12.73-0.75,14.23,17.94,1.51,19.45c0,0-12.81,1.5-27.02,2.25l85.3,253.74l23.54-78.68
		c10.2-32.65,17.97-56.1,17.97-76.31h0c0-29.17-10.48-49.38-19.46-65.1c-11.97-19.45-23.18-35.91-23.18-55.35
		c0-21.7,16.46-41.9,39.64-41.9c1.05,0,2.04,0.13,3.06,0.19c-42-38.48-97.95-61.97-159.4-61.97
		C417.54,263.95,344.99,306.26,302.79,370.35z M576.71,719.42l-72.56-198.78l-70.82,205.8c21.65,6.38,44.11,9.61,66.68,9.61
		c27.49,0,53.85-4.75,78.39-13.38C577.74,721.64,577.18,720.55,576.71,719.42z M513.51,237.8c1.11,0.06,2.22,0.12,3.33,0.19
		C515.73,237.92,514.62,237.85,513.51,237.8z M516.84,762.01c-1.11,0.07-2.22,0.13-3.33,0.19
		C514.62,762.15,515.73,762.08,516.84,762.01z M237.46,499.99c0-140.24,110.53-255.15,249.05-262.19
		C347.79,244.81,237.46,359.52,237.46,499.99c-0.01,140.48,110.32,255.2,249.05,262.21C348,755.16,237.46,640.24,237.46,499.99z
		 M263.96,499.99c0,93.43,54.3,174.18,133.04,212.44l-112.6-308.5C270.9,434.15,263.93,466.89,263.96,499.99z M707.13,386.75
		c1.01,7.52,1.59,15.59,1.59,24.27c0,23.95-4.47,50.88-17.95,84.55l-72.1,208.47C688.84,663.1,736.04,587.08,736.04,500
		C736.05,458.96,725.56,420.37,707.13,386.75z M707.13,386.74C707.13,386.74,707.13,386.74,707.13,386.74
		C707.13,386.74,707.13,386.74,707.13,386.74L707.13,386.74z M576.71,719.42l-72.56-198.78l-70.82,205.8
		c21.65,6.38,44.11,9.61,66.68,9.61c27.49,0,53.85-4.75,78.39-13.38C577.74,721.64,577.18,720.55,576.71,719.42z M639.89,422.98
		c-11.97-19.45-23.18-35.91-23.18-55.35c0-21.7,16.46-41.9,39.64-41.9c1.05,0,2.04,0.13,3.06,0.19
		c-42-38.48-97.95-61.97-159.4-61.97c-82.47,0-155.02,42.31-197.22,106.4c5.54,0.17,10.76,0.28,15.19,0.28
		c24.69,0,62.91-2.99,62.91-2.99c12.73-0.75,14.23,17.94,1.52,19.45c0,0-12.79,1.5-27.02,2.25l85.96,255.68L493,490.08
		l-36.78-100.76c-12.71-0.74-24.75-2.25-24.75-2.25c-12.72-0.75-11.23-20.19,1.49-19.45c0,0,38.98,3,62.18,3
		c24.69,0,62.91-3,62.91-3c12.73-0.75,14.23,17.94,1.51,19.45c0,0-12.81,1.5-27.02,2.25l85.3,253.74l23.54-78.68
		c10.2-32.65,17.97-56.1,17.97-76.31h0C659.36,458.91,648.88,438.7,639.89,422.98z M284.4,403.93
		c-13.5,30.22-20.46,62.96-20.44,96.06c0,93.43,54.3,174.18,133.04,212.44L284.4,403.93z"/>
</g>
</svg>
