<svg xmlns="http://www.w3.org/2000/svg" width="140" height="31.765" viewBox="0 0 140 31.765">
  <g id="wordpress" transform="translate(0 -1)">
    <path id="svg_1" d="M175.615,40.43H170.1v.585c1.724,0,2,.369,2,2.555v3.941c0,2.186-.277,2.586-2,2.586-1.324-.185-2.217-.893-3.448-2.248L165.24,46.31c1.909-.339,2.924-1.539,2.924-2.894,0-1.693-1.447-2.986-4.156-2.986H158.59v.585c1.724,0,2,.369,2,2.555v3.941c0,2.186-.277,2.586-2,2.586v.585h6.127V50.1c-1.724,0-2-.4-2-2.586V46.4h.523l3.418,4.279h8.959c4.4,0,6.311-2.34,6.311-5.142s-1.909-5.111-6.312-5.111Zm-12.9,5.018V41.354h1.262a2.048,2.048,0,0,1,0,4.094Zm12.992,4.28h-.216c-1.108,0-1.262-.277-1.262-1.693V41.354h1.478c3.2,0,3.786,2.34,3.786,4.156C179.494,47.388,178.909,49.728,175.708,49.728Zm-34.266-3.14,2.124-6.281c.616-1.816.339-2.339-1.632-2.339v-.616h5.788v.616c-1.94,0-2.4.461-3.171,2.709l-3.51,10.53h-.4l-3.14-9.637-3.2,9.637h-.4l-3.417-10.529c-.739-2.248-1.231-2.709-3.018-2.709v-.616H134.3v.616c-1.817,0-2.309.431-1.663,2.339l2.063,6.281,3.11-9.237h.585Zm10.467,4.495c-3.386,0-6.157-2.494-6.157-5.542,0-3.017,2.771-5.511,6.157-5.511s6.157,2.494,6.157,5.511C158.066,48.589,155.3,51.082,151.909,51.082Zm0-10.1c-2.832,0-3.818,2.555-3.818,4.556,0,2.032.985,4.557,3.818,4.557,2.863,0,3.849-2.524,3.849-4.557C155.758,43.539,154.772,40.984,151.909,40.984Z" transform="translate(-94.418 -26.927)" fill="#00749a"/>
    <path id="svg_2" d="M346.72,50.066v.616h-7.05v-.616c2.063,0,2.433-.523,2.433-3.6V41.538c0-3.079-.37-3.571-2.433-3.571V37.35h6.373c3.171,0,4.926,1.632,4.926,3.818,0,2.124-1.755,3.787-4.926,3.787h-1.755v1.508c0,3.079.369,3.6,2.432,3.6Zm-.677-11.607h-1.755v5.357h1.755a2.406,2.406,0,0,0,2.525-2.648A2.44,2.44,0,0,0,346.043,38.458Zm26.077,9.329-.154.554c-.277,1.016-.616,1.385-2.8,1.385h-.431c-1.6,0-1.878-.369-1.878-2.555V45.756c2.4,0,2.586.215,2.586,1.816h.585V42.984h-.585c0,1.6-.185,1.816-2.586,1.816V41.353h1.693c2.186,0,2.525.369,2.8,1.385l.155.585H372l-.215-2.894h-9.052v.585c1.724,0,2,.369,2,2.555V47.51c0,2-.235,2.5-1.594,2.575-1.292-.2-2.179-.9-3.392-2.237l-1.416-1.539c1.909-.339,2.925-1.539,2.925-2.894,0-1.693-1.447-2.986-4.156-2.986h-5.419v.585c1.724,0,2,.369,2,2.555V47.51c0,2.186-.277,2.586-2,2.586v.585H357.8V50.1c-1.724,0-2-.4-2-2.586V46.4h.523l3.418,4.279H372.4l.185-2.894h-.463ZM355.8,45.447V41.353h1.262a2.048,2.048,0,0,1,0,4.094Zm22.567,5.634a4.552,4.552,0,0,1-2.771-1.047,2.21,2.21,0,0,0-.492,1.047h-.585V46.833h.616a3.416,3.416,0,0,0,3.479,3.233,1.585,1.585,0,0,0,1.786-1.478c0-.8-.708-1.416-1.97-2l-1.755-.831a3.35,3.35,0,0,1-2.155-2.956,3.023,3.023,0,0,1,3.294-2.74,3.856,3.856,0,0,1,2.4.8,1.739,1.739,0,0,0,.4-.832h.585v3.633h-.647c-.216-1.447-1.016-2.648-2.648-2.648-.862,0-1.663.492-1.663,1.263,0,.8.646,1.231,2.124,1.908l1.693.831a3.212,3.212,0,0,1,2.063,2.771A3.477,3.477,0,0,1,378.369,51.081Zm9.482,0a4.55,4.55,0,0,1-2.771-1.047,2.209,2.209,0,0,0-.492,1.047H384V46.833h.616a3.416,3.416,0,0,0,3.479,3.233,1.585,1.585,0,0,0,1.786-1.478c0-.8-.708-1.416-1.971-2l-1.755-.831A3.351,3.351,0,0,1,384,42.8a3.023,3.023,0,0,1,3.294-2.74,3.856,3.856,0,0,1,2.4.8,1.737,1.737,0,0,0,.4-.832h.585v3.633h-.646c-.216-1.447-1.016-2.648-2.648-2.648-.862,0-1.663.492-1.663,1.263,0,.8.647,1.231,2.125,1.908l1.693.831a3.212,3.212,0,0,1,2.063,2.771A3.477,3.477,0,0,1,387.852,51.081Z" transform="translate(-251.608 -26.926)" fill="#464342"/>
    <g id="svg_3" transform="translate(0 1)">
      <path id="svg_4" d="M8.708,23.333A13.628,13.628,0,0,0,16.387,35.6l-6.5-17.808A13.574,13.574,0,0,0,8.708,23.333Zm22.823-.688a7.174,7.174,0,0,0-1.124-3.758,6.378,6.378,0,0,1-1.338-3.2,2.359,2.359,0,0,1,2.288-2.418c.06,0,.118.008.177.011a13.622,13.622,0,0,0-20.585,2.565c.319.01.621.016.877.016,1.425,0,3.631-.173,3.631-.173a.563.563,0,0,1,.087,1.122s-.738.087-1.559.13L18.947,31.7l2.982-8.943-2.123-5.816c-.734-.043-1.429-.13-1.429-.13a.563.563,0,0,1,.086-1.122s2.25.173,3.589.173c1.425,0,3.631-.173,3.631-.173a.563.563,0,0,1,.087,1.122s-.74.087-1.56.13l4.924,14.647,1.359-4.541a16.452,16.452,0,0,0,1.038-4.4Z" transform="translate(-6.45 -7.45)" fill="#464342"/>
      <path id="svg_5" d="M50.5,44.775,46.415,56.653a13.629,13.629,0,0,0,8.374-.217,1.2,1.2,0,0,1-.1-.188ZM62.22,37.046a10.415,10.415,0,0,1,.092,1.4,12.853,12.853,0,0,1-1.036,4.88L57.114,55.36A13.627,13.627,0,0,0,62.22,37.046Z" transform="translate(-34.382 -27.701)" fill="#464342"/>
      <path id="svg_6" d="M15.883,1A15.883,15.883,0,1,0,31.766,16.882,15.9,15.9,0,0,0,15.883,1Zm0,31.037A15.154,15.154,0,1,1,31.036,16.882,15.172,15.172,0,0,1,15.883,32.037Z" transform="translate(0 -1)" fill="#464342"/>
    </g>
  </g>
</svg>
