<svg xmlns="http://www.w3.org/2000/svg" width="140.001" height="31.766" viewBox="0 0 140.001 31.766">
  <g id="wordpress" transform="translate(0 -0.259)">
    <path id="svg_1" d="M81.2,12.763H75.687v.585c1.724,0,2,.369,2,2.555v3.941c0,2.186-.277,2.586-2,2.586-1.324-.185-2.217-.893-3.448-2.248l-1.416-1.539c1.909-.339,2.924-1.539,2.924-2.894,0-1.693-1.447-2.986-4.156-2.986H64.172v.585c1.724,0,2,.369,2,2.555v3.941c0,2.186-.277,2.586-2,2.586v.585H70.3V22.43c-1.724,0-2-.4-2-2.586V18.736h.523l3.418,4.279H81.2c4.4,0,6.311-2.34,6.311-5.142S85.6,12.763,81.2,12.763ZM68.3,17.781V13.686H69.56a1.888,1.888,0,0,1,2,2.063,1.879,1.879,0,0,1-2,2.032ZM81.29,22.06h-.216c-1.108,0-1.262-.277-1.262-1.693V13.686H81.29c3.2,0,3.786,2.34,3.786,4.156C85.077,19.72,84.492,22.06,81.29,22.06ZM47.024,18.92l2.124-6.281c.616-1.816.339-2.339-1.632-2.339V9.684H53.3V10.3c-1.94,0-2.4.461-3.171,2.709l-3.51,10.53h-.4L43.083,13.9l-3.2,9.637h-.4L36.064,13.009c-.739-2.248-1.231-2.709-3.018-2.709V9.684h6.835V10.3c-1.817,0-2.309.431-1.663,2.339l2.063,6.281,3.11-9.237h.585l3.048,9.236Zm10.467,4.495c-3.386,0-6.157-2.494-6.157-5.542,0-3.017,2.771-5.511,6.157-5.511s6.157,2.494,6.157,5.511C63.649,20.921,60.878,23.415,57.491,23.415Zm0-10.1c-2.832,0-3.818,2.555-3.818,4.556,0,2.032.985,4.557,3.818,4.557,2.864,0,3.849-2.524,3.849-4.557,0-2-.985-4.556-3.849-4.556Z" fill="#00749a"/>
    <path id="svg_2" d="M95.113,22.4v.616h-7.05V22.4c2.063,0,2.433-.523,2.433-3.6V13.871c0-3.079-.37-3.571-2.433-3.571V9.683h6.373c3.171,0,4.926,1.632,4.926,3.818,0,2.124-1.755,3.787-4.926,3.787H92.681V18.8c0,3.079.369,3.6,2.432,3.6Zm-.677-11.607H92.681v5.357h1.755A2.406,2.406,0,0,0,96.96,13.5,2.44,2.44,0,0,0,94.436,10.792Zm26.077,9.329-.154.554c-.277,1.016-.616,1.385-2.8,1.385h-.431c-1.6,0-1.878-.369-1.878-2.555V18.089c2.4,0,2.586.215,2.586,1.816h.585V15.318h-.585c0,1.6-.185,1.816-2.586,1.816V13.686h1.693c2.186,0,2.525.369,2.8,1.385l.155.585h.492l-.215-2.894h-9.052v.585c1.724,0,2,.369,2,2.555v3.941c0,2-.235,2.5-1.594,2.575-1.292-.2-2.179-.9-3.392-2.237l-1.416-1.539c1.909-.339,2.925-1.539,2.925-2.894,0-1.693-1.447-2.986-4.156-2.986H100.07v.585c1.724,0,2,.369,2,2.555v3.941c0,2.186-.277,2.586-2,2.586v.585H106.2V22.43c-1.724,0-2-.4-2-2.586V18.736h.523l3.418,4.279h12.653l.185-2.894h-.463ZM104.2,17.781V13.686h1.262a1.888,1.888,0,0,1,2,2.063,1.879,1.879,0,0,1-2,2.032Zm22.567,5.634a4.552,4.552,0,0,1-2.771-1.047,2.21,2.21,0,0,0-.492,1.047h-.585V19.166h.616a3.416,3.416,0,0,0,3.479,3.233,1.585,1.585,0,0,0,1.786-1.478c0-.8-.708-1.416-1.97-2l-1.755-.831a3.35,3.35,0,0,1-2.155-2.956,3.023,3.023,0,0,1,3.294-2.74,3.856,3.856,0,0,1,2.4.8,1.739,1.739,0,0,0,.4-.832h.585V16h-.647c-.216-1.447-1.016-2.648-2.648-2.648-.862,0-1.663.492-1.663,1.263,0,.8.646,1.231,2.124,1.908l1.693.831a3.212,3.212,0,0,1,2.063,2.771,3.477,3.477,0,0,1-3.756,3.294Zm9.482,0a4.55,4.55,0,0,1-2.771-1.047,2.21,2.21,0,0,0-.492,1.047H132.4V19.166h.616a3.416,3.416,0,0,0,3.479,3.233,1.585,1.585,0,0,0,1.786-1.478c0-.8-.708-1.416-1.971-2l-1.755-.831a3.351,3.351,0,0,1-2.155-2.956,3.023,3.023,0,0,1,3.294-2.74,3.856,3.856,0,0,1,2.4.8,1.737,1.737,0,0,0,.4-.832h.585V16h-.646c-.216-1.447-1.016-2.648-2.648-2.648-.862,0-1.663.492-1.663,1.263,0,.8.647,1.231,2.125,1.908l1.693.831A3.212,3.212,0,0,1,140,20.121,3.477,3.477,0,0,1,136.245,23.415Z" fill="#464342"/>
    <g id="svg_3">
      <path id="svg_4" d="M2.258,16.142A13.628,13.628,0,0,0,9.937,28.4L3.438,10.6A13.574,13.574,0,0,0,2.258,16.142Zm22.823-.688A7.174,7.174,0,0,0,23.957,11.7a6.378,6.378,0,0,1-1.338-3.2,2.359,2.359,0,0,1,2.288-2.418c.06,0,.118.008.177.011A13.622,13.622,0,0,0,4.5,8.658c.319.01.621.016.877.016C6.8,8.674,9.007,8.5,9.007,8.5a.563.563,0,0,1,.087,1.122s-.738.087-1.559.13L12.5,24.512l2.982-8.943L13.355,9.753c-.734-.043-1.429-.13-1.429-.13A.563.563,0,0,1,12.012,8.5s2.25.173,3.589.173c1.425,0,3.631-.173,3.631-.173a.563.563,0,0,1,.087,1.122s-.74.087-1.56.13L22.684,24.4l1.359-4.541a16.452,16.452,0,0,0,1.038-4.4Z" fill="#464342"/>
      <path id="svg_5" d="M16.122,17.333,12.034,29.212A13.629,13.629,0,0,0,20.407,29a1.2,1.2,0,0,1-.1-.188L16.122,17.333ZM27.838,9.6a10.414,10.414,0,0,1,.092,1.4,12.853,12.853,0,0,1-1.036,4.88L22.732,27.919A13.627,13.627,0,0,0,27.838,9.6Z" fill="#464342"/>
      <path id="svg_6" d="M15.883.259A15.883,15.883,0,1,0,31.767,16.142,15.9,15.9,0,0,0,15.883.259Zm0,31.037A15.154,15.154,0,1,1,31.036,16.142,15.172,15.172,0,0,1,15.883,31.3Z" fill="#464342"/>
    </g>
  </g>
</svg>
