<?xml version="1.0" encoding="utf-8"?>
<!-- Generator: Adobe Illustrator 24.2.1, SVG Export Plug-In . SVG Version: 6.00 Build 0)  -->
<svg version="1.1" id="Layer_1" xmlns="http://www.w3.org/2000/svg" xmlns:xlink="http://www.w3.org/1999/xlink" x="0px" y="0px"
	 viewBox="0 0 1000 1000" style="enable-background:new 0 0 1000 1000;" xml:space="preserve">
<style type="text/css">
	.st0{fill:#FFFFFF;}
</style>
<circle cx="500" cy="500" r="493"/>
<path class="st0" d="M318.77,483.75c-8.49,13.59-12.05,56.35-9.09,84.7c1.03,9.35,2.74,17.15,5.19,21.83
	c3.39,6.43,9.09,10.29,15.57,10.51c4.16,0.21,6.78-0.51,85.04-25.69c0,0,34.78-11.11,34.95-11.19c8.66-2.23,14.54-10.21,15.1-20.37
	c0.56-10.46-4.8-19.68-13.72-22.99c0,0-24.53-9.99-24.57-9.99c-84.14-34.69-87.91-36.07-92.16-36.11
	C328.55,474.23,322.81,477.49,318.77,483.75 M506.95,742.3c1.37-3.95,1.54-6.65,1.76-88.9c0,0,0.17-36.32,0.21-36.71
	c0.56-8.92-5.19-17.02-14.62-20.67c-9.73-3.73-20.2-1.42-26.07,5.88c0,0-17.15,20.37-17.24,20.37
	c-58.92,69.21-61.41,72.43-62.83,76.51c-0.9,2.4-1.2,4.97-0.94,7.55c0.34,3.69,2.02,7.29,4.76,10.68
	c13.68,16.25,79.21,40.35,100.13,36.75C499.44,752.51,504.72,748.43,506.95,742.3 M639.93,713.7c19.77-7.89,62.87-62.7,65.91-83.84
	c1.07-7.33-1.24-13.68-6.3-17.71c-3.3-2.49-5.83-3.47-84.1-29.16c0,0-34.31-11.32-34.78-11.54c-8.32-3.22-17.8-0.21-24.14,7.63
	c-6.65,8.06-7.63,18.74-2.32,26.76l13.81,22.47c46.44,75.43,50,80.75,53.35,83.37C626.51,715.75,633.07,716.44,639.93,713.7
	 M599.49,519.52c88.9-21.53,92.37-22.69,95.85-25c5.4-3.65,8.11-9.69,7.63-17.07c0-0.21,0.04-0.47,0-0.73
	c-2.27-21.87-40.53-78.65-59.39-87.87c-6.69-3.22-13.38-3-18.91,0.73c-3.43,2.23-5.96,5.62-53.56,70.76c0,0-21.48,29.29-21.74,29.59
	c-5.66,6.9-5.75,16.77-0.21,25.26c5.75,8.79,15.44,13.04,24.32,10.59c0,0-0.34,0.64-0.43,0.73
	C577.41,524.83,585.21,522.9,599.49,519.52 M510.25,446.1c-1.54-35.25-12.14-192.16-13.38-199.41c-1.8-6.6-6.95-11.28-14.32-13.17
	c-22.73-5.62-109.48,18.7-125.56,35.25c-5.19,5.4-7.08,12.01-5.53,17.88c2.53,5.19,110.04,174.32,110.04,174.32
	c15.87,25.77,28.86,21.74,33.11,20.41C498.8,480.15,511.71,476.12,510.25,446.1"/>
</svg>
