<svg xmlns="http://www.w3.org/2000/svg" width="119.27" height="49" viewBox="0 0 119.27 49">
  <g id="yelp" transform="translate(-0.001 -3)">
    <path id="Path_1" data-name="Path 1" d="M118.105,20.148a13.378,13.378,0,0,0-2.555-3.642,5.774,5.774,0,0,0-.676-.562,6.106,6.106,0,0,0-.562-.388h-.04l-.051-.03a6.826,6.826,0,0,0-.647-.309h-.057a4.755,4.755,0,0,0-1.743-.333h-.248a4.75,4.75,0,0,0-1.879.519,8.079,8.079,0,0,0-1.879,1.378h-.034l-.034.034a.435.435,0,0,1-.073.067l-.107.1c-.382.359-.765.749-1.21,1.2l-.315.328q-.6.6-1.187,1.208c.122-2.127.254-4.3.359-6.465,0-.276.028-.562.051-.834a22.3,22.3,0,0,0,.057-2.841V9.353a6.974,6.974,0,0,0-1.223-4.1C103.261,4.214,101.683,3,98.68,3a14.989,14.989,0,0,0-2.031.152A19.746,19.746,0,0,0,93.39,3.9C90.047,5,88.117,6.714,87.633,9.045a7.039,7.039,0,0,0,.7,4.225l.089.215a21.45,21.45,0,0,0,1.3,2.532l.406.726q1.553,2.825,3.145,5.627l-1.611-.562-.41-.146c-.6-.219-1.125-.406-1.615-.564l-.134-.039-.1-.028h-.091a7.994,7.994,0,0,0-2.3-.41H86.9a4.568,4.568,0,0,0-1.8.359,4.763,4.763,0,0,0-1.655,1.165q-.231.273-.438.564l-.033.045-.034.051a6.574,6.574,0,0,0-.692,1.384v.034a13.278,13.278,0,0,0-.7,4.371c-1.435-5.627-6.139-9.787-11.688-9.787a11.394,11.394,0,0,0-5.728,1.566,5.667,5.667,0,0,0-7.057-.209V17.2A5.685,5.685,0,0,0,45.7,17.3v6.151a6.458,6.458,0,0,0-.455-.535,13.472,13.472,0,0,0-5.972-3.63,12.9,12.9,0,0,0-7.007.006h-.061a12.218,12.218,0,0,0-4.986,2.656,5.572,5.572,0,0,0-6.607-2.932c-2.814.85-3.94,3.585-4.626,5.217-.063.152-.119.294-.179.428-.17.406-.333.765-.462,1.053s-.251.562-.361.85c-.079.219-.146.37-.224.562q-.7-1.43-1.424-2.853l-.283-.6c-.708-1.521-1.772-3.8-4.416-4.6a5.56,5.56,0,0,0-6.753,3.169c-1.278,3.022.309,5.688,1.159,7.118.608,1.014,1.39,2.356,2.122,3.754.313.562.433.8,1.125,2.143l.1.186.878,1.688c.209.388.438.832.708,1.351.288.562.614,1.169.974,1.845-.061.085-.124.174-.2.26l-.051.061L8.626,40.6a7.368,7.368,0,0,0-1.772-.631,5.884,5.884,0,0,0-1.323-.152A5.548,5.548,0,0,0,.724,42.6,5.475,5.475,0,0,0,.8,48.163C2.486,50.975,5.925,52,8.6,52a9.823,9.823,0,0,0,2.109-.219c6.006-1.3,8.605-7.092,10.5-11.317l.382-.85q.587-1.345,1.221-2.668l.377-.828a13.142,13.142,0,0,0,1.67,3.468,14.5,14.5,0,0,0,1.5,1.875,13.829,13.829,0,0,0,1.818,1.559,12.706,12.706,0,0,0,2.088,1.175,11.168,11.168,0,0,0,2.33.789,12.711,12.711,0,0,0,1.5.274,11.382,11.382,0,0,0,1.39.063h.41a14.507,14.507,0,0,0,4.892-.844,12.417,12.417,0,0,0,2.088-.911,7.473,7.473,0,0,0,2.813-2.893,5.706,5.706,0,0,0,5.627,4.992,5.632,5.632,0,0,0,3.378-1.126v1.779a5.684,5.684,0,0,0,11.367,0V44.764a11.307,11.307,0,0,0,3.731.629c6.674,0,12.1-5.943,12.116-13.248a5.983,5.983,0,0,0,.562,1.268,4.862,4.862,0,0,0,1.38,1.423,5.065,5.065,0,0,0,2.679.85h.438a9.423,9.423,0,0,0,2.2-.315h.119l3.111-.7c-.489.676-.968,1.333-1.429,1.987l-.259.365c-.376.518-.7.974-.984,1.412l-.079.124-.057.085-.027.039v.04a8.114,8.114,0,0,0-1.037,2.11,4.732,4.732,0,0,0-.179,1.964,4.792,4.792,0,0,0,.674,1.9v.028a4.423,4.423,0,0,0,.422.562l.034.034.028.039a6.8,6.8,0,0,0,.507.529,5.712,5.712,0,0,0,.664.564,14.068,14.068,0,0,0,3.612,1.772,13.046,13.046,0,0,0,3.377.647h.328a4.639,4.639,0,0,0,.562-.028,6.41,6.41,0,0,0,.7-.1h.1a7.05,7.05,0,0,0,.7-.2h.034a4.607,4.607,0,0,0,2.752-2.717,8.1,8.1,0,0,0,.485-2.3v-.1a.525.525,0,0,0,0-.1V43.2c.049-.562.073-1.08.1-1.688v-.865l.192.347.219.412c.3.562.562,1.035.832,1.485l.069.112.061.1v.034l.03.045a8.142,8.142,0,0,0,1.563,1.784,4.7,4.7,0,0,0,1.688,1.019h.034a4.749,4.749,0,0,0,1.514.248,4.248,4.248,0,0,0,.477-.028h.052a5.96,5.96,0,0,0,.72-.124h.1a5.778,5.778,0,0,0,.682-.224,6.106,6.106,0,0,0,.771-.355,12.945,12.945,0,0,0,2.758-2.066,14.216,14.216,0,0,0,2.476-3.174,6.155,6.155,0,0,0,.586-1.481v-.1a5.982,5.982,0,0,0,.124-.708V37.9a4.832,4.832,0,0,0-.225-1.981,4.711,4.711,0,0,0-1.037-1.688,8.234,8.234,0,0,0-1.851-1.441h-.04l-.045-.027-.089-.051-.113-.075c-.449-.264-.95-.562-1.479-.82l-.438-.237Q112,31,110.925,30.457l3.084-.714h.119a8.513,8.513,0,0,0,2.5-.895,5.065,5.065,0,0,0,2.033-1.936,4.648,4.648,0,0,0,.562-1.863,8.9,8.9,0,0,0-1.119-4.9Z" transform="translate(0)" fill="rgba(255,255,255,0.96)"/>
    <path id="Path_2" data-name="Path 2" d="M67.08,30.275l1.857-.43c.039-.009.1-.024.182-.049a2.049,2.049,0,0,0,1.466-2.44l-.007-.033a2.046,2.046,0,0,0-.316-.691,2.586,2.586,0,0,0-.758-.65,7.016,7.016,0,0,0-1.077-.5l-2.036-.744c-1.142-.425-2.285-.838-3.439-1.242-.747-.265-1.381-.5-1.931-.671q-.157-.043-.312-.1a5.444,5.444,0,0,0-1.529-.291,1.819,1.819,0,0,0-.771.14,1.979,1.979,0,0,0-.671.477,4.082,4.082,0,0,0-.262.331,3.9,3.9,0,0,0-.391.779,10.566,10.566,0,0,0-.558,3.469A6.664,6.664,0,0,0,57.149,31a1.976,1.976,0,0,0,.556.6,2.366,2.366,0,0,0,1.278.358,6.476,6.476,0,0,0,1.924-.261l6.168-1.424h0ZM87.8,20.418a10.547,10.547,0,0,0-2.016-2.874,3.1,3.1,0,0,0-.343-.3,2.952,2.952,0,0,0-.731-.418,1.966,1.966,0,0,0-.81-.134,1.844,1.844,0,0,0-.756.213,5.521,5.521,0,0,0-1.247.932c-.07.07-.158.149-.239.224-.419.4-.887.883-1.444,1.45-.861.869-1.706,1.743-2.549,2.625L76.155,23.7a7.024,7.024,0,0,0-.749.92,2.589,2.589,0,0,0-.4.917,2.1,2.1,0,0,0,.018.761l.007.033a2.048,2.048,0,0,0,2.383,1.551q.094-.013.186-.036l8.027-1.855a6.445,6.445,0,0,0,1.843-.611,2.354,2.354,0,0,0,.993-.88,1.983,1.983,0,0,0,.236-.787,6.633,6.633,0,0,0-.907-3.3Zm-14.37,3.375a4.77,4.77,0,0,0,.632-2.711c.176-2.975.359-5.951.507-8.928a31.072,31.072,0,0,0,.109-3.377,4.961,4.961,0,0,0-.653-2.783c-1.044-1.357-3.272-1.245-4.792-1.034q-.7.1-1.394.262c-.462.11-.922.231-1.369.376-1.459.477-3.509,1.354-3.855,3.035a4.974,4.974,0,0,0,.626,2.789,31.11,31.11,0,0,0,1.575,2.986c1.436,2.611,2.9,5.208,4.355,7.806a4.791,4.791,0,0,0,1.752,2.16c.057.024.113.045.172.064a2.04,2.04,0,0,0,1.183.079l.07-.015a2.058,2.058,0,0,0,.95-.571c.048-.045.091-.089.134-.139Zm-.7,7.966a1.857,1.857,0,0,0-2.067-.7,1.9,1.9,0,0,0-.257.106,2.49,2.49,0,0,0-.365.228,4.821,4.821,0,0,0-.872.893,2.146,2.146,0,0,1-.2.262l-1.292,1.775c-.731,1-1.454,1.994-2.169,3.007-.468.655-.871,1.208-1.192,1.7-.06.092-.122.194-.179.277a5.462,5.462,0,0,0-.711,1.408,1.839,1.839,0,0,0-.078.793,2.022,2.022,0,0,0,.274.784c.078.119.161.236.251.347a3.943,3.943,0,0,0,.649.6,11.314,11.314,0,0,0,2.893,1.411,10.218,10.218,0,0,0,2.64.5,3.369,3.369,0,0,0,.459-.009q.212-.02.421-.06a4.01,4.01,0,0,0,.412-.119,2,2,0,0,0,.7-.447,1.823,1.823,0,0,0,.427-.67,5.545,5.545,0,0,0,.313-1.545c0-.1.019-.219.03-.328.051-.582.075-1.268.11-2.07.064-1.236.113-2.467.152-3.7l.084-2.2a5.217,5.217,0,0,0-.137-1.567,2.347,2.347,0,0,0-.3-.682Zm14.575,3.435a5.457,5.457,0,0,0-1.253-.954c-.086-.049-.189-.113-.283-.17-.5-.3-1.105-.619-1.811-1-1.084-.6-2.169-1.175-3.265-1.751L78.759,30.29a2.2,2.2,0,0,1-.3-.148,4.823,4.823,0,0,0-1.175-.419,2.491,2.491,0,0,0-.427-.045,2.163,2.163,0,0,0-.277.016,1.86,1.86,0,0,0-1.551,1.535,2.393,2.393,0,0,0,.028.737,5.189,5.189,0,0,0,.562,1.471l1.032,1.937c.576,1.092,1.157,2.177,1.754,3.26.385.705.705,1.309,1.005,1.811.057.094.121.2.17.283a5.64,5.64,0,0,0,.954,1.253,1.86,1.86,0,0,0,1.5.507,4,4,0,0,0,.422-.075,3.9,3.9,0,0,0,.822-.324,10.242,10.242,0,0,0,2.152-1.611,11.373,11.373,0,0,0,1.987-2.538,3.017,3.017,0,0,0,.191-.418,4.238,4.238,0,0,0,.13-.4,4.085,4.085,0,0,0,.072-.422,2,2,0,0,0-.094-.825,1.833,1.833,0,0,0-.418-.68Z" transform="translate(27.777 0.901)" fill="#ff1a1a"/>
    <path id="Path_3" data-name="Path 3" d="M47.542,13.514a2.9,2.9,0,0,1,2.868-2.9,2.963,2.963,0,0,1,2.869,2.923v22.63a2.869,2.869,0,1,1-5.737,0ZM44.874,27.493a2.953,2.953,0,0,1-.716,1.888,2.8,2.8,0,0,1-1.973.808q-3.076.018-6.152.022t-6.152.022a5.253,5.253,0,0,0,1.344,2.2,5.572,5.572,0,0,0,1.166.855,4.305,4.305,0,0,0,2.151.607,6.646,6.646,0,0,0,3.072-.855L37.693,33a7.574,7.574,0,0,1,2.094-.835,2.47,2.47,0,0,1,2.039.518A2.2,2.2,0,0,1,42.52,35a4.379,4.379,0,0,1-1.994,2.359,9.858,9.858,0,0,1-1.569.741,11.834,11.834,0,0,1-4.325.676,9.6,9.6,0,0,1-1.122-.045,10.179,10.179,0,0,1-1.187-.225,8.423,8.423,0,0,1-1.794-.607,9.822,9.822,0,0,1-1.636-.922,10.7,10.7,0,0,1-1.433-1.236,11.111,11.111,0,0,1-1.189-1.482,10.637,10.637,0,0,1-1.658-6.316,11.01,11.01,0,0,1,2.107-6.067,4.8,4.8,0,0,1,.456-.583c.067-.078.133-.152.194-.227A8.956,8.956,0,0,1,32,18.226l.049-.015a10.052,10.052,0,0,1,5.491,0,10.733,10.733,0,0,1,4.684,2.855,8.775,8.775,0,0,1,.65.81A10.7,10.7,0,0,1,44.6,25.481l0,.012a7.547,7.547,0,0,1,.268,2ZM31.718,23.786a5.062,5.062,0,0,0-1.748,2.831h9.772a5.215,5.215,0,0,0-1.77-2.832,5.11,5.11,0,0,0-3.138-1.123,5.026,5.026,0,0,0-3.117,1.123Zm37.16-5.957a8.748,8.748,0,0,0-6.544,3.013v-.069a2.859,2.859,0,1,0-5.715.158v21.6a2.869,2.869,0,1,0,5.737,0V35.785A8.79,8.79,0,0,0,68.9,38.8c5.133,0,9.3-4.653,9.3-10.452-.022-5.8-4.191-10.517-9.324-10.517ZM67.624,34.1a5.506,5.506,0,0,1-5.29-5.708,5.306,5.306,0,1,1,10.578,0A5.52,5.52,0,0,1,67.624,34.1ZM20.31,29.853l-.941,2.069c-.427.9-.853,1.82-1.256,2.741l-.389.865c-1.793,3.985-3.918,8.716-8.553,9.719-2.242.5-5.626-.179-6.881-2.292a2.7,2.7,0,0,1,3-4.022,5.043,5.043,0,0,1,1.126.456,3.032,3.032,0,0,0,1.945.488c.65-.112,1.053-.585,1.569-1.192A5.6,5.6,0,0,0,11.1,36.459l-.033-.078q-.016-.04-.034-.079c-.583-1.089-1.093-2.061-1.518-2.874q-.358-.688-.723-1.374L7.812,30.2c-.716-1.357-.835-1.581-1.151-2.167q-1.046-1.973-2.2-3.888c-.829-1.394-1.681-2.944-.986-4.586A2.741,2.741,0,0,1,6.84,17.987c1.442.437,2.082,1.811,2.679,3.093.109.233.215.462.325.682.963,1.91,1.9,3.821,2.846,5.731.084.189.209.447.364.764.137.28.3.607.465.966l.249.519c.1.2.182.376.245.515q.655-1.633,1.321-3.259t1.323-3.259c.012-.06.116-.292.274-.643.133-.3.3-.677.488-1.11l.189-.458c.582-1.417,1.283-3.121,2.837-3.587A2.765,2.765,0,0,1,23.471,19a2.824,2.824,0,0,1,.492,1.551,8.994,8.994,0,0,1-1.053,3.57c-.119.268-.236.525-.336.767l-.06.131c-.137.309-.51,1.144-1.151,2.52-.231.492-.453.987-.679,1.487l-.374.828Z" transform="translate(0.927 3.742)" fill-rule="evenodd"/>
  </g>
</svg>
