<svg xmlns="http://www.w3.org/2000/svg" width="100" height="50.51" viewBox="0 0 100 50.51">
  <g id="yelp" transform="translate(-5.979 -25.575)">
    <path id="Path_186" data-name="Path 186" d="M61.381,53.09a1.143,1.143,0,1,1-1.152,1.149A1.14,1.14,0,0,1,61.381,53.09Zm0,2.12a.977.977,0,1,0-.969-.97A.962.962,0,0,0,61.381,55.21Zm-.428-1.631h.486c.317,0,.466.116.466.381a.342.342,0,0,1-.35.359l.382.585h-.2l-.361-.57h-.237v.57h-.185Zm.185.589h.227c.184,0,.357-.009.357-.218,0-.184-.157-.206-.3-.206h-.284Z" transform="translate(14.255 7.23)" fill="#050505"/>
    <path id="Path_187" data-name="Path 187" d="M42.5,61.219a2.055,2.055,0,1,1-4.109,0V40.777a2.055,2.055,0,1,1,4.109,0Z" transform="translate(8.516 3.455)" fill="#050505" fill-rule="evenodd"/>
    <path id="Path_188" data-name="Path 188" d="M28.656,54.3l7.379.008c.051,0,.1,0,.153-.008a2.2,2.2,0,0,0,2-2.287V52c0-.036-.006-.069-.007-.1C37.813,44.4,33,43.31,30.811,43.31c-2.272,0-7.416,1.341-7.416,9.681.039,3.136.711,9.131,7.307,9.131,5.7,0,6.973-3.291,6.973-4.13a1.776,1.776,0,0,0-2.2-1.893c-.945.321-2.241,2.2-4.33,2.2a3.286,3.286,0,0,1-3.376-3.315C27.774,54.506,28.024,54.318,28.656,54.3Zm-.893-3.672a3.249,3.249,0,1,1,6.5.048c0,.152-.082.242-.172.242H27.941C27.842,50.913,27.752,50.813,27.762,50.623Z" transform="translate(4.576 4.66)" fill="#050505"/>
    <path id="Path_189" data-name="Path 189" d="M15.595,59.51,9.177,46.36a2.11,2.11,0,1,1,3.793-1.852L17.938,54.69,21,44.81a2.11,2.11,0,0,1,4.031,1.248s-3.437,11.24-5.5,17.7c-.684,2.136-2.475,3.2-5.158,3.131-2.654-.064-3.066-1.63-2.773-2.662a2.058,2.058,0,0,1,2.2-1.473C16.192,62.763,16.5,61.311,15.595,59.51Z" transform="translate(0.784 4.663)" fill="#050505"/>
    <path id="Path_190" data-name="Path 190" d="M60.822,51.89c0-2.7-.331-6.389-3.735-8.006a6.694,6.694,0,0,0-6.1.155,10.919,10.919,0,0,0-1.046.683,2.054,2.054,0,0,0-4.049.486V65.649a2.055,2.055,0,0,0,4.109,0V60.284a5.187,5.187,0,0,0,3.577,1.748C61.376,62.235,60.865,53.75,60.822,51.89Zm-4.069,1.56c0,1.624,0,4.538-2.952,4.538s-2.952-2.914-2.952-4.538V51.965c0-1.624,0-4.538,2.952-4.538s2.952,2.914,2.952,4.538Z" transform="translate(10.486 4.619)" fill="#050505"/>
    <path id="Path_191" data-name="Path 191" d="M63.47,42.291l7.173,3.5a1.644,1.644,0,0,1-.323,3.073l-7.743,1.93a1.648,1.648,0,0,1-2.034-1.415,14.147,14.147,0,0,1,.647-6.138A1.646,1.646,0,0,1,63.47,42.291Z" transform="translate(14.313 4.348)" fill="#d32323" fill-rule="evenodd"/>
    <path id="Path_192" data-name="Path 192" d="M65.2,55.3l5.338-5.93a1.644,1.644,0,0,1,2.865,1.158L73.128,58.5A1.646,1.646,0,0,1,71.21,60.07a14.3,14.3,0,0,1-5.718-2.314A1.648,1.648,0,0,1,65.2,55.3Z" transform="translate(15.451 6.108)" fill="#d32323" fill-rule="evenodd"/>
    <path id="Path_193" data-name="Path 193" d="M75.59,47.718l7.589,2.467a1.645,1.645,0,0,1,.977,2.272,14.282,14.282,0,0,1-3.795,4.863,1.646,1.646,0,0,1-2.444-.4l-4.23-6.769A1.645,1.645,0,0,1,75.59,47.718Z" transform="translate(17.723 5.796)" fill="#d32323" fill-rule="evenodd"/>
    <path id="Path_194" data-name="Path 194" d="M83.286,45.457l-7.671,2.2a1.644,1.644,0,0,1-1.816-2.5l4.464-6.616a1.644,1.644,0,0,1,2.449-.317,14.157,14.157,0,0,1,3.629,4.992A1.648,1.648,0,0,1,83.286,45.457Z" transform="translate(17.745 3.216)" fill="#d32323" fill-rule="evenodd"/>
    <path id="Path_195" data-name="Path 195" d="M68.071,29.276a22.937,22.937,0,0,0-3.943,1.453,1.644,1.644,0,0,0-.712,2.305l7.5,12.987a1.644,1.644,0,0,0,3.069-.822v-15a1.644,1.644,0,0,0-1.769-1.641A22.894,22.894,0,0,0,68.071,29.276Z" transform="translate(15.034 0.784)" fill="#d32323" fill-rule="evenodd"/>
  </g>
</svg>
