<svg xmlns="http://www.w3.org/2000/svg" width="100" height="41.096" viewBox="0 0 100 41.096">
  <g id="yelp" transform="translate(-0.002 -3)">
    <path id="Path_1" data-name="Path 1" d="M99.05,17.381a11.219,11.219,0,0,0-2.143-3.054,4.842,4.842,0,0,0-.567-.471,5.119,5.119,0,0,0-.471-.325h-.034l-.043-.025a5.724,5.724,0,0,0-.543-.259H95.2a3.988,3.988,0,0,0-1.462-.279h-.208a3.984,3.984,0,0,0-1.576.435,6.776,6.776,0,0,0-1.576,1.156h-.029l-.029.029a.365.365,0,0,1-.061.056l-.09.084c-.32.3-.642.628-1.015,1.006l-.264.275q-.5.5-1,1.013c.1-1.784.213-3.606.3-5.422,0-.231.023-.471.043-.7a18.7,18.7,0,0,0,.048-2.383V8.328A5.849,5.849,0,0,0,87.265,4.89,5.308,5.308,0,0,0,82.759,3a12.57,12.57,0,0,0-1.7.127,16.56,16.56,0,0,0-2.733.627c-2.8.923-4.422,2.36-4.828,4.315a5.9,5.9,0,0,0,.587,3.543l.075.18a17.99,17.99,0,0,0,1.09,2.123l.34.609q1.3,2.369,2.638,4.719l-1.351-.471-.344-.122c-.5-.184-.943-.34-1.354-.473l-.112-.033-.084-.023H74.9a6.7,6.7,0,0,0-1.929-.344H72.88a3.831,3.831,0,0,0-1.51.3,4,4,0,0,0-1.388.977q-.194.229-.367.473l-.028.038-.029.043a5.512,5.512,0,0,0-.58,1.161V20.8a11.136,11.136,0,0,0-.587,3.666c-1.2-4.719-5.149-8.208-9.8-8.208a9.556,9.556,0,0,0-4.8,1.313,4.753,4.753,0,0,0-5.918-.175V14.909a4.77,4.77,0,0,0-9.54.084v5.159a5.416,5.416,0,0,0-.382-.449,11.3,11.3,0,0,0-5.008-3.044,10.819,10.819,0,0,0-5.876.005h-.051a10.247,10.247,0,0,0-4.182,2.227,4.673,4.673,0,0,0-5.541-2.459c-2.36.713-3.3,3.007-3.88,4.375-.053.127-.1.247-.15.359-.143.34-.279.642-.387.883s-.211.471-.3.713c-.066.184-.122.31-.188.471q-.587-1.2-1.194-2.393l-.237-.5c-.594-1.276-1.486-3.187-3.7-3.858A4.663,4.663,0,0,0,1.58,19.138c-1.072,2.534.259,4.77.972,5.97.51.85,1.166,1.976,1.78,3.148.263.471.363.671.943,1.8l.084.156L6.1,31.624c.175.325.367.7.594,1.133.242.471.515.98.817,1.547a2.667,2.667,0,0,1-.168.218l-.043.051-.061-.04A6.179,6.179,0,0,0,5.749,34a4.935,4.935,0,0,0-1.11-.127A4.653,4.653,0,0,0,.608,36.211a4.592,4.592,0,0,0,.064,4.665c1.414,2.358,4.3,3.218,6.542,3.218a8.239,8.239,0,0,0,1.769-.184c5.037-1.09,7.217-5.948,8.806-9.491l.32-.713q.492-1.128,1.024-2.238l.316-.694a11.022,11.022,0,0,0,1.4,2.908,12.16,12.16,0,0,0,1.258,1.572,11.6,11.6,0,0,0,1.525,1.307,10.656,10.656,0,0,0,1.751.985,9.366,9.366,0,0,0,1.954.662,10.662,10.662,0,0,0,1.258.23,9.545,9.545,0,0,0,1.166.053H30.1a12.166,12.166,0,0,0,4.1-.708,10.413,10.413,0,0,0,1.751-.764,6.267,6.267,0,0,0,2.359-2.426,4.785,4.785,0,0,0,4.719,4.187,4.723,4.723,0,0,0,2.833-.944v1.492a4.767,4.767,0,1,0,9.533,0v-1.3a9.483,9.483,0,0,0,3.129.528c5.6,0,10.148-4.984,10.161-11.111a5.018,5.018,0,0,0,.471,1.063A4.078,4.078,0,0,0,70.321,29.7a4.248,4.248,0,0,0,2.247.713h.367a7.9,7.9,0,0,0,1.845-.264h.1l2.609-.587c-.41.567-.812,1.118-1.2,1.666l-.217.306c-.315.434-.587.817-.825,1.184l-.066.1-.048.071-.023.033v.034a6.8,6.8,0,0,0-.87,1.77,3.968,3.968,0,0,0-.15,1.647,4.019,4.019,0,0,0,.565,1.593v.023a3.709,3.709,0,0,0,.354.471l.029.029.023.033a5.7,5.7,0,0,0,.425.444,4.791,4.791,0,0,0,.557.473,11.8,11.8,0,0,0,3.029,1.486,10.941,10.941,0,0,0,2.832.543h.275a3.89,3.89,0,0,0,.471-.023,5.376,5.376,0,0,0,.587-.084h.084a5.912,5.912,0,0,0,.587-.168h.029a3.864,3.864,0,0,0,2.308-2.279,6.794,6.794,0,0,0,.407-1.929V36.9a.439.439,0,0,0,0-.084v-.107c.041-.471.061-.906.084-1.416v-.725l.161.291.184.346c.252.471.471.868.7,1.245l.058.094.051.084v.029l.025.038a6.828,6.828,0,0,0,1.311,1.5,3.942,3.942,0,0,0,1.416.855h.029a3.983,3.983,0,0,0,1.27.208,3.564,3.564,0,0,0,.4-.023h.044a5,5,0,0,0,.6-.1h.084a4.846,4.846,0,0,0,.572-.188,5.121,5.121,0,0,0,.647-.3A10.857,10.857,0,0,0,96.6,36.912a11.922,11.922,0,0,0,2.077-2.662,5.161,5.161,0,0,0,.491-1.242v-.084a5.017,5.017,0,0,0,.1-.594v-.061a4.052,4.052,0,0,0-.189-1.661,3.951,3.951,0,0,0-.87-1.416,6.905,6.905,0,0,0-1.552-1.209H96.63l-.038-.023-.075-.043-.095-.063c-.377-.221-.8-.471-1.24-.688l-.367-.2q-.885-.486-1.786-.942l2.586-.6h.1a7.139,7.139,0,0,0,2.1-.751,4.248,4.248,0,0,0,1.7-1.624,3.9,3.9,0,0,0,.471-1.562,7.464,7.464,0,0,0-.938-4.109Z" transform="translate(0)" fill="rgba(255,255,255,0.96)"/>
    <path id="Path_2" data-name="Path 2" d="M65.374,26.17l1.557-.361c.033-.008.084-.02.153-.041a1.718,1.718,0,0,0,1.229-2.046l-.006-.028a1.716,1.716,0,0,0-.265-.58,2.169,2.169,0,0,0-.636-.545,5.884,5.884,0,0,0-.9-.419L64.8,21.526c-.958-.356-1.916-.7-2.884-1.042-.626-.222-1.158-.419-1.619-.563q-.132-.036-.262-.084a4.566,4.566,0,0,0-1.282-.244,1.526,1.526,0,0,0-.647.117,1.66,1.66,0,0,0-.563.4,3.423,3.423,0,0,0-.22.278,3.271,3.271,0,0,0-.328.653,8.861,8.861,0,0,0-.468,2.909,5.589,5.589,0,0,0,.522,2.826,1.657,1.657,0,0,0,.466.5,1.984,1.984,0,0,0,1.072.3,5.431,5.431,0,0,0,1.614-.219l5.173-1.194h0ZM82.751,17.9a8.845,8.845,0,0,0-1.691-2.41,2.6,2.6,0,0,0-.288-.252,2.476,2.476,0,0,0-.613-.351,1.649,1.649,0,0,0-.679-.112,1.547,1.547,0,0,0-.634.179,4.63,4.63,0,0,0-1.046.782c-.059.059-.133.125-.2.188-.351.335-.744.741-1.211,1.216-.722.729-1.431,1.462-2.138,2.2l-1.266,1.312a5.891,5.891,0,0,0-.628.772,2.171,2.171,0,0,0-.335.769,1.761,1.761,0,0,0,.015.638l.006.028a1.718,1.718,0,0,0,2,1.3,1.476,1.476,0,0,0,.156-.03l6.732-1.556a5.405,5.405,0,0,0,1.546-.512,1.974,1.974,0,0,0,.833-.738,1.663,1.663,0,0,0,.2-.66,5.563,5.563,0,0,0-.761-2.768ZM70.7,20.734a4,4,0,0,0,.53-2.274c.148-2.5.3-4.991.425-7.488a26.059,26.059,0,0,0,.091-2.832A4.16,4.16,0,0,0,71.2,5.807c-.876-1.138-2.744-1.044-4.019-.867q-.587.084-1.169.22c-.387.092-.773.194-1.148.315-1.224.4-2.943,1.136-3.233,2.545a4.171,4.171,0,0,0,.525,2.339,26.088,26.088,0,0,0,1.321,2.5c1.2,2.19,2.432,4.368,3.652,6.547A4.018,4.018,0,0,0,68.6,21.221c.048.02.095.038.144.054a1.711,1.711,0,0,0,.992.066l.059-.013a1.726,1.726,0,0,0,.8-.479,1.475,1.475,0,0,0,.112-.117Zm-.587,6.681a1.557,1.557,0,0,0-1.734-.587,1.594,1.594,0,0,0-.216.089,2.088,2.088,0,0,0-.306.191,4.043,4.043,0,0,0-.731.749,1.8,1.8,0,0,1-.168.22l-1.084,1.489c-.613.839-1.219,1.672-1.819,2.522-.392.549-.73,1.013-1,1.426-.05.077-.1.163-.15.232a4.581,4.581,0,0,0-.6,1.181,1.542,1.542,0,0,0-.065.665,1.7,1.7,0,0,0,.23.658,3.559,3.559,0,0,0,.21.291,3.307,3.307,0,0,0,.544.5,9.488,9.488,0,0,0,2.426,1.183,8.57,8.57,0,0,0,2.214.419,2.825,2.825,0,0,0,.385-.008q.178-.017.353-.05a3.364,3.364,0,0,0,.346-.1,1.677,1.677,0,0,0,.587-.375,1.529,1.529,0,0,0,.358-.562,4.65,4.65,0,0,0,.262-1.3c0-.084.016-.184.025-.275.043-.488.063-1.063.092-1.736.054-1.037.095-2.069.127-3.1l.07-1.845a4.375,4.375,0,0,0-.115-1.314,1.968,1.968,0,0,0-.252-.572ZM82.336,30.3a4.577,4.577,0,0,0-1.051-.8c-.072-.041-.159-.095-.237-.143-.419-.252-.927-.519-1.519-.839-.909-.5-1.819-.985-2.738-1.468l-1.622-.863a1.845,1.845,0,0,1-.252-.124,4.045,4.045,0,0,0-.985-.351,2.089,2.089,0,0,0-.358-.038,1.814,1.814,0,0,0-.232.013,1.56,1.56,0,0,0-1.3,1.287,2.007,2.007,0,0,0,.023.618,4.352,4.352,0,0,0,.471,1.234l.866,1.624c.483.916.97,1.826,1.471,2.734.323.591.591,1.1.843,1.519.048.079.1.168.143.237a4.73,4.73,0,0,0,.8,1.051,1.56,1.56,0,0,0,1.258.425,3.353,3.353,0,0,0,.354-.063,3.271,3.271,0,0,0,.689-.272,8.59,8.59,0,0,0,1.8-1.351A9.538,9.538,0,0,0,82.43,32.6a2.533,2.533,0,0,0,.16-.351q.063-.165.109-.335a3.427,3.427,0,0,0,.06-.354,1.677,1.677,0,0,0-.079-.692,1.537,1.537,0,0,0-.351-.57Z" transform="translate(14.179 0.46)" fill="#ff1a1a"/>
    <path id="Path_3" data-name="Path 3" d="M40.177,13.046a2.432,2.432,0,0,1,2.405-2.432,2.485,2.485,0,0,1,2.406,2.451V32.044a2.406,2.406,0,1,1-4.812,0ZM37.939,24.77a2.477,2.477,0,0,1-.6,1.583,2.348,2.348,0,0,1-1.655.678q-2.58.015-5.159.018t-5.159.018a4.405,4.405,0,0,0,1.127,1.845,4.673,4.673,0,0,0,.978.717,3.61,3.61,0,0,0,1.8.509,5.574,5.574,0,0,0,2.576-.717l.066-.034a6.352,6.352,0,0,1,1.756-.7,2.071,2.071,0,0,1,1.71.434,1.845,1.845,0,0,1,.582,1.943,3.673,3.673,0,0,1-1.672,1.978,8.268,8.268,0,0,1-1.316.621,9.925,9.925,0,0,1-3.627.567,8.051,8.051,0,0,1-.941-.038,8.537,8.537,0,0,1-1-.189,7.064,7.064,0,0,1-1.5-.509,8.237,8.237,0,0,1-1.372-.773,8.974,8.974,0,0,1-1.2-1.037,9.319,9.319,0,0,1-1-1.243,8.921,8.921,0,0,1-1.39-5.3,9.234,9.234,0,0,1,1.767-5.088,4.025,4.025,0,0,1,.382-.489c.056-.065.112-.127.163-.19A7.511,7.511,0,0,1,27.142,17l.041-.013a8.43,8.43,0,0,1,4.605,0,9,9,0,0,1,3.928,2.394,7.36,7.36,0,0,1,.545.679,8.974,8.974,0,0,1,1.448,3.023v.01a6.329,6.329,0,0,1,.225,1.677ZM26.906,21.661a4.245,4.245,0,0,0-1.466,2.374h8.2a4.374,4.374,0,0,0-1.484-2.375,4.286,4.286,0,0,0-2.632-.942,4.215,4.215,0,0,0-2.614.942Zm31.165-5a7.337,7.337,0,0,0-5.488,2.527v-.058a2.4,2.4,0,1,0-4.793.133V37.382a2.406,2.406,0,1,0,4.812,0V31.724a7.372,7.372,0,0,0,5.488,2.529c4.3,0,7.8-3.9,7.8-8.766-.018-4.864-3.515-8.82-7.82-8.82ZM57.019,30.311a4.618,4.618,0,0,1-4.437-4.787,4.45,4.45,0,1,1,8.871,0A4.629,4.629,0,0,1,57.019,30.311Zm-39.68-3.562-.789,1.735c-.358.755-.715,1.526-1.053,2.3l-.326.725c-1.5,3.342-3.286,7.31-7.173,8.151-1.88.419-4.718-.15-5.771-1.922a2.264,2.264,0,0,1,2.516-3.373,4.229,4.229,0,0,1,.944.382,2.543,2.543,0,0,0,1.631.409c.545-.094.883-.491,1.316-1a4.7,4.7,0,0,0,.981-1.867l-.028-.065q-.013-.034-.029-.066c-.489-.913-.917-1.728-1.273-2.41q-.3-.577-.606-1.152L6.857,27.04c-.6-1.138-.7-1.326-.965-1.817q-.877-1.655-1.845-3.261c-.7-1.169-1.41-2.469-.827-3.846A2.3,2.3,0,0,1,6.041,16.8c1.209.366,1.746,1.519,2.247,2.594.091.2.18.387.273.572.808,1.6,1.593,3.2,2.387,4.806.07.159.175.375.305.641.115.235.252.509.39.81l.209.435c.084.168.153.315.205.432q.549-1.37,1.108-2.733t1.11-2.733c.01-.05.1-.245.23-.539.112-.252.252-.568.409-.931l.159-.384c.488-1.188,1.076-2.617,2.379-3.008a2.319,2.319,0,0,1,2.538.888,2.368,2.368,0,0,1,.413,1.3,7.543,7.543,0,0,1-.883,2.994c-.1.225-.2.44-.282.643l-.05.11c-.115.259-.428.959-.965,2.113-.194.413-.38.828-.569,1.247l-.314.694Z" transform="translate(0.473 1.91)" fill-rule="evenodd"/>
  </g>
</svg>
